<svg xmlns="http://www.w3.org/2000/svg" xmlns:xlink="http://www.w3.org/1999/xlink" width="56.5" height="57.087" viewBox="0 0 56.5 57.087">
  <defs>
    <linearGradient id="linear-gradient" x1="14.212" y1="-21.678" x2="16.425" y2="-19.465" gradientUnits="objectBoundingBox">
      <stop offset="0" stop-color="#ffd03f"/>
      <stop offset="0.197" stop-color="#fcc939"/>
      <stop offset="0.464" stop-color="#f5b82a"/>
      <stop offset="0.771" stop-color="#ea9c12"/>
      <stop offset="0.899" stop-color="#e58e06"/>
      <stop offset="1" stop-color="#df8800"/>
    </linearGradient>
    <linearGradient id="linear-gradient-2" x1="18.831" y1="-24.147" x2="21.043" y2="-21.934" xlink:href="#linear-gradient"/>
    <linearGradient id="linear-gradient-3" x1="23.5" y1="-25.672" x2="25.713" y2="-23.459" xlink:href="#linear-gradient"/>
    <linearGradient id="linear-gradient-4" x1="28.006" y1="-26.158" x2="30.219" y2="-23.945" xlink:href="#linear-gradient"/>
    <linearGradient id="linear-gradient-5" x1="32.096" y1="-25.591" x2="34.308" y2="-23.378" xlink:href="#linear-gradient"/>
    <linearGradient id="linear-gradient-6" x1="-0.552" y1="-0.552" x2="1.661" y2="1.661" xlink:href="#linear-gradient"/>
    <linearGradient id="linear-gradient-7" x1="0.736" y1="-5.25" x2="2.949" y2="-3.037" xlink:href="#linear-gradient"/>
    <linearGradient id="linear-gradient-8" x1="2.978" y1="-9.945" x2="5.191" y2="-7.732" xlink:href="#linear-gradient"/>
    <linearGradient id="linear-gradient-9" x1="6.09" y1="-14.381" x2="8.303" y2="-12.168" xlink:href="#linear-gradient"/>
    <linearGradient id="linear-gradient-10" x1="9.904" y1="-18.365" x2="12.117" y2="-16.152" xlink:href="#linear-gradient"/>
    <linearGradient id="linear-gradient-11" x1="35.599" y1="-23.981" x2="37.812" y2="-21.769" xlink:href="#linear-gradient"/>
    <linearGradient id="linear-gradient-12" x1="38.323" y1="-21.441" x2="40.536" y2="-19.228" xlink:href="#linear-gradient"/>
    <linearGradient id="linear-gradient-13" x1="40.114" y1="-18.072" x2="42.327" y2="-15.859" xlink:href="#linear-gradient"/>
    <linearGradient id="linear-gradient-14" x1="40.92" y1="-14.039" x2="43.133" y2="-11.827" xlink:href="#linear-gradient"/>
    <linearGradient id="linear-gradient-15" x1="40.667" y1="-9.572" x2="42.88" y2="-7.359" xlink:href="#linear-gradient"/>
    <linearGradient id="linear-gradient-16" x1="39.391" y1="-4.872" x2="41.604" y2="-2.659" xlink:href="#linear-gradient"/>
    <linearGradient id="linear-gradient-17" x1="37.127" y1="-0.188" x2="39.34" y2="2.025" xlink:href="#linear-gradient"/>
    <linearGradient id="linear-gradient-18" x1="34.024" y1="4.268" x2="36.237" y2="6.481" xlink:href="#linear-gradient"/>
    <linearGradient id="linear-gradient-19" x1="30.223" y1="8.237" x2="32.436" y2="10.45" xlink:href="#linear-gradient"/>
    <linearGradient id="linear-gradient-20" x1="25.893" y1="11.545" x2="28.106" y2="13.758" xlink:href="#linear-gradient"/>
    <linearGradient id="linear-gradient-21" x1="21.29" y1="14.034" x2="23.503" y2="16.246" xlink:href="#linear-gradient"/>
    <linearGradient id="linear-gradient-22" x1="16.615" y1="15.548" x2="18.828" y2="17.76" xlink:href="#linear-gradient"/>
    <linearGradient id="linear-gradient-23" x1="12.122" y1="16.037" x2="14.335" y2="18.25" xlink:href="#linear-gradient"/>
    <linearGradient id="linear-gradient-24" x1="8.009" y1="15.459" x2="10.222" y2="17.672" xlink:href="#linear-gradient"/>
    <linearGradient id="linear-gradient-25" x1="4.515" y1="13.869" x2="6.728" y2="16.082" xlink:href="#linear-gradient"/>
    <linearGradient id="linear-gradient-26" x1="1.804" y1="11.313" x2="4.017" y2="13.525" xlink:href="#linear-gradient"/>
    <linearGradient id="linear-gradient-27" x1="-0.009" y1="7.939" x2="2.204" y2="10.152" xlink:href="#linear-gradient"/>
    <linearGradient id="linear-gradient-28" x1="-0.799" y1="3.926" x2="1.414" y2="6.139" xlink:href="#linear-gradient"/>
    <linearGradient id="linear-gradient-29" x1="0.209" y1="0.021" x2="0.792" y2="0.98" gradientUnits="objectBoundingBox">
      <stop offset="0" stop-color="#86cfd5"/>
      <stop offset="0.209" stop-color="#38a1ab"/>
      <stop offset="0.389" stop-color="#3ca4ac"/>
      <stop offset="0.803" stop-color="#195b61"/>
      <stop offset="0.899" stop-color="#426467"/>
      <stop offset="1" stop-color="#196a71"/>
    </linearGradient>
  </defs>
  <g id="classic" transform="translate(-383 -279)">
    <g id="Group_53699" data-name="Group 53699" transform="translate(383 279)">
      <circle id="Ellipse_390" data-name="Ellipse 390" cx="3.101" cy="3.101" r="3.101" transform="translate(2.792 15.28) rotate(-4.493)" fill="url(#linear-gradient)"/>
      <circle id="Ellipse_391" data-name="Ellipse 391" cx="3.101" cy="3.101" r="3.101" transform="matrix(0.557, -0.83, 0.83, 0.557, 0, 24.187)" fill="url(#linear-gradient-2)"/>
      <circle id="Ellipse_392" data-name="Ellipse 392" cx="3.101" cy="3.101" r="3.101" transform="translate(0.584 25.727)" fill="url(#linear-gradient-3)"/>
      <circle id="Ellipse_393" data-name="Ellipse 393" cx="3.101" cy="3.101" r="3.101" transform="translate(0.195 35.85) rotate(-65.486)" fill="url(#linear-gradient-4)"/>
      <circle id="Ellipse_394" data-name="Ellipse 394" cx="3.101" cy="3.101" r="3.101" transform="matrix(0.993, -0.122, 0.122, 0.993, 2.671, 36.828)" fill="url(#linear-gradient-5)"/>
      <g id="Group_53698" data-name="Group 53698" transform="translate(2.356 0)">
        <circle id="Ellipse_395" data-name="Ellipse 395" cx="3.101" cy="3.101" r="3.101" transform="translate(21.82 2.808) rotate(-26.922)" fill="url(#linear-gradient-6)"/>
        <circle id="Ellipse_396" data-name="Ellipse 396" cx="3.101" cy="3.101" r="3.101" transform="translate(16.888 7.273) rotate(-79.531)" fill="url(#linear-gradient-7)"/>
        <circle id="Ellipse_397" data-name="Ellipse 397" cx="3.101" cy="3.101" r="3.101" transform="translate(11.515 4.378) rotate(-14.397)" fill="url(#linear-gradient-8)"/>
        <circle id="Ellipse_398" data-name="Ellipse 398" cx="3.101" cy="3.101" r="3.101" transform="translate(7.175 12.271) rotate(-83.366)" fill="url(#linear-gradient-9)"/>
        <circle id="Ellipse_399" data-name="Ellipse 399" cx="3.101" cy="3.101" r="3.101" transform="translate(2.492 12.25) rotate(-29.067)" fill="url(#linear-gradient-10)"/>
        <circle id="Ellipse_400" data-name="Ellipse 400" cx="3.101" cy="3.101" r="3.101" transform="translate(2.352 43.702) rotate(-38.433)" fill="url(#linear-gradient-11)"/>
        <circle id="Ellipse_401" data-name="Ellipse 401" cx="3.101" cy="3.101" r="3.101" transform="translate(7.175 45.386) rotate(-6.634)" fill="url(#linear-gradient-12)"/>
        <circle id="Ellipse_402" data-name="Ellipse 402" cx="3.101" cy="3.101" r="3.101" transform="matrix(0.781, -0.624, 0.624, 0.781, 10.931, 50.557)" fill="url(#linear-gradient-13)"/>
        <circle id="Ellipse_403" data-name="Ellipse 403" cx="3.101" cy="3.101" r="3.101" transform="translate(16.283 54.07) rotate(-60.891)" fill="url(#linear-gradient-14)"/>
        <circle id="Ellipse_404" data-name="Ellipse 404" cx="3.101" cy="3.101" r="3.101" transform="translate(22.47 56.106) rotate(-81.659)" fill="url(#linear-gradient-15)"/>
        <circle id="Ellipse_405" data-name="Ellipse 405" cx="3.101" cy="3.101" r="3.101" transform="translate(28.258 49.889) rotate(-2.191)" fill="url(#linear-gradient-16)"/>
        <circle id="Ellipse_406" data-name="Ellipse 406" cx="3.101" cy="3.101" r="3.101" transform="translate(33.242 48.333) rotate(-6.783)" fill="url(#linear-gradient-17)"/>
        <circle id="Ellipse_407" data-name="Ellipse 407" cx="3.101" cy="3.101" r="3.101" transform="translate(37.943 50.853) rotate(-83.75)" fill="url(#linear-gradient-18)"/>
        <circle id="Ellipse_408" data-name="Ellipse 408" cx="3.101" cy="3.101" r="3.101" transform="translate(41.003 45.222) rotate(-58.43)" fill="url(#linear-gradient-19)"/>
        <circle id="Ellipse_409" data-name="Ellipse 409" cx="3.101" cy="3.101" r="3.101" transform="translate(44.897 42.406) rotate(-86.021)" fill="url(#linear-gradient-20)"/>
        <circle id="Ellipse_410" data-name="Ellipse 410" cx="3.101" cy="3.101" r="3.101" transform="translate(45.914 32.8) rotate(-24.786)" fill="url(#linear-gradient-21)"/>
        <circle id="Ellipse_411" data-name="Ellipse 411" cx="3.101" cy="3.101" r="3.101" transform="translate(47.547 25.727)" fill="url(#linear-gradient-22)"/>
        <circle id="Ellipse_412" data-name="Ellipse 412" cx="3.101" cy="3.101" r="3.101" transform="translate(46.728 26.228) rotate(-86.167)" fill="url(#linear-gradient-23)"/>
        <circle id="Ellipse_413" data-name="Ellipse 413" cx="3.101" cy="3.101" r="3.101" transform="translate(44.753 20.833) rotate(-83.07)" fill="url(#linear-gradient-24)"/>
        <circle id="Ellipse_414" data-name="Ellipse 414" cx="3.101" cy="3.101" r="3.101" transform="matrix(0.961, -0.277, 0.277, 0.961, 41.43, 11.332)" fill="url(#linear-gradient-25)"/>
        <circle id="Ellipse_415" data-name="Ellipse 415" cx="3.101" cy="3.101" r="3.101" transform="translate(37.925 6.827) rotate(-6.634)" fill="url(#linear-gradient-26)"/>
        <circle id="Ellipse_416" data-name="Ellipse 416" cx="3.101" cy="3.101" r="3.101" transform="translate(32.965 8.929) rotate(-76.912)" fill="url(#linear-gradient-27)"/>
        <circle id="Ellipse_417" data-name="Ellipse 417" cx="3.101" cy="3.101" r="3.101" transform="translate(27.23 5.887) rotate(-59.522)" fill="url(#linear-gradient-28)"/>
        <g id="Group_53628" data-name="Group 53628" transform="translate(0 4.021)" opacity="0.25" style="mix-blend-mode: soft-light;isolation: isolate">
          <ellipse id="Ellipse_418" data-name="Ellipse 418" cx="25.988" cy="25.398" rx="25.988" ry="25.398" fill="#fee" opacity="0"/>
          <ellipse id="Ellipse_419" data-name="Ellipse 419" cx="25.898" cy="25.307" rx="25.898" ry="25.307" transform="translate(0.091 0.091)" fill="#fee" opacity="0.077"/>
          <ellipse id="Ellipse_420" data-name="Ellipse 420" cx="25.807" cy="25.216" rx="25.807" ry="25.216" transform="translate(0.182 0.182)" fill="#fee" opacity="0.154"/>
          <ellipse id="Ellipse_421" data-name="Ellipse 421" cx="25.716" cy="25.125" rx="25.716" ry="25.125" transform="translate(0.273 0.273)" fill="#fee" opacity="0.231"/>
          <ellipse id="Ellipse_422" data-name="Ellipse 422" cx="25.625" cy="25.034" rx="25.625" ry="25.034" transform="translate(0.363 0.363)" fill="#fee" opacity="0.308"/>
          <ellipse id="Ellipse_423" data-name="Ellipse 423" cx="25.534" cy="24.944" rx="25.534" ry="24.944" transform="translate(0.454 0.454)" fill="#fee" opacity="0.385"/>
          <ellipse id="Ellipse_424" data-name="Ellipse 424" cx="25.443" cy="24.853" rx="25.443" ry="24.853" transform="translate(0.545 0.545)" fill="#fee" opacity="0.462"/>
          <ellipse id="Ellipse_425" data-name="Ellipse 425" cx="25.352" cy="24.762" rx="25.352" ry="24.762" transform="translate(0.636 0.636)" fill="#fee" opacity="0.538"/>
          <ellipse id="Ellipse_426" data-name="Ellipse 426" cx="25.261" cy="24.671" rx="25.261" ry="24.671" transform="translate(0.727 0.727)" fill="#fee" opacity="0.615"/>
          <ellipse id="Ellipse_427" data-name="Ellipse 427" cx="25.171" cy="24.58" rx="25.171" ry="24.58" transform="translate(0.818 0.818)" fill="#fee" opacity="0.692"/>
          <ellipse id="Ellipse_428" data-name="Ellipse 428" cx="25.08" cy="24.489" rx="25.08" ry="24.489" transform="translate(0.909 0.909)" fill="#fee" opacity="0.769"/>
          <ellipse id="Ellipse_429" data-name="Ellipse 429" cx="24.989" cy="24.398" rx="24.989" ry="24.398" transform="translate(1 1)" fill="#fee" opacity="0.846"/>
          <ellipse id="Ellipse_430" data-name="Ellipse 430" cx="24.898" cy="24.307" rx="24.898" ry="24.307" transform="translate(1.09 1.09)" fill="#fee" opacity="0.923"/>
          <ellipse id="Ellipse_431" data-name="Ellipse 431" cx="24.807" cy="24.217" rx="24.807" ry="24.217" transform="translate(1.181 1.181)" fill="#fee"/>
        </g>
        <circle id="Ellipse_432" data-name="Ellipse 432" cx="24.807" cy="24.807" r="24.807" transform="translate(1.181 4.021)" fill="url(#linear-gradient-29)"/>
      </g>
    </g>
    <text id="كلاسيكية" transform="translate(389 311.021)" fill="#efefef" font-size="10" font-family="Cairo-Bold, Cairo" font-weight="700"><tspan x="0" y="0">كلاسيكية</tspan></text>
  </g>
</svg>
