<svg xmlns="http://www.w3.org/2000/svg" width="291.117" height="211" viewBox="0 0 291.117 211">
  <g id="control-panel" transform="translate(-528 -130)">
    <g id="Visual4" transform="translate(753.209 242.194)">
      <g id="Group_53709" data-name="Group 53709" transform="translate(0 0)">
        <g id="Group_53708" data-name="Group 53708" transform="translate(0.219)">
          <rect id="Rectangle_1780" data-name="Rectangle 1780" width="56.957" height="56.957" rx="4.706" fill="#7b7d7c"/>
          <g id="Group_53707" data-name="Group 53707" transform="translate(7.441 7.441)">
            <rect id="Rectangle_1781" data-name="Rectangle 1781" width="42.315" height="42.075" fill="#fff" opacity="0.25"/>
            <path id="Path_16948" data-name="Path 16948" d="M317.423,299.932l10.773-8.857,3.522,2.836,11.155-9.422,5.479,5.394,11.386-9.549v19.6Z" transform="translate(-317.423 -257.908)" fill="#fff" opacity="0.25"/>
            <path id="Path_16949" data-name="Path 16949" d="M317.423,295.911l9.121-17.111,10.657,1.665,7.961-10.405,8.207,1.473,6.369-6.366v30.745Z" transform="translate(-317.423 -253.887)" fill="#fff" opacity="0.25"/>
            <path id="Path_16950" data-name="Path 16950" d="M317.423,303.819l21.037-2.6,6.824-3.417,7.349.741,7.1-3.546v8.819Z" transform="translate(-317.423 -261.795)" fill="#fff" opacity="0.25"/>
          </g>
        </g>
        <path id="Path_16951" data-name="Path 16951" d="M358.445,240v5.909a3.838,3.838,0,0,1-3.7,3.645H313.614V266.81a3.509,3.509,0,0,1-3.645,3.322H307v-26.9A3.466,3.466,0,0,1,310.675,240Z" transform="translate(-307 -239.775)" opacity="0.2" style="isolation: isolate"/>
      </g>
    </g>
    <g id="Visual3" transform="translate(684.06 193.827)">
      <g id="Group_53714" data-name="Group 53714" transform="translate(0 0)">
        <g id="Group_53713" data-name="Group 53713">
          <rect id="Rectangle_1782" data-name="Rectangle 1782" width="56.957" height="56.957" rx="4.706" fill="#7b7d7c"/>
          <g id="Group_53712" data-name="Group 53712" transform="translate(5.964 5.94)">
            <rect id="Rectangle_1783" data-name="Rectangle 1783" width="15.985" height="9.579" rx="0.871" transform="translate(14.404)" fill="#fff" opacity="0.8"/>
            <rect id="Rectangle_1784" data-name="Rectangle 1784" width="12.928" height="7.313" rx="0.871" transform="translate(6.244 20.603)" fill="#fff" opacity="0.6"/>
            <rect id="Rectangle_1785" data-name="Rectangle 1785" width="12.928" height="7.313" rx="0.871" transform="translate(25.858 20.603)" fill="#fff" opacity="0.6"/>
            <g id="Group_53710" data-name="Group 53710" transform="translate(19.94 36.077)">
              <rect id="Rectangle_1786" data-name="Rectangle 1786" width="6.786" height="6.246" rx="0.871" fill="#fff" opacity="0.4"/>
              <rect id="Rectangle_1787" data-name="Rectangle 1787" width="6.786" height="6.246" rx="0.871" transform="translate(8.618)" fill="#fff" opacity="0.4"/>
              <rect id="Rectangle_1788" data-name="Rectangle 1788" width="6.786" height="6.246" rx="0.871" transform="translate(17.235)" fill="#fff" opacity="0.4"/>
            </g>
            <rect id="Rectangle_1789" data-name="Rectangle 1789" width="6.786" height="6.246" rx="0.871" transform="translate(0 36.077)" fill="#fff" opacity="0.4"/>
            <rect id="Rectangle_1790" data-name="Rectangle 1790" width="6.786" height="6.246" rx="0.871" transform="translate(9.353 36.077)" fill="#fff" opacity="0.4"/>
            <g id="Group_53711" data-name="Group 53711" transform="translate(2.921 9.579)" opacity="0.3">
              <path id="Path_16952" data-name="Path 16952" d="M257.108,206.024h.735v-5.145h-9.554V195h-.735v5.879H238v5.145h.735v-4.41h18.373Z" transform="translate(-228.446 -195)" fill="#fff"/>
              <path id="Path_16953" data-name="Path 16953" d="M234.554,224.41H225v3.675h.735v-2.94h8.819v2.94h.735V220h-.735Z" transform="translate(-225 -201.627)" fill="#fff"/>
              <path id="Path_16954" data-name="Path 16954" d="M261.554,225.145V220h-.735v5.145H252v2.94h.735v-2.2h8.084v2.2h.735v-2.2h8.084v2.2h.735v-2.94Z" transform="translate(-232.157 -201.627)" fill="#fff"/>
            </g>
          </g>
        </g>
        <path id="Path_16955" data-name="Path 16955" d="M274.1,177.373v16.47h-40.37A3.858,3.858,0,0,1,230,190.2V174h40.943A3.142,3.142,0,0,1,274.1,177.373Z" transform="translate(-217.441 -173.914)" opacity="0.2" style="isolation: isolate"/>
      </g>
    </g>
    <g id="Visual2" transform="translate(762.028 168.925)">
      <g id="Group_53723" data-name="Group 53723">
        <g id="Group_53722" data-name="Group 53722" transform="translate(0.131 0.137)">
          <rect id="Rectangle_1791" data-name="Rectangle 1791" width="56.957" height="56.957" rx="4.706" fill="#7b7d7c"/>
          <g id="Group_53721" data-name="Group 53721" transform="translate(7.321 7.441)">
            <rect id="Rectangle_1792" data-name="Rectangle 1792" width="42.315" height="42.075" fill="#fff" opacity="0.25"/>
            <g id="Group_53720" data-name="Group 53720" transform="translate(4.319 6.196)">
              <g id="Group_53715" data-name="Group 53715" transform="translate(0 19.668)">
                <rect id="Rectangle_1793" data-name="Rectangle 1793" width="4.261" height="10.926" fill="#fff" opacity="0.35"/>
                <rect id="Rectangle_1794" data-name="Rectangle 1794" width="4.261" height="16.211" fill="#fff" opacity="0.35"/>
              </g>
              <g id="Group_53716" data-name="Group 53716" transform="translate(7.354 12.01)">
                <rect id="Rectangle_1795" data-name="Rectangle 1795" width="4.261" height="16.088" fill="#fff" opacity="0.35"/>
                <rect id="Rectangle_1796" data-name="Rectangle 1796" width="4.261" height="23.869" fill="#fff" opacity="0.35"/>
              </g>
              <g id="Group_53717" data-name="Group 53717" transform="translate(14.708 16.72)">
                <rect id="Rectangle_1797" data-name="Rectangle 1797" width="4.261" height="12.913" fill="#fff" opacity="0.35"/>
                <rect id="Rectangle_1798" data-name="Rectangle 1798" width="4.261" height="19.159" fill="#fff" opacity="0.35"/>
              </g>
              <g id="Group_53718" data-name="Group 53718" transform="translate(22.062 10.105)">
                <rect id="Rectangle_1799" data-name="Rectangle 1799" width="4.261" height="17.371" fill="#fff" opacity="0.35"/>
                <rect id="Rectangle_1800" data-name="Rectangle 1800" width="4.261" height="25.774" fill="#fff" opacity="0.35"/>
              </g>
              <g id="Group_53719" data-name="Group 53719" transform="translate(29.416)">
                <rect id="Rectangle_1801" data-name="Rectangle 1801" width="4.261" height="24.182" fill="#fff" opacity="0.35"/>
                <rect id="Rectangle_1802" data-name="Rectangle 1802" width="4.261" height="35.879" fill="#fff" opacity="0.35"/>
              </g>
            </g>
          </g>
        </g>
        <path id="Path_16956" data-name="Path 16956" d="M334.434,140v31.161a3.471,3.471,0,0,1-3.55,3.381H319V143.594A3.692,3.692,0,0,1,322.586,140Z" transform="translate(-319 -140)" opacity="0.2" style="isolation: isolate"/>
      </g>
    </g>
    <g id="Visual1" transform="translate(715.193 130)">
      <g id="Group_53725" data-name="Group 53725">
        <path id="Path_16991" data-name="Path 16991" d="M4.424,0H52.533a4.424,4.424,0,0,1,4.424,4.424V52.533a4.424,4.424,0,0,1-4.424,4.424H4.424A4.424,4.424,0,0,1,0,52.533V4.424A4.424,4.424,0,0,1,4.424,0Z" fill="#7b7d7c"/>
        <g id="Group_53724" data-name="Group 53724" transform="translate(7.05 7.05)">
          <circle id="Ellipse_433" data-name="Ellipse 433" cx="18.678" cy="18.678" r="18.678" transform="matrix(0.16, -0.987, 0.987, 0.16, 0, 36.873)" fill="#7b7d7c" opacity="0.25"/>
          <path id="Path_16957" data-name="Path 16957" d="M287.286,119.049l18.349,3.489a18.678,18.678,0,1,1-18.349-22.167Z" transform="translate(-265.857 -97.62)" fill="#7b7d7c" opacity="0.25"/>
          <path id="Path_16958" data-name="Path 16958" d="M287.286,119.049l-.054,18.678a18.678,18.678,0,0,1,.054-37.355Z" transform="translate(-265.857 -97.62)" fill="#7b7d7c" opacity="0.25"/>
          <path id="Path_16959" data-name="Path 16959" d="M290.471,119.049l-9.844-15.872a18.678,18.678,0,0,1,9.784-2.805Z" transform="translate(-269.043 -97.62)" fill="#7b7d7c" opacity="0.25"/>
        </g>
      </g>
    </g>
    <g id="Script" transform="translate(528 154.943)">
      <g id="Group_53733" data-name="Group 53733" transform="translate(0 0)">
        <g id="Group_53730" data-name="Group 53730">
          <rect id="Rectangle_1804" data-name="Rectangle 1804" width="98.172" height="168.183" rx="2.372" fill="#7b7d7c"/>
          <rect id="Rectangle_1805" data-name="Rectangle 1805" width="98.172" height="168.183" rx="2.372" fill="#fff" opacity="0.7" style="isolation: isolate"/>
        </g>
        <g id="Group_53731" data-name="Group 53731" transform="translate(6.666 5.315)">
          <rect id="Rectangle_1806" data-name="Rectangle 1806" width="18.489" height="2.507" transform="translate(0 15.991)" fill="#7b7d7c"/>
          <rect id="Rectangle_1807" data-name="Rectangle 1807" width="18.489" height="2.507" transform="translate(0 21.632)" fill="#7b7d7c"/>
          <rect id="Rectangle_1808" data-name="Rectangle 1808" width="18.489" height="2.507" transform="translate(65.85 15.991)" fill="#7b7d7c"/>
          <rect id="Rectangle_1809" data-name="Rectangle 1809" width="18.489" height="2.507" transform="translate(31.379 4.387)" fill="#7b7d7c"/>
          <rect id="Rectangle_1810" data-name="Rectangle 1810" width="84.339" height="2.507" fill="#7b7d7c"/>
          <rect id="Rectangle_1811" data-name="Rectangle 1811" width="74.932" height="2.507" transform="translate(9.407 29.457)" fill="#7b7d7c"/>
          <rect id="Rectangle_1812" data-name="Rectangle 1812" width="84.339" height="2.507" transform="translate(0 34.471)" fill="#7b7d7c"/>
          <rect id="Rectangle_1813" data-name="Rectangle 1813" width="84.339" height="2.507" transform="translate(0 39.485)" fill="#7b7d7c"/>
          <rect id="Rectangle_1814" data-name="Rectangle 1814" width="84.339" height="2.507" transform="translate(0 44.499)" fill="#7b7d7c"/>
          <rect id="Rectangle_1815" data-name="Rectangle 1815" width="74.932" height="2.507" transform="translate(0 49.513)" fill="#7b7d7c"/>
          <rect id="Rectangle_1816" data-name="Rectangle 1816" width="74.932" height="2.507" transform="translate(9.407 58.619)" fill="#7b7d7c"/>
          <rect id="Rectangle_1817" data-name="Rectangle 1817" width="84.339" height="2.507" transform="translate(0 63.633)" fill="#7b7d7c"/>
          <rect id="Rectangle_1818" data-name="Rectangle 1818" width="84.339" height="2.507" transform="translate(0 68.647)" fill="#7b7d7c"/>
          <rect id="Rectangle_1819" data-name="Rectangle 1819" width="84.339" height="2.507" transform="translate(0 73.661)" fill="#7b7d7c"/>
          <rect id="Rectangle_1820" data-name="Rectangle 1820" width="74.932" height="2.507" transform="translate(0 78.675)" fill="#7b7d7c"/>
          <rect id="Rectangle_1821" data-name="Rectangle 1821" width="74.932" height="2.507" transform="translate(9.407 87.781)" fill="#7b7d7c"/>
          <rect id="Rectangle_1822" data-name="Rectangle 1822" width="84.339" height="2.507" transform="translate(0 92.795)" fill="#7b7d7c"/>
          <rect id="Rectangle_1823" data-name="Rectangle 1823" width="84.339" height="2.507" transform="translate(0 97.809)" fill="#7b7d7c"/>
          <rect id="Rectangle_1824" data-name="Rectangle 1824" width="84.339" height="2.507" transform="translate(0 102.823)" fill="#7b7d7c"/>
          <rect id="Rectangle_1825" data-name="Rectangle 1825" width="74.932" height="2.507" transform="translate(0 107.837)" fill="#7b7d7c"/>
          <rect id="Rectangle_1826" data-name="Rectangle 1826" width="74.932" height="2.507" transform="translate(9.407 117.884)" fill="#7b7d7c"/>
          <rect id="Rectangle_1827" data-name="Rectangle 1827" width="84.339" height="2.507" transform="translate(0 122.898)" fill="#7b7d7c"/>
          <rect id="Rectangle_1828" data-name="Rectangle 1828" width="84.339" height="2.507" transform="translate(0 127.912)" fill="#7b7d7c"/>
          <rect id="Rectangle_1829" data-name="Rectangle 1829" width="84.339" height="2.507" transform="translate(0 132.926)" fill="#7b7d7c"/>
          <rect id="Rectangle_1830" data-name="Rectangle 1830" width="74.932" height="2.507" transform="translate(0 137.94)" fill="#7b7d7c"/>
          <rect id="Rectangle_1831" data-name="Rectangle 1831" width="18.489" height="2.507" transform="translate(65.85 152.394)" fill="#7b7d7c"/>
        </g>
        <g id="Group_53732" data-name="Group 53732" transform="translate(6.666 5.315)" opacity="0.2" style="isolation: isolate">
          <rect id="Rectangle_1832" data-name="Rectangle 1832" width="18.489" height="2.507" transform="translate(0 15.991)" fill="#fff"/>
          <rect id="Rectangle_1833" data-name="Rectangle 1833" width="18.489" height="2.507" transform="translate(0 21.632)" fill="#fff"/>
          <rect id="Rectangle_1834" data-name="Rectangle 1834" width="18.489" height="2.507" transform="translate(65.85 15.991)" fill="#fff"/>
          <rect id="Rectangle_1835" data-name="Rectangle 1835" width="18.489" height="2.507" transform="translate(31.379 4.387)" fill="#fff"/>
          <rect id="Rectangle_1836" data-name="Rectangle 1836" width="84.339" height="2.507" fill="#fff"/>
          <rect id="Rectangle_1837" data-name="Rectangle 1837" width="74.932" height="2.507" transform="translate(9.407 29.457)" fill="#fff"/>
          <rect id="Rectangle_1838" data-name="Rectangle 1838" width="84.339" height="2.507" transform="translate(0 34.471)" fill="#fff"/>
          <rect id="Rectangle_1839" data-name="Rectangle 1839" width="84.339" height="2.507" transform="translate(0 39.485)" fill="#fff"/>
          <rect id="Rectangle_1840" data-name="Rectangle 1840" width="84.339" height="2.507" transform="translate(0 44.499)" fill="#fff"/>
          <rect id="Rectangle_1841" data-name="Rectangle 1841" width="74.932" height="2.507" transform="translate(0 49.513)" fill="#fff"/>
          <rect id="Rectangle_1842" data-name="Rectangle 1842" width="74.932" height="2.507" transform="translate(9.407 58.619)" fill="#fff"/>
          <rect id="Rectangle_1843" data-name="Rectangle 1843" width="84.339" height="2.507" transform="translate(0 63.633)" fill="#fff"/>
          <rect id="Rectangle_1844" data-name="Rectangle 1844" width="84.339" height="2.507" transform="translate(0 68.647)" fill="#fff"/>
          <rect id="Rectangle_1845" data-name="Rectangle 1845" width="84.339" height="2.507" transform="translate(0 73.661)" fill="#fff"/>
          <rect id="Rectangle_1846" data-name="Rectangle 1846" width="74.932" height="2.507" transform="translate(0 78.675)" fill="#fff"/>
          <rect id="Rectangle_1847" data-name="Rectangle 1847" width="74.932" height="2.507" transform="translate(9.407 87.781)" fill="#fff"/>
          <rect id="Rectangle_1848" data-name="Rectangle 1848" width="84.339" height="2.507" transform="translate(0 92.795)" fill="#fff"/>
          <rect id="Rectangle_1849" data-name="Rectangle 1849" width="84.339" height="2.507" transform="translate(0 97.809)" fill="#fff"/>
          <rect id="Rectangle_1850" data-name="Rectangle 1850" width="84.339" height="2.507" transform="translate(0 102.823)" fill="#fff"/>
          <rect id="Rectangle_1851" data-name="Rectangle 1851" width="74.932" height="2.507" transform="translate(0 107.837)" fill="#fff"/>
          <rect id="Rectangle_1852" data-name="Rectangle 1852" width="74.932" height="2.507" transform="translate(9.407 117.884)" fill="#fff"/>
          <rect id="Rectangle_1853" data-name="Rectangle 1853" width="84.339" height="2.507" transform="translate(0 122.898)" fill="#fff"/>
          <rect id="Rectangle_1854" data-name="Rectangle 1854" width="84.339" height="2.507" transform="translate(0 127.912)" fill="#fff"/>
          <rect id="Rectangle_1855" data-name="Rectangle 1855" width="84.339" height="2.507" transform="translate(0 132.926)" fill="#fff"/>
          <rect id="Rectangle_1856" data-name="Rectangle 1856" width="74.932" height="2.507" transform="translate(0 137.94)" fill="#fff"/>
          <rect id="Rectangle_1857" data-name="Rectangle 1857" width="18.489" height="2.507" transform="translate(65.85 152.394)" fill="#fff"/>
        </g>
      </g>
    </g>
    <g id="Data4" transform="translate(574.141 284.949)">
      <g id="Group_53736" data-name="Group 53736" transform="translate(0 0)">
        <rect id="Rectangle_1858" data-name="Rectangle 1858" width="56.731" height="47.131" rx="2.369" opacity="0.1" style="isolation: isolate"/>
        <g id="Group_53734" data-name="Group 53734" transform="translate(6.997 8.92)">
          <rect id="Rectangle_1859" data-name="Rectangle 1859" width="56.731" height="47.131" rx="2.369" fill="#7b7d7c"/>
          <rect id="Rectangle_1860" data-name="Rectangle 1860" width="56.731" height="47.131" rx="2.369" fill="#fff" opacity="0.3" style="isolation: isolate"/>
        </g>
        <g id="Group_53735" data-name="Group 53735" transform="translate(12.546 14.759)">
          <rect id="Rectangle_1861" data-name="Rectangle 1861" width="11.281" height="5.641" transform="translate(0 21.623)" fill="#7b7d7c"/>
          <rect id="Rectangle_1862" data-name="Rectangle 1862" width="31.964" height="5.641" transform="translate(12.222 21.623)" fill="#7b7d7c"/>
          <rect id="Rectangle_1863" data-name="Rectangle 1863" width="11.281" height="6.581" transform="translate(0 14.102)" fill="#7b7d7c"/>
          <rect id="Rectangle_1864" data-name="Rectangle 1864" width="11.281" height="5.641" transform="translate(0 7.521)" fill="#7b7d7c"/>
          <rect id="Rectangle_1865" data-name="Rectangle 1865" width="31.964" height="6.581" transform="translate(12.222 14.102)" fill="#7b7d7c"/>
          <rect id="Rectangle_1866" data-name="Rectangle 1866" width="31.964" height="6.581" transform="translate(12.222 28.204)" fill="#7b7d7c"/>
          <rect id="Rectangle_1867" data-name="Rectangle 1867" width="31.964" height="5.641" transform="translate(12.222 7.521)" fill="#7b7d7c"/>
          <rect id="Rectangle_1868" data-name="Rectangle 1868" width="11.281" height="6.581" transform="translate(0 28.204)" fill="#7b7d7c"/>
          <rect id="Rectangle_1869" data-name="Rectangle 1869" width="11.281" height="6.581" fill="#7b7d7c"/>
          <rect id="Rectangle_1870" data-name="Rectangle 1870" width="31.964" height="6.581" transform="translate(12.222)" fill="#7b7d7c"/>
        </g>
      </g>
    </g>
    <g id="Data3" transform="translate(590.377 201.232)">
      <g id="Group_53739" data-name="Group 53739" transform="translate(0)">
        <rect id="Rectangle_1871" data-name="Rectangle 1871" width="56.731" height="47.131" rx="2.369" transform="translate(0 2.227)" opacity="0.1" style="isolation: isolate"/>
        <g id="Group_53737" data-name="Group 53737" transform="translate(10.503)">
          <rect id="Rectangle_1872" data-name="Rectangle 1872" width="56.731" height="47.131" rx="2.369" fill="#7b7d7c"/>
          <rect id="Rectangle_1873" data-name="Rectangle 1873" width="56.731" height="47.131" rx="2.369" fill="#fff" opacity="0.3" style="isolation: isolate"/>
        </g>
        <g id="Group_53738" data-name="Group 53738" transform="translate(16.992 6.345)">
          <rect id="Rectangle_1874" data-name="Rectangle 1874" width="14.102" height="6.581" transform="translate(30.084)" fill="#7b7d7c"/>
          <rect id="Rectangle_1875" data-name="Rectangle 1875" width="14.102" height="6.581" transform="translate(15.042)" fill="#7b7d7c"/>
          <rect id="Rectangle_1876" data-name="Rectangle 1876" width="14.102" height="28.204" transform="translate(15.042 6.581)" fill="#7b7d7c"/>
          <rect id="Rectangle_1877" data-name="Rectangle 1877" width="14.102" height="28.204" transform="translate(30.084 6.581)" fill="#7b7d7c"/>
          <rect id="Rectangle_1878" data-name="Rectangle 1878" width="14.102" height="6.581" fill="#7b7d7c"/>
          <rect id="Rectangle_1879" data-name="Rectangle 1879" width="14.102" height="28.204" transform="translate(0 6.581)" fill="#7b7d7c"/>
        </g>
      </g>
    </g>
    <g id="Data2" transform="translate(608.147 249.882)">
      <g id="Group_53742" data-name="Group 53742" transform="translate(0 0)">
        <rect id="Rectangle_1880" data-name="Rectangle 1880" width="56.731" height="47.131" rx="2.369" transform="translate(0 3.041)" opacity="0.1" style="isolation: isolate"/>
        <g id="Group_53740" data-name="Group 53740" transform="translate(19.056 0.019)">
          <rect id="Rectangle_1881" data-name="Rectangle 1881" width="56.731" height="47.131" rx="2.369" fill="#7b7d7c"/>
          <rect id="Rectangle_1882" data-name="Rectangle 1882" width="56.731" height="47.131" rx="2.369" fill="#fff" opacity="0.3" style="isolation: isolate"/>
        </g>
        <g id="Group_53741" data-name="Group 53741" transform="translate(25.545 6.581)">
          <rect id="Rectangle_1883" data-name="Rectangle 1883" width="21.623" height="15.982" transform="translate(22.563)" fill="#7b7d7c"/>
          <rect id="Rectangle_1884" data-name="Rectangle 1884" width="21.623" height="15.982" fill="#7b7d7c"/>
          <rect id="Rectangle_1885" data-name="Rectangle 1885" width="21.623" height="17.862" transform="translate(0 16.922)" fill="#7b7d7c"/>
          <rect id="Rectangle_1886" data-name="Rectangle 1886" width="21.623" height="17.862" transform="translate(22.563 16.922)" fill="#7b7d7c"/>
        </g>
        <path id="Path_16990" data-name="Path 16990" d="M223.5,230.247v31.6H204.014A3.9,3.9,0,0,1,200,257.651V228h21.689C222.92,228,223.5,229.015,223.5,230.247Z" transform="translate(-148.131 -228)" opacity="0.2" style="isolation: isolate"/>
      </g>
    </g>
    <g id="Data1" transform="translate(609.335 150.683)">
      <g id="Group_53745" data-name="Group 53745" transform="translate(0 0)">
        <rect id="Rectangle_1887" data-name="Rectangle 1887" width="56.731" height="47.131" rx="2.369" transform="translate(0 8.466)" opacity="0.1" style="isolation: isolate"/>
        <g id="Group_53743" data-name="Group 53743" transform="translate(9.407)">
          <rect id="Rectangle_1888" data-name="Rectangle 1888" width="56.731" height="47.131" rx="2.369" fill="#7b7d7c"/>
          <rect id="Rectangle_1889" data-name="Rectangle 1889" width="56.731" height="47.131" rx="2.369" fill="#fff" opacity="0.3" style="isolation: isolate"/>
        </g>
        <g id="Group_53744" data-name="Group 53744" transform="translate(15.896 6.128)">
          <rect id="Rectangle_1890" data-name="Rectangle 1890" width="17.862" height="4.701" transform="translate(15.982)" fill="#7b7d7c"/>
          <rect id="Rectangle_1891" data-name="Rectangle 1891" width="8.461" height="29.144" transform="translate(15.982 5.641)" fill="#7b7d7c"/>
          <rect id="Rectangle_1892" data-name="Rectangle 1892" width="9.401" height="4.701" transform="translate(34.784)" fill="#7b7d7c"/>
          <rect id="Rectangle_1893" data-name="Rectangle 1893" width="9.401" height="29.144" transform="translate(34.784 5.641)" fill="#7b7d7c"/>
          <rect id="Rectangle_1894" data-name="Rectangle 1894" width="8.461" height="29.144" transform="translate(25.383 5.641)" fill="#7b7d7c"/>
          <rect id="Rectangle_1895" data-name="Rectangle 1895" width="15.042" height="29.144" transform="translate(0 5.641)" fill="#7b7d7c"/>
          <rect id="Rectangle_1896" data-name="Rectangle 1896" width="15.042" height="4.701" fill="#7b7d7c"/>
        </g>
      </g>
    </g>
  </g>
</svg>
