<svg xmlns="http://www.w3.org/2000/svg" xmlns:xlink="http://www.w3.org/1999/xlink" width="483.189" height="437.243" viewBox="0 0 483.189 437.243">
  <defs>
    <linearGradient id="linear-gradient" x1="0.5" y1="0.016" x2="0.5" y2="0.999" gradientUnits="objectBoundingBox">
      <stop offset="0" stop-color="#b86f6f"/>
      <stop offset="1" stop-color="#e09687"/>
    </linearGradient>
  </defs>
  <g id="Group_52710" data-name="Group 52710" transform="translate(-30.612 -18.238)">
    <g id="Group_52690" data-name="Group 52690" transform="translate(164.92 155.228)">
      <path id="Path_1547" data-name="Path 1547" d="M136.554,201.158s1.626.3,8.485,16.122,15.882,33.08,15.882,33.08l-12.945,8.761-10.108-20.793Z" transform="translate(-47.502 -137.311)" fill="#e09687"/>
      <path id="Path_1548" data-name="Path 1548" d="M152.853,231.737a22.8,22.8,0,0,1-5.327,6.116c-3.83,3.229-6.935,3.58-6.935,3.58l-2.831-5.823Z" transform="translate(-47.394 -134.593)" fill="#b86f6f"/>
      <path id="Path_1549" data-name="Path 1549" d="M136.246,200.193c1.689.437,3.7.91,7.18,9.067,5.753,13.481,10.46,24.32,10.46,24.32s-5.6,6.929-17.64,9.544Z" transform="translate(-47.529 -137.397)" fill="#efe817"/>
      <path id="Path_1550" data-name="Path 1550" d="M151.065,236.243c-2.43,1.761-6.97,2.768-8.325,1.414-1.494-1.494-1.494-3.124-2.445-16a88.665,88.665,0,0,0-4.05-21.466v42.931A35.47,35.47,0,0,0,151.065,236.243Z" transform="translate(-47.529 -137.397)" fill="#efe817"/>
      <path id="Path_1551" data-name="Path 1551" d="M84.664,342.048l-9.147,72.993,9.291,1.67,16.32-72.9Z" transform="translate(-52.928 -124.785)" fill="#e09687"/>
      <path id="Path_1552" data-name="Path 1552" d="M100.41,343.806l-.551,2.47S90,347.428,83.6,344.814l.346-2.766Z" transform="translate(-52.21 -124.786)" fill="#b86f6f"/>
      <path id="Path_1553" data-name="Path 1553" d="M116.792,343.429l3.755,71.63H130.3l2.888-73.216Z" transform="translate(-49.259 -124.804)" fill="#e09687"/>
      <path id="Path_1554" data-name="Path 1554" d="M120.547,415.059h1.406l-1.387-68.512s8.905-.773,12.539-2.686l.079-2.018-16.392,1.586Z" transform="translate(-49.259 -124.804)" fill="#b86f6f"/>
      <path id="Path_1555" data-name="Path 1555" d="M89.172,283.145s-8.132,61.926-8.013,63.23,20.409,3.086,21.478,2.73,11.272-48.057,11.272-48.057,3.01,46.655,3.6,47.486,21.671-1.209,22.265-2.277.247-63.916.247-63.916Z" transform="translate(-52.427 -130.094)" fill="#4d65a9"/>
      <path id="Path_1556" data-name="Path 1556" d="M81.159,346.314c.079.877,9.238,1.965,15.581,2.48l.271-.127c-8.018-.528-11.015-2.593-10.86-4.919S87.82,329.41,87.82,329.41s6.266,1.867,11.881-1.188c6.511-3.543,6.393-8.7,6.393-8.7-9.366,9.342-18.274,5.267-18.274,5.267l5.149-41.766h0l-3.8.06S81.04,345.01,81.159,346.314Z" transform="translate(-52.427 -130.033)" fill="#3e5191"/>
      <path id="Path_1557" data-name="Path 1557" d="M124.574,346.713c-.014,0-4.947-.509-5.638-1.971s-6.123-36.508-7.7-45.221c0,0,3.01,46.655,3.6,47.486C115.109,347.386,119.659,347.165,124.574,346.713Z" transform="translate(-49.753 -128.566)" fill="#3e5191"/>
      <path id="Path_1558" data-name="Path 1558" d="M111.917,307.249c.817-3.766,1.337-6.2,1.337-6.2s.217,3.349.544,8.266c1.441,1.415,3.481,3.059,5.293,3.194,3.137.234,19.44-16.134,20.334-17.035-.026-7.7-.057-13.132-.057-13.132l-50.852.8s5.717,5.713,8.681,7.205S111.917,307.249,111.917,307.249Z" transform="translate(-51.772 -130.094)" fill="#3e5191"/>
      <path id="Path_1559" data-name="Path 1559" d="M120.223,404.745c1.2,0,2.857,4.925,4.168,4.925s4.715-7.127,6.124-7.212,2.966,4.993,4.767,6.713,12.939,5.24,15.232,5.732,3.276,1.879,3.276,4.38H117.6a12.194,12.194,0,0,1,.785-5.854C119.611,410.4,119.026,404.745,120.223,404.745Z" transform="translate(-49.194 -119.415)" fill="#302a68"/>
      <path id="Path_1560" data-name="Path 1560" d="M88.341,404.745c-1.2,0-2.857,4.925-4.168,4.925s-4.715-7.127-6.124-7.212-2.965,4.993-4.767,6.713-12.938,5.24-15.232,5.732-3.275,1.879-3.275,4.38H90.966a12.178,12.178,0,0,0-.785-5.854C88.953,410.4,89.538,404.745,88.341,404.745Z" transform="translate(-54.772 -119.415)" fill="#302a68"/>
      <path id="Path_1561" data-name="Path 1561" d="M84.959,417.353a17.943,17.943,0,0,0-.531-4.274,14.084,14.084,0,0,1-.681-6.07c.726-1.227,1.438-2.451,2.035-2.451,1.2,0,.612,5.655,1.84,8.684a12.147,12.147,0,0,1,.854,4.111Z" transform="translate(-52.205 -119.228)" fill="#2a2251"/>
      <path id="Path_1562" data-name="Path 1562" d="M153.58,416.308H117.52v1.743h36.27A6.58,6.58,0,0,0,153.58,416.308Z" transform="translate(-49.194 -118.184)" fill="#fff"/>
      <path id="Path_1563" data-name="Path 1563" d="M91.043,416.308H54.985a6.081,6.081,0,0,0-.211,1.743H91.043Z" transform="translate(-54.772 -118.184)" fill="#fff"/>
      <path id="Path_1564" data-name="Path 1564" d="M109.265,185.672v8c0,2.593-.873,3.487-8.382,6.169,0,0,2.056,4.47,16.539,4.47s16.539-4.47,16.539-4.47c-7.51-2.682-8.383-3.576-8.383-6.169v-8Z" transform="translate(-50.673 -138.688)" fill="#e09687"/>
      <path id="Path_1565" data-name="Path 1565" d="M108.581,189.342s5.767,3.379,9.427,3.7a13.235,13.235,0,0,0,6.886-1.369v-6H108.581Z" transform="translate(-49.989 -138.688)" fill="#b86f6f"/>
      <path id="Path_1566" data-name="Path 1566" d="M133.663,169.976a12.338,12.338,0,0,0,1.019-1.884c.708-1.682,1.683-10.163-.92-15.422a6.76,6.76,0,0,0,3.953-3.278c1.448-2.669.693-2.212-2.026-1.754-2.668.45-7.426-.506-7.426-.506Z" transform="translate(-48.239 -142.114)" fill="#282856"/>
      <path id="Path_1567" data-name="Path 1567" d="M120.828,147.982c-8.022,0-16.634,2.124-16.634,18.521a4.993,4.993,0,0,0-5.661,0c-3.417,2.424-3.067,6.842-1.18,10.028s5.072,4.953,7.786,3.42c0,0,1.062,6.135,1.888,7.433s11.088,5.308,14.392,5.308,11.8-4.483,13.094-7.314,2.123-13.921,2.123-19.347S135.928,147.982,120.828,147.982Z" transform="translate(-51.112 -142.039)" fill="#e09687"/>
      <path id="Path_1568" data-name="Path 1568" d="M129.723,161.162h0A3.726,3.726,0,0,0,126,164.888v1.15a3.726,3.726,0,0,0,3.726,3.726h0a3.726,3.726,0,0,0,3.727-3.726v-1.15A3.726,3.726,0,0,0,129.723,161.162Z" transform="translate(-48.44 -140.867)" fill="url(#linear-gradient)"/>
      <path id="Path_1569" data-name="Path 1569" d="M115.835,161.162h0a3.726,3.726,0,0,0-3.726,3.726v1.15a3.726,3.726,0,0,0,3.726,3.726h0a3.727,3.727,0,0,0,3.727-3.726v-1.15A3.727,3.727,0,0,0,115.835,161.162Z" transform="translate(-49.675 -140.867)" fill="url(#linear-gradient)"/>
      <path id="Path_1570" data-name="Path 1570" d="M119.452,147.982a22.332,22.332,0,0,0-8.035,1.22v2s1.112,4.082,7.856,5.566,11.646-1.048,13.153-2.779C130.229,150.613,126.342,147.982,119.452,147.982Z" transform="translate(-49.736 -142.039)" fill="#b86f6f"/>
      <path id="Path_1571" data-name="Path 1571" d="M103.881,166.988a28.116,28.116,0,0,0,.883,3.834c.36.766,3.318.118,2.741-1.325s-3.822-13.7,4.975-17.813c0,0,3.318,3.9,11.756,3.9s13.7-9.52,13.918-11.539-1.3-1.658-3.533-.432-10.168,2.163-10.168,2.163a20.125,20.125,0,0,0,2.74-2.019c1.082-1.009-.108-1.418-4.182-1.144-4.418.3-11.611,0-13.891.96-1.938.816-8.248,7.613-9.322,9.763-1.012,2.026.579,8.5.862,12.768A5.35,5.35,0,0,1,103.881,166.988Z" transform="translate(-50.799 -142.524)" fill="#302a68"/>
      <path id="Path_1572" data-name="Path 1572" d="M120.738,201.6a13.079,13.079,0,0,1-12.272-5.389S91.729,201.02,89.33,201.82s-2.285,4.112-1.371,17.247,2.626,29.469,2.626,34.037-2.512,37.352-2.512,37.352,9.366,6.509,26.614,6.509S139.473,290,139.473,290s2.4-42.6,2.969-55.511-.94-33.045-1.85-33.94c-1.019-1-11.8-4.338-11.8-4.338S128.919,200.9,120.738,201.6Z" transform="translate(-51.875 -137.751)" fill="#efe817"/>
      <path id="Path_1573" data-name="Path 1573" d="M103.1,288.687c-3.5-3.667-6.324-10.927-6.9-20.935-.678-11.87-.2-21.04.464-24.471,1.479-7.6,2.808-11.824,4.418-14.013s4.441-6.147,3.836-6.282-3.836,2.959-3.836,2.959a26.022,26.022,0,0,0,0-7.933,15.635,15.635,0,0,0-2.994-7.053c1.457,3.695.752,10.081.752,10.081l-11.109-6.028c.058.865.121,1.774.188,2.744.914,13.135,2.626,29.469,2.626,34.037s-2.512,37.352-2.512,37.352,9.366,6.509,26.614,6.509a54.149,54.149,0,0,0,11.492-1.164C114.6,294.55,105.285,290.974,103.1,288.687Z" transform="translate(-51.842 -136.44)" fill="#efe817"/>
      <g id="Group_52689" data-name="Group 52689" transform="translate(26.291 5.294)">
        <path id="Path_1574" data-name="Path 1574" d="M213.354,147.778a71.612,71.612,0,0,0-45.819,10.685,4.919,4.919,0,0,0-1.5,6.831l10.136,15.657a4.936,4.936,0,0,0,6.779,1.453,43.5,43.5,0,1,1-6.394,69.1,19.611,19.611,0,0,0-26.608.238l-5.5,5.151-42.9,40.2a4.913,4.913,0,0,0-.227,6.945l12.766,13.627a4.914,4.914,0,0,0,6.945.225l42.807-40.109a71.964,71.964,0,1,0,49.51-130Z" transform="translate(-77.043 -147.385)" fill="#8ac5e7"/>
        <path id="Path_1575" data-name="Path 1575" d="M101.325,292.123l2.063,2.2a21.047,21.047,0,0,0,7.584.06c2.989-.56,3.8-2.117,3.8-2.117s4.546.685,5.045-.532-.623-1.336-2.741-2.4c0,0-7.682-5.374-11.463-7.969l-4.062,3.806A4.913,4.913,0,0,0,101.325,292.123Z" transform="translate(-77.043 -135.473)" fill="#729bcf"/>
        <path id="Path_1576" data-name="Path 1576" d="M277.361,214.827a71.119,71.119,0,0,0-2.276-17.763c2.88,21.136-1.112,56.509-33,73.095-28.748,14.952-55.131,10.328-72.811-4.659a8.685,8.685,0,0,0-11.61.457c-11.557,11.122-35.9,34.5-38.758,36.844-3.465,2.842-8,6-13.741,1.4l8.468,9.039a4.914,4.914,0,0,0,6.945.225l42.807-40.109a71.926,71.926,0,0,0,113.977-58.534Z" transform="translate(-76.583 -142.969)" fill="#729bcf"/>
        <path id="Path_1577" data-name="Path 1577" d="M181.111,274.556a8.228,8.228,0,0,0,2.984-1,11.743,11.743,0,0,0,3.369-2.751,10.485,10.485,0,0,0,1.05-1.489,3.332,3.332,0,0,0,.423-1.03,1.465,1.465,0,0,0-.18-1.078,2.145,2.145,0,0,0-1.761-.7,19.865,19.865,0,0,0-6.177.8c-1.82.5-3.915,1-5.333,2.308-1.861,1.71.467,3.3,1.98,4.067a6.472,6.472,0,0,0,3.224.9C180.83,274.584,180.97,274.572,181.111,274.556Z" transform="translate(-70.393 -136.796)" fill="#729bcf"/>
        <path id="Path_1578" data-name="Path 1578" d="M78.937,311.863a14.249,14.249,0,1,1,13.483,14.977A14.248,14.248,0,0,1,78.937,311.863Z" transform="translate(-78.917 -133.963)" fill="#729bcf"/>
        <path id="Path_1579" data-name="Path 1579" d="M106.188,308.208c.02-.381.015-.759,0-1.135a14.228,14.228,0,0,0-26.231-.005,13.127,13.127,0,0,0,26.228,1.14Z" transform="translate(-78.825 -133.963)" fill="#8ac5e7"/>
        <path id="Path_1580" data-name="Path 1580" d="M170.846,180.952c-2.435-6.609-5.8-15.244-5.129-17.773s30.2-22.976,71.086-5.927a71.7,71.7,0,0,0-74.6,1.212,4.919,4.919,0,0,0-1.5,6.831Z" transform="translate(-71.715 -147.385)" fill="#a2ddf5"/>
        <path id="Path_1581" data-name="Path 1581" d="M224.448,249.524l0,0a43.411,43.411,0,0,1-49.975-6.1,19.611,19.611,0,0,0-26.608.238l-5.5,5.151L123.493,266.49h0c-.329.309,14.282-10.577,25.374-18.85a19.478,19.478,0,0,1,23.034-.232c5.4,3.894,12.174,7.888,21,9.435C209.2,259.705,218.272,253.983,224.448,249.524Z" transform="translate(-74.954 -139.3)" fill="#a2ddf5"/>
      </g>
      <path id="Path_1582" data-name="Path 1582" d="M170.4,274.527c4.31.269,9.357-4.339,12.5-5.953,3.492-1.793,10.6-3.074,9.691,1.251a13.387,13.387,0,0,1-5.226,8.706C184.689,280.814,171.82,278.407,170.4,274.527Z" transform="translate(-44.493 -131.466)" fill="#e09687"/>
      <path id="Path_1583" data-name="Path 1583" d="M123.014,166.388c-1.041-.313-1.809,9.855-.636,10.387s4.608-.144,5.035-1.1S124.08,166.708,123.014,166.388Z" transform="translate(-48.814 -140.403)" fill="#ac6065"/>
      <path id="Path_1584" data-name="Path 1584" d="M113.777,167.486a1.884,1.884,0,1,1,1.885,1.884A1.885,1.885,0,0,1,113.777,167.486Z" transform="translate(-49.527 -140.472)" fill="#271e38"/>
      <path id="Path_1585" data-name="Path 1585" d="M127.688,167.486a1.885,1.885,0,1,1,1.885,1.884A1.885,1.885,0,0,1,127.688,167.486Z" transform="translate(-48.29 -140.472)" fill="#271e38"/>
      <path id="Path_1586" data-name="Path 1586" d="M120.367,160.482c-.848.871-3,.918-4.647.825a5.324,5.324,0,0,0-4.295,1.621" transform="translate(-49.736 -140.927)" fill="none" stroke="#2a2251" stroke-linecap="round" stroke-miterlimit="10" stroke-width="2"/>
      <path id="Path_1587" data-name="Path 1587" d="M126.8,161.5a5.151,5.151,0,0,1,4.262-.708,4.007,4.007,0,0,1,2.858,2.622" transform="translate(-48.369 -140.917)" fill="none" stroke="#2a2251" stroke-linecap="round" stroke-miterlimit="10" stroke-width="2"/>
      <path id="Path_1588" data-name="Path 1588" d="M113.777,180.137a13.7,13.7,0,0,1,4.895.238,8.38,8.38,0,0,1,3.829,1.962" transform="translate(-49.527 -139.191)" fill="none" stroke="#b86f6f" stroke-linecap="round" stroke-miterlimit="10" stroke-width="1"/>
      <path id="Path_1589" data-name="Path 1589" d="M97.953,169.935c-.16-.744,1.056-2.682,3.192-2.282,2.7.5,4.432,5.443,1.8,7.912" transform="translate(-50.935 -140.295)" fill="none" stroke="#b86f6f" stroke-linecap="round" stroke-miterlimit="10" stroke-width="1"/>
      <path id="Path_1590" data-name="Path 1590" d="M100.563,171.886a1.855,1.855,0,0,1,3.223-1.315" transform="translate(-50.703 -140.084)" fill="none" stroke="#b86f6f" stroke-linecap="round" stroke-miterlimit="10" stroke-width="1"/>
      <path id="Path_1591" data-name="Path 1591" d="M75.542,235.905s-4.75,12.249-5.994,15.269c-1.814,4.4-2.721,5.814,5.319,15.462s18.926,22.636,28.574,28.08c8.355,4.713,14.607,2.354,17.055.872.379-.23,1.174-.1,1.656-.195,4.253-.816-4.995-4.845-8.2-7.071a17.414,17.414,0,0,1-4.374-3.98l5.49-5.144s-.223-.919-2.326-.548-4.473,1.469-7.443,1.716-4.7-.742-7.545-4.205S84.33,255.434,84.33,255.434l5.8-14.479Z" transform="translate(-53.568 -134.222)" fill="#e09687"/>
      <path id="Path_1592" data-name="Path 1592" d="M89.624,240.955S83.3,243.538,74,238.585l1.041-2.68Z" transform="translate(-53.063 -134.222)" fill="#b86f6f"/>
      <path id="Path_1593" data-name="Path 1593" d="M92.129,201.567c-1.83-1.148-4.454-.124-7.3,6.184s-13.113,27.957-13.113,27.957,1.855,3.216,8.783,6.061a30.183,30.183,0,0,0,12.74,2.351s5.568-17.318,6.68-20.658S101.407,207.381,92.129,201.567Z" transform="translate(-53.266 -137.311)" fill="#efe817"/>
      <path id="Path_1594" data-name="Path 1594" d="M117.419,290.913c-2.844-.083-9.493-3.549-10.077-3.773a29.231,29.231,0,0,0,9.354,4.083A1.415,1.415,0,0,1,117.419,290.913Z" transform="translate(-50.099 -129.667)" fill="#b86f6f"/>
      <path id="Path_1595" data-name="Path 1595" d="M187.365,278.244c.488-.416.939-.818,1.358-1.224l-.012,0c-3.322,1.31-10.274.134-11.236-1.431s.481-3.128,2.457-5.46c-2.9,1.933-6.407,4.3-9.533,4.107C171.82,278.12,184.689,280.527,187.365,278.244Z" transform="translate(-44.493 -131.179)" fill="#b86f6f"/>
      <path id="Path_1596" data-name="Path 1596" d="M121.045,417.353a17.943,17.943,0,0,1,.531-4.274,14.084,14.084,0,0,0,.681-6.07c-.725-1.227-1.437-2.451-2.035-2.451-1.2,0-.612,5.655-1.84,8.684a12.173,12.173,0,0,0-.854,4.111Z" transform="translate(-49.193 -119.228)" fill="#2a2251"/>
      <path id="Path_1597" data-name="Path 1597" d="M117.528,417.108v.872H153.79a6.5,6.5,0,0,0-.046-.872Z" transform="translate(-49.193 -118.112)" fill="#e7edf2"/>
      <path id="Path_1598" data-name="Path 1598" d="M91.043,417.108v.872H54.773a6.5,6.5,0,0,1,.045-.872Z" transform="translate(-54.772 -118.112)" fill="#e7edf2"/>
    </g>
    <g id="Group_52703" data-name="Group 52703" transform="translate(441.111 112.629)">
      <g id="Group_52702" data-name="Group 52702">
        <path id="Path_1708" data-name="Path 1708" d="M419.648,111.238a25.1,25.1,0,0,0-11.866,11.448,1.723,1.723,0,0,0,.775,2.325l5.864,2.89a1.73,1.73,0,0,0,2.3-.781,15.246,15.246,0,1,1,10.492,21.939,6.872,6.872,0,0,0-7.962,4.853l-.728,2.537-1.816,6.284a1.721,1.721,0,0,0,1.179,2.13l6.29,1.806a1.721,1.721,0,0,0,2.13-1.18l1.8-6.239a25.22,25.22,0,1,0-8.462-48.012Z" transform="translate(-407.596 -108.913)" fill="#8ac5e7"/>
        <path id="Path_1709" data-name="Path 1709" d="M413.4,172.415a4.993,4.993,0,1,1,6.748,2.084A4.992,4.992,0,0,1,413.4,172.415Z" transform="translate(-407.132 -103.919)" fill="#729bcf"/>
        <path id="Path_1710" data-name="Path 1710" d="M419.3,172.547a4.337,4.337,0,0,0,1.81-5.864,4.268,4.268,0,0,0-.462-.7,4.987,4.987,0,0,0-7.7,2.965,4.334,4.334,0,0,0,6.356,3.6Z" transform="translate(-407.12 -103.919)" fill="#8ac5e7"/>
      </g>
      <path id="Path_1711" data-name="Path 1711" d="M425.465,163.534l1.8-6.239A25.185,25.185,0,0,0,454.594,130.9c-.375,6.361-3.213,13.325-11.224,18.908a25.15,25.15,0,0,1-17.111,4.3,2.184,2.184,0,0,0-2.364,1.613c-.844,3.171-.916,3.832-1.193,5.222-.378,1.9-1.325,3.043-5.655,1.959l6.29,1.806A1.722,1.722,0,0,0,425.465,163.534Z" transform="translate(-406.755 -106.958)" fill="#729bcf"/>
      <path id="Path_1712" data-name="Path 1712" d="M414.9,115.888c6.075-6.6,17.241-6.893,21.293-6.245a25.129,25.129,0,0,0-28.416,13.042,1.723,1.723,0,0,0,.775,2.325l5.864,2.89s-2.826-2.209-3.752-3.184S408.819,122.5,414.9,115.888Z" transform="translate(-407.596 -108.913)" fill="#a2ddf5"/>
      <path id="Path_1713" data-name="Path 1713" d="M435.9,144.755a15.173,15.173,0,0,1-9.467,1.117,6.872,6.872,0,0,0-7.962,4.853l-.728,2.537-1.354,4.665c.825-2.141,1.16-1.563,2.152-4.309,1.3-3.586,2.427-7.17,7.475-6.646s8.037-.7,9.885-2.217Z" transform="translate(-406.814 -105.727)" fill="#a2ddf5"/>
    </g>
    <g id="Group_52705" data-name="Group 52705" transform="translate(153.677 67.118)">
      <g id="Group_52704" data-name="Group 52704" transform="translate(0)">
        <path id="Path_1714" data-name="Path 1714" d="M155.682,69.443A25.093,25.093,0,0,0,143.815,80.89a1.723,1.723,0,0,0,.777,2.324l5.863,2.891a1.73,1.73,0,0,0,2.3-.782,15.246,15.246,0,1,1,10.492,21.94,6.872,6.872,0,0,0-7.963,4.852l-.728,2.538-1.815,6.283a1.721,1.721,0,0,0,1.179,2.131l6.289,1.805a1.722,1.722,0,0,0,2.13-1.179l1.8-6.241a25.22,25.22,0,1,0-8.462-48.011Z" transform="translate(-143.629 -67.118)" fill="#8ac5e7"/>
        <path id="Path_1715" data-name="Path 1715" d="M149.428,130.62a4.994,4.994,0,1,1,6.749,2.083A4.993,4.993,0,0,1,149.428,130.62Z" transform="translate(-143.165 -62.124)" fill="#729bcf"/>
        <path id="Path_1716" data-name="Path 1716" d="M155.331,130.751a4.33,4.33,0,0,0,1.347-6.564,4.986,4.986,0,0,0-7.7,2.964,4.332,4.332,0,0,0,6.356,3.6Z" transform="translate(-143.154 -62.124)" fill="#8ac5e7"/>
      </g>
      <path id="Path_1717" data-name="Path 1717" d="M161.5,121.739l1.8-6.241a25.186,25.186,0,0,0,27.324-26.392c-.375,6.361-3.213,13.326-11.225,18.908a25.134,25.134,0,0,1-17.11,4.3,2.187,2.187,0,0,0-2.365,1.613c-.843,3.172-.915,3.833-1.192,5.223-.379,1.9-1.325,3.042-5.655,1.959l6.29,1.805A1.722,1.722,0,0,0,161.5,121.739Z" transform="translate(-142.789 -65.163)" fill="#729bcf"/>
      <path id="Path_1718" data-name="Path 1718" d="M150.938,74.093c6.076-6.6,17.242-6.894,21.295-6.245A25.131,25.131,0,0,0,143.815,80.89a1.723,1.723,0,0,0,.777,2.324l5.863,2.891s-2.825-2.209-3.752-3.184S144.852,80.707,150.938,74.093Z" transform="translate(-143.629 -67.118)" fill="#a2ddf5"/>
      <path id="Path_1719" data-name="Path 1719" d="M171.932,102.959a15.161,15.161,0,0,1-9.466,1.118,6.872,6.872,0,0,0-7.963,4.852l-.728,2.538-1.352,4.664c.825-2.141,1.16-1.561,2.152-4.308,1.3-3.587,2.426-7.172,7.476-6.647s8.036-.7,9.883-2.217Z" transform="translate(-142.848 -63.932)" fill="#a2ddf5"/>
    </g>
    <g id="Group_52707" data-name="Group 52707" transform="translate(31.697 126.611)">
      <g id="Group_52706" data-name="Group 52706">
        <path id="Path_1720" data-name="Path 1720" d="M33.977,136.3a25.1,25.1,0,0,0-1.7,16.4,1.724,1.724,0,0,0,2.092,1.277l6.346-1.567a1.73,1.73,0,0,0,1.256-2.08,15.244,15.244,0,1,1,22.159,10.021,6.871,6.871,0,0,0-2.964,8.841l1.078,2.411,2.659,5.976a1.722,1.722,0,0,0,2.275.869l5.974-2.671a1.721,1.721,0,0,0,.869-2.275l-2.641-5.935a25.22,25.22,0,1,0-37.4-31.269Z" transform="translate(-31.608 -121.754)" fill="#8ac5e7"/>
        <path id="Path_1721" data-name="Path 1721" d="M69.122,185.8a4.994,4.994,0,1,1,6.5-2.754A4.993,4.993,0,0,1,69.122,185.8Z" transform="translate(-28.55 -116.915)" fill="#729bcf"/>
        <path id="Path_1722" data-name="Path 1722" d="M73.729,182.088a4.332,4.332,0,0,0-3.2-5.888,4.985,4.985,0,0,0-3.981,7.229,4.332,4.332,0,0,0,7.18-1.342Z" transform="translate(-28.55 -116.913)" fill="#8ac5e7"/>
      </g>
      <path id="Path_1723" data-name="Path 1723" d="M71.116,172.847l-2.641-5.935a25.185,25.185,0,0,0,3.9-37.788c3.811,5.107,6.127,12.261,3.6,21.693a25.143,25.143,0,0,1-10.314,14.315,2.184,2.184,0,0,0-.77,2.756c1.4,2.969,1.769,3.521,2.452,4.763.933,1.7.947,3.182-3.062,5.142l5.974-2.671A1.721,1.721,0,0,0,71.116,172.847Z" transform="translate(-28.704 -121.099)" fill="#729bcf"/>
      <path id="Path_1724" data-name="Path 1724" d="M33.345,142.7c.393-8.964,8.745-16.38,12.263-18.5a25.13,25.13,0,0,0-13.331,28.281,1.724,1.724,0,0,0,2.092,1.278l6.346-1.567s-3.585.13-4.922-.017S32.952,151.673,33.345,142.7Z" transform="translate(-31.608 -121.536)" fill="#a2ddf5"/>
      <path id="Path_1725" data-name="Path 1725" d="M68.286,150.814a15.183,15.183,0,0,1-6.52,6.954,6.871,6.871,0,0,0-2.964,8.841l1.078,2.411,1.97,4.438c-.747-2.169-.12-1.942-1.129-4.681-1.32-3.578-2.765-7.048,1.435-9.9s5.695-5.713,6.132-8.062Z" transform="translate(-29.244 -119.17)" fill="#a2ddf5"/>
    </g>
    <g id="Group_52709" data-name="Group 52709" transform="translate(300.081 18.238)">
      <g id="Group_52708" data-name="Group 52708">
        <path id="Path_1726" data-name="Path 1726" d="M253.543,103.336a53.459,53.459,0,0,0-9.328,33.863,3.673,3.673,0,0,0,3.946,3.418l13.884-1.065a3.685,3.685,0,0,0,3.37-3.93,32.476,32.476,0,1,1,43.043,28.832,14.639,14.639,0,0,0-9.331,17.538l1.418,5.442,3.491,13.489a3.669,3.669,0,0,0,4.475,2.625L322,200.033a3.67,3.67,0,0,0,2.624-4.475l-3.466-13.395a53.726,53.726,0,1,0-67.617-78.827Z" transform="translate(-244.101 -80.085)" fill="#8ac5e7"/>
        <path id="Path_1727" data-name="Path 1727" d="M309.392,220.213a10.638,10.638,0,1,1,14.632-3.5A10.639,10.639,0,0,1,309.392,220.213Z" transform="translate(-238.748 -69.379)" fill="#729bcf"/>
        <path id="Path_1728" data-name="Path 1728" d="M320.373,214.035a9.23,9.23,0,0,0-4.655-13.5,10.62,10.62,0,0,0-10.9,13.794,9.229,9.229,0,0,0,15.557-.3Z" transform="translate(-238.747 -69.379)" fill="#8ac5e7"/>
      </g>
      <path id="Path_1729" data-name="Path 1729" d="M319.367,193.595,315.9,180.2a53.655,53.655,0,0,0,21.446-78.033c6.217,12.068,8.572,27.914-.057,46.842a53.56,53.56,0,0,1-26.7,26.457,4.655,4.655,0,0,0-2.584,5.523c1.9,6.727,2.48,8.018,3.481,10.868,1.364,3.887.873,7.016-8.239,9.728l13.489-3.516A3.67,3.67,0,0,0,319.367,193.595Z" transform="translate(-238.842 -78.122)" fill="#729bcf"/>
      <path id="Path_1730" data-name="Path 1730" d="M249.9,116.816c3.971-18.7,24.124-31.347,32.257-34.557a53.532,53.532,0,0,0-37.936,54.747,3.672,3.672,0,0,0,3.946,3.418l13.884-1.065s-7.577-.984-10.333-1.765S245.917,135.544,249.9,116.816Z" transform="translate(-244.101 -79.892)" fill="#a2ddf5"/>
      <path id="Path_1731" data-name="Path 1731" d="M320.143,146.251A32.321,32.321,0,0,1,304,158.572a14.64,14.64,0,0,0-9.331,17.538l1.418,5.442,2.583,10.018c-.81-4.821.43-4.123-.731-10.232-1.517-7.982-3.335-15.779,6.491-20.3s13.972-10.006,15.711-14.788Z" transform="translate(-239.648 -74.203)" fill="#a2ddf5"/>
    </g>
    <path id="Path_1732" data-name="Path 1732" d="M56.921,417.945H31.7c-11.505,0,68.465,6.385,243.617,6.385s255.606-6.821,235.454-6.821S56.921,417.945,56.921,417.945Z" transform="translate(0 31.151)" fill="#bed5e0"/>
  </g>
</svg>
