<svg xmlns="http://www.w3.org/2000/svg" width="148.462" height="144.102" viewBox="0 0 148.462 144.102">
  <g id="call-us-for-rights" transform="translate(66.437 334.355)">
    <g id="Group_53072" data-name="Group 53072" transform="translate(-31.492 -327.505)">
      <path id="Path_2025" data-name="Path 2025" d="M51.234-193.949h-.211V-195.3h.211c2.432,0,3.82-.051,3.827-.051L55.112-194S53.706-193.949,51.234-193.949Zm-4.3-.049c-1.249-.028-2.617-.07-4.088-.131l.056-1.353c1.462.061,2.822.1,4.063.13Zm-8.171-.337c-1.306-.079-2.669-.172-4.077-.282l.106-1.352c1.4.111,2.754.2,4.052.28Zm-8.149-.641q-1.985-.193-4.061-.438l.158-1.345q2.058.242,4.035.435Zm-8.114-.958q-2-.276-4.041-.607l.217-1.337q2.028.327,4.011.6Zm-8.068-1.307q-1.993-.372-4.008-.8l.283-1.323q1.993.425,3.974.792Zm-7.995-1.708q-1.981-.482-3.957-1.025l.36-1.3q1.953.536,3.916,1.013Zm-7.888-2.181q-1.957-.612-3.884-1.294l.454-1.277q1.9.675,3.835,1.279Zm-7.715-2.744c-1.283-.517-2.549-1.063-3.764-1.623l.566-1.23c1.2.55,2.442,1.088,3.7,1.6Zm-7.444-3.435c-1.229-.649-2.43-1.33-3.572-2.027l.706-1.155c1.118.68,2.295,1.348,3.5,1.983Zm-7-4.285c-1.138-.809-2.234-1.654-3.256-2.514l.87-1.036c1,.836,2.063,1.659,3.171,2.446Zm-6.291-5.3a40.809,40.809,0,0,1-2.759-3.075l1.055-.851a39.142,39.142,0,0,0,2.666,2.972Zm-5.168-6.417a35.406,35.406,0,0,1-2.016-3.6l1.219-.589a33.892,33.892,0,0,0,1.938,3.461Zm-3.588-7.414a35.236,35.236,0,0,1-1.109-3.972l1.325-.287a33.892,33.892,0,0,0,1.065,3.819Zm-1.758-8.04c-.138-1.337-.211-2.724-.215-4.121l1.355,0a39.893,39.893,0,0,0,.209,3.984Zm1.314-8.121L-40.46-247c.118-1.333.3-2.707.527-4.083l1.337.225C-38.822-249.519-39-248.182-39.111-246.885Zm1.323-7.91-1.315-.318c.313-1.3.679-2.629,1.086-3.958l1.3.4C-37.121-257.371-37.48-256.065-37.787-254.794Zm2.343-7.7-1.277-.454q.7-1.957,1.444-3.825l1.258.5Q-34.756-264.427-35.444-262.5Zm2.994-7.494-1.237-.551q.847-1.9,1.743-3.7l1.212.6Q-31.615-271.863-32.45-269.991Zm3.591-7.221-1.185-.654c.664-1.2,1.356-2.389,2.06-3.537l1.154.708C-27.523-279.566-28.2-278.394-28.859-277.213Zm4.217-6.865-1.119-.763c.772-1.133,1.575-2.253,2.388-3.328l1.081.817C-23.092-286.294-23.882-285.193-24.642-284.078Zm4.862-6.421-1.036-.872c.879-1.044,1.795-2.077,2.721-3.064l.989.927C-18.017-292.538-18.916-291.526-19.78-290.5Zm54.552-1.871-.209-1.338a9.1,9.1,0,0,0,3.5-1.351l.742,1.134A10.477,10.477,0,0,1,34.772-292.37Zm-4.32-.485a13,13,0,0,1-3.729-2.071l.839-1.063a11.714,11.714,0,0,0,3.342,1.859Zm-44.725-3.511-.933-.981c.99-.944,2.017-1.867,3.051-2.742l.875,1.032C-12.295-298.2-13.3-297.292-14.274-296.366Zm55.982-.859-1.244-.538a4.723,4.723,0,0,0,.387-1.883,5.642,5.642,0,0,0-.251-1.624l1.3-.39a7,7,0,0,1,.307,2.014A6.088,6.088,0,0,1,41.709-297.225Zm-17.892-.8a14.878,14.878,0,0,1-1.89-3.8l1.286-.425A13.55,13.55,0,0,0,24.93-298.8Zm-31.953-3.534-.811-1.085c1.1-.821,2.231-1.613,3.364-2.353l.741,1.134C-5.952-303.14-7.06-302.365-8.136-301.561Zm46.889-3a20.861,20.861,0,0,0-2.776-2.778l.875-1.036a22.2,22.2,0,0,1,2.954,2.964Zm-40.162-1.389-.664-1.18c1.206-.679,2.433-1.314,3.651-1.891l.58,1.226C.968-307.234-.232-306.614-1.409-305.951Zm22.569-.039c-.011-.253-.018-.511-.018-.771a17.441,17.441,0,0,1,.349-3.434l1.328.267a16.088,16.088,0,0,0-.322,3.167c0,.238.007.474.016.708ZM5.844-309.382l-.488-1.264c1.29-.5,2.6-.947,3.895-1.332l.387,1.3C8.375-310.3,7.1-309.867,5.844-309.382ZM32.8-309.7a16.687,16.687,0,0,0-3.545-1.612l.42-1.287a18.05,18.05,0,0,1,3.835,1.745ZM13.52-311.657l-.272-1.326c1.374-.283,2.746-.5,4.079-.638l.142,1.348C16.179-312.138,14.851-311.93,13.52-311.657Zm11.888-.532a29.3,29.3,0,0,0-3.958-.287l.009-1.355c.807.007,1.605.041,2.384.1l-1.09-.469a24.954,24.954,0,0,1,1.975-3.675l1.138.736a23.594,23.594,0,0,0-1.846,3.423c.536.046,1.065.107,1.581.18Zm2.838-8.121-1.03-.88a39.032,39.032,0,0,1,2.856-2.988l.931.986A37.336,37.336,0,0,0,28.246-320.31Zm5.79-5.5-.841-1.062c1.038-.821,2.154-1.639,3.313-2.43l.764,1.119C36.137-327.406,35.048-326.608,34.036-325.806Z" transform="translate(40.64 329.298)" fill="#d7d9dd"/>
    </g>
    <g id="Group_53073" data-name="Group 53073" transform="translate(-54.701 -197.031)">
      <path id="Path_2026" data-name="Path 2026" d="M78.953-229.592c0,1.872-30.608,3.389-68.365,3.389s-68.361-1.517-68.361-3.389,30.606-3.388,68.361-3.388S78.953-231.463,78.953-229.592Z" transform="translate(57.773 232.98)" fill="#eaf0fe"/>
    </g>
    <g id="Group_53083" data-name="Group 53083" transform="translate(1.09 -280.917)" opacity="0.5">
      <g id="Group_53074" data-name="Group 53074" transform="translate(7.513 6.97)">
        <path id="Path_2027" data-name="Path 2027" d="M15.065-289.761a26.108,26.108,0,0,0-26.106,26.108,26.107,26.107,0,0,0,26.106,26.106,26.108,26.108,0,0,0,26.109-26.106A26.108,26.108,0,0,0,15.065-289.761Zm0,39.835A13.728,13.728,0,0,1,1.337-263.653a13.729,13.729,0,0,1,13.728-13.729,13.729,13.729,0,0,1,13.729,13.729A13.729,13.729,0,0,1,15.065-249.926Z" transform="translate(11.041 289.761)" fill="#dae2f2"/>
      </g>
      <g id="Group_53075" data-name="Group 53075" transform="translate(27.025)">
        <path id="Path_2028" data-name="Path 2028" d="M16.023-281.868H4.259s-2.016-9.385,0-11.4c2.081-2.078,9.919-2.288,11.765,0C17.814-291.052,16.023-281.868,16.023-281.868Z" transform="translate(-3.363 294.906)" fill="#dae2f2"/>
      </g>
      <g id="Group_53076" data-name="Group 53076" transform="translate(25.923 53.389)">
        <path id="Path_2029" data-name="Path 2029" d="M15.211-255.494H3.444s-2.014,9.383,0,11.4c2.079,2.079,9.916,2.288,11.766,0C17-246.314,15.211-255.494,15.211-255.494Z" transform="translate(-2.549 255.494)" fill="#dae2f2"/>
      </g>
      <g id="Group_53077" data-name="Group 53077" transform="translate(6.632 7.564)">
        <path id="Path_2030" data-name="Path 2030" d="M4.544-282.348l-7.2,9.309s-8.656-4.147-9.018-6.974c-.373-2.918,4.259-9.245,7.2-9.309C-1.623-289.382,4.544-282.348,4.544-282.348Z" transform="translate(11.692 289.322)" fill="#dae2f2"/>
      </g>
      <g id="Group_53078" data-name="Group 53078" transform="translate(0 26.516)">
        <path id="Path_2031" data-name="Path 2031" d="M-2.588-273.119-4.51-261.511s-9.585.457-11.246-1.86c-1.711-2.394-.638-10.158,1.921-11.61C-11.355-276.386-2.588-273.119-2.588-273.119Z" transform="translate(16.587 275.332)" fill="#dae2f2"/>
      </g>
      <g id="Group_53079" data-name="Group 53079" transform="translate(53.618 27.313)">
        <path id="Path_2032" data-name="Path 2032" d="M22.994-262.382l.48-11.757s9.458-1.631,11.39.463c1.993,2.163,1.88,10-.481,11.758C32.1-260.217,22.994-262.382,22.994-262.382Z" transform="translate(-22.994 274.744)" fill="#dae2f2"/>
      </g>
      <g id="Group_53080" data-name="Group 53080" transform="translate(44.137 7.197)">
        <path id="Path_2033" data-name="Path 2033" d="M15.995-282.621l7.2,9.309s8.656-4.148,9.018-6.974c.371-2.918-4.258-9.245-7.2-9.308C22.164-289.655,15.995-282.621,15.995-282.621Z" transform="translate(-15.995 289.593)" fill="#dae2f2"/>
      </g>
      <g id="Group_53081" data-name="Group 53081" transform="translate(4.882 43.257)">
        <path id="Path_2034" data-name="Path 2034" d="M3.252-253.665l-7.2-9.308S-12.6-258.828-12.962-256c-.373,2.918,4.258,9.245,7.2,9.308C-2.917-246.631,3.252-253.665,3.252-253.665Z" transform="translate(12.984 262.973)" fill="#dae2f2"/>
      </g>
      <g id="Group_53082" data-name="Group 53082" transform="translate(44.593 43.625)">
        <path id="Path_2035" data-name="Path 2035" d="M16.332-253.393l7.2-9.309s8.656,4.147,9.019,6.974c.371,2.918-4.259,9.245-7.2,9.308C22.5-246.36,16.332-253.393,16.332-253.393Z" transform="translate(-16.332 262.702)" fill="#dae2f2"/>
      </g>
    </g>
    <g id="Group_53093" data-name="Group 53093" transform="translate(-61.688 -277.768)">
      <g id="Group_53084" data-name="Group 53084" transform="translate(7.543 5.297)">
        <path id="Path_2036" data-name="Path 2036" d="M-21.206-286.533a25.868,25.868,0,0,0-34.018,13.451,25.865,25.865,0,0,0,13.451,34.017A25.866,25.866,0,0,0-7.754-252.513,25.867,25.867,0,0,0-21.206-286.533ZM-36.9-250.315a13.6,13.6,0,0,1-7.074-17.89,13.6,13.6,0,0,1,17.89-7.074,13.6,13.6,0,0,1,7.074,17.889A13.6,13.6,0,0,1-36.9-250.315Z" transform="translate(57.363 288.671)" fill="#eaf0fe"/>
      </g>
      <g id="Group_53085" data-name="Group 53085" transform="translate(36.129 0.115)">
        <path id="Path_2037" data-name="Path 2037" d="M-25.563-277.271l-10.7-4.634s1.864-9.325,4.491-10.363c2.711-1.073,9.917,1.827,10.7,4.634C-20.318-284.913-25.563-277.271-25.563-277.271Z" transform="translate(36.26 292.497)" fill="#eaf0fe"/>
      </g>
      <g id="Group_53086" data-name="Group 53086" transform="translate(14.61 46.956)">
        <path id="Path_2038" data-name="Path 2038" d="M-36.827-253.282l-10.7-4.636s-5.528,7.736-4.492,10.363c1.074,2.709,8.116,5.987,10.7,4.635C-38.815-244.228-36.827-253.282-36.827-253.282Z" transform="translate(52.146 257.918)" fill="#eaf0fe"/>
      </g>
      <g id="Group_53087" data-name="Group 53087" transform="translate(15.216)">
        <path id="Path_2039" data-name="Path 2039" d="M-35.971-282.5l-10.21,5.628s-6.235-7.181-5.45-9.893c.809-2.8,7.513-6.73,10.21-5.626C-38.807-291.326-35.971-282.5-35.971-282.5Z" transform="translate(51.699 292.582)" fill="#eaf0fe"/>
      </g>
      <g id="Group_53088" data-name="Group 53088" transform="translate(1.418 13.356)">
        <path id="Path_2040" data-name="Path 2040" d="M-46.01-276.59l-6.321,9.8s-8.894-3.359-9.49-6.12c-.615-2.849,3.423-9.486,6.319-9.8C-52.7-283.012-46.01-276.59-46.01-276.59Z" transform="translate(61.884 282.723)" fill="#eaf0fe"/>
      </g>
      <g id="Group_53089" data-name="Group 53089" transform="translate(48.999 34.546)">
        <path id="Path_2041" data-name="Path 2041" d="M-26.759-256.579l5.066-10.5s9.241,2.243,10.172,4.909c.959,2.751-2.23,9.836-5.068,10.5C-19.337-251.027-26.759-256.579-26.759-256.579Z" transform="translate(26.759 267.079)" fill="#eaf0fe"/>
      </g>
      <g id="Group_53090" data-name="Group 53090" transform="translate(50.426 15.118)">
        <path id="Path_2042" data-name="Path 2042" d="M-25.706-278.415l2.879,11.3s9.5-.36,10.944-2.789c1.49-2.5-.229-10.08-2.877-11.3C-17.325-282.38-25.706-278.415-25.706-278.415Z" transform="translate(25.706 281.421)" fill="#eaf0fe"/>
      </g>
      <g id="Group_53091" data-name="Group 53091" transform="translate(0 32.666)">
        <path id="Path_2043" data-name="Path 2043" d="M-48.557-257.168l-2.877-11.3s-9.5.359-10.945,2.788c-1.489,2.5.228,10.081,2.877,11.3C-56.937-253.2-48.557-257.168-48.557-257.168Z" transform="translate(62.931 268.467)" fill="#eaf0fe"/>
      </g>
      <g id="Group_53092" data-name="Group 53092" transform="translate(35.571 47.919)">
        <path id="Path_2044" data-name="Path 2044" d="M-36.672-251.581l10.21-5.626s6.238,7.178,5.452,9.891c-.81,2.8-7.513,6.728-10.21,5.626C-33.835-242.756-36.672-251.581-36.672-251.581Z" transform="translate(36.672 257.207)" fill="#eaf0fe"/>
      </g>
    </g>
    <g id="Group_53103" data-name="Group 53103" transform="translate(-39.807 -333.435)">
      <g id="Group_53094" data-name="Group 53094" transform="translate(4.739 3.329)">
        <path id="Path_2045" data-name="Path 2045" d="M-20.561-329.875a16.254,16.254,0,0,0-21.375,8.456,16.248,16.248,0,0,0,8.451,21.372,16.249,16.249,0,0,0,21.375-8.45A16.257,16.257,0,0,0-20.561-329.875Zm-9.86,22.758a8.545,8.545,0,0,1-4.443-11.241A8.547,8.547,0,0,1-23.623-322.8a8.549,8.549,0,0,1,4.444,11.242A8.549,8.549,0,0,1-30.421-307.118Z" transform="translate(43.279 331.218)" fill="#dae2f2"/>
      </g>
      <g id="Group_53095" data-name="Group 53095" transform="translate(22.701 0.073)">
        <path id="Path_2046" data-name="Path 2046" d="M-23.3-324.054l-6.722-2.912s1.172-5.859,2.822-6.512c1.7-.675,6.231,1.149,6.72,2.914C-20-328.856-23.3-324.054-23.3-324.054Z" transform="translate(30.02 333.622)" fill="#dae2f2"/>
      </g>
      <g id="Group_53096" data-name="Group 53096" transform="translate(9.181 29.505)">
        <path id="Path_2047" data-name="Path 2047" d="M-30.375-308.983l-6.723-2.912s-3.473,4.862-2.82,6.512c.673,1.7,5.1,3.762,6.722,2.914C-31.626-303.293-30.375-308.983-30.375-308.983Z" transform="translate(40 311.895)" fill="#dae2f2"/>
      </g>
      <g id="Group_53097" data-name="Group 53097" transform="translate(9.56)">
        <path id="Path_2048" data-name="Path 2048" d="M-29.838-327.341l-6.414,3.536s-3.92-4.511-3.426-6.216c.509-1.758,4.719-4.226,6.415-3.536C-31.62-332.886-29.838-327.341-29.838-327.341Z" transform="translate(39.721 333.676)" fill="#dae2f2"/>
      </g>
      <g id="Group_53098" data-name="Group 53098" transform="translate(0.89 8.392)">
        <path id="Path_2049" data-name="Path 2049" d="M-36.147-323.627l-3.97,6.155s-5.588-2.11-5.964-3.846c-.385-1.789,2.15-5.96,3.973-6.157C-40.346-327.661-36.147-323.627-36.147-323.627Z" transform="translate(46.121 327.481)" fill="#dae2f2"/>
      </g>
      <g id="Group_53099" data-name="Group 53099" transform="translate(30.786 21.709)">
        <path id="Path_2050" data-name="Path 2050" d="M-24.051-311.054l3.185-6.6s5.806,1.41,6.391,3.083c.6,1.729-1.4,6.18-3.183,6.6C-19.386-307.565-24.051-311.054-24.051-311.054Z" transform="translate(24.051 317.65)" fill="#dae2f2"/>
      </g>
      <g id="Group_53100" data-name="Group 53100" transform="translate(31.684 9.501)">
        <path id="Path_2051" data-name="Path 2051" d="M-23.388-324.774l1.807,7.1s5.973-.228,6.877-1.753c.936-1.574-.144-6.336-1.807-7.1C-18.124-327.263-23.388-324.774-23.388-324.774Z" transform="translate(23.388 326.662)" fill="#dae2f2"/>
      </g>
      <g id="Group_53101" data-name="Group 53101" transform="translate(0 20.528)">
        <path id="Path_2052" data-name="Path 2052" d="M-37.747-311.424l-1.807-7.1s-5.973.225-6.877,1.751c-.936,1.573.142,6.334,1.808,7.1C-43.011-308.933-37.747-311.424-37.747-311.424Z" transform="translate(46.778 318.522)" fill="#dae2f2"/>
      </g>
      <g id="Group_53102" data-name="Group 53102" transform="translate(22.351 30.112)">
        <path id="Path_2053" data-name="Path 2053" d="M-30.278-307.913l6.414-3.534s3.92,4.509,3.426,6.214c-.509,1.76-4.721,4.228-6.415,3.536C-28.5-302.367-30.278-307.913-30.278-307.913Z" transform="translate(30.278 311.447)" fill="#dae2f2"/>
      </g>
    </g>
    <g id="Group_53107" data-name="Group 53107" transform="translate(-11.772 -312.359)">
      <g id="Group_53104" data-name="Group 53104">
        <path id="Path_2054" data-name="Path 2054" d="M-18.644-308.92c-14.489,24.231-10.1,88.454,33.756,107.765,6.25,2.75,20.741,6.993,25.089-10.817L20.907-239.224,9.813-235.606a46.384,46.384,0,0,1-13.262-41L7.6-279.979l-2.849-36.9S-10.368-322.755-18.644-308.92Z" transform="translate(26.082 318.118)" fill="#4e49a3"/>
      </g>
      <g id="Group_53105" data-name="Group 53105" transform="translate(26.487 0.214)">
        <path id="Path_2055" data-name="Path 2055" d="M-6.529-317.96l1.118,39.781,9.971-2.86s1.7-28.381-6.745-35.895Z" transform="translate(6.529 317.96)" fill="#5f82d6"/>
      </g>
      <g id="Group_53106" data-name="Group 53106" transform="translate(46.053 77.652)">
        <path id="Path_2056" data-name="Path 2056" d="M7.915-259.246l19.07,30.364a15.92,15.92,0,0,0,2.277-6.349c.321-3.376-17.847-25.563-17.847-25.563Z" transform="translate(-7.915 260.794)" fill="#5f82d6"/>
      </g>
    </g>
    <g id="Group_53110" data-name="Group 53110" transform="translate(-66.437 -305.315)">
      <g id="Group_53108" data-name="Group 53108">
        <path id="Path_2057" data-name="Path 2057" d="M-66.437-295.428c0,11.218,13.9,17.422,25.119,17.422s19.366-6.357,19.366-17.576-9.6-17.335-20.823-17.335S-66.437-306.645-66.437-295.428Z" transform="translate(66.437 312.917)" fill="#ffda89"/>
      </g>
      <g id="Group_53109" data-name="Group 53109" transform="translate(34.803 22.216)">
        <path id="Path_2058" data-name="Path 2058" d="M-33.35-278.567l-7.395-8.974,6.269-8.976Z" transform="translate(40.745 296.516)" fill="#ffda89"/>
      </g>
    </g>
    <g id="Group_53150" data-name="Group 53150" transform="translate(47.21 -334.355)">
      <g id="Group_53143" data-name="Group 53143" transform="translate(1.34 0.208)">
        <g id="Group_53142" data-name="Group 53142">
          <path id="Path_2072" data-name="Path 2072" d="M20.446-328.683l-2,.779.376-3.367L27.51-334.2Z" transform="translate(-18.448 334.202)" fill="#f0c542"/>
        </g>
      </g>
      <g id="Group_53145" data-name="Group 53145" transform="translate(2.648 0.208)">
        <g id="Group_53144" data-name="Group 53144">
          <path id="Path_2073" data-name="Path 2073" d="M22.02-325.91l5.147-8.292-7.753,4.523Z" transform="translate(-19.414 334.202)" fill="#fad77e"/>
        </g>
      </g>
      <g id="Group_53147" data-name="Group 53147">
        <g id="Group_53146" data-name="Group 53146">
          <path id="Path_2074" data-name="Path 2074" d="M27.861-334.148l-8.378,3.491-2.024-3.7Z" transform="translate(-17.459 334.355)" fill="#fad784"/>
        </g>
      </g>
      <g id="Group_53149" data-name="Group 53149" transform="translate(1.34 4.731)">
        <g id="Group_53148" data-name="Group 53148">
          <path id="Path_2075" data-name="Path 2075" d="M18.448-329.088l1.308-1.775.689,1Z" transform="translate(-18.448 330.863)" fill="#dbab33"/>
        </g>
      </g>
    </g>
  </g>
</svg>
