<svg xmlns="http://www.w3.org/2000/svg" width="170.265" height="110.319" viewBox="0 0 170.265 110.319">
  <g id="for_how_service" transform="translate(-226.318 122.082)">
    <path id="Path_1938" data-name="Path 1938" d="M267.333-50.59,253.1-54.331c1.807-11.806,5.463-24.887,10.169-38.694L277.5-89.283Z" transform="translate(18.183 19.728)" fill="#ededed"/>
    <path id="Path_1939" data-name="Path 1939" d="M296.584-50.59l14.232-3.741c-1.807-11.806-5.463-24.887-10.169-38.694l-14.234,3.742Z" transform="translate(40.801 19.728)" fill="#ededed"/>
    <path id="Path_1940" data-name="Path 1940" d="M280.735-61.5l-6.9,11.642c-8.878-2.918-17.293-8.343-24.893-16.324a85.04,85.04,0,0,1-6.042-7.125l3.433-8.6a146,146,0,0,1,27.595,15.137Q277.457-64.267,280.735-61.5Z" transform="translate(11.258 27.274)" fill="#ededed"/>
    <path id="Path_1941" data-name="Path 1941" d="M326.445-73.311a86.11,86.11,0,0,1-6.053,7.147c-.01.01-.01.01-.022.01-7.589,7.972-15.983,13.374-24.852,16.292l-4.456-7.5L288.61-61.5c1.288-1.083,2.6-2.134,3.939-3.166,1.063-.8,2.134-1.588,3.227-2.351a145.482,145.482,0,0,1,27.246-14.89Z" transform="translate(42.292 27.274)" fill="#ededed"/>
    <path id="Path_1942" data-name="Path 1942" d="M263.078-28.336c-1.11-10.156,1.479-27.429-.725-37.214-1.18-5.292-1.649-12.063-3.2-24.282,6.575-2.733,15.22-6.492,16.64-7.844,2.774,1.081,10.495,1.373,13.354,1.687l.005,0,.005,0c2.858-.314,10.579-.606,13.353-1.687,1.42,1.352,10.065,5.111,16.64,7.844-1.546,12.219-2.015,18.99-3.195,24.282-2.2,9.785.383,27.058-.725,37.214Z" transform="translate(22.295 16.57)" fill="#ededed"/>
    <path id="Path_1943" data-name="Path 1943" d="M276.439-85.91,275.116-92.2l3.2-.086,3.2.086L280.2-85.91Z" transform="translate(33.131 20.232)" fill="#005b6b"/>
    <g id="Group_52942" data-name="Group 52942" transform="translate(226.318 -66.793)">
      <g id="Group_52941" data-name="Group 52941">
        <path id="Path_1944" data-name="Path 1944" d="M237.836-79.568l-1.143-.782-1.523-1.407L233.7-85.865a1.474,1.474,0,0,0-1.31-.974l-.478-1.335a1.475,1.475,0,0,0-1.885-.89l-.029.01a1.5,1.5,0,0,0-.489.294,1.6,1.6,0,0,0-1.5,0l-.029.015a1.6,1.6,0,0,0-.658,2.166l2.957,5.534c.008.017.022.03.03.047.03.049.062.1.1.143s.059.082.092.119.069.071.106.1a1.724,1.724,0,0,0,.134.114c.015.01.027.025.042.035l5.161,3.564a1.6,1.6,0,0,0,2.226-.408l.018-.027A1.577,1.577,0,0,0,237.836-79.568Z" transform="translate(-225.767 89.151)" fill="#f5c08c"/>
        <path id="Path_1945" data-name="Path 1945" d="M246.3-81.248l-4.766-1.508a2.829,2.829,0,0,1-.861-.339l-4.9-2.94a1.6,1.6,0,0,0-2.2.541l-.017.027a1.6,1.6,0,0,0,.541,2.2l3.148,1.909S246.747-81.152,246.3-81.248Z" transform="translate(-221.557 91.109)" fill="#f5c08c"/>
        <path id="Path_1946" data-name="Path 1946" d="M251.4-79.969c-3.934-1.477-13.176-.482-13.176-.482l-5.339-2.376-3.7-4.56a1.6,1.6,0,0,0-2.251-.233l-.025.02a1.6,1.6,0,0,0-.233,2.251s4.536,5.319,4.553,5.327c0,0,3.932,2.676,5.232,3.4.245.138.615.267.98.425a36.028,36.028,0,0,0,9.681,2.723l5.054,1.341,2.584-5.671Z" transform="translate(-226.318 89.947)" fill="#ffcf9f"/>
      </g>
      <rect id="Rectangle_1651" data-name="Rectangle 1651" width="9.132" height="4.847" transform="translate(23.328 18.987) rotate(-68.579)" fill="#dadada"/>
      <path id="Path_1947" data-name="Path 1947" d="M241.825-77.193a.8.8,0,0,0,1.046-.457.8.8,0,0,0-.457-1.046.806.806,0,0,0-1.046.457A.806.806,0,0,0,241.825-77.193Z" transform="translate(-216.137 96.211)" fill="#fff"/>
    </g>
    <g id="Group_52944" data-name="Group 52944" transform="translate(365.407 -66.793)">
      <g id="Group_52943" data-name="Group 52943" transform="translate(2.732)">
        <path id="Path_1948" data-name="Path 1948" d="M320.8-79.568l1.145-.782,1.521-1.407,1.476-4.108a1.471,1.471,0,0,1,1.308-.974l.478-1.335a1.475,1.475,0,0,1,1.885-.89l.029.01a1.478,1.478,0,0,1,.489.294,1.6,1.6,0,0,1,1.5,0l.029.015a1.6,1.6,0,0,1,.658,2.166l-2.955,5.534c-.01.017-.022.03-.032.047-.029.049-.062.1-.1.143s-.06.082-.094.119-.069.071-.106.1a1.725,1.725,0,0,1-.134.114c-.015.01-.025.025-.04.035L322.7-76.915a1.6,1.6,0,0,1-2.226-.408l-.018-.027A1.579,1.579,0,0,1,320.8-79.568Z" transform="translate(-304.431 89.151)" fill="#f5c08c"/>
        <path id="Path_1949" data-name="Path 1949" d="M313-81.248l4.765-1.508a2.839,2.839,0,0,0,.863-.339l4.9-2.94a1.6,1.6,0,0,1,2.2.541l.017.027a1.6,1.6,0,0,1-.539,2.2l-3.15,1.909S312.552-81.152,313-81.248Z" transform="translate(-309.3 91.109)" fill="#f5c08c"/>
        <path id="Path_1950" data-name="Path 1950" d="M314.147-79.969c3.934-1.477,13.176-.482,13.176-.482l5.339-2.376,3.7-4.56a1.6,1.6,0,0,1,2.251-.233l.025.02a1.6,1.6,0,0,1,.233,2.251s-4.538,5.319-4.555,5.327c0,0-3.932,2.676-5.232,3.4-.245.138-.613.267-.979.425a36.067,36.067,0,0,1-9.681,2.723l-5.055,1.341L310.789-77.8Z" transform="translate(-310.789 89.947)" fill="#ffcf9f"/>
      </g>
      <rect id="Rectangle_1652" data-name="Rectangle 1652" width="4.847" height="9.132" transform="translate(0 12.256) rotate(-21.421)" fill="#dadada"/>
      <path id="Path_1951" data-name="Path 1951" d="M312.875-77.193a.8.8,0,0,1-1.046-.457.807.807,0,0,1,.457-1.046.808.808,0,0,1,1.048.457A.807.807,0,0,1,312.875-77.193Z" transform="translate(-307.389 96.211)" fill="#fff"/>
    </g>
    <path id="Path_1952" data-name="Path 1952" d="M277.163-88.487,274.05-55.78l4.992,4.418,4.992-4.418-3.113-32.707Z" transform="translate(32.407 22.809)" fill="#006f82"/>
    <path id="Path_1953" data-name="Path 1953" d="M271.59-102l.057,2.774c-.013.015,0,.015,0,.015l.044,2.958v.013l.027,1.323.171,9.5,5.633-.114,3.044-.055h.013l.242-.015,2.789-.057,5.789-.114.257-9.159.027-1.167.086-2.945v-.013l.072-2.433Z" transform="translate(30.737 13.638)" fill="#f2c799"/>
    <g id="Group_52945" data-name="Group 52945" transform="translate(295.004 -122.082)">
      <path id="Path_1954" data-name="Path 1954" d="M283.542-121.093c8.17-.034,14.686,5.342,14.08,15.026a25.451,25.451,0,0,1-.418,3.328c1.818-1.031,3.412.767,2.772,3.522-.45,1.941-1.4,4.548-2.471,4.939-1.291.47-1.682-.332-1.758-.358-.576,2.8-.808,5.3-1.807,6.783A47.693,47.693,0,0,1,291-83.779c-1.921,2.256-3.517,2.816-7.184,2.839h-.042c-3.668.024-5.27-.515-7.219-2.747a46.881,46.881,0,0,1-2.99-4.036c-1.016-1.471-1.281-3.967-1.892-6.759-.074.027-.457.834-1.753.381-1.081-.378-2.06-2.973-2.535-4.909-.673-2.745.9-4.563,2.728-3.558a25.134,25.134,0,0,1-.46-3.321C268.925-115.564,275.372-121.022,283.542-121.093Z" transform="translate(-267.228 122.753)" fill="#ffd2a1"/>
      <path id="Path_1955" data-name="Path 1955" d="M294.761-117.613c3.138,3.657,4.125,7.726,2.9,15.251-1.229.692-1.879,1.607-2.347,5.346-.892.252-1.278.309-2.089.588,4.881-19.937-2.842-20.287-4.963-20.7a53.148,53.148,0,0,0-10.5.067c-2.115.44-9.832.886-4.7,20.76-.816-.267-1.2-.321-2.1-.561-.517-3.732-1.177-4.639-2.414-5.314-1.321-7.51.013-11.291,2.706-15.288C275-123.01,289.15-124.149,294.761-117.613Z" transform="translate(-266.678 122.082)" fill="#3c3c3b"/>
      <path id="Path_1956" data-name="Path 1956" d="M276.777-121.068a6.032,6.032,0,0,0-2.866.9c-1.259.69-4.476,5.351-3.8,6.449,2.723,4.449,11.16,5.72,17.112,5.888a5.509,5.509,0,0,1-1.995-2.458,15.828,15.828,0,0,0,10.309.828c-1.063-2.913-2.2-5.938-4.464-8.056a13.314,13.314,0,0,0-6.758-3.14A39.757,39.757,0,0,0,276.777-121.068Z" transform="translate(-265.336 122.764)" fill="#3c3c3b"/>
    </g>
    <path id="Path_1957" data-name="Path 1957" d="M274-82.124a28.242,28.242,0,0,1-5.483-14.09l5.242-2.915A17.7,17.7,0,0,0,282.8-87.614Z" transform="translate(28.653 15.584)" fill="#dadada"/>
    <path id="Path_1958" data-name="Path 1958" d="M285.817-82.124a28.227,28.227,0,0,0,5.483-14.09l-5.24-2.915a17.71,17.71,0,0,1-9.036,11.514Z" transform="translate(34.426 15.584)" fill="#dadada"/>
    <g id="Group_52946" data-name="Group 52946" transform="translate(260.201 -65.754)">
      <path id="Path_1959" data-name="Path 1959" d="M301.514-34.541H271.774c-.123-1.093-.217-8.432-.277-10.1v-.072l-.1-.65c-8.878-2.918-17.293-8.343-24.893-16.324,10.539,6.539,22.212,12.365,24.863,3,0,0,.04-1.392.123-3.59.279-7.93.96-26.255,1.352-26.255q.171,3.7.341,7.384c.329,7.013.7,14.2,3.433,20.656a24.985,24.985,0,0,0,1.775,3.423c2.908,4.7,7.4,8.5,12.745,9.405q-7.3-1.022-14.592-2.032C283.118-43.653,293.007-37.419,301.514-34.541Z" transform="translate(-246.499 88.532)" fill="#1d1d1b" opacity="0.05"/>
      <path id="Path_1960" data-name="Path 1960" d="M323.452-62.934c-7.589,7.972-15.983,13.374-24.852,16.292v.722c-.144,1.382-.321,8.668-.537,10.062H284.071c5.268-1.785,8.343-12.454,10.074-18.28a45.684,45.684,0,0,0,1.486-7.312c1.34-10.591-.092-21.965-.341-25.2.217,1.917,2.743,10.755,3.568,22.852.114,1.629.2,3.331.238,5.074C302.427-51.2,313.439-56.727,323.452-62.934Z" transform="translate(-220.99 89.808)" fill="#1d1d1b" opacity="0.05"/>
    </g>
  </g>
</svg>
