<svg xmlns="http://www.w3.org/2000/svg" width="34" height="33" viewBox="0 0 34 33">
  <g id="heart" transform="translate(-0.334)">
    <g id="Ellipse_6" data-name="Ellipse 6" transform="translate(0.334)" fill="#fff" stroke="#e2e2e2" stroke-width="1">
      <ellipse cx="17" cy="16.5" rx="17" ry="16.5" stroke="none"/>
      <ellipse cx="17" cy="16.5" rx="16.5" ry="16" fill="none"/>
    </g>
    <g id="heart-2" data-name="heart" transform="translate(11.092 10.606)">
      <g id="Group_160" data-name="Group 160" transform="translate(0 0)">
        <path id="Path_75" data-name="Path 75" d="M12.866,40.749A3.7,3.7,0,0,0,10.2,39.672,3.5,3.5,0,0,0,7,41.379l-.017.029-.017-.029a3.5,3.5,0,0,0-3.2-1.707A3.7,3.7,0,0,0,1.1,40.75,4,4,0,0,0,0,43.635c0,2.46,2.187,4.092,4.117,5.531a13.87,13.87,0,0,1,2.441,2.1.546.546,0,0,0,.85,0,8.332,8.332,0,0,1,1.286-1.222.546.546,0,0,0-.683-.851,11.793,11.793,0,0,0-1.028.914,19.268,19.268,0,0,0-2.214-1.82c-1.808-1.349-3.678-2.743-3.678-4.656a2.657,2.657,0,0,1,2.673-2.872A2.45,2.45,0,0,1,6.01,41.907a3.173,3.173,0,0,1,.429,1.234.545.545,0,0,0,1.088,0,3.172,3.172,0,0,1,.429-1.236A2.45,2.45,0,0,1,10.2,40.763a2.657,2.657,0,0,1,2.673,2.872c0,1.583-1.289,2.811-2.682,3.9a.546.546,0,0,0,.673.859,11.566,11.566,0,0,0,2.12-2.043,4.431,4.431,0,0,0,.98-2.717A4,4,0,0,0,12.866,40.749Z" transform="translate(0 -39.672)" fill="#707070"/>
      </g>
    </g>
  </g>
</svg>
