<svg xmlns="http://www.w3.org/2000/svg" width="30.002" height="30.002" viewBox="0 0 30.002 30.002">
  <path id="instagram" d="M-9768.033-9932.113a9.376,9.376,0,0,1-9.375-9.376v-11.251a9.375,9.375,0,0,1,9.375-9.375h11.251a9.376,9.376,0,0,1,9.376,9.375v11.251a9.377,9.377,0,0,1-9.376,9.376Zm-6.562-20.627v11.251a6.571,6.571,0,0,0,6.563,6.563h11.251a6.569,6.569,0,0,0,6.563-6.563v-11.251a6.57,6.57,0,0,0-6.562-6.562h-11.251A6.572,6.572,0,0,0-9774.6-9952.74Zm4.688,5.628a7.5,7.5,0,0,1,7.5-7.5,7.5,7.5,0,0,1,7.5,7.5,7.5,7.5,0,0,1-7.5,7.5A7.5,7.5,0,0,1-9769.908-9947.112Zm2.813,0a4.7,4.7,0,0,0,4.69,4.686,4.692,4.692,0,0,0,4.686-4.686,4.693,4.693,0,0,0-4.686-4.69A4.7,4.7,0,0,0-9767.1-9947.112Zm11.751-8.065a1,1,0,0,1,1-1,1,1,0,0,1,1,1,1,1,0,0,1-1,1A1,1,0,0,1-9755.345-9955.178Z" transform="translate(9777.408 9962.115)" fill="#909090"/>
</svg>
