<svg xmlns="http://www.w3.org/2000/svg" width="124.983" height="109.73" viewBox="0 0 124.983 109.73">
  <g id="is_free_or_not" transform="translate(-30.327 -240.379)">
    <g id="Group_53245" data-name="Group 53245" transform="translate(58.485 257.165)">
      <path id="Path_2127" data-name="Path 2127" d="M61.89,282.611c0,.684-1.406,1.238-3.142,1.238s-3.14-.554-3.14-1.238,1.406-1.238,3.14-1.238S61.89,281.927,61.89,282.611Z" transform="translate(-42.803 -231.735)" fill="#3c3c3b"/>
      <rect id="Rectangle_1659" data-name="Rectangle 1659" width="15.164" height="11.691" transform="translate(8.364 37.358)" fill="#c6c6c6"/>
      <path id="Path_2128" data-name="Path 2128" d="M79.6,267.375c0-9.826-8.163-17.662-17.8-16.527a16.29,16.29,0,0,0-13.875,13.74,17.088,17.088,0,0,0,4.506,14.606,12.521,12.521,0,0,1,3.641,8.677v.227H71.234v-.147a12.461,12.461,0,0,1,3.584-8.7A16.94,16.94,0,0,0,79.6,267.375Z" transform="translate(-47.705 -250.739)" fill="#efe817"/>
      <path id="Path_2129" data-name="Path 2129" d="M63.59,282.883H57.308l-4.441-1.874H68.031Z" transform="translate(-44.503 -231.96)" fill="#9d9d9c"/>
      <path id="Path_2130" data-name="Path 2130" d="M55.385,260.046c.844,0,1.246.713,1.6,1.342.365.647.619,1.037,1.082,1.037s.715-.39,1.078-1.037c.353-.629.753-1.342,1.6-1.342s1.243.713,1.6,1.342c.365.647.617,1.037,1.079,1.037s.713-.39,1.078-1.037c.353-.629.753-1.342,1.6-1.342s1.243.713,1.6,1.342c.361.647.616,1.037,1.076,1.037a.3.3,0,1,1,0,.595c-.843,0-1.241-.711-1.594-1.34-.363-.646-.616-1.039-1.078-1.039s-.715.392-1.079,1.039c-.352.629-.753,1.34-1.594,1.34s-1.243-.711-1.6-1.34c-.365-.646-.617-1.039-1.079-1.039s-.716.392-1.079,1.039c-.353.629-.755,1.34-1.6,1.34s-1.246-.711-1.6-1.34c-.365-.646-.619-1.039-1.082-1.039s-.716.392-1.079,1.039c-.355.629-.755,1.34-1.6,1.34a.3.3,0,1,1,0-.595c.462,0,.716-.39,1.081-1.037C54.14,260.759,54.542,260.046,55.385,260.046Z" transform="translate(-44.788 -244.965)" fill="#fff"/>
      <path id="Path_2131" data-name="Path 2131" d="M59.018,267.521H57.9a1.678,1.678,0,0,0-1.828,1.471v8.695h4.772v-8.695A1.678,1.678,0,0,0,59.018,267.521Z" transform="translate(-42.513 -240.328)" fill="#fff"/>
      <path id="Path_2132" data-name="Path 2132" d="M59.4,272.748a.4.4,0,0,1-.329-.178L52.23,262.063a.392.392,0,1,1,.656-.429l6.848,10.506a.393.393,0,0,1-.329.608Z" transform="translate(-44.938 -244.09)" fill="#fff"/>
      <path id="Path_2133" data-name="Path 2133" d="M58.611,272.748a.393.393,0,0,1-.329-.608l6.846-10.506a.392.392,0,1,1,.656.429L58.938,272.57A.392.392,0,0,1,58.611,272.748Z" transform="translate(-41.184 -244.09)" fill="#fff"/>
    </g>
    <g id="Group_53248" data-name="Group 53248" transform="translate(30.327 313.018)">
      <g id="Group_53246" data-name="Group 53246" transform="translate(0 1.067)">
        <path id="Path_2134" data-name="Path 2134" d="M73.893,302.3l-4.231-.531-6.144-1.708L53.7,290.891a4.537,4.537,0,0,0-4.953-.825l-3.187-2.978a4.539,4.539,0,0,0-6.413.219l-.062.068a4.511,4.511,0,0,0-.925,1.491,4.923,4.923,0,0,0-4.1,2.123l-.057.083a4.926,4.926,0,0,0,1.248,6.852l15.876,10.986c.049.032.1.052.151.083a4.965,4.965,0,0,0,.463.256c.141.071.282.139.426.2s.287.094.434.136a4.927,4.927,0,0,0,.53.123c.055.01.105.031.162.039l19.144,2.492a4.924,4.924,0,0,0,5.519-4.249l.013-.1A4.86,4.86,0,0,0,73.893,302.3Z" transform="translate(-28.594 -285.867)" fill="#f2c799"/>
        <path id="Path_2135" data-name="Path 2135" d="M116.026,288l-8.482-1.863a25.553,25.553,0,0,0-9.191.322L90.439,288.2a9.138,9.138,0,0,1-2.977.154L69.21,286.285a5.147,5.147,0,0,0-5.713,4.509l-.011.1a5.146,5.146,0,0,0,4.509,5.712l12.266,1.444L68.346,302.3l-13.624.776-16.911-8.4a5.148,5.148,0,0,0-6.9,2.32l-.045.092a5.146,5.146,0,0,0,2.319,6.9s20.369,9.513,20.428,9.511c0,0,9.907,1.978,14.679,2.369.9.073,2.15-.036,3.432-.063,5.3-.117,20.094-.833,31.958-4.942l12.849-2.818Z" transform="translate(-30.327 -285.867)" fill="#ffd2a1"/>
      </g>
      <path id="Path_2136" data-name="Path 2136" d="M97.423,286.007l.156,33.105H83.143l.089-33.105Z" transform="translate(2.436 -284.713)" fill="#ededed"/>
      <rect id="Rectangle_1660" data-name="Rectangle 1660" width="30.936" height="37.091" transform="translate(94.047)" fill="#575756"/>
      <g id="Group_53247" data-name="Group 53247" transform="translate(99.02 4.559)">
        <path id="Path_2137" data-name="Path 2137" d="M97.332,291.834a2.894,2.894,0,1,1,3.662,1.828A2.894,2.894,0,0,1,97.332,291.834Z" transform="translate(-87.876 -288.022)" fill="#ededed"/>
        <path id="Path_2138" data-name="Path 2138" d="M91.589,291.834a2.894,2.894,0,1,1,3.664,1.828A2.894,2.894,0,0,1,91.589,291.834Z" transform="translate(-91.438 -288.022)" fill="#ededed"/>
      </g>
    </g>
    <g id="Group_53249" data-name="Group 53249" transform="translate(41.737 240.379)">
      <path id="Path_2139" data-name="Path 2139" d="M70.358,245.032a1.375,1.375,0,0,0-2.382-1.376l-3.736,6.473a1.355,1.355,0,0,0,.509,1.86l.024.015a1.359,1.359,0,0,0,1.849-.5Z" transform="translate(-20.814 -238.773)" fill="#efe817"/>
      <path id="Path_2140" data-name="Path 2140" d="M77.974,252.611a1.376,1.376,0,0,0-1.376-2.384l-6.472,3.738a1.356,1.356,0,0,0-.5,1.849l.013.024a1.36,1.36,0,0,0,1.862.509Z" transform="translate(-17.469 -234.384)" fill="#efe817"/>
      <path id="Path_2141" data-name="Path 2141" d="M80.271,259.708H72.759a1.357,1.357,0,0,0-1.356,1.359v.034a1.357,1.357,0,0,0,1.356,1.358h7.512a1.376,1.376,0,0,0,0-2.751Z" transform="translate(-16.257 -228.389)" fill="#efe817"/>
      <path id="Path_2142" data-name="Path 2142" d="M76.6,273.37a1.375,1.375,0,1,0,1.376-2.382L71.5,267.25a1.359,1.359,0,0,0-1.862.51l-.013.024a1.357,1.357,0,0,0,.5,1.849Z" transform="translate(-17.469 -223.823)" fill="#efe817"/>
      <path id="Path_2143" data-name="Path 2143" d="M40.647,270.988a1.375,1.375,0,0,0,1.374,2.382l6.473-3.736a1.357,1.357,0,0,0,.5-1.849l-.013-.024a1.359,1.359,0,0,0-1.862-.51Z" transform="translate(-35.763 -223.823)" fill="#efe817"/>
      <path id="Path_2144" data-name="Path 2144" d="M47.611,261.067a1.357,1.357,0,0,0-1.356-1.359H38.743a1.376,1.376,0,0,0,0,2.751h7.512a1.357,1.357,0,0,0,1.356-1.358Z" transform="translate(-37.369 -228.389)" fill="#efe817"/>
      <path id="Path_2145" data-name="Path 2145" d="M42.021,250.227a1.376,1.376,0,0,0-1.374,2.384l6.472,3.736a1.36,1.36,0,0,0,1.862-.509l.013-.024a1.357,1.357,0,0,0-.5-1.849Z" transform="translate(-35.763 -234.384)" fill="#efe817"/>
      <path id="Path_2146" data-name="Path 2146" d="M49.6,243.656a1.375,1.375,0,0,0-2.382,1.376l3.736,6.473a1.359,1.359,0,0,0,1.849.5l.024-.015a1.355,1.355,0,0,0,.509-1.86Z" transform="translate(-31.374 -238.773)" fill="#efe817"/>
      <path id="Path_2147" data-name="Path 2147" d="M58.09,250.621a1.355,1.355,0,0,0,1.358-1.355v-7.512a1.375,1.375,0,1,0-2.75,0v7.512a1.355,1.355,0,0,0,1.358,1.355Z" transform="translate(-25.379 -240.379)" fill="#efe817"/>
    </g>
  </g>
</svg>
