<svg id="marker" xmlns="http://www.w3.org/2000/svg" width="7.643" height="10.551" viewBox="0 0 7.643 10.551">
  <g id="Group_52892" data-name="Group 52892" transform="translate(0)">
    <g id="Group_52891" data-name="Group 52891">
      <path id="Path_1924" data-name="Path 1924" d="M74.394,0a3.826,3.826,0,0,0-3.821,3.821c0,2.615,3.42,6.454,3.565,6.616a.344.344,0,0,0,.512,0c.146-.162,3.565-4,3.565-6.616A3.826,3.826,0,0,0,74.394,0Zm0,9.68c-1.151-1.367-3.133-4.064-3.133-5.859a3.133,3.133,0,1,1,6.266,0C77.527,5.616,75.545,8.313,74.394,9.68Z" transform="translate(-70.573)" fill="#b8b8b8"/>
    </g>
  </g>
  <g id="Group_52894" data-name="Group 52894" transform="translate(1.899 1.899)">
    <g id="Group_52893" data-name="Group 52893" transform="translate(0)">
      <path id="Path_1925" data-name="Path 1925" d="M164.631,92.134a1.923,1.923,0,1,0,1.923,1.923A1.925,1.925,0,0,0,164.631,92.134Zm0,3.157a1.234,1.234,0,1,1,1.234-1.234A1.236,1.236,0,0,1,164.631,95.291Z" transform="translate(-162.708 -92.134)" fill="#b8b8b8"/>
    </g>
  </g>
</svg>
