<svg xmlns="http://www.w3.org/2000/svg" width="119.838" height="119.838" viewBox="0 0 119.838 119.838">
  <g id="resposapility" transform="translate(-131.849 -230.102)">
    <g id="Group_53251" data-name="Group 53251" transform="translate(131.849 230.102)">
      <circle id="Ellipse_304" data-name="Ellipse 304" cx="59.919" cy="59.919" r="59.919" fill="#efe817"/>
    </g>
    <g id="Group_53285" data-name="Group 53285" transform="translate(131.849 275.8)">
      <g id="Group_53254" data-name="Group 53254" transform="translate(1.933 1.689)">
        <path id="Path_2160" data-name="Path 2160" d="M135.812,289.751c2.573-8.692-4.682-19.261-2.108-27.951q8.82,2.612,17.8,4.4,1.236.758,2.485,1.5Q151.6,280.58,149.2,293.456C141.394,292,143.472,292.021,135.812,289.751Z" transform="translate(-133.142 -261.8)" fill="#f2ce9e"/>
      </g>
      <g id="Group_53255" data-name="Group 53255">
        <path id="Path_2161" data-name="Path 2161" d="M133.561,260.67A59.962,59.962,0,0,0,134.34,292q5.667,1.455,11.386,2.622,2.987-14.675,5.975-29.352Q142.554,263.406,133.561,260.67Z" transform="translate(-131.849 -260.67)" fill="#64b66e"/>
      </g>
      <g id="Group_53256" data-name="Group 53256" transform="translate(16.148 5.149)">
        <path id="Path_2162" data-name="Path 2162" d="M193.332,278.835c-.235-7.014-5.818-10.8-21.924-14.58-2.142-.5-9.373.423-14.429,1.175-5.063.8-9.492-1.142-10.508,3.98q-1.828,9.282-3.658,18.561c-1.018,5.1,2.817,5.983,10.125,7.977-.082.232,19.284,4.793,22.419,4.811-.894-1.244,5.525-2.691,11.1-6.448C187.254,290.656,192.341,282.477,193.332,278.835Z" transform="translate(-142.651 -264.114)" fill="#f2ce9e"/>
      </g>
      <g id="Group_53257" data-name="Group 53257" transform="translate(97.116 1.689)">
        <path id="Path_2163" data-name="Path 2163" d="M213.972,289.751c-2.574-8.692,5.641-19.261,3.066-27.951q-9.071,2.684-18.313,4.506-.949.859-1.914,1.712,2.142,11.517,4.282,23.034,1.433.978,2.89,1.936C210.965,291.611,207.11,291.783,213.972,289.751Z" transform="translate(-196.811 -261.8)" fill="#e0bf93"/>
      </g>
      <g id="Group_53258" data-name="Group 53258" transform="translate(99.985)">
        <path id="Path_2164" data-name="Path 2164" d="M216.871,260.67q-8.988,2.72-18.141,4.6,2.989,14.675,5.975,29.351,5.718-1.164,11.387-2.622a59.962,59.962,0,0,0,.779-31.327Z" transform="translate(-198.73 -260.67)" fill="#14b0bf"/>
      </g>
      <g id="Group_53259" data-name="Group 53259" transform="translate(53.368 3.959)">
        <path id="Path_2165" data-name="Path 2165" d="M177.666,282.992c-.124-4.026-7.351-8.609-9.973-12.522-1.791-2.552,13.4-4.21,16.291-6.558,1.777-1.247,10.137-.573,15.824,2.431,4.485,2.459,13.242-1.612,14.24,3.461q1.83,9.282,3.658,18.562c-5.451,8.222-43.547,17.415-49.806,12.374C169.069,299.632,179.112,286.608,177.666,282.992Z" transform="translate(-167.547 -263.318)" fill="#e0bf93"/>
      </g>
      <g id="Group_53260" data-name="Group 53260" transform="translate(43.27 19.493)">
        <path id="Path_2166" data-name="Path 2166" d="M168.014,274.945a205.861,205.861,0,0,0,21.653,18.464,2.667,2.667,0,0,1,.227,4.291,4.354,4.354,0,0,1-5.155.32,209.53,209.53,0,0,1-22.764-18.062,3.4,3.4,0,0,1,.079-5.225,4.51,4.51,0,0,1,5.817.079C167.918,274.854,167.972,274.9,168.014,274.945Z" transform="translate(-160.793 -273.709)" fill="#f2ce9e"/>
      </g>
      <g id="Group_53262" data-name="Group 53262" transform="translate(44.279 29.641)">
        <g id="Group_53261" data-name="Group 53261">
          <path id="Path_2167" data-name="Path 2167" d="M179.161,296.45a4.972,4.972,0,0,1-2.646-.707q-7.037-4.3-13.553-9.01a3.2,3.2,0,0,1-.507-5.011,4.674,4.674,0,0,1,5.823-.392q6.447,4.546,13.411,8.7a3.152,3.152,0,0,1,.96,4.948A4.719,4.719,0,0,1,179.161,296.45Z" transform="translate(-161.468 -280.497)" fill="#f2ce9e"/>
        </g>
      </g>
      <g id="Group_53264" data-name="Group 53264" transform="translate(46.644 35.758)">
        <g id="Group_53263" data-name="Group 53263">
          <path id="Path_2168" data-name="Path 2168" d="M170.046,293.167a3.221,3.221,0,0,1-2.072-.783q-2.139-1.926-4.21-3.888a2.094,2.094,0,0,1,.245-3.335,3.262,3.262,0,0,1,3.99.233q2.074,1.924,4.217,3.812a2.073,2.073,0,0,1-.126,3.341A3.249,3.249,0,0,1,170.046,293.167Z" transform="translate(-163.05 -284.589)" fill="#f2ce9e"/>
        </g>
      </g>
      <g id="Group_53265" data-name="Group 53265" transform="translate(47.322 34.993)">
        <path id="Path_2169" data-name="Path 2169" d="M172.6,292.226s-.6-.495-1.484-1.241-2-1.786-3.124-2.818c-1.1-1.048-2.2-2.091-3.021-2.87-.417-.384-.756-.715-1.023-.919a4,4,0,0,0-.44-.3,3.9,3.9,0,0,1,.483.257,11.151,11.151,0,0,1,1.151.824c.912.716,2.044,1.743,3.169,2.778,1.1,1.048,2.195,2.1,2.987,2.92S172.6,292.226,172.6,292.226Z" transform="translate(-163.503 -284.077)" fill="#b59a76"/>
      </g>
      <g id="Group_53267" data-name="Group 53267" transform="translate(48.345 38.558)">
        <g id="Group_53266" data-name="Group 53266">
          <path id="Path_2170" data-name="Path 2170" d="M167,292.883a3.307,3.307,0,0,1-1.9-.661,2.071,2.071,0,0,1-.126-3.346q.971-.834,1.931-1.674a3.321,3.321,0,0,1,4.038-.109,2.084,2.084,0,0,1,.211,3.341q-.958.859-1.927,1.712A3.223,3.223,0,0,1,167,292.883Z" transform="translate(-164.188 -286.462)" fill="#d4b790"/>
        </g>
      </g>
      <g id="Group_53269" data-name="Group 53269" transform="translate(41.282 36.806)">
        <g id="Group_53268" data-name="Group 53268">
          <path id="Path_2171" data-name="Path 2171" d="M162.9,293.731a4.28,4.28,0,0,1-1.8-.52,2.666,2.666,0,0,1-1.026-4.126q1.034-1.247,2.048-2.509a4.024,4.024,0,0,1,4.914-.789,2.7,2.7,0,0,1,1.121,4.093q-.991,1.285-2,2.558A3.838,3.838,0,0,1,162.9,293.731Z" transform="translate(-159.463 -285.29)" fill="#d4b790"/>
        </g>
      </g>
      <g id="Group_53271" data-name="Group 53271" transform="translate(33.203 34.123)">
        <g id="Group_53270" data-name="Group 53270">
          <path id="Path_2172" data-name="Path 2172" d="M157.7,292.587a4.7,4.7,0,0,1-1.641-.466c-1.929-.961-2.561-2.987-1.468-4.5q.922-1.28,1.825-2.568a4.272,4.272,0,0,1,5.277-1.094c1.864.909,2.591,2.891,1.562,4.452q-.872,1.314-1.761,2.622A4.088,4.088,0,0,1,157.7,292.587Z" transform="translate(-154.059 -283.495)" fill="#d4b790"/>
        </g>
      </g>
      <g id="Group_53273" data-name="Group 53273" transform="translate(24.567 31.908)">
        <g id="Group_53272" data-name="Group 53272">
          <path id="Path_2173" data-name="Path 2173" d="M152.1,291.3a5.049,5.049,0,0,1-2.053-.747c-1.946-1.256-2.326-3.509-.924-5.02q1-1.083,1.99-2.178a4.733,4.733,0,0,1,5.869-.592c1.891,1.189,2.4,3.412,1.057,4.984q-.962,1.121-1.94,2.238A4.534,4.534,0,0,1,152.1,291.3Z" transform="translate(-148.282 -282.013)" fill="#d4b790"/>
        </g>
      </g>
      <g id="Group_53274" data-name="Group 53274" transform="translate(47.652 12.855)">
        <path id="Path_2174" data-name="Path 2174" d="M171.72,270.416s1.622,1.362,4.152,3.347c1.256,1.012,2.74,2.18,4.364,3.413.809.623,1.65,1.263,2.518,1.943.858.649,1.773,1.387,2.694,2.124.833.713,1.676,1.417,2.512,2.109.807.655,1.656,1.413,2.458,2.081,1.615,1.366,3.077,2.628,4.343,3.743s2.311,2.054,3.05,2.734c.761.719,1.2,1.126,1.2,1.127a3.332,3.332,0,0,1-.48,5.313,5.252,5.252,0,0,1-6.352-.176l-.193-.169s-.363-.327-1-.9c-.677-.6-1.665-1.468-2.884-2.491s-2.658-2.235-4.183-3.479c-.785-.625-1.507-1.254-2.38-1.936-.828-.659-1.664-1.331-2.491-2.006-.794-.6-1.574-1.208-2.443-1.831-.83-.617-1.674-1.227-2.488-1.822-1.646-1.184-3.154-2.31-4.431-3.283-2.592-1.926-4.255-3.255-4.258-3.253l-.046-.033a4.12,4.12,0,0,1-.48-6.2,5.067,5.067,0,0,1,6.666-.48Z" transform="translate(-163.724 -269.269)" fill="#b59a76"/>
      </g>
      <g id="Group_53275" data-name="Group 53275" transform="translate(45.694 10.988)">
        <path id="Path_2175" data-name="Path 2175" d="M170.582,269.386s1.6,1.565,4.123,3.856,5.995,5.4,9.64,8.343c1.012.807,1.786,1.525,2.691,2.275.866.713,1.766,1.519,2.631,2.253,1.733,1.49,3.29,2.863,4.645,4.074s2.468,2.226,3.256,2.954c.8.767,1.268,1.2,1.268,1.2a3.331,3.331,0,0,1-.507,5.313,5.285,5.285,0,0,1-6.378-.206l-.166-.151s-.4-.363-1.093-1c-.731-.659-1.8-1.606-3.1-2.727s-2.846-2.441-4.473-3.794c-.827-.676-1.621-1.369-2.553-2.111-.891-.709-1.845-1.552-2.68-2.186-3.706-2.876-7.168-5.851-9.8-8.137s-4.289-3.851-4.292-3.848a4.143,4.143,0,0,1,.028-6.206,4.994,4.994,0,0,1,6.63-.016C170.494,269.3,170.545,269.35,170.582,269.386Z" transform="translate(-162.414 -268.02)" fill="#f2ce9e"/>
      </g>
      <g id="Group_53276" data-name="Group 53276" transform="translate(35.898 2.856)">
        <path id="Path_2176" data-name="Path 2176" d="M192.739,277.34q-8.891-2.355-17.321-5.445,2.063-.357,4.11-.755-5.023,3.108-10.35,5.963c.139-.1.28-.19.42-.286q-3.308,2.4-6.769,4.687a4.713,4.713,0,0,1-6.153-.942,3.671,3.671,0,0,1,.788-5.33q3.283-2.388,6.416-4.875l.061-.045.354-.23q4.911-3.211,9.5-6.656a4.248,4.248,0,0,1,3.011-.822l.937.1q8.575.9,17.283,1.049a7.181,7.181,0,0,1,7.206,6.91c.054,3.826-3.373,7.013-7.6,6.937A8.226,8.226,0,0,1,192.739,277.34Z" transform="translate(-155.862 -262.58)" fill="#ccae86"/>
      </g>
      <g id="Group_53277" data-name="Group 53277" transform="translate(36.032 1.658)">
        <path id="Path_2177" data-name="Path 2177" d="M192.2,277.647q-8.84-2.953-17.123-6.626,2.211-.309,4.412-.667-4.994,3.11-10.293,5.966l.419-.286q-3.29,2.395-6.733,4.688a4.668,4.668,0,0,1-6.119-.939,3.684,3.684,0,0,1,.786-5.33q3.265-2.39,6.382-4.88l.061-.043c.118-.078.235-.155.353-.232q4.884-3.213,9.45-6.659a4.3,4.3,0,0,1,3.328-.8c.3.054.607.109.91.161q8.593,1.5,17.425,2.229a7.113,7.113,0,0,1,6.693,7.367c-.235,3.82-3.911,6.78-8.115,6.425A8.118,8.118,0,0,1,192.2,277.647Z" transform="translate(-155.951 -261.779)" fill="#e0bf93"/>
      </g>
      <g id="Group_53278" data-name="Group 53278" transform="translate(36.509 13.762)">
        <path id="Path_2178" data-name="Path 2178" d="M158.309,270.214s1.129-.6,1.088-.2a9.484,9.484,0,0,0-2.156,2.45,10.361,10.361,0,0,0-.746,1.591C156.487,274.053,155.34,272.111,158.309,270.214Z" transform="translate(-156.27 -269.876)" fill="#f2e2ce"/>
      </g>
      <g id="Group_53279" data-name="Group 53279" transform="translate(28.147 32.337)">
        <path id="Path_2179" data-name="Path 2179" d="M150.677,283.086a4.328,4.328,0,0,1,4-.508c2.292.839,1.573,3.624,1.57,3.627Q153.427,284.68,150.677,283.086Z" transform="translate(-150.677 -282.301)" fill="#f2e2ce"/>
      </g>
      <g id="Group_53280" data-name="Group 53280" transform="translate(36.114 34.873)">
        <path id="Path_2180" data-name="Path 2180" d="M156.006,284.872a4.371,4.371,0,0,1,4-.649c2.335.758,1.743,3.323,1.739,3.326Q158.846,286.246,156.006,284.872Z" transform="translate(-156.006 -283.997)" fill="#f2e2ce"/>
      </g>
      <g id="Group_53281" data-name="Group 53281" transform="translate(44.61 37.41)">
        <path id="Path_2181" data-name="Path 2181" d="M161.689,286.513a3.723,3.723,0,0,1,3.379-.667c2,.568,1.561,2.945,1.558,2.947Q164.134,287.681,161.689,286.513Z" transform="translate(-161.689 -285.694)" fill="#f2e2ce"/>
      </g>
      <g id="Group_53282" data-name="Group 53282" transform="translate(51.089 39.17)">
        <path id="Path_2182" data-name="Path 2182" d="M166.023,287.6a3.049,3.049,0,0,1,2.76-.622c1.661.426,1.428,2.544,1.426,2.546Q168.1,288.576,166.023,287.6Z" transform="translate(-166.023 -286.871)" fill="#f2e2ce"/>
      </g>
      <g id="Group_53283" data-name="Group 53283" transform="translate(57.686 28.096)">
        <path id="Path_2183" data-name="Path 2183" d="M186.214,292.246s-1.052-.758-2.6-1.914c-1.528-1.171-3.534-2.754-5.493-4.365s-3.848-3.271-5.249-4.524c-.713-.611-1.287-1.141-1.724-1.478a3.68,3.68,0,0,0-.514-.378c-.127-.081-.2-.123-.2-.123s.07.036.2.108a3.763,3.763,0,0,1,.552.347c.462.315,1.1.789,1.839,1.381,1.492,1.177,3.423,2.8,5.385,4.415,1.938,1.627,3.9,3.246,5.364,4.474S186.214,292.246,186.214,292.246Z" transform="translate(-170.436 -279.464)" fill="#b59a76"/>
      </g>
      <g id="Group_53284" data-name="Group 53284" transform="translate(51.67 31.163)">
        <path id="Path_2184" data-name="Path 2184" d="M180.873,293.437s-.963-.707-2.382-1.786c-1.395-1.1-3.232-2.577-5.026-4.081s-3.525-3.05-4.811-4.21c-.655-.573-1.181-1.066-1.585-1.378a3.54,3.54,0,0,0-.475-.351l-.182-.115a4.7,4.7,0,0,1,.7.422c.428.293,1.021.728,1.7,1.281,1.377,1.09,3.154,2.6,4.951,4.1,1.772,1.525,3.566,3.038,4.895,4.189S180.874,293.437,180.873,293.437Z" transform="translate(-166.412 -281.515)" fill="#b59a76"/>
      </g>
    </g>
  </g>
</svg>
