<svg xmlns="http://www.w3.org/2000/svg" width="112.832" height="98.072" viewBox="0 0 112.832 98.072">
  <g id="search" transform="translate(-109.831 -149.154) rotate(8)">
    <path id="Path_1928" data-name="Path 1928" d="M197.462,160.556l-.5-5.51-4.147-.326a14.176,14.176,0,0,0-1.22-2.607l2.385-3.379-3.92-3.9-3.352,2.391a14.292,14.292,0,0,0-2.652-1.232l-.339-4.077-5.511-.47-1.021,3.952a14.278,14.278,0,0,0-2.856.771l-2.857-2.881-.129.092-4.394,3.091,1.752,3.674a14.392,14.392,0,0,0-1.685,2.436l-4.044-.369-1.418,5.345,3.73,1.7a14.261,14.261,0,0,0,.276,2.924l-3.363,2.332,2.351,5,3.991-1.105a14.11,14.11,0,0,0,2.058,2.027l-1.088,3.99,5.018,2.327,2.369-3.445a14.431,14.431,0,0,0,2.844.23l1.749,3.786,5.337-1.442-.205-2.132-.2-2.049c.4-.23.791-.475,1.171-.742.4-.284.782-.583,1.147-.9l3.785,1.786,3.163-4.538-2.993-2.943a14.278,14.278,0,0,0,.728-2.747ZM184.52,166.59a8.939,8.939,0,0,1-1.157.675,8.813,8.813,0,0,1-8.992-15.1,8.926,8.926,0,0,1,1.079-.637,8.814,8.814,0,0,1,9.071,15.063Z" transform="translate(9.84 4.76)" fill="#efe817"/>
    <path id="_7" data-name="7" d="M183.532,183.107l-.587-6.546-4.929-.387a16.663,16.663,0,0,0-1.45-3.1l2.834-4.016-4.657-4.636-3.981,2.841a16.757,16.757,0,0,0-3.152-1.464l-.4-4.844-6.548-.56-1.211,4.7a16.842,16.842,0,0,0-3.392.916l-3.4-3.423-.153.109-5.222,3.672,2.082,4.367a17.127,17.127,0,0,0-2,2.894l-4.8-.439-1.684,6.35,4.431,2.02a16.753,16.753,0,0,0,.33,3.472l-4,2.771,2.792,5.946,4.742-1.312a16.76,16.76,0,0,0,2.446,2.407l-1.293,4.742,5.962,2.764,2.815-4.093a17.168,17.168,0,0,0,3.378.273l2.078,4.5,6.341-1.714-.243-2.533-.237-2.434c.471-.272.938-.566,1.39-.88q.715-.508,1.363-1.067l4.5,2.123,3.754-5.392-3.554-3.5a17.048,17.048,0,0,0,.867-3.264Zm-15.377,7.17a10.729,10.729,0,0,1-1.374.8A10.47,10.47,0,0,1,156.1,173.137a10.252,10.252,0,0,1,1.283-.756,10.471,10.471,0,0,1,10.775,17.9Z" transform="translate(0.448 13.368)" fill="#efe817"/>
    <g id="Group_52937" data-name="Group 52937" transform="translate(139.888 130.96)">
      <g id="_8" data-name="8">
        <g id="Group_52933" data-name="Group 52933" transform="translate(63.402 51.247)">
          <path id="Path_1930" data-name="Path 1930" d="M183.536,171.746l2.9-5.318a.637.637,0,0,1,.848-.128l16.218,8.229c.448.227.692.643.541.922l-3.371,6.187c-.153.281-.634.3-1.067.048l-15.71-9.161A.635.635,0,0,1,183.536,171.746Z" transform="translate(-183.49 -166.203)" fill="#b1bac3"/>
          <path id="Path_1931" data-name="Path 1931" d="M193.505,178.749l4.034-7.406c.137-.254.627-.257,1.086-.007l4.714,2.568c.459.25.723.663.585.918l-4.034,7.4c-.138.254-.627.257-1.086.009l-4.716-2.568C193.631,179.415,193.367,179,193.505,178.749Z" transform="translate(-178.959 -163.956)" fill="#788f9b"/>
          <path id="Path_1932" data-name="Path 1932" d="M194.028,179.8l4.567-8.386c.205-.38,1.018-.353,1.81.058l24.965,12.771c1.054.547,1.726,1.358,1.486,1.8l-5.316,9.761c-.24.441-1.285.317-2.318-.272l-24.164-14.243C194.284,180.846,193.822,180.177,194.028,179.8Z" transform="translate(-178.728 -163.959)" fill="#efe817"/>
          <path id="Path_1933" data-name="Path 1933" d="M190.721,168.058l-3.547,6.513.754.44,5.764,3.363.754.44,3.784-6.95Z" transform="translate(-181.818 -165.361)" fill="#788f9b"/>
          <path id="Path_1934" data-name="Path 1934" d="M187.3,176.414l4.768-8.757a.782.782,0,0,1,1.064-.129l4.324,2.356c.422.228.633.663.468.964l-4.768,8.757a.784.784,0,0,1-1.064.128l-4.324-2.354C187.345,177.148,187.134,176.715,187.3,176.414Z" transform="translate(-181.787 -165.665)" fill="#efe817"/>
          <path id="Path_1935" data-name="Path 1935" d="M186,166.659l43.979,24.079-2.087,3.831L183.915,170.49Z" transform="translate(-183.298 -165.996)" fill="#b1bac3" opacity="0.54" style="mix-blend-mode: overlay;isolation: isolate"/>
        </g>
        <g id="Group_52936" data-name="Group 52936">
          <g id="Group_52934" data-name="Group 52934">
            <path id="Path_1936" data-name="Path 1936" d="M189.906,200.137a36,36,0,1,0-47.172-19.159A36,36,0,0,0,189.906,200.137Zm-2.021-4.784a30.808,30.808,0,1,1,16.395-40.369A30.81,30.81,0,0,1,187.885,195.353Z" transform="translate(-139.888 -130.96)" fill="#b1bac3"/>
          </g>
          <g id="Group_52935" data-name="Group 52935" transform="translate(3.837 5.148)">
            <path id="Path_1937" data-name="Path 1937" d="M186.285,192.792a29.774,29.774,0,1,0-39.013-15.844A29.775,29.775,0,0,0,186.285,192.792Zm.452,2.914a31.858,31.858,0,1,1,16.9-41.721A31.829,31.829,0,0,1,186.738,195.706Z" transform="translate(-142.527 -134.5)" fill="#788f9b"/>
          </g>
        </g>
      </g>
      <path id="_9" data-name="9" d="M151.931,182.555a27.558,27.558,0,0,1-6.885-16.854c-.254-6.644.672-13.139,4.768-18.5a27.586,27.586,0,0,1,6.677-6.241,26.827,26.827,0,0,1,3.9-2.143c1.021-.454,3.164-.7,3.957-1.381-4.1,3.56-7.8,7.8-9.68,12.9a22.839,22.839,0,0,0,2.258,19.656A21.6,21.6,0,0,0,164,177.1c3.2,1.944,7.006,1.922,10.16,3.728a10.414,10.414,0,0,1,4.833,5.027c2.594,6.686-6.2,7.412-10.579,6.52A29.982,29.982,0,0,1,151.931,182.555Z" transform="translate(-137.563 -128.022)" fill="#f0f1f1" opacity="0.34"/>
    </g>
  </g>
</svg>
