<svg xmlns="http://www.w3.org/2000/svg" width="104.075" height="104.073" viewBox="0 0 104.075 104.073">
  <g id="service_contactor" transform="translate(-336.088 -335.373)">
    <g id="Group_52970" data-name="Group 52970" transform="translate(336.088 335.373)">
      <path id="Path_1976" data-name="Path 1976" d="M440.163,387.41a52.037,52.037,0,1,1-52.037-52.037A52.036,52.036,0,0,1,440.163,387.41Z" transform="translate(-336.088 -335.373)" fill="#efe817"/>
    </g>
    <g id="Group_53065" data-name="Group 53065" transform="translate(341.86 358.306)">
      <g id="Group_53064" data-name="Group 53064">
        <g id="Group_53000" data-name="Group 53000" transform="translate(0 7.498)">
          <g id="Group_52999" data-name="Group 52999">
            <g id="Group_52975" data-name="Group 52975" transform="translate(8.859 27.12)">
              <g id="Group_52974" data-name="Group 52974">
                <path id="Path_1987" data-name="Path 1987" d="M359.6,379.871l-10.622-.17-1.2.341-.42.227.1.317,3.3,10.063.964,2.717h5.467l.52-2.528,2.873-10.209.118-.417Z" transform="translate(-347.357 -379.701)" fill="#dbd5d5"/>
              </g>
            </g>
            <g id="Group_52977" data-name="Group 52977" transform="translate(0 28.005)">
              <g id="Group_52976" data-name="Group 52976">
                <path id="Path_1988" data-name="Path 1988" d="M349.5,380.383c-3,3.9-7.828,4.466-8.683,9.195l-.279,3.586h13.225l-.965-2.717Z" transform="translate(-340.534 -380.383)" fill="#0c0a0a"/>
              </g>
            </g>
            <g id="Group_52979" data-name="Group 52979" transform="translate(18.692 28.048)">
              <g id="Group_52978" data-name="Group 52978">
                <path id="Path_1989" data-name="Path 1989" d="M354.931,393.154H367.7l-.278-3.586c-.667-3.216-4.291-4.765-9.1-9.152l-2.873,10.209Z" transform="translate(-354.931 -380.416)" fill="#161313"/>
              </g>
            </g>
            <g id="Group_52981" data-name="Group 52981" transform="translate(10.336 22.415)">
              <g id="Group_52980" data-name="Group 52980">
                <path id="Path_1990" data-name="Path 1990" d="M357.211,376.077H350.57a1.963,1.963,0,0,0-2.075,1.829v4.714a1.962,1.962,0,0,0,2.075,1.828h6.641A2.028,2.028,0,0,0,359.237,383c.014-.008.034-.007.048-.014v-5.084A1.963,1.963,0,0,0,357.211,376.077Z" transform="translate(-348.495 -376.077)" fill="#d1ab86"/>
              </g>
            </g>
            <g id="Group_52983" data-name="Group 52983" transform="translate(5.36 2.985)">
              <g id="Group_52982" data-name="Group 52982">
                <path id="Path_1991" data-name="Path 1991" d="M364.778,371.861c-.258-.079-.556.1-.84.476.008-.184.013-.365.013-.545,0-5.9-3.994-10.681-8.917-10.681s-8.917,4.783-8.917,10.681c0,.18,0,.361.012.545-.284-.373-.58-.556-.84-.476-.626.195-.815,1.841-.421,3.674s1.226,3.167,1.853,2.973c.222-.067.387-.322.492-.7,1.516,4.413,4.451,8.408,7.821,8.408s6.3-4,7.82-8.408c.105.377.273.631.492.7.63.193,1.457-1.137,1.851-2.973S365.4,372.056,364.778,371.861Z" transform="translate(-344.662 -361.111)" fill="#ffe2c2"/>
              </g>
            </g>
            <g id="Group_52985" data-name="Group 52985" transform="translate(10.116 27.555)">
              <g id="Group_52984" data-name="Group 52984">
                <path id="Path_1992" data-name="Path 1992" d="M348.464,380.036s.175,1.664,3.209,2.573,1.013,3.025,1.013,3.025l-2.373.492-1.394-2.724-.592-2.08Z" transform="translate(-348.326 -380.036)" fill="#fff8f8"/>
              </g>
            </g>
            <g id="Group_52987" data-name="Group 52987" transform="translate(16.324 27.859)">
              <g id="Group_52986" data-name="Group 52986">
                <path id="Path_1993" data-name="Path 1993" d="M357.99,380.27s-.175,1.663-3.211,2.571-1.011,3.025-1.011,3.025l2.373.492,1.4-2.724.592-2.079Z" transform="translate(-353.108 -380.27)" fill="#fff8f8"/>
              </g>
            </g>
            <g id="Group_52989" data-name="Group 52989" transform="translate(6.154 27.29)">
              <g id="Group_52988" data-name="Group 52988">
                <path id="Path_1994" data-name="Path 1994" d="M348.568,379.832l-3.294,1.958,6.106,8.821Z" transform="translate(-345.274 -379.832)" fill="#333030"/>
              </g>
            </g>
            <g id="Group_52991" data-name="Group 52991" transform="translate(19.211 27.253)">
              <g id="Group_52990" data-name="Group 52990">
                <path id="Path_1995" data-name="Path 1995" d="M358.2,379.8l3.444,2.59-6.314,8.414Z" transform="translate(-355.331 -379.804)" fill="#333030"/>
              </g>
            </g>
            <g id="Group_52996" data-name="Group 52996" transform="translate(13.684 30.637)">
              <g id="Group_52993" data-name="Group 52993" transform="translate(0 3.753)">
                <g id="Group_52992" data-name="Group 52992">
                  <path id="Path_1996" data-name="Path 1996" d="M352.691,385.3l-1.617,6.382h4.481l-1.843-6.382Z" transform="translate(-351.074 -385.301)" fill="#0c0a0a"/>
                </g>
              </g>
              <g id="Group_52995" data-name="Group 52995" transform="translate(0.284)">
                <g id="Group_52994" data-name="Group 52994">
                  <path id="Path_1997" data-name="Path 1997" d="M351.8,382.41l2.666.038.492,1.966-.549,2H351.9l-.6-1.871Z" transform="translate(-351.293 -382.41)" fill="#0c0a0a"/>
                </g>
              </g>
            </g>
            <g id="Group_52998" data-name="Group 52998" transform="translate(4.045)">
              <g id="Group_52997" data-name="Group 52997">
                <path id="Path_1998" data-name="Path 1998" d="M345.84,380.664a12.839,12.839,0,0,1-2.047-8.795c.827-3.877,2.367-6.952,4.757-9.075.4-2.586,1.924-4.048,4.984-3.979,7.677.492,11.776,5,13.344,12.357a12.839,12.839,0,0,1-2.047,8.795c-2.016,3.983-.793,6.993,1.137,11.22-4.944-1.527-8.2-3.213-7.2-5.307,2.774-6.183,5.761-11.789,1.789-17.06-1.293-.035-7.09,4.136-10.614,1.178-3.447,5.156-.6,10.679,1.967,16.579.993,2.094-2.26,3.781-7.2,5.307C346.632,387.656,347.858,384.644,345.84,380.664Z" transform="translate(-343.65 -358.812)" fill="#6b4a3b"/>
              </g>
            </g>
          </g>
        </g>
        <g id="Group_53026" data-name="Group 53026" transform="translate(57.437 9.548)">
          <g id="Group_53025" data-name="Group 53025">
            <g id="Group_53002" data-name="Group 53002" transform="translate(10.097 24.918)">
              <g id="Group_53001" data-name="Group 53001">
                <path id="Path_1999" data-name="Path 1999" d="M405.824,379.754l-11.513-.17-1.306.341-.454.227.112.317,3.575,10.064,1.046,2.716h5.927l.563-2.528,3.114-10.209.128-.417Z" transform="translate(-392.551 -379.584)" fill="#dbd5d5"/>
              </g>
            </g>
            <g id="Group_53004" data-name="Group 53004" transform="translate(0 25.803)">
              <g id="Group_53003" data-name="Group 53003">
                <path id="Path_2000" data-name="Path 2000" d="M394.983,380.266c-5.506,1.087-9.759,3.568-9.759,7.53l-.449,5.249H399.6l-1.045-2.715Z" transform="translate(-384.774 -380.266)" fill="#161313"/>
              </g>
            </g>
            <g id="Group_53006" data-name="Group 53006" transform="translate(20.757 25.846)">
              <g id="Group_53005" data-name="Group 53005">
                <path id="Path_2001" data-name="Path 2001" d="M400.762,393.035H415.1l-.451-5.249c0-3.824-4.487-6.351-10.21-7.487l-3.115,10.209Z" transform="translate(-400.762 -380.299)" fill="#0c0a0a"/>
              </g>
            </g>
            <g id="Group_53008" data-name="Group 53008" transform="translate(11.698 20.537)">
              <g id="Group_53007" data-name="Group 53007">
                <path id="Path_2002" data-name="Path 2002" d="M403.232,376.21h-7.2a2.051,2.051,0,0,0-2.251,1.759V382.5a2.051,2.051,0,0,0,2.251,1.758h7.2a2.193,2.193,0,0,0,2.2-1.388c.017-.008.036-.008.052-.016v-4.886A2.051,2.051,0,0,0,403.232,376.21Z" transform="translate(-393.784 -376.21)" fill="#d1ab86"/>
              </g>
            </g>
            <g id="Group_53010" data-name="Group 53010" transform="translate(6.303 1.86)">
              <g id="Group_53009" data-name="Group 53009">
                <path id="Path_2003" data-name="Path 2003" d="M411.438,372.157c-.284-.077-.6.1-.913.458.008-.177.013-.352.013-.525,0-5.67-4.327-10.267-9.666-10.267s-9.665,4.6-9.665,10.267c0,.173,0,.348.01.525-.308-.36-.627-.535-.91-.458-.68.187-.883,1.768-.454,3.533s1.326,3.043,2.007,2.858a.911.911,0,0,0,.534-.675c1.642,4.245,4.823,8.086,8.478,8.086s6.836-3.842,8.478-8.086a.911.911,0,0,0,.534.675c.682.186,1.579-1.093,2.007-2.858S412.117,372.344,411.438,372.157Z" transform="translate(-389.629 -361.824)" fill="#ffe2c2"/>
              </g>
            </g>
            <g id="Group_53012" data-name="Group 53012" transform="translate(11.459 25.353)">
              <g id="Group_53011" data-name="Group 53011">
                <path id="Path_2004" data-name="Path 2004" d="M393.752,379.919s.188,1.664,3.477,2.572,1.1,3.025,1.1,3.025l-2.571.492-1.511-2.723-.644-2.08Z" transform="translate(-393.6 -379.919)" fill="#fff8f8"/>
              </g>
            </g>
            <g id="Group_53014" data-name="Group 53014" transform="translate(18.191 25.655)">
              <g id="Group_53013" data-name="Group 53013">
                <path id="Path_2005" data-name="Path 2005" d="M404.076,380.152s-.188,1.664-3.477,2.572-1.1,3.025-1.1,3.025l2.571.492,1.511-2.724.644-2.079Z" transform="translate(-398.785 -380.152)" fill="#fff8f8"/>
              </g>
            </g>
            <g id="Group_53016" data-name="Group 53016" transform="translate(7.695 24.634)">
              <g id="Group_53015" data-name="Group 53015">
                <path id="Path_2006" data-name="Path 2006" d="M393.613,379.365l-2.912,1.362,6.088,9.872Z" transform="translate(-390.701 -379.365)" fill="#333030"/>
              </g>
            </g>
            <g id="Group_53018" data-name="Group 53018" transform="translate(21.32 24.824)">
              <g id="Group_53017" data-name="Group 53017">
                <path id="Path_2007" data-name="Path 2007" d="M404.371,379.512l2.912,1.362-6.088,9.869Z" transform="translate(-401.195 -379.512)" fill="#333030"/>
              </g>
            </g>
            <g id="Group_53020" data-name="Group 53020" transform="translate(15.542 32.15)">
              <g id="Group_53019" data-name="Group 53019">
                <path id="Path_2008" data-name="Path 2008" d="M398.363,385.154l-1.618,6.383h4.482l-1.844-6.383Z" transform="translate(-396.745 -385.154)" fill="#0c0a0a"/>
              </g>
            </g>
            <g id="Group_53022" data-name="Group 53022" transform="translate(15.826 28.397)">
              <g id="Group_53021" data-name="Group 53021">
                <path id="Path_2009" data-name="Path 2009" d="M397.473,382.264l2.668.038.492,1.968-.549,2H397.57l-.606-1.871Z" transform="translate(-396.964 -382.264)" fill="#0c0a0a"/>
              </g>
            </g>
            <g id="Group_53024" data-name="Group 53024" transform="translate(7.697)">
              <g id="Group_53023" data-name="Group 53023">
                <path id="Path_2010" data-name="Path 2010" d="M406.471,364.361c1.285-6.415-17.9-6.079-15.573,8.682l1.176,5.257a52.3,52.3,0,0,0,12.839-11.137c2.016.91,3.165,2.638,3.563,6.784l.554,4.353,1.175-5.257S411.868,362.408,406.471,364.361Z" transform="translate(-390.702 -360.391)" fill="#6b4a3b"/>
              </g>
            </g>
          </g>
        </g>
        <g id="Group_53028" data-name="Group 53028" transform="translate(21.871 5.236)">
          <g id="Group_53027" data-name="Group 53027">
            <path id="Path_2011" data-name="Path 2011" d="M403.674,386.345c-1.61-2.033-6.987-3.022-8.509-3.256l-1.17-.295-.77-.422-2.523-1.964a1.649,1.649,0,0,1-.54-1.161l-.1-1.862a20.217,20.217,0,0,0,2.229-3.97,5.672,5.672,0,0,0,2.784-3.231,5.534,5.534,0,0,0,.13-3.985,2.125,2.125,0,0,0-.758-.88,75.915,75.915,0,0,0-1.472-7.894c-.6.125-.956-.352-1.644-.352-.023,0-.045,0-.068,0,2.541,3.966,1.666,10.11-2.632,12.566,1.641,5.026-.971,11.619-7.85,11.619-2.754,0-4.76-.552-6.146-2.143a9.23,9.23,0,0,1-1.254-1.179l-.069,1.3a1.647,1.647,0,0,1-.522,1.155l-2.569,2.156-.195.105-1.6.412c-1.646.258-7.026,1.246-8.639,3.281-2.874,2.873-2.443,19.181-2.3,19.878a1.474,1.474,0,0,0,1.207,1.237c.173.029.308.051,5.764.051,5.176,0,12.4-.023,14.418-.03,2.616.006,11.942.03,18.593.03,6.984,0,7.112-.021,7.271-.047a1.482,1.482,0,0,0,1.228-1.241C406.121,405.527,406.548,389.219,403.674,386.345Z" transform="translate(-357.38 -357.07)" fill="none"/>
          </g>
        </g>
        <g id="Group_53063" data-name="Group 53063" transform="translate(23.226)">
          <g id="Group_53062" data-name="Group 53062">
            <g id="Group_53030" data-name="Group 53030" transform="translate(10.083 29.438)">
              <g id="Group_53029" data-name="Group 53029">
                <path id="Path_2012" data-name="Path 2012" d="M377.458,398.121,366.19,380.108l5.894-4.4,14.641,1.039,5.558,5.23-12.548,17.447C378.985,398.958,378.224,398.527,377.458,398.121Z" transform="translate(-366.19 -375.711)" fill="#dbd5d5"/>
              </g>
            </g>
            <g id="Group_53032" data-name="Group 53032" transform="translate(22.998 31.547)">
              <g id="Group_53031" data-name="Group 53031">
                <path id="Path_2013" data-name="Path 2013" d="M384.981,377.335l4.242,1.074s6.6,1.037,7.811,2.841c2.18,1.392,2.34,18.714,1.9,18.78s-20.509,0-20.509,0c-.756-.526-1.523-1.009-2.29-1.467v-.022Z" transform="translate(-376.137 -377.335)" fill="#0c0a0a"/>
              </g>
            </g>
            <g id="Group_53034" data-name="Group 53034" transform="translate(0 31.547)">
              <g id="Group_53033" data-name="Group 53033">
                <path id="Path_2014" data-name="Path 2014" d="M372.576,377.335l-4.243,1.074s-6.594,1.037-7.807,2.841c-2.184,1.392-2.343,18.714-1.909,18.78s26.363,0,26.363,0c.756-.526-1.992-.806-3.56-1.467v-.022Z" transform="translate(-358.423 -377.335)" fill="#0c0a0a"/>
              </g>
            </g>
            <g id="Group_53036" data-name="Group 53036" transform="translate(16.436 22.376)">
              <g id="Group_53035" data-name="Group 53035">
                <rect id="Rectangle_1658" data-name="Rectangle 1658" width="13.112" height="10.244" fill="#d1ab86"/>
              </g>
            </g>
            <g id="Group_53047" data-name="Group 53047" transform="translate(10.617)">
              <g id="Group_53038" data-name="Group 53038" transform="translate(1.692 4.4)">
                <g id="Group_53037" data-name="Group 53037">
                  <path id="Path_2015" data-name="Path 2015" d="M367.978,367.843c.809,7.924,6.79,13.8,10.59,13.8,4.066,0,9.64-6.045,10.592-13.8.927-7.568-4.741-11.417-10.592-11.417S367.2,360.257,367.978,367.843Z" transform="translate(-367.905 -356.426)" fill="#ffe2c2"/>
                </g>
              </g>
              <g id="Group_53040" data-name="Group 53040" transform="translate(0.724)">
                <g id="Group_53039" data-name="Group 53039">
                  <path id="Path_2016" data-name="Path 2016" d="M389.791,361.058a11.161,11.161,0,0,0-7.447-7.422c-3.09-.756-8.632-1.633-13.33,3.119-.617.625-1.993,5.483-1.844,6.872a39.721,39.721,0,0,0,1,6.423l1.258.583a6.665,6.665,0,0,1,.2-4.1,9.863,9.863,0,0,1,.856-1.8c3.128,1.729,9.131-.178,12.753.309,2.608.351,3.072,3.3,4.619,3.344a5.974,5.974,0,0,1-.187,2.243l1.258-.583a14.421,14.421,0,0,0,.348-1.638c.3,0,.471,0,.471,0A15.085,15.085,0,0,0,389.791,361.058Z" transform="translate(-367.159 -353.037)" fill="#0c0a0a"/>
                </g>
              </g>
              <g id="Group_53043" data-name="Group 53043" transform="translate(21.367 14.579)">
                <g id="Group_53042" data-name="Group 53042">
                  <g id="Group_53041" data-name="Group 53041">
                    <path id="Path_2017" data-name="Path 2017" d="M383.712,366.75c-.549,1.584-.976,3.109-.322,3.338s2.136-.931,2.686-2.512.471-3.052-.18-3.28S384.264,365.166,383.712,366.75Z" transform="translate(-383.059 -364.266)" fill="#ffe2c2"/>
                  </g>
                </g>
              </g>
              <g id="Group_53046" data-name="Group 53046" transform="translate(0 14.579)">
                <g id="Group_53045" data-name="Group 53045">
                  <g id="Group_53044" data-name="Group 53044">
                    <path id="Path_2018" data-name="Path 2018" d="M369.332,366.75c.552,1.584.978,3.109.321,3.338s-2.134-.931-2.685-2.512-.473-3.052.179-3.28S368.779,365.166,369.332,366.75Z" transform="translate(-366.601 -364.266)" fill="#ffe2c2"/>
                  </g>
                </g>
              </g>
            </g>
            <g id="Group_53052" data-name="Group 53052" transform="translate(19.694 31.547)">
              <g id="Group_53049" data-name="Group 53049">
                <g id="Group_53048" data-name="Group 53048">
                  <path id="Path_2019" data-name="Path 2019" d="M373.593,380.1l3.3,2.769,3.3-2.769-3.3-2.769Z" transform="translate(-373.593 -377.335)" fill="#0c0a0a"/>
                </g>
              </g>
              <g id="Group_53051" data-name="Group 53051" transform="translate(0.456 4.899)">
                <g id="Group_53050" data-name="Group 53050">
                  <path id="Path_2020" data-name="Path 2020" d="M377.383,381.108l1.941,9.485-2.4,7.807-2.981-7.807,2.214-9.485Z" transform="translate(-373.944 -381.108)" fill="#0c0a0a"/>
                </g>
              </g>
            </g>
            <g id="Group_53057" data-name="Group 53057" transform="translate(14.143 27.476)">
              <g id="Group_53054" data-name="Group 53054" transform="translate(8.855)">
                <g id="Group_53053" data-name="Group 53053">
                  <path id="Path_2021" data-name="Path 2021" d="M383.153,374.2l-7.016,4.079,2.307,4.911,5.479-5.078s1.441-.371.961-1.019S383.24,375.866,383.153,374.2Z" transform="translate(-376.137 -374.2)" fill="#fff8f8"/>
                </g>
              </g>
              <g id="Group_53056" data-name="Group 53056" transform="translate(0 0.016)">
                <g id="Group_53055" data-name="Group 53055">
                  <path id="Path_2022" data-name="Path 2022" d="M371.146,374.212l7,4.064-2.3,4.9-5.475-5.058s-1.439-.373-.959-1.017S371.053,375.873,371.146,374.212Z" transform="translate(-369.317 -374.212)" fill="#fff8f8"/>
                </g>
              </g>
            </g>
            <g id="Group_53059" data-name="Group 53059" transform="translate(22.997 29.623)">
              <g id="Group_53058" data-name="Group 53058">
                <path id="Path_2023" data-name="Path 2023" d="M376.137,398.982l8.024-23.129,2.693,2.262,2.81,1.511-3.445,5.75-1.582-.032,1.005,3.328Z" transform="translate(-376.137 -375.853)" fill="#333030"/>
              </g>
            </g>
            <g id="Group_53061" data-name="Group 53061" transform="translate(9.217 29.623)">
              <g id="Group_53060" data-name="Group 53060">
                <path id="Path_2024" data-name="Path 2024" d="M379.3,398.982l-8.024-23.129-2.69,2.095-3.062,1.679,3.695,5.75,1.585-.032-1.008,3.328Z" transform="translate(-365.522 -375.853)" fill="#333030"/>
              </g>
            </g>
          </g>
        </g>
      </g>
    </g>
  </g>
</svg>
