<svg xmlns="http://www.w3.org/2000/svg" xmlns:xlink="http://www.w3.org/1999/xlink" width="112.13" height="114.3" viewBox="0 0 112.13 114.3">
  <defs>
    <clipPath id="clip-path">
      <rect id="Rectangle_1801" data-name="Rectangle 1801" width="112.13" height="114.3" transform="translate(656 349)" fill="none"/>
    </clipPath>
    <linearGradient id="linear-gradient" x1="14.212" y1="-21.678" x2="16.425" y2="-19.465" gradientUnits="objectBoundingBox">
      <stop offset="0" stop-color="#ffd03f"/>
      <stop offset="0.197" stop-color="#fcc939"/>
      <stop offset="0.464" stop-color="#f5b82a"/>
      <stop offset="0.771" stop-color="#ea9c12"/>
      <stop offset="0.899" stop-color="#e58e06"/>
      <stop offset="1" stop-color="#df8800"/>
    </linearGradient>
    <linearGradient id="linear-gradient-2" x1="18.831" y1="-24.147" x2="21.043" y2="-21.934" xlink:href="#linear-gradient"/>
    <linearGradient id="linear-gradient-3" x1="23.5" y1="-25.672" x2="25.713" y2="-23.459" xlink:href="#linear-gradient"/>
    <linearGradient id="linear-gradient-4" x1="28.006" y1="-26.158" x2="30.219" y2="-23.945" xlink:href="#linear-gradient"/>
    <linearGradient id="linear-gradient-5" x1="32.096" y1="-25.591" x2="34.308" y2="-23.378" xlink:href="#linear-gradient"/>
    <clipPath id="clip-path-2">
      <path id="Path_16937" data-name="Path 16937" d="M399.731,507.354l-22.085,7.536-22.085-7.536-27.948,81.9,19.767-4.337,12.5,15.347,17.77-52.073,17.77,52.073,12.5-15.347,19.768,4.337Z" transform="translate(-327.612 -507.354)" fill="none"/>
    </clipPath>
    <linearGradient id="linear-gradient-6" x1="-0.552" y1="-0.552" x2="1.661" y2="1.661" xlink:href="#linear-gradient"/>
    <linearGradient id="linear-gradient-7" x1="0.736" y1="-5.25" x2="2.949" y2="-3.037" xlink:href="#linear-gradient"/>
    <linearGradient id="linear-gradient-8" x1="2.978" y1="-9.945" x2="5.191" y2="-7.732" xlink:href="#linear-gradient"/>
    <linearGradient id="linear-gradient-9" x1="6.09" y1="-14.381" x2="8.303" y2="-12.168" xlink:href="#linear-gradient"/>
    <linearGradient id="linear-gradient-10" x1="9.904" y1="-18.365" x2="12.117" y2="-16.152" xlink:href="#linear-gradient"/>
    <linearGradient id="linear-gradient-11" x1="35.599" y1="-23.981" x2="37.812" y2="-21.769" xlink:href="#linear-gradient"/>
    <linearGradient id="linear-gradient-12" x1="38.323" y1="-21.441" x2="40.536" y2="-19.228" xlink:href="#linear-gradient"/>
    <linearGradient id="linear-gradient-13" x1="40.114" y1="-18.072" x2="42.327" y2="-15.859" xlink:href="#linear-gradient"/>
    <linearGradient id="linear-gradient-14" x1="40.92" y1="-14.039" x2="43.133" y2="-11.827" xlink:href="#linear-gradient"/>
    <linearGradient id="linear-gradient-15" x1="40.667" y1="-9.572" x2="42.88" y2="-7.359" xlink:href="#linear-gradient"/>
    <linearGradient id="linear-gradient-16" x1="39.391" y1="-4.872" x2="41.604" y2="-2.659" xlink:href="#linear-gradient"/>
    <linearGradient id="linear-gradient-17" x1="37.127" y1="-0.188" x2="39.34" y2="2.025" xlink:href="#linear-gradient"/>
    <linearGradient id="linear-gradient-18" x1="34.024" y1="4.268" x2="36.237" y2="6.481" xlink:href="#linear-gradient"/>
    <linearGradient id="linear-gradient-19" x1="30.223" y1="8.237" x2="32.436" y2="10.45" xlink:href="#linear-gradient"/>
    <linearGradient id="linear-gradient-20" x1="25.893" y1="11.545" x2="28.106" y2="13.758" xlink:href="#linear-gradient"/>
    <linearGradient id="linear-gradient-21" x1="21.29" y1="14.034" x2="23.503" y2="16.246" xlink:href="#linear-gradient"/>
    <linearGradient id="linear-gradient-22" x1="16.615" y1="15.548" x2="18.828" y2="17.76" xlink:href="#linear-gradient"/>
    <linearGradient id="linear-gradient-23" x1="12.122" y1="16.037" x2="14.335" y2="18.25" xlink:href="#linear-gradient"/>
    <linearGradient id="linear-gradient-24" x1="8.009" y1="15.459" x2="10.222" y2="17.672" xlink:href="#linear-gradient"/>
    <linearGradient id="linear-gradient-25" x1="4.515" y1="13.869" x2="6.728" y2="16.082" xlink:href="#linear-gradient"/>
    <linearGradient id="linear-gradient-26" x1="1.804" y1="11.313" x2="4.017" y2="13.525" xlink:href="#linear-gradient"/>
    <linearGradient id="linear-gradient-27" x1="-0.009" y1="7.939" x2="2.204" y2="10.152" xlink:href="#linear-gradient"/>
    <linearGradient id="linear-gradient-28" x1="-0.799" y1="3.926" x2="1.414" y2="6.139" xlink:href="#linear-gradient"/>
    <linearGradient id="linear-gradient-29" x1="0.209" y1="0.021" x2="0.792" y2="0.98" gradientUnits="objectBoundingBox">
      <stop offset="0" stop-color="#e6dddd"/>
      <stop offset="0.197" stop-color="#c5c5c5"/>
      <stop offset="0.464" stop-color="#949494"/>
      <stop offset="0.771" stop-color="#7b766d"/>
      <stop offset="0.899" stop-color="#726a5e"/>
      <stop offset="0.962" stop-color="#635746"/>
      <stop offset="1" stop-color="#514c46"/>
    </linearGradient>
    <filter id="Path_16942" x="-524" y="508" width="1108" height="363" filterUnits="userSpaceOnUse">
      <feOffset dy="10" input="SourceAlpha"/>
      <feGaussianBlur stdDeviation="5" result="blur"/>
      <feFlood flood-opacity="0.161"/>
      <feComposite operator="in" in2="blur"/>
      <feComposite in="SourceGraphic"/>
    </filter>
    <linearGradient id="linear-gradient-58" x1="0.209" y1="0.021" x2="0.792" y2="0.98" gradientUnits="objectBoundingBox">
      <stop offset="0" stop-color="#86cfd5"/>
      <stop offset="0.209" stop-color="#38a1ab"/>
      <stop offset="0.389" stop-color="#3ca4ac"/>
      <stop offset="0.803" stop-color="#195b61"/>
      <stop offset="0.899" stop-color="#426467"/>
      <stop offset="1" stop-color="#196a71"/>
    </linearGradient>
    <filter id="Rectangle_16" x="-524" y="1414" width="1108" height="363" filterUnits="userSpaceOnUse">
      <feOffset dy="10" input="SourceAlpha"/>
      <feGaussianBlur stdDeviation="5" result="blur-2"/>
      <feFlood flood-opacity="0.161"/>
      <feComposite operator="in" in2="blur-2"/>
      <feComposite in="SourceGraphic"/>
    </filter>
    <linearGradient id="linear-gradient-87" x1="0.209" y1="0.021" x2="0.792" y2="0.98" gradientUnits="objectBoundingBox">
      <stop offset="0" stop-color="#db2e62"/>
      <stop offset="0.197" stop-color="#7e1535"/>
      <stop offset="0.464" stop-color="#92002c"/>
      <stop offset="0.771" stop-color="#9a3855"/>
      <stop offset="0.899" stop-color="#d25178"/>
      <stop offset="1" stop-color="#df4d79"/>
    </linearGradient>
  </defs>
  <g id="silver-member" transform="translate(-656 -349)" clip-path="url(#clip-path)">
    <g id="silver" transform="translate(273 69.979)">
      <g id="Group_53699" data-name="Group 53699" transform="translate(383 279)">
        <circle id="Ellipse_390" data-name="Ellipse 390" cx="6.154" cy="6.154" r="6.154" transform="translate(5.542 30.326) rotate(-4.493)" fill="url(#linear-gradient)"/>
        <circle id="Ellipse_391" data-name="Ellipse 391" cx="6.154" cy="6.154" r="6.154" transform="matrix(0.557, -0.83, 0.83, 0.557, 0, 48.002)" fill="url(#linear-gradient-2)"/>
        <circle id="Ellipse_392" data-name="Ellipse 392" cx="6.154" cy="6.154" r="6.154" transform="translate(1.159 51.059)" fill="url(#linear-gradient-3)"/>
        <circle id="Ellipse_393" data-name="Ellipse 393" cx="6.154" cy="6.154" r="6.154" transform="translate(0.387 71.149) rotate(-65.486)" fill="url(#linear-gradient-4)"/>
        <circle id="Ellipse_394" data-name="Ellipse 394" cx="6.154" cy="6.154" r="6.154" transform="matrix(0.993, -0.122, 0.122, 0.993, 5.301, 73.089)" fill="url(#linear-gradient-5)"/>
        <g id="Group_53698" data-name="Group 53698" transform="translate(4.675)">
          <g id="Group_53627" data-name="Group 53627" transform="translate(1.544 60.994)">
            <g id="Group_53626" data-name="Group 53626" clip-path="url(#clip-path-2)">
              <g id="Group_53625" data-name="Group 53625" transform="translate(5.616 20.578)" opacity="0.35" style="mix-blend-mode: soft-light;isolation: isolate">
                <path id="Path_16923" data-name="Path 16923" d="M444.7,643.064a6.153,6.153,0,0,0-9.69,6.708,6.15,6.15,0,0,0-8.024,6.4,6.15,6.15,0,0,0-9.247,4.453,6.15,6.15,0,0,0-10.006,2.284,6.15,6.15,0,0,0-10.264,0,6.15,6.15,0,0,0-10.006-2.284,6.15,6.15,0,0,0-9.247-4.453,6.15,6.15,0,0,0-8.024-6.4,6.157,6.157,0,1,0-3.95,3.951,6.145,6.145,0,0,0,9,7.179,6.146,6.146,0,0,0,10.374,5,6.146,6.146,0,0,0,11.226,2.562,6.145,6.145,0,0,0,11.514,0,6.146,6.146,0,0,0,11.226-2.562,6.146,6.146,0,0,0,10.375-5,6.145,6.145,0,0,0,9-7.179,6.151,6.151,0,0,0,5.739-10.658Z" transform="translate(-358.189 -637.618)" opacity="0"/>
                <path id="Path_16924" data-name="Path 16924" d="M444.7,641.346a6.153,6.153,0,0,0-9.69,6.708,6.15,6.15,0,0,0-8.024,6.4,6.15,6.15,0,0,0-9.247,4.453,6.15,6.15,0,0,0-10.006,2.284,6.15,6.15,0,0,0-10.264,0,6.15,6.15,0,0,0-10.006-2.284,6.15,6.15,0,0,0-9.247-4.453,6.15,6.15,0,0,0-8.024-6.4,6.157,6.157,0,1,0-3.95,3.951,6.146,6.146,0,0,0,9,7.179,6.146,6.146,0,0,0,10.374,5,6.146,6.146,0,0,0,11.226,2.562,6.145,6.145,0,0,0,11.514,0,6.146,6.146,0,0,0,11.226-2.562,6.146,6.146,0,0,0,10.375-5,6.146,6.146,0,0,0,9-7.179,6.151,6.151,0,0,0,5.739-10.658Z" transform="translate(-358.189 -636.216)" opacity="0.077"/>
                <path id="Path_16925" data-name="Path 16925" d="M444.7,639.627a6.153,6.153,0,0,0-9.69,6.708,6.15,6.15,0,0,0-8.024,6.4,6.15,6.15,0,0,0-9.247,4.453,6.15,6.15,0,0,0-10.006,2.284,6.15,6.15,0,0,0-10.264,0,6.15,6.15,0,0,0-10.006-2.284,6.15,6.15,0,0,0-9.247-4.453,6.15,6.15,0,0,0-8.024-6.4,6.157,6.157,0,1,0-3.95,3.951,6.145,6.145,0,0,0,9,7.179,6.146,6.146,0,0,0,10.374,5,6.146,6.146,0,0,0,11.226,2.562,6.145,6.145,0,0,0,11.514,0,6.146,6.146,0,0,0,11.226-2.562,6.146,6.146,0,0,0,10.375-5,6.145,6.145,0,0,0,9-7.179,6.151,6.151,0,0,0,5.739-10.659Z" transform="translate(-358.189 -634.813)" opacity="0.154"/>
                <path id="Path_16926" data-name="Path 16926" d="M444.7,637.909a6.153,6.153,0,0,0-9.69,6.708,6.15,6.15,0,0,0-8.024,6.4,6.15,6.15,0,0,0-9.247,4.453,6.15,6.15,0,0,0-10.006,2.284,6.15,6.15,0,0,0-10.264,0,6.15,6.15,0,0,0-10.006-2.284,6.15,6.15,0,0,0-9.247-4.453,6.15,6.15,0,0,0-8.024-6.4,6.157,6.157,0,1,0-3.95,3.95,6.145,6.145,0,0,0,9,7.179,6.145,6.145,0,0,0,10.374,5,6.145,6.145,0,0,0,11.226,2.562,6.145,6.145,0,0,0,11.514,0,6.145,6.145,0,0,0,11.226-2.562,6.146,6.146,0,0,0,10.375-5,6.145,6.145,0,0,0,9-7.179,6.151,6.151,0,0,0,5.739-10.658Z" transform="translate(-358.189 -633.411)" opacity="0.231"/>
                <path id="Path_16927" data-name="Path 16927" d="M444.7,636.191a6.153,6.153,0,0,0-9.69,6.708,6.15,6.15,0,0,0-8.024,6.4,6.15,6.15,0,0,0-9.247,4.453,6.15,6.15,0,0,0-10.006,2.284,6.15,6.15,0,0,0-10.264,0,6.15,6.15,0,0,0-10.006-2.284,6.15,6.15,0,0,0-9.247-4.453,6.15,6.15,0,0,0-8.024-6.4,6.157,6.157,0,1,0-3.95,3.95,6.145,6.145,0,0,0,9,7.179,6.146,6.146,0,0,0,10.374,5,6.146,6.146,0,0,0,11.226,2.562,6.145,6.145,0,0,0,11.514,0,6.146,6.146,0,0,0,11.226-2.562,6.146,6.146,0,0,0,10.375-5,6.145,6.145,0,0,0,9-7.179,6.151,6.151,0,0,0,5.739-10.658Z" transform="translate(-358.189 -632.008)" opacity="0.308"/>
                <path id="Path_16928" data-name="Path 16928" d="M444.7,634.473a6.153,6.153,0,0,0-9.69,6.708,6.15,6.15,0,0,0-8.024,6.4,6.15,6.15,0,0,0-9.247,4.453,6.15,6.15,0,0,0-10.006,2.284,6.15,6.15,0,0,0-10.264,0,6.15,6.15,0,0,0-10.006-2.284,6.15,6.15,0,0,0-9.247-4.453,6.15,6.15,0,0,0-8.024-6.4,6.157,6.157,0,1,0-3.95,3.95,6.146,6.146,0,0,0,9,7.179,6.146,6.146,0,0,0,10.374,5,6.145,6.145,0,0,0,11.226,2.562,6.145,6.145,0,0,0,11.514,0,6.145,6.145,0,0,0,11.226-2.562,6.146,6.146,0,0,0,10.375-5,6.145,6.145,0,0,0,9-7.179,6.151,6.151,0,0,0,5.739-10.658Z" transform="translate(-358.189 -630.605)" opacity="0.385"/>
                <path id="Path_16929" data-name="Path 16929" d="M444.7,632.755a6.153,6.153,0,0,0-9.69,6.708,6.15,6.15,0,0,0-8.024,6.4,6.15,6.15,0,0,0-9.247,4.453,6.15,6.15,0,0,0-10.006,2.284,6.15,6.15,0,0,0-10.264,0,6.15,6.15,0,0,0-10.006-2.284,6.15,6.15,0,0,0-9.247-4.453,6.15,6.15,0,0,0-8.024-6.4,6.157,6.157,0,1,0-3.95,3.951,6.145,6.145,0,0,0,9,7.179,6.146,6.146,0,0,0,10.374,5,6.145,6.145,0,0,0,11.226,2.562,6.145,6.145,0,0,0,11.514,0,6.145,6.145,0,0,0,11.226-2.562,6.146,6.146,0,0,0,10.375-5,6.145,6.145,0,0,0,9-7.179,6.151,6.151,0,0,0,5.739-10.658Z" transform="translate(-358.189 -629.203)" opacity="0.462"/>
                <path id="Path_16930" data-name="Path 16930" d="M444.7,631.037a6.153,6.153,0,0,0-9.69,6.708,6.15,6.15,0,0,0-8.024,6.4,6.15,6.15,0,0,0-9.247,4.453,6.15,6.15,0,0,0-10.006,2.284,6.15,6.15,0,0,0-10.264,0,6.15,6.15,0,0,0-10.006-2.284,6.15,6.15,0,0,0-9.247-4.453,6.15,6.15,0,0,0-8.024-6.4,6.157,6.157,0,1,0-3.95,3.951,6.145,6.145,0,0,0,9,7.179,6.146,6.146,0,0,0,10.374,5,6.146,6.146,0,0,0,11.226,2.562,6.145,6.145,0,0,0,11.514,0,6.146,6.146,0,0,0,11.226-2.562,6.146,6.146,0,0,0,10.375-5,6.145,6.145,0,0,0,9-7.179,6.151,6.151,0,0,0,5.739-10.658Z" transform="translate(-358.189 -627.8)" opacity="0.538"/>
                <path id="Path_16931" data-name="Path 16931" d="M444.7,629.319a6.153,6.153,0,0,0-9.69,6.708,6.15,6.15,0,0,0-8.024,6.4,6.15,6.15,0,0,0-9.247,4.453,6.15,6.15,0,0,0-10.006,2.284,6.15,6.15,0,0,0-10.264,0,6.15,6.15,0,0,0-10.006-2.284,6.15,6.15,0,0,0-9.247-4.453,6.15,6.15,0,0,0-8.024-6.4,6.157,6.157,0,1,0-3.95,3.951,6.145,6.145,0,0,0,9,7.179,6.146,6.146,0,0,0,10.374,5,6.146,6.146,0,0,0,11.226,2.562,6.145,6.145,0,0,0,11.514,0,6.146,6.146,0,0,0,11.226-2.562,6.146,6.146,0,0,0,10.375-5,6.145,6.145,0,0,0,9-7.179,6.151,6.151,0,0,0,5.739-10.658Z" transform="translate(-358.189 -626.398)" opacity="0.615"/>
                <path id="Path_16932" data-name="Path 16932" d="M444.7,627.6a6.153,6.153,0,0,0-9.69,6.708,6.15,6.15,0,0,0-8.024,6.4,6.15,6.15,0,0,0-9.247,4.453,6.15,6.15,0,0,0-10.006,2.284,6.15,6.15,0,0,0-10.264,0,6.15,6.15,0,0,0-10.006-2.284,6.15,6.15,0,0,0-9.247-4.453,6.15,6.15,0,0,0-8.024-6.4,6.157,6.157,0,1,0-3.95,3.951,6.145,6.145,0,0,0,9,7.179,6.146,6.146,0,0,0,10.374,5A6.146,6.146,0,0,0,396.848,653a6.145,6.145,0,0,0,11.514,0,6.146,6.146,0,0,0,11.226-2.562,6.146,6.146,0,0,0,10.375-5,6.145,6.145,0,0,0,9-7.179A6.151,6.151,0,0,0,444.7,627.6Z" transform="translate(-358.189 -624.995)" opacity="0.692"/>
                <path id="Path_16933" data-name="Path 16933" d="M444.7,625.882a6.153,6.153,0,0,0-9.69,6.708,6.15,6.15,0,0,0-8.024,6.4,6.15,6.15,0,0,0-9.247,4.453,6.15,6.15,0,0,0-10.006,2.284,6.15,6.15,0,0,0-10.264,0,6.15,6.15,0,0,0-10.006-2.284,6.15,6.15,0,0,0-9.247-4.453,6.15,6.15,0,0,0-8.024-6.4,6.158,6.158,0,1,0-3.95,3.95,6.145,6.145,0,0,0,9,7.179,6.146,6.146,0,0,0,10.374,5,6.146,6.146,0,0,0,11.226,2.562,6.145,6.145,0,0,0,11.514,0,6.146,6.146,0,0,0,11.226-2.562,6.146,6.146,0,0,0,10.375-5,6.145,6.145,0,0,0,9-7.179,6.151,6.151,0,0,0,5.739-10.658Z" transform="translate(-358.189 -623.593)" opacity="0.769"/>
                <path id="Path_16934" data-name="Path 16934" d="M444.7,624.164a6.153,6.153,0,0,0-9.69,6.708,6.15,6.15,0,0,0-8.024,6.4,6.15,6.15,0,0,0-9.247,4.453,6.15,6.15,0,0,0-10.006,2.284,6.15,6.15,0,0,0-10.264,0,6.15,6.15,0,0,0-10.006-2.284,6.15,6.15,0,0,0-9.247-4.453,6.15,6.15,0,0,0-8.024-6.4,6.157,6.157,0,1,0-3.95,3.95,6.145,6.145,0,0,0,9,7.179,6.146,6.146,0,0,0,10.374,5,6.146,6.146,0,0,0,11.226,2.562,6.145,6.145,0,0,0,11.514,0A6.146,6.146,0,0,0,419.589,647a6.146,6.146,0,0,0,10.375-5,6.145,6.145,0,0,0,9-7.179,6.151,6.151,0,0,0,5.739-10.658Z" transform="translate(-358.189 -622.19)" opacity="0.846"/>
                <path id="Path_16935" data-name="Path 16935" d="M444.7,622.446a6.153,6.153,0,0,0-9.69,6.708,6.15,6.15,0,0,0-8.024,6.4,6.15,6.15,0,0,0-9.247,4.453,6.15,6.15,0,0,0-10.006,2.284,6.15,6.15,0,0,0-10.264,0,6.15,6.15,0,0,0-10.006-2.284,6.15,6.15,0,0,0-9.247-4.453,6.15,6.15,0,0,0-8.024-6.4,6.157,6.157,0,1,0-3.95,3.951,6.145,6.145,0,0,0,9,7.179,6.146,6.146,0,0,0,10.374,5,6.145,6.145,0,0,0,11.226,2.562,6.145,6.145,0,0,0,11.514,0,6.145,6.145,0,0,0,11.226-2.562,6.146,6.146,0,0,0,10.375-5,6.145,6.145,0,0,0,9-7.179,6.151,6.151,0,0,0,5.739-10.658Z" transform="translate(-358.189 -620.788)" opacity="0.923"/>
                <path id="Path_16936" data-name="Path 16936" d="M444.7,620.728a6.153,6.153,0,0,0-9.69,6.708,6.15,6.15,0,0,0-8.024,6.4,6.15,6.15,0,0,0-9.247,4.453,6.15,6.15,0,0,0-10.006,2.284,6.15,6.15,0,0,0-10.264,0,6.15,6.15,0,0,0-10.006-2.284,6.15,6.15,0,0,0-9.247-4.453,6.15,6.15,0,0,0-8.024-6.4,6.157,6.157,0,1,0-3.95,3.951,6.145,6.145,0,0,0,9,7.179,6.146,6.146,0,0,0,10.374,5,6.145,6.145,0,0,0,11.226,2.562,6.145,6.145,0,0,0,11.514,0,6.145,6.145,0,0,0,11.226-2.562,6.146,6.146,0,0,0,10.375-5,6.145,6.145,0,0,0,9-7.179,6.151,6.151,0,0,0,5.739-10.658Z" transform="translate(-358.189 -619.385)"/>
              </g>
            </g>
          </g>
          <circle id="Ellipse_395" data-name="Ellipse 395" cx="6.154" cy="6.154" r="6.154" transform="translate(43.303 5.573) rotate(-26.922)" fill="url(#linear-gradient-6)"/>
          <circle id="Ellipse_396" data-name="Ellipse 396" cx="6.154" cy="6.154" r="6.154" transform="translate(33.517 14.434) rotate(-79.531)" fill="url(#linear-gradient-7)"/>
          <circle id="Ellipse_397" data-name="Ellipse 397" cx="6.154" cy="6.154" r="6.154" transform="translate(22.852 8.689) rotate(-14.397)" fill="url(#linear-gradient-8)"/>
          <circle id="Ellipse_398" data-name="Ellipse 398" cx="6.154" cy="6.154" r="6.154" transform="translate(14.24 24.353) rotate(-83.366)" fill="url(#linear-gradient-9)"/>
          <circle id="Ellipse_399" data-name="Ellipse 399" cx="6.154" cy="6.154" r="6.154" transform="translate(4.946 24.311) rotate(-29.067)" fill="url(#linear-gradient-10)"/>
          <circle id="Ellipse_400" data-name="Ellipse 400" cx="6.154" cy="6.154" r="6.154" transform="translate(4.668 86.731) rotate(-38.433)" fill="url(#linear-gradient-11)"/>
          <circle id="Ellipse_401" data-name="Ellipse 401" cx="6.154" cy="6.154" r="6.154" transform="translate(14.24 90.074) rotate(-6.634)" fill="url(#linear-gradient-12)"/>
          <circle id="Ellipse_402" data-name="Ellipse 402" cx="6.154" cy="6.154" r="6.154" transform="matrix(0.781, -0.624, 0.624, 0.781, 21.694, 100.337)" fill="url(#linear-gradient-13)"/>
          <circle id="Ellipse_403" data-name="Ellipse 403" cx="6.154" cy="6.154" r="6.154" transform="translate(32.316 107.309) rotate(-60.891)" fill="url(#linear-gradient-14)"/>
          <circle id="Ellipse_404" data-name="Ellipse 404" cx="6.154" cy="6.154" r="6.154" transform="translate(44.595 111.349) rotate(-81.659)" fill="url(#linear-gradient-15)"/>
          <circle id="Ellipse_405" data-name="Ellipse 405" cx="6.154" cy="6.154" r="6.154" transform="translate(56.082 99.011) rotate(-2.191)" fill="url(#linear-gradient-16)"/>
          <circle id="Ellipse_406" data-name="Ellipse 406" cx="6.154" cy="6.154" r="6.154" transform="translate(65.973 95.922) rotate(-6.783)" fill="url(#linear-gradient-17)"/>
          <circle id="Ellipse_407" data-name="Ellipse 407" cx="6.154" cy="6.154" r="6.154" transform="translate(75.303 100.923) rotate(-83.75)" fill="url(#linear-gradient-18)"/>
          <circle id="Ellipse_408" data-name="Ellipse 408" cx="6.154" cy="6.154" r="6.154" transform="translate(81.374 89.748) rotate(-58.43)" fill="url(#linear-gradient-19)"/>
          <circle id="Ellipse_409" data-name="Ellipse 409" cx="6.154" cy="6.154" r="6.154" transform="translate(89.104 84.159) rotate(-86.021)" fill="url(#linear-gradient-20)"/>
          <circle id="Ellipse_410" data-name="Ellipse 410" cx="6.154" cy="6.154" r="6.154" transform="translate(91.122 65.096) rotate(-24.786)" fill="url(#linear-gradient-21)"/>
          <circle id="Ellipse_411" data-name="Ellipse 411" cx="6.154" cy="6.154" r="6.154" transform="translate(94.362 51.059)" fill="url(#linear-gradient-22)"/>
          <circle id="Ellipse_412" data-name="Ellipse 412" cx="6.154" cy="6.154" r="6.154" transform="translate(92.738 52.052) rotate(-86.167)" fill="url(#linear-gradient-23)"/>
          <circle id="Ellipse_413" data-name="Ellipse 413" cx="6.154" cy="6.154" r="6.154" transform="translate(88.818 41.346) rotate(-83.07)" fill="url(#linear-gradient-24)"/>
          <circle id="Ellipse_414" data-name="Ellipse 414" cx="6.154" cy="6.154" r="6.154" transform="matrix(0.961, -0.277, 0.277, 0.961, 82.222, 22.49)" fill="url(#linear-gradient-25)"/>
          <circle id="Ellipse_415" data-name="Ellipse 415" cx="6.154" cy="6.154" r="6.154" transform="translate(75.266 13.549) rotate(-6.634)" fill="url(#linear-gradient-26)"/>
          <circle id="Ellipse_416" data-name="Ellipse 416" cx="6.154" cy="6.154" r="6.154" transform="translate(65.423 17.721) rotate(-76.912)" fill="url(#linear-gradient-27)"/>
          <circle id="Ellipse_417" data-name="Ellipse 417" cx="6.154" cy="6.154" r="6.154" transform="translate(54.042 11.683) rotate(-59.522)" fill="url(#linear-gradient-28)"/>
          <g id="Group_53628" data-name="Group 53628" transform="translate(0 7.98)" opacity="0.25" style="mix-blend-mode: soft-light;isolation: isolate">
            <ellipse id="Ellipse_418" data-name="Ellipse 418" cx="51.577" cy="50.405" rx="51.577" ry="50.405" fill="#fee" opacity="0"/>
            <ellipse id="Ellipse_419" data-name="Ellipse 419" cx="51.397" cy="50.225" rx="51.397" ry="50.225" transform="translate(0.18 0.18)" fill="#fee" opacity="0.077"/>
            <ellipse id="Ellipse_420" data-name="Ellipse 420" cx="51.216" cy="50.044" rx="51.216" ry="50.044" transform="translate(0.361 0.361)" fill="#fee" opacity="0.154"/>
            <ellipse id="Ellipse_421" data-name="Ellipse 421" cx="51.036" cy="49.864" rx="51.036" ry="49.864" transform="translate(0.541 0.541)" fill="#fee" opacity="0.231"/>
            <ellipse id="Ellipse_422" data-name="Ellipse 422" cx="50.856" cy="49.684" rx="50.856" ry="49.684" transform="translate(0.721 0.721)" fill="#fee" opacity="0.308"/>
            <ellipse id="Ellipse_423" data-name="Ellipse 423" cx="50.675" cy="49.503" rx="50.675" ry="49.503" transform="translate(0.902 0.902)" fill="#fee" opacity="0.385"/>
            <ellipse id="Ellipse_424" data-name="Ellipse 424" cx="50.495" cy="49.323" rx="50.495" ry="49.323" transform="translate(1.082 1.082)" fill="#fee" opacity="0.462"/>
            <ellipse id="Ellipse_425" data-name="Ellipse 425" cx="50.315" cy="49.143" rx="50.315" ry="49.143" transform="translate(1.262 1.262)" fill="#fee" opacity="0.538"/>
            <ellipse id="Ellipse_426" data-name="Ellipse 426" cx="50.134" cy="48.962" rx="50.134" ry="48.962" transform="translate(1.443 1.443)" fill="#fee" opacity="0.615"/>
            <ellipse id="Ellipse_427" data-name="Ellipse 427" cx="49.954" cy="48.782" rx="49.954" ry="48.782" transform="translate(1.623 1.623)" fill="#fee" opacity="0.692"/>
            <ellipse id="Ellipse_428" data-name="Ellipse 428" cx="49.774" cy="48.602" rx="49.774" ry="48.602" transform="translate(1.803 1.803)" fill="#fee" opacity="0.769"/>
            <ellipse id="Ellipse_429" data-name="Ellipse 429" cx="49.593" cy="48.421" rx="49.593" ry="48.421" transform="translate(1.984 1.984)" fill="#fee" opacity="0.846"/>
            <ellipse id="Ellipse_430" data-name="Ellipse 430" cx="49.413" cy="48.241" rx="49.413" ry="48.241" transform="translate(2.164 2.164)" fill="#fee" opacity="0.923"/>
            <ellipse id="Ellipse_431" data-name="Ellipse 431" cx="49.233" cy="48.061" rx="49.233" ry="48.061" transform="translate(2.344 2.344)" fill="#fee"/>
          </g>
          <circle id="Ellipse_432" data-name="Ellipse 432" cx="49.233" cy="49.233" r="49.233" transform="translate(2.344 7.98)" fill="url(#linear-gradient-29)"/>
        </g>
      </g>
      <text id="فضية" transform="translate(412 340.021)" fill="#efefef" font-size="21" font-family="Cairo-Bold, Cairo" font-weight="700"><tspan x="0" y="0">فضية</tspan></text>
    </g>
    <g id="Group_53722" data-name="Group 53722" transform="translate(-2 -98)">
      <g id="Group_52743" data-name="Group 52743" transform="translate(0 489)">
        <g transform="matrix(1, 0, 0, 1, 658, -42)" filter="url(#Path_16942)">
          <g id="Path_16942-2" data-name="Path 16942" transform="translate(-509 513)" fill="#fff">
            <path d="M 1073 332.5 L 5 332.5 C 2.518666744232178 332.5 0.5 330.4813232421875 0.5 328 L 0.5 5 C 0.5 2.518666744232178 2.518666744232178 0.5 5 0.5 L 1073 0.5 C 1075.481323242188 0.5 1077.5 2.518666744232178 1077.5 5 L 1077.5 328 C 1077.5 330.4813232421875 1075.481323242188 332.5 1073 332.5 Z" stroke="none"/>
            <path d="M 5 1 C 2.79443359375 1 1 2.794403076171875 1 5 L 1 328 C 1 330.2055969238281 2.79443359375 332 5 332 L 1073 332 C 1075.20556640625 332 1077 330.2055969238281 1077 328 L 1077 5 C 1077 2.794403076171875 1075.20556640625 1 1073 1 L 5 1 M 5 0 L 1073 0 C 1075.761474609375 0 1078 2.238525390625 1078 5 L 1078 328 C 1078 330.761474609375 1075.761474609375 333 1073 333 L 5 333 C 2.238525390625 333 0 330.761474609375 0 328 L 0 5 C 0 2.238525390625 2.238525390625 0 5 0 Z" stroke="none" fill="#efefef"/>
          </g>
        </g>
        <text id="مميزات_العضوية" data-name="مميزات العضوية" transform="translate(541 542)" fill="#707070" font-size="30" font-family="Cairo-SemiBold, Cairo" font-weight="600"><tspan x="-104.85" y="0">مميزات العضوية</tspan></text>
        <g id="Group_52740" data-name="Group 52740">
          <text id="مؤهلات_الحصول_على_العضوية" data-name="مؤهلات الحصول على العضوية" transform="translate(1003 542)" fill="#707070" font-size="30" font-family="Cairo-SemiBold, Cairo" font-weight="600"><tspan x="-194.865" y="0">مؤهلات الحصول على العضوية</tspan></text>
          <g id="Group_52738" data-name="Group 52738" transform="translate(-14.479 -16)">
            <text id="_.1" data-name=".1" transform="translate(1208.479 630)" font-size="18" font-family="Cairo-Regular, Cairo"><tspan x="-13.986" y="0">.1</tspan></text>
            <text id="_.3" data-name=".3" transform="translate(1208.479 716)" font-size="18" font-family="Cairo-Regular, Cairo"><tspan x="-13.986" y="0">.3</tspan></text>
            <text id="_.2" data-name=".2" transform="translate(1208.479 673)" font-size="18" font-family="Cairo-Regular, Cairo"><tspan x="-13.986" y="0">.2</tspan></text>
            <text id="_.4" data-name=".4" transform="translate(1208.479 759)" font-size="18" font-family="Cairo-Regular, Cairo"><tspan x="-13.986" y="0">.4</tspan></text>
            <text id="هذا_النص_هو_مثال_لنص_يمكن_أن_يستبدل_في_نفس_المساحة" data-name="هذا النص هو مثال لنص يمكن أن يستبدل في نفس المساحة" transform="translate(1186.479 630)" font-size="18" font-family="Cairo-Regular, Cairo"><tspan x="-434.25" y="0">هذا النص هو مثال لنص يمكن أن يستبدل في نفس المساحة</tspan></text>
            <text id="هذا_النص_هو_مثال_لنص_يمكن_أن_يستبدل_في_نفس_المساحة-2" data-name="هذا النص هو مثال لنص يمكن أن يستبدل في نفس المساحة" transform="translate(1186.479 716)" font-size="18" font-family="Cairo-Regular, Cairo"><tspan x="-434.25" y="0">هذا النص هو مثال لنص يمكن أن يستبدل في نفس المساحة</tspan></text>
            <text id="هذا_النص_هو_مثال_لنص_يمكن_أن_يستبدل" data-name="هذا النص هو مثال لنص يمكن أن يستبدل" transform="translate(1186.479 673)" font-size="18" font-family="Cairo-Regular, Cairo"><tspan x="-294.228" y="0">هذا النص هو مثال لنص يمكن أن يستبدل</tspan></text>
            <text id="هذا_النص_هو_مثال_لنص_يمكن_أن_يستبدل-2" data-name="هذا النص هو مثال لنص يمكن أن يستبدل" transform="translate(1186.479 759)" font-size="18" font-family="Cairo-Regular, Cairo"><tspan x="-294.228" y="0">هذا النص هو مثال لنص يمكن أن يستبدل</tspan></text>
          </g>
        </g>
        <g id="Group_52741" data-name="Group 52741" transform="translate(-21)">
          <g id="Group_52739" data-name="Group 52739" transform="translate(207.084 591)">
            <text id="هذا_النص_هو_مثال_لنص_يمكن_أن_يستبدل_في_نفس_المساحة-3" data-name="هذا النص هو مثال لنص يمكن أن يستبدل في نفس المساحة" transform="translate(0.916 23)" font-size="18" font-family="Cairo-Regular, Cairo"><tspan x="0" y="0">هذا النص هو مثال لنص يمكن أن يستبدل في نفس المساحة</tspan></text>
            <text id="هذا_النص_هو_مثال_لنص_يمكن_أن_يستبدل-3" data-name="هذا النص هو مثال لنص يمكن أن يستبدل" transform="translate(140.326 66)" font-size="18" font-family="Cairo-Regular, Cairo"><tspan x="0" y="0">هذا النص هو مثال لنص يمكن أن يستبدل</tspan></text>
          </g>
          <text id="_.1-2" data-name=".1" transform="translate(667 614)" font-size="18" font-family="Cairo-Regular, Cairo"><tspan x="-13.986" y="0">.1</tspan></text>
        </g>
      </g>
      <g id="classic" transform="translate(275 623.979)">
        <g id="Group_53699-2" data-name="Group 53699" transform="translate(383 279)">
          <circle id="Ellipse_390-2" data-name="Ellipse 390" cx="6.154" cy="6.154" r="6.154" transform="translate(5.542 30.326) rotate(-4.493)" fill="url(#linear-gradient)"/>
          <circle id="Ellipse_391-2" data-name="Ellipse 391" cx="6.154" cy="6.154" r="6.154" transform="matrix(0.557, -0.83, 0.83, 0.557, 0, 48.002)" fill="url(#linear-gradient-2)"/>
          <circle id="Ellipse_392-2" data-name="Ellipse 392" cx="6.154" cy="6.154" r="6.154" transform="translate(1.159 51.059)" fill="url(#linear-gradient-3)"/>
          <circle id="Ellipse_393-2" data-name="Ellipse 393" cx="6.154" cy="6.154" r="6.154" transform="translate(0.387 71.149) rotate(-65.486)" fill="url(#linear-gradient-4)"/>
          <circle id="Ellipse_394-2" data-name="Ellipse 394" cx="6.154" cy="6.154" r="6.154" transform="matrix(0.993, -0.122, 0.122, 0.993, 5.301, 73.089)" fill="url(#linear-gradient-5)"/>
          <g id="Group_53698-2" data-name="Group 53698" transform="translate(4.675)">
            <circle id="Ellipse_395-2" data-name="Ellipse 395" cx="6.154" cy="6.154" r="6.154" transform="translate(43.303 5.573) rotate(-26.922)" fill="url(#linear-gradient-6)"/>
            <circle id="Ellipse_396-2" data-name="Ellipse 396" cx="6.154" cy="6.154" r="6.154" transform="translate(33.517 14.434) rotate(-79.531)" fill="url(#linear-gradient-7)"/>
            <circle id="Ellipse_397-2" data-name="Ellipse 397" cx="6.154" cy="6.154" r="6.154" transform="translate(22.852 8.689) rotate(-14.397)" fill="url(#linear-gradient-8)"/>
            <circle id="Ellipse_398-2" data-name="Ellipse 398" cx="6.154" cy="6.154" r="6.154" transform="translate(14.24 24.353) rotate(-83.366)" fill="url(#linear-gradient-9)"/>
            <circle id="Ellipse_399-2" data-name="Ellipse 399" cx="6.154" cy="6.154" r="6.154" transform="translate(4.946 24.311) rotate(-29.067)" fill="url(#linear-gradient-10)"/>
            <circle id="Ellipse_400-2" data-name="Ellipse 400" cx="6.154" cy="6.154" r="6.154" transform="translate(4.668 86.731) rotate(-38.433)" fill="url(#linear-gradient-11)"/>
            <circle id="Ellipse_401-2" data-name="Ellipse 401" cx="6.154" cy="6.154" r="6.154" transform="translate(14.24 90.074) rotate(-6.634)" fill="url(#linear-gradient-12)"/>
            <circle id="Ellipse_402-2" data-name="Ellipse 402" cx="6.154" cy="6.154" r="6.154" transform="matrix(0.781, -0.624, 0.624, 0.781, 21.694, 100.337)" fill="url(#linear-gradient-13)"/>
            <circle id="Ellipse_403-2" data-name="Ellipse 403" cx="6.154" cy="6.154" r="6.154" transform="translate(32.316 107.309) rotate(-60.891)" fill="url(#linear-gradient-14)"/>
            <circle id="Ellipse_404-2" data-name="Ellipse 404" cx="6.154" cy="6.154" r="6.154" transform="translate(44.595 111.349) rotate(-81.659)" fill="url(#linear-gradient-15)"/>
            <circle id="Ellipse_405-2" data-name="Ellipse 405" cx="6.154" cy="6.154" r="6.154" transform="translate(56.082 99.011) rotate(-2.191)" fill="url(#linear-gradient-16)"/>
            <circle id="Ellipse_406-2" data-name="Ellipse 406" cx="6.154" cy="6.154" r="6.154" transform="translate(65.973 95.922) rotate(-6.783)" fill="url(#linear-gradient-17)"/>
            <circle id="Ellipse_407-2" data-name="Ellipse 407" cx="6.154" cy="6.154" r="6.154" transform="translate(75.303 100.923) rotate(-83.75)" fill="url(#linear-gradient-18)"/>
            <circle id="Ellipse_408-2" data-name="Ellipse 408" cx="6.154" cy="6.154" r="6.154" transform="translate(81.374 89.748) rotate(-58.43)" fill="url(#linear-gradient-19)"/>
            <circle id="Ellipse_409-2" data-name="Ellipse 409" cx="6.154" cy="6.154" r="6.154" transform="translate(89.104 84.159) rotate(-86.021)" fill="url(#linear-gradient-20)"/>
            <circle id="Ellipse_410-2" data-name="Ellipse 410" cx="6.154" cy="6.154" r="6.154" transform="translate(91.122 65.096) rotate(-24.786)" fill="url(#linear-gradient-21)"/>
            <circle id="Ellipse_411-2" data-name="Ellipse 411" cx="6.154" cy="6.154" r="6.154" transform="translate(94.362 51.059)" fill="url(#linear-gradient-22)"/>
            <circle id="Ellipse_412-2" data-name="Ellipse 412" cx="6.154" cy="6.154" r="6.154" transform="translate(92.738 52.052) rotate(-86.167)" fill="url(#linear-gradient-23)"/>
            <circle id="Ellipse_413-2" data-name="Ellipse 413" cx="6.154" cy="6.154" r="6.154" transform="translate(88.818 41.346) rotate(-83.07)" fill="url(#linear-gradient-24)"/>
            <circle id="Ellipse_414-2" data-name="Ellipse 414" cx="6.154" cy="6.154" r="6.154" transform="matrix(0.961, -0.277, 0.277, 0.961, 82.222, 22.49)" fill="url(#linear-gradient-25)"/>
            <circle id="Ellipse_415-2" data-name="Ellipse 415" cx="6.154" cy="6.154" r="6.154" transform="translate(75.266 13.549) rotate(-6.634)" fill="url(#linear-gradient-26)"/>
            <circle id="Ellipse_416-2" data-name="Ellipse 416" cx="6.154" cy="6.154" r="6.154" transform="translate(65.423 17.721) rotate(-76.912)" fill="url(#linear-gradient-27)"/>
            <circle id="Ellipse_417-2" data-name="Ellipse 417" cx="6.154" cy="6.154" r="6.154" transform="translate(54.042 11.683) rotate(-59.522)" fill="url(#linear-gradient-28)"/>
            <g id="Group_53628-2" data-name="Group 53628" transform="translate(0 7.98)" opacity="0.25" style="mix-blend-mode: soft-light;isolation: isolate">
              <ellipse id="Ellipse_418-2" data-name="Ellipse 418" cx="51.577" cy="50.405" rx="51.577" ry="50.405" fill="#fee" opacity="0"/>
              <ellipse id="Ellipse_419-2" data-name="Ellipse 419" cx="51.397" cy="50.225" rx="51.397" ry="50.225" transform="translate(0.18 0.18)" fill="#fee" opacity="0.077"/>
              <ellipse id="Ellipse_420-2" data-name="Ellipse 420" cx="51.216" cy="50.044" rx="51.216" ry="50.044" transform="translate(0.361 0.361)" fill="#fee" opacity="0.154"/>
              <ellipse id="Ellipse_421-2" data-name="Ellipse 421" cx="51.036" cy="49.864" rx="51.036" ry="49.864" transform="translate(0.541 0.541)" fill="#fee" opacity="0.231"/>
              <ellipse id="Ellipse_422-2" data-name="Ellipse 422" cx="50.856" cy="49.684" rx="50.856" ry="49.684" transform="translate(0.721 0.721)" fill="#fee" opacity="0.308"/>
              <ellipse id="Ellipse_423-2" data-name="Ellipse 423" cx="50.675" cy="49.503" rx="50.675" ry="49.503" transform="translate(0.902 0.902)" fill="#fee" opacity="0.385"/>
              <ellipse id="Ellipse_424-2" data-name="Ellipse 424" cx="50.495" cy="49.323" rx="50.495" ry="49.323" transform="translate(1.082 1.082)" fill="#fee" opacity="0.462"/>
              <ellipse id="Ellipse_425-2" data-name="Ellipse 425" cx="50.315" cy="49.143" rx="50.315" ry="49.143" transform="translate(1.262 1.262)" fill="#fee" opacity="0.538"/>
              <ellipse id="Ellipse_426-2" data-name="Ellipse 426" cx="50.134" cy="48.962" rx="50.134" ry="48.962" transform="translate(1.443 1.443)" fill="#fee" opacity="0.615"/>
              <ellipse id="Ellipse_427-2" data-name="Ellipse 427" cx="49.954" cy="48.782" rx="49.954" ry="48.782" transform="translate(1.623 1.623)" fill="#fee" opacity="0.692"/>
              <ellipse id="Ellipse_428-2" data-name="Ellipse 428" cx="49.774" cy="48.602" rx="49.774" ry="48.602" transform="translate(1.803 1.803)" fill="#fee" opacity="0.769"/>
              <ellipse id="Ellipse_429-2" data-name="Ellipse 429" cx="49.593" cy="48.421" rx="49.593" ry="48.421" transform="translate(1.984 1.984)" fill="#fee" opacity="0.846"/>
              <ellipse id="Ellipse_430-2" data-name="Ellipse 430" cx="49.413" cy="48.241" rx="49.413" ry="48.241" transform="translate(2.164 2.164)" fill="#fee" opacity="0.923"/>
              <ellipse id="Ellipse_431-2" data-name="Ellipse 431" cx="49.233" cy="48.061" rx="49.233" ry="48.061" transform="translate(2.344 2.344)" fill="#fee"/>
            </g>
            <circle id="Ellipse_432-2" data-name="Ellipse 432" cx="49.233" cy="49.233" r="49.233" transform="translate(2.344 7.98)" fill="url(#linear-gradient-58)"/>
          </g>
        </g>
        <text id="كلاسيكية" transform="translate(393 342.021)" fill="#efefef" font-size="21" font-family="Cairo-Bold, Cairo" font-weight="700"><tspan x="0" y="0">كلاسيكية</tspan></text>
      </g>
      <g id="Rectangle_1800" data-name="Rectangle 1800" transform="translate(524 861)" fill="#fff" stroke="#707070" stroke-width="1">
        <rect width="112.13" height="113.3" stroke="none"/>
        <rect x="0.5" y="0.5" width="111.13" height="112.3" fill="none"/>
      </g>
    </g>
    <g id="Group_53720" data-name="Group 53720" transform="translate(-2 -260)">
      <g id="Group_52747" data-name="Group 52747" transform="translate(0 1557)">
        <g transform="matrix(1, 0, 0, 1, 658, -948)" filter="url(#Rectangle_16)">
          <g id="Rectangle_16-2" data-name="Rectangle 16" transform="translate(-509 1419)" fill="#fff" stroke="#efefef" stroke-width="1">
            <rect width="1078" height="333" rx="8" stroke="none"/>
            <rect x="0.5" y="0.5" width="1077" height="332" rx="7.5" fill="none"/>
          </g>
        </g>
        <text id="مميزات_العضوية-2" data-name="مميزات العضوية" transform="translate(541 542)" fill="#707070" font-size="30" font-family="Cairo-SemiBold, Cairo" font-weight="600"><tspan x="-104.85" y="0">مميزات العضوية</tspan></text>
        <g id="Group_52740-2" data-name="Group 52740">
          <text id="مؤهلات_الحصول_على_العضوية-2" data-name="مؤهلات الحصول على العضوية" transform="translate(1003 542)" fill="#707070" font-size="30" font-family="Cairo-SemiBold, Cairo" font-weight="600"><tspan x="-194.865" y="0">مؤهلات الحصول على العضوية</tspan></text>
          <g id="Group_52738-2" data-name="Group 52738" transform="translate(-14.479 -16)">
            <text id="_.1-3" data-name=".1" transform="translate(1208.479 630)" font-size="18" font-family="Cairo-Regular, Cairo"><tspan x="-13.986" y="0">.1</tspan></text>
            <text id="_.3-2" data-name=".3" transform="translate(1208.479 716)" font-size="18" font-family="Cairo-Regular, Cairo"><tspan x="-13.986" y="0">.3</tspan></text>
            <text id="_.2-2" data-name=".2" transform="translate(1208.479 673)" font-size="18" font-family="Cairo-Regular, Cairo"><tspan x="-13.986" y="0">.2</tspan></text>
            <text id="_.4-2" data-name=".4" transform="translate(1208.479 759)" font-size="18" font-family="Cairo-Regular, Cairo"><tspan x="-13.986" y="0">.4</tspan></text>
            <text id="هذا_النص_هو_مثال_لنص_يمكن_أن_يستبدل_في_نفس_المساحة-4" data-name="هذا النص هو مثال لنص يمكن أن يستبدل في نفس المساحة" transform="translate(1186.479 630)" font-size="18" font-family="Cairo-Regular, Cairo"><tspan x="-434.25" y="0">هذا النص هو مثال لنص يمكن أن يستبدل في نفس المساحة</tspan></text>
            <text id="هذا_النص_هو_مثال_لنص_يمكن_أن_يستبدل_في_نفس_المساحة-5" data-name="هذا النص هو مثال لنص يمكن أن يستبدل في نفس المساحة" transform="translate(1186.479 716)" font-size="18" font-family="Cairo-Regular, Cairo"><tspan x="-434.25" y="0">هذا النص هو مثال لنص يمكن أن يستبدل في نفس المساحة</tspan></text>
            <text id="هذا_النص_هو_مثال_لنص_يمكن_أن_يستبدل-4" data-name="هذا النص هو مثال لنص يمكن أن يستبدل" transform="translate(1186.479 673)" font-size="18" font-family="Cairo-Regular, Cairo"><tspan x="-294.228" y="0">هذا النص هو مثال لنص يمكن أن يستبدل</tspan></text>
            <text id="هذا_النص_هو_مثال_لنص_يمكن_أن_يستبدل-5" data-name="هذا النص هو مثال لنص يمكن أن يستبدل" transform="translate(1186.479 759)" font-size="18" font-family="Cairo-Regular, Cairo"><tspan x="-294.228" y="0">هذا النص هو مثال لنص يمكن أن يستبدل</tspan></text>
          </g>
        </g>
        <g id="Group_52741-2" data-name="Group 52741" transform="translate(-21)">
          <g id="Group_52739-2" data-name="Group 52739" transform="translate(207.084 591)">
            <text id="هذا_النص_هو_مثال_لنص_يمكن_أن_يستبدل_في_نفس_المساحة-6" data-name="هذا النص هو مثال لنص يمكن أن يستبدل في نفس المساحة" transform="translate(0.916 23)" font-size="18" font-family="Cairo-Regular, Cairo"><tspan x="0" y="0">هذا النص هو مثال لنص يمكن أن يستبدل في نفس المساحة</tspan></text>
            <text id="هذا_النص_هو_مثال_لنص_يمكن_أن_يستبدل-6" data-name="هذا النص هو مثال لنص يمكن أن يستبدل" transform="translate(140.326 66)" font-size="18" font-family="Cairo-Regular, Cairo"><tspan x="0" y="0">هذا النص هو مثال لنص يمكن أن يستبدل</tspan></text>
          </g>
          <text id="_.1-4" data-name=".1" transform="translate(667 614)" font-size="18" font-family="Cairo-Regular, Cairo"><tspan x="-13.986" y="0">.1</tspan></text>
        </g>
      </g>
      <g id="seginture-member" transform="translate(275 1691.979)">
        <g id="Group_53699-3" data-name="Group 53699" transform="translate(383 279)">
          <circle id="Ellipse_390-3" data-name="Ellipse 390" cx="6.154" cy="6.154" r="6.154" transform="translate(5.542 30.326) rotate(-4.493)" fill="url(#linear-gradient)"/>
          <circle id="Ellipse_391-3" data-name="Ellipse 391" cx="6.154" cy="6.154" r="6.154" transform="matrix(0.557, -0.83, 0.83, 0.557, 0, 48.002)" fill="url(#linear-gradient-2)"/>
          <circle id="Ellipse_392-3" data-name="Ellipse 392" cx="6.154" cy="6.154" r="6.154" transform="translate(1.159 51.059)" fill="url(#linear-gradient-3)"/>
          <circle id="Ellipse_393-3" data-name="Ellipse 393" cx="6.154" cy="6.154" r="6.154" transform="translate(0.387 71.149) rotate(-65.486)" fill="url(#linear-gradient-4)"/>
          <circle id="Ellipse_394-3" data-name="Ellipse 394" cx="6.154" cy="6.154" r="6.154" transform="matrix(0.993, -0.122, 0.122, 0.993, 5.301, 73.089)" fill="url(#linear-gradient-5)"/>
          <g id="Group_53698-3" data-name="Group 53698" transform="translate(4.675)">
            <circle id="Ellipse_395-3" data-name="Ellipse 395" cx="6.154" cy="6.154" r="6.154" transform="translate(43.303 5.573) rotate(-26.922)" fill="url(#linear-gradient-6)"/>
            <circle id="Ellipse_396-3" data-name="Ellipse 396" cx="6.154" cy="6.154" r="6.154" transform="translate(33.517 14.434) rotate(-79.531)" fill="url(#linear-gradient-7)"/>
            <circle id="Ellipse_397-3" data-name="Ellipse 397" cx="6.154" cy="6.154" r="6.154" transform="translate(22.852 8.689) rotate(-14.397)" fill="url(#linear-gradient-8)"/>
            <circle id="Ellipse_398-3" data-name="Ellipse 398" cx="6.154" cy="6.154" r="6.154" transform="translate(14.24 24.353) rotate(-83.366)" fill="url(#linear-gradient-9)"/>
            <circle id="Ellipse_399-3" data-name="Ellipse 399" cx="6.154" cy="6.154" r="6.154" transform="translate(4.946 24.311) rotate(-29.067)" fill="url(#linear-gradient-10)"/>
            <circle id="Ellipse_400-3" data-name="Ellipse 400" cx="6.154" cy="6.154" r="6.154" transform="translate(4.668 86.731) rotate(-38.433)" fill="url(#linear-gradient-11)"/>
            <circle id="Ellipse_401-3" data-name="Ellipse 401" cx="6.154" cy="6.154" r="6.154" transform="translate(14.24 90.074) rotate(-6.634)" fill="url(#linear-gradient-12)"/>
            <circle id="Ellipse_402-3" data-name="Ellipse 402" cx="6.154" cy="6.154" r="6.154" transform="matrix(0.781, -0.624, 0.624, 0.781, 21.694, 100.337)" fill="url(#linear-gradient-13)"/>
            <circle id="Ellipse_403-3" data-name="Ellipse 403" cx="6.154" cy="6.154" r="6.154" transform="translate(32.316 107.309) rotate(-60.891)" fill="url(#linear-gradient-14)"/>
            <circle id="Ellipse_404-3" data-name="Ellipse 404" cx="6.154" cy="6.154" r="6.154" transform="translate(44.595 111.349) rotate(-81.659)" fill="url(#linear-gradient-15)"/>
            <circle id="Ellipse_405-3" data-name="Ellipse 405" cx="6.154" cy="6.154" r="6.154" transform="translate(56.082 99.011) rotate(-2.191)" fill="url(#linear-gradient-16)"/>
            <circle id="Ellipse_406-3" data-name="Ellipse 406" cx="6.154" cy="6.154" r="6.154" transform="translate(65.973 95.922) rotate(-6.783)" fill="url(#linear-gradient-17)"/>
            <circle id="Ellipse_407-3" data-name="Ellipse 407" cx="6.154" cy="6.154" r="6.154" transform="translate(75.303 100.923) rotate(-83.75)" fill="url(#linear-gradient-18)"/>
            <circle id="Ellipse_408-3" data-name="Ellipse 408" cx="6.154" cy="6.154" r="6.154" transform="translate(81.374 89.748) rotate(-58.43)" fill="url(#linear-gradient-19)"/>
            <circle id="Ellipse_409-3" data-name="Ellipse 409" cx="6.154" cy="6.154" r="6.154" transform="translate(89.104 84.159) rotate(-86.021)" fill="url(#linear-gradient-20)"/>
            <circle id="Ellipse_410-3" data-name="Ellipse 410" cx="6.154" cy="6.154" r="6.154" transform="translate(91.122 65.096) rotate(-24.786)" fill="url(#linear-gradient-21)"/>
            <circle id="Ellipse_411-3" data-name="Ellipse 411" cx="6.154" cy="6.154" r="6.154" transform="translate(94.362 51.059)" fill="url(#linear-gradient-22)"/>
            <circle id="Ellipse_412-3" data-name="Ellipse 412" cx="6.154" cy="6.154" r="6.154" transform="translate(92.738 52.052) rotate(-86.167)" fill="url(#linear-gradient-23)"/>
            <circle id="Ellipse_413-3" data-name="Ellipse 413" cx="6.154" cy="6.154" r="6.154" transform="translate(88.818 41.346) rotate(-83.07)" fill="url(#linear-gradient-24)"/>
            <circle id="Ellipse_414-3" data-name="Ellipse 414" cx="6.154" cy="6.154" r="6.154" transform="matrix(0.961, -0.277, 0.277, 0.961, 82.222, 22.49)" fill="url(#linear-gradient-25)"/>
            <circle id="Ellipse_415-3" data-name="Ellipse 415" cx="6.154" cy="6.154" r="6.154" transform="translate(75.266 13.549) rotate(-6.634)" fill="url(#linear-gradient-26)"/>
            <circle id="Ellipse_416-3" data-name="Ellipse 416" cx="6.154" cy="6.154" r="6.154" transform="translate(65.423 17.721) rotate(-76.912)" fill="url(#linear-gradient-27)"/>
            <circle id="Ellipse_417-3" data-name="Ellipse 417" cx="6.154" cy="6.154" r="6.154" transform="translate(54.042 11.683) rotate(-59.522)" fill="url(#linear-gradient-28)"/>
            <g id="Group_53628-3" data-name="Group 53628" transform="translate(0 7.98)" opacity="0.25" style="mix-blend-mode: soft-light;isolation: isolate">
              <ellipse id="Ellipse_418-3" data-name="Ellipse 418" cx="51.577" cy="50.405" rx="51.577" ry="50.405" fill="#fee" opacity="0"/>
              <ellipse id="Ellipse_419-3" data-name="Ellipse 419" cx="51.397" cy="50.225" rx="51.397" ry="50.225" transform="translate(0.18 0.18)" fill="#fee" opacity="0.077"/>
              <ellipse id="Ellipse_420-3" data-name="Ellipse 420" cx="51.216" cy="50.044" rx="51.216" ry="50.044" transform="translate(0.361 0.361)" fill="#fee" opacity="0.154"/>
              <ellipse id="Ellipse_421-3" data-name="Ellipse 421" cx="51.036" cy="49.864" rx="51.036" ry="49.864" transform="translate(0.541 0.541)" fill="#fee" opacity="0.231"/>
              <ellipse id="Ellipse_422-3" data-name="Ellipse 422" cx="50.856" cy="49.684" rx="50.856" ry="49.684" transform="translate(0.721 0.721)" fill="#fee" opacity="0.308"/>
              <ellipse id="Ellipse_423-3" data-name="Ellipse 423" cx="50.675" cy="49.503" rx="50.675" ry="49.503" transform="translate(0.902 0.902)" fill="#fee" opacity="0.385"/>
              <ellipse id="Ellipse_424-3" data-name="Ellipse 424" cx="50.495" cy="49.323" rx="50.495" ry="49.323" transform="translate(1.082 1.082)" fill="#fee" opacity="0.462"/>
              <ellipse id="Ellipse_425-3" data-name="Ellipse 425" cx="50.315" cy="49.143" rx="50.315" ry="49.143" transform="translate(1.262 1.262)" fill="#fee" opacity="0.538"/>
              <ellipse id="Ellipse_426-3" data-name="Ellipse 426" cx="50.134" cy="48.962" rx="50.134" ry="48.962" transform="translate(1.443 1.443)" fill="#fee" opacity="0.615"/>
              <ellipse id="Ellipse_427-3" data-name="Ellipse 427" cx="49.954" cy="48.782" rx="49.954" ry="48.782" transform="translate(1.623 1.623)" fill="#fee" opacity="0.692"/>
              <ellipse id="Ellipse_428-3" data-name="Ellipse 428" cx="49.774" cy="48.602" rx="49.774" ry="48.602" transform="translate(1.803 1.803)" fill="#fee" opacity="0.769"/>
              <ellipse id="Ellipse_429-3" data-name="Ellipse 429" cx="49.593" cy="48.421" rx="49.593" ry="48.421" transform="translate(1.984 1.984)" fill="#fee" opacity="0.846"/>
              <ellipse id="Ellipse_430-3" data-name="Ellipse 430" cx="49.413" cy="48.241" rx="49.413" ry="48.241" transform="translate(2.164 2.164)" fill="#fee" opacity="0.923"/>
              <ellipse id="Ellipse_431-3" data-name="Ellipse 431" cx="49.233" cy="48.061" rx="49.233" ry="48.061" transform="translate(2.344 2.344)" fill="#fee"/>
            </g>
            <circle id="Ellipse_432-3" data-name="Ellipse 432" cx="49.233" cy="49.233" r="49.233" transform="translate(2.344 7.98)" fill="url(#linear-gradient-87)"/>
          </g>
        </g>
        <text id="سجنيتشر" transform="translate(396 344.021)" fill="#efefef" font-size="21" font-family="Cairo-Bold, Cairo" font-weight="700"><tspan x="0" y="0">سجنيتشر</tspan></text>
      </g>
    </g>
  </g>
</svg>
