<svg xmlns="http://www.w3.org/2000/svg" width="465.914" height="402.618" viewBox="0 0 465.914 402.618">
  <g id="Site-Treaty" transform="translate(-16.087 -48.691)">
    <g id="Group_52713" data-name="Group 52713">
      <path id="Path_1733" data-name="Path 1733" d="M334.1,55.573a36.411,36.411,0,0,0-9.1-4.747,46.03,46.03,0,0,0-15.022-2.135c-23.949,0-47.11,10.525-65.415,25.967C232.1,85.17,221.7,97.885,212.766,111.472c-8.112,12.337-12.84,26.85-21.614,38.6-14.62,19.582-39.178,28.743-62.8,35.012S79.9,196.056,59.9,210.09c-20.485,14.369-33.879,37.672-38.51,62.261C10.418,330.577,49,394.259,106.067,410.73c47.044,13.578,99.956,17.8,148.791,17.758,36.212-.035,72.631-2.778,108.053-10.565,29.339-6.449,60.094-14.181,84.18-33.081,28.268-22.183,39.639-58.51,33.123-93.415a152.186,152.186,0,0,0-32.354-68.94c-8.042-9.685-17.257-18.326-25.716-27.649a233.75,233.75,0,0,1-33.783-48.306c-13.977-26.606-23.033-56.243-42.2-79.39A63.736,63.736,0,0,0,334.1,55.573Z" fill="#e2e214" opacity="0.531"/>
      <path id="Path_1734" data-name="Path 1734" d="M280.278,80.365a32.14,32.14,0,0,0-8.662-2.654,40.61,40.61,0,0,0-13.378.567c-20.781,3.856-39.183,16.717-52.58,33.064-9.12,11.127-16.1,23.836-21.666,37.064-5.053,12.011-6.819,25.365-12.54,36.974-9.533,19.345-29.367,31.248-48.853,40.491s-40.277,17.322-55.377,32.721c-15.461,15.766-23.331,38.142-23.391,60.224-.141,52.29,43.592,101.335,95.761,106.438,43.006,4.208,89.6-.645,131.966-8.548,31.416-5.86,62.576-14.1,92.058-26.564,24.42-10.32,49.861-21.981,67.717-42.259,20.957-23.8,24.974-57.152,13.7-86.39a134.32,134.32,0,0,0-39.174-54.611c-8.538-7.109-17.925-13.123-26.766-19.85A206.324,206.324,0,0,1,342,150.555c-16.411-20.836-29.041-45.094-49.4-62.093A56.255,56.255,0,0,0,280.278,80.365Z" fill="#b9d5ed" opacity="0.228"/>
      <path id="Path_1735" data-name="Path 1735" d="M166.636,152.505a13.128,13.128,0,0,0-1,1.534,20.517,20.517,0,0,0-1.6,4.4c-1.941,6.945-4.372,12.145-12.064,13.833-5.208,1.143-11.706-.13-14.252-5.333-1.526-3.054-1.253-6.72-.3-10a31.283,31.283,0,0,1,10.744-15.383,48.973,48.973,0,0,1,16.983-8.388,6.037,6.037,0,0,1,2.159-.337,4.391,4.391,0,0,1,2.219.938,8.771,8.771,0,0,1,3.175,7.571,14.479,14.479,0,0,1-3.266,7.773C168.533,150.268,167.511,151.337,166.636,152.505Z" fill="#b9d5ed" opacity="0.531"/>
      <path id="Path_1736" data-name="Path 1736" d="M177.278,120.07c-1.42,2.635-3.675,4.243-3.622,7.236.068,3.858,3.827,8.06,7.863,6.091a7.985,7.985,0,0,0,3.094-2.967,9.64,9.64,0,0,0,1.368-7.992c-1.129-3.484-6.866-6.847-8.92-2.283" fill="#b9d5ed" opacity="0.531"/>
      <path id="Path_1737" data-name="Path 1737" d="M378.666,85.966a149.843,149.843,0,0,0,34.881,77.575c17.33,20.066,40.261,35.857,52.367,59.446" fill="none" stroke="#b9d5ed" stroke-miterlimit="10" stroke-width="4" opacity="0.531"/>
      <path id="Path_1738" data-name="Path 1738" d="M100.679,181.757c-17.931,4.517-35.439,11.534-50.305,22.529S23.386,230.481,18,248.17" fill="none" stroke="#b9d5ed" stroke-miterlimit="10" stroke-width="4" opacity="0.531"/>
    </g>
    <g id="Group_52724" data-name="Group 52724">
      <path id="Path_1739" data-name="Path 1739" d="M193.684,325.671a139.9,139.9,0,0,1,17.993,74.637c-.192,4.7.381,9.645-3.358,13.123a23.85,23.85,0,0,1-6.241,3.834,152.744,152.744,0,0,1-19.745,7.663c-6.065,1.882-12.1,2.316-18.407,3.021-7.47.833-15.013.578-22.524.321-9.4-.321-18.884-.653-28.009-2.937s-17.984-6.7-23.989-13.939c-4.182-5.042-6.871-11.868-5.146-18.187a21.173,21.173,0,0,1,5.41-8.821,36.718,36.718,0,0,1,12.653-8.6c7.068-2.877,16.253-4.675,18.459-11.981,1.838-6.089-2.562-12.063-5.8-17.54s-4.859-13.764.5-17.2c4.182-2.679,10.091-.44,14.453-2.816,5.9-3.212,4.972-11.794,3.472-18.338q-2.8-12.2-4.391-24.638c-.856-6.684-.449-15.213,5.749-17.858,6.41-2.734,13.05,3.435,16.544,9.465a69.532,69.532,0,0,1,7.591,19.275c1.179,5.145,1.835,10.588,4.7,15.02,5.244,8.11,10.638,3.321,17.592,4.8C186.947,315.208,190.772,320.559,193.684,325.671Z" fill="#70bf75"/>
      <g id="Group_52714" data-name="Group 52714">
        <path id="Path_1740" data-name="Path 1740" d="M195.227,421.989c-.162.147-.333.291-.511.434-8.177,6.53-19.857-1.466-27.853-4.989-10.739-4.731-23.386-8.926-32.659-16.073-1.67-1.287-3.419-2.94-3.418-5.048a4.807,4.807,0,0,1,3.613-4.261,10.656,10.656,0,0,1,5.9.327,3.462,3.462,0,0,0,2.216.16,2.211,2.211,0,0,0,.922-2.869,5.852,5.852,0,0,0-2.283-2.387c-7.256-4.989-15.86-7.625-23.5-12-6.8-3.895-14.347-10.784-15.729-18.979-1.336-7.927,6.641-13.265,7.272-21.157.485-6.063-3.2-11.548-6.114-16.887s-5.118-12.12-1.88-17.269c3.933-6.254,13.771-5.849,19.624-1.34s8.9,11.641,12.349,18.173c2.754,5.208,7.29,13.37,12.044,16.984,2.53,1.923,6.267,2.64,8.875.823,1.642-1.144,2.558-3.052,3.924-4.515,5.024-5.383,14.863-2.75,18.837,3.45s3.495,14.239,1.86,21.418c-.707,3.1-1.607,6.3-.961,9.417s3.476,6.062,6.617,5.552c1.957-.318,3.59-1.872,5.57-1.988,2.349-.137,4.378,1.879,5.1,4.119s.453,4.659.252,7a97.843,97.843,0,0,0,.9,23.779C197.178,410.036,200.633,417.1,195.227,421.989Z" fill="#5ca279"/>
        <path id="Path_1741" data-name="Path 1741" d="M110.466,307.231a212.558,212.558,0,0,0,24.081,51.185c.127.657.256,1.309.381,1.969a.756.756,0,0,0,1.21.393c.576.862,1.149,1.726,1.739,2.581-8.866-6.3-17.735-12.071-25.084-20.4a.528.528,0,0,0-.8.684c7.768,9.052,16.836,18.376,28.1,22.966.018.007.031-.006.048,0,12.116,16.956,27.089,33.921,44.643,45.23.752.485,1.828-.573,1.1-1.229-8.06-7.318-15.967-14.5-23.461-22.071a104.481,104.481,0,0,0-10.119-45.1c-.177-.371-.836-.186-.706.231a254.886,254.886,0,0,1,9.261,43.248,199.807,199.807,0,0,1-19-22.281c-1.974-2.728-3.866-5.518-5.718-8.335-.952-12.485-5.8-24.8-11.952-35.495-.254-.442-.95-.125-.722.344,4.813,9.912,7.539,20.082,9.747,30.6a227.24,227.24,0,0,1-21.589-44.894C111.393,306.2,110.254,306.568,110.466,307.231Z" fill="#766fe0" opacity="0.382" style="mix-blend-mode: screen;isolation: isolate"/>
      </g>
      <path id="Path_1742" data-name="Path 1742" d="M333.614,281.9c3.231-4.136,6.584-8.379,11.154-10.961s10.714-3.114,14.842.128c2.211,1.736,3.582,4.3,4.846,6.814a241.731,241.731,0,0,1,10.935,25.206c3.744,10.185,8.019,21.937,18.223,25.626,7.66,2.768,16.676-.01,24.01,3.531,8.646,4.175,11.289,15.185,11.54,24.783s-.7,19.911,4.333,28.09c5.3,8.628,16.995,14.82,15.8,24.877-.819,6.874-7.681,11.342-14.248,13.531-26.689,8.9-55.747-3.779-83.782-1.438-9.968.833-21.552,3.067-28.709-3.921-3.388-3.308-4.914-8.04-6.124-12.618a168.52,168.52,0,0,1,12.22-117.523" fill="#5ca279"/>
      <g id="Group_52715" data-name="Group 52715">
        <path id="Path_1743" data-name="Path 1743" d="M321.96,401.835c.749-1.987,16.159-5.419,18.691-6.359q9.255-3.435,18.313-7.375c10.763-4.681,23.435-8.815,32.745-15.919,1.676-1.279,3.433-2.923,3.442-5.031a4.809,4.809,0,0,0-3.593-4.279,10.654,10.654,0,0,0-5.9.3,3.469,3.469,0,0,1-2.217.149,2.211,2.211,0,0,1-.908-2.874,5.85,5.85,0,0,1,2.295-2.376c7.279-4.954,15.9-7.548,23.557-11.889,6.816-3.862,14.4-10.714,15.82-18.9,1.375-7.92-6.577-13.3-7.169-21.192-.456-6.065,3.256-11.532,6.2-16.857s5.176-12.1,1.963-17.26c-3.9-6.273-13.743-5.915-19.617-1.435s-8.952,11.6-12.437,18.114c-2.778,5.194-7.354,13.334-12.125,16.925-2.539,1.911-6.28,2.611-8.879.781-1.637-1.152-2.543-3.064-3.9-4.534-5-5.408-14.85-2.821-18.854,3.359s-3.563,14.222-1.963,21.409c.692,3.106,1.576,6.308.916,9.421s-3.506,6.046-6.644,5.52c-1.956-.327-3.582-1.889-5.561-2.014-2.348-.149-4.386,1.858-5.118,4.094s-.475,4.656-.286,7C332.208,368.985,328.336,384.907,321.96,401.835Z" fill="#71c297"/>
        <path id="Path_1744" data-name="Path 1744" d="M415.9,278.168a212.535,212.535,0,0,1-24.327,51.067c-.13.657-.263,1.308-.391,1.967a.756.756,0,0,1-1.212.388c-.58.859-1.157,1.721-1.751,2.573,8.9-6.261,17.793-11.985,25.182-20.284a.528.528,0,0,1,.8.687c-7.811,9.015-16.924,18.3-28.208,22.831-.018.007-.03-.007-.048,0-12.2,16.9-27.252,33.79-44.86,45.014-.755.482-1.825-.582-1.1-1.235,8.1-7.279,16.036-14.419,23.567-21.957a104.481,104.481,0,0,1,10.336-45.053c.179-.369.837-.182.7.235a254.945,254.945,0,0,0-9.47,43.2,200,200,0,0,0,19.111-22.189c1.987-2.719,3.892-5.5,5.758-8.308,1.012-12.48,5.92-24.773,12.123-35.437.256-.44.951-.12.721.347-4.862,9.889-7.637,20.046-9.9,30.557a227.234,227.234,0,0,0,21.805-44.789C414.978,277.135,416.115,277.506,415.9,278.168Z" fill="#766fe0" opacity="0.382" style="mix-blend-mode: screen;isolation: isolate"/>
      </g>
      <g id="Group_52717" data-name="Group 52717">
        <g id="Group_52716" data-name="Group 52716">
          <path id="Path_1745" data-name="Path 1745" d="M319.762,380.168A204.239,204.239,0,0,0,365.1,331.949a213.644,213.644,0,0,0,27.448-60.138c3.572-12.69,7.016-26.223,5.137-39.468-.175-1.234,1.61-1.781,1.927-.5,2.8,11.271-.216,23.387-2.984,34.382a221.148,221.148,0,0,1-10.942,32.5,205.311,205.311,0,0,1-36.57,57.634,165.025,165.025,0,0,1-28.3,25.175c-.8.548-1.828-.758-1.054-1.361Z" fill="#4d8761"/>
        </g>
        <path id="Path_1746" data-name="Path 1746" d="M399.357,252.5q-1.561-7.841-3.125-15.682c-.88-4.415-1.664-9.364.827-13.113a1.524,1.524,0,0,1,.872-.739c.561-.115,1.062.356,1.412.81,2.806,3.634,3.285,8.615,2.527,13.143s-1.411,11.263-2.886,15.611" fill="#4d8761"/>
        <path id="Path_1747" data-name="Path 1747" d="M394.77,273.055A38.214,38.214,0,0,0,412.781,258.7c.63-.942,1.237-2.121.779-3.158-.556-1.258-2.308-1.432-3.622-1.027-2.25.692-4.006,2.428-5.6,4.161a95.722,95.722,0,0,0-9.837,12.692" fill="#4d8761"/>
        <path id="Path_1748" data-name="Path 1748" d="M387.5,293.844a40,40,0,0,0,18.853-15.026c.66-.987,1.3-2.22.816-3.306-.582-1.317-2.416-1.5-3.792-1.075-2.356.724-4.193,2.541-5.861,4.356a100.212,100.212,0,0,0-10.3,13.286" fill="#4d8761"/>
        <path id="Path_1749" data-name="Path 1749" d="M375.784,317.075a40.009,40.009,0,0,0,22.655-8.248c.939-.725,1.934-1.692,1.825-2.874-.133-1.434-1.814-2.19-3.253-2.226-2.464-.063-4.784,1.075-6.942,2.265a100.331,100.331,0,0,0-13.99,9.32" fill="#4d8761"/>
        <path id="Path_1750" data-name="Path 1750" d="M396.411,260.494a33.969,33.969,0,0,1-7.639-19c-.075-1.006-.028-2.183.781-2.785.982-.729,2.414-.1,3.253.794a11.963,11.963,0,0,1,2.507,5.674,85.072,85.072,0,0,1,2.045,14.132" fill="#4d8761"/>
        <path id="Path_1751" data-name="Path 1751" d="M390.187,280.947a40.571,40.571,0,0,1-9.119-22.685c-.089-1.2-.033-2.607.933-3.324,1.172-.871,2.881-.115,3.884.947,1.715,1.817,2.428,4.339,2.992,6.774a101.618,101.618,0,0,1,2.441,16.871" fill="#4d8761"/>
        <path id="Path_1752" data-name="Path 1752" d="M381.221,302.962a40.571,40.571,0,0,1-9.119-22.685c-.089-1.2-.033-2.606.933-3.324,1.172-.871,2.881-.115,3.884.947,1.715,1.817,2.428,4.339,2.992,6.774a101.618,101.618,0,0,1,2.441,16.871" fill="#4d8761"/>
        <path id="Path_1753" data-name="Path 1753" d="M369.592,325.822a40.568,40.568,0,0,1-9.12-22.685c-.088-1.2-.033-2.607.934-3.324,1.172-.871,2.88-.115,3.883.947,1.716,1.817,2.428,4.339,2.992,6.774a101.62,101.62,0,0,1,2.442,16.871" fill="#4d8761"/>
      </g>
      <g id="Group_52719" data-name="Group 52719">
        <g id="Group_52718" data-name="Group 52718">
          <path id="Path_1754" data-name="Path 1754" d="M177.181,406.05c-15.2-5.084-29.916-10.9-43.907-18.8a217.268,217.268,0,0,1-38.481-27.674c-7.137-6.424-13.5-13.176-18.121-21.664-.518-.953-2.239-.362-1.838.717,2.846,7.672,8.664,13.827,14.527,19.349a218.093,218.093,0,0,0,18.581,15.593A214.16,214.16,0,0,0,150.1,398.312a162.657,162.657,0,0,0,26.587,9.4.869.869,0,0,0,.5-1.663Z" fill="#4d8761"/>
        </g>
        <path id="Path_1755" data-name="Path 1755" d="M87.057,355.435q-3.271-7.3-6.545-14.591c-1.842-4.107-4.072-8.594-8.275-10.2a1.524,1.524,0,0,0-1.139-.1c-.524.231-.658.9-.681,1.478-.179,4.588,2.317,8.924,5.561,12.175s7.678,8.359,11.4,11.046" fill="#4d8761"/>
        <path id="Path_1756" data-name="Path 1756" d="M102.709,369.522a38.222,38.222,0,0,1-23-1.256c-1.06-.4-2.238-1.011-2.466-2.121-.276-1.348,1.051-2.5,2.356-2.938,2.235-.74,4.672-.343,6.975.145a95.835,95.835,0,0,1,15.373,4.639" fill="#4d8761"/>
        <path id="Path_1757" data-name="Path 1757" d="M120.686,382.246a40,40,0,0,1-24.073-1.315c-1.11-.421-2.343-1.058-2.581-2.22-.289-1.411,1.1-2.622,2.466-3.075,2.339-.775,4.89-.36,7.3.152a100.181,100.181,0,0,1,16.093,4.856" fill="#4d8761"/>
        <path id="Path_1758" data-name="Path 1758" d="M143.7,394.384a40.006,40.006,0,0,1-23.241,6.412c-1.186-.047-2.558-.258-3.154-1.284-.723-1.246.209-2.836,1.36-3.7,1.971-1.479,4.522-1.9,6.97-2.179a100.331,100.331,0,0,1,16.8-.515" fill="#4d8761"/>
        <path id="Path_1759" data-name="Path 1759" d="M94.091,360.238A33.989,33.989,0,0,0,89.3,340.326c-.523-.863-1.244-1.795-2.252-1.816-1.223-.025-2.022,1.321-2.191,2.532a11.966,11.966,0,0,0,1.247,6.077,85.141,85.141,0,0,0,6.527,12.7" fill="#4d8761"/>
        <path id="Path_1760" data-name="Path 1760" d="M111.019,373.3a40.568,40.568,0,0,0-5.721-23.771c-.623-1.029-1.484-2.143-2.687-2.168-1.46-.03-2.414,1.577-2.615,3.024-.345,2.475.537,4.943,1.488,7.254a101.762,101.762,0,0,0,7.791,15.162" fill="#4d8761"/>
        <path id="Path_1761" data-name="Path 1761" d="M131.087,386.036a40.575,40.575,0,0,0-5.72-23.771c-.624-1.03-1.485-2.143-2.688-2.168-1.46-.03-2.414,1.577-2.615,3.023-.345,2.475.537,4.944,1.488,7.254a101.771,101.771,0,0,0,7.791,15.163" fill="#4d8761"/>
        <path id="Path_1762" data-name="Path 1762" d="M153.815,397.92a40.579,40.579,0,0,0-5.72-23.771c-.624-1.029-1.485-2.142-2.688-2.167-1.46-.03-2.414,1.577-2.615,3.023-.345,2.475.537,4.944,1.488,7.254a101.715,101.715,0,0,0,7.791,15.162" fill="#4d8761"/>
      </g>
      <g id="Group_52721" data-name="Group 52721">
        <g id="Group_52720" data-name="Group 52720">
          <path id="Path_1763" data-name="Path 1763" d="M178.967,372.965c-9.522-12.895-18.222-26.11-25.134-40.615a217.238,217.238,0,0,1-15.595-44.76c-2.151-9.359-3.483-18.542-2.385-28.143.123-1.078-1.625-1.583-1.917-.469-2.078,7.914-.853,16.3.773,24.183a218.294,218.294,0,0,0,6.25,23.438,214.14,214.14,0,0,0,20.285,44.471A162.723,162.723,0,0,0,177.6,374.04a.869.869,0,0,0,1.364-1.075Z" fill="#4d8761"/>
        </g>
        <path id="Path_1764" data-name="Path 1764" d="M134.283,279.758q1.514-7.851,3.026-15.7c.852-4.42,1.6-9.374-.909-13.107a1.524,1.524,0,0,0-.878-.733c-.562-.112-1.059.362-1.406.818-2.783,3.652-3.231,8.636-2.444,13.16s1.482,11.253,2.985,15.592" fill="#4d8761"/>
        <path id="Path_1765" data-name="Path 1765" d="M139,300.281a38.217,38.217,0,0,1-18.1-14.241c-.636-.938-1.251-2.113-.8-3.153.548-1.261,2.3-1.446,3.616-1.05,2.254.678,4.021,2.4,5.625,4.126a95.8,95.8,0,0,1,9.918,12.629" fill="#4d8761"/>
        <path id="Path_1766" data-name="Path 1766" d="M146.4,321.023a40,40,0,0,1-18.948-14.906c-.666-.983-1.31-2.212-.837-3.3.574-1.32,2.406-1.514,3.785-1.1,2.36.709,4.209,2.515,5.888,4.318a100.209,100.209,0,0,1,10.382,13.221" fill="#4d8761"/>
        <path id="Path_1767" data-name="Path 1767" d="M158.265,344.18a40.013,40.013,0,0,1-22.706-8.1c-.944-.719-1.945-1.68-1.843-2.863.124-1.434,1.8-2.2,3.239-2.246,2.463-.078,4.791,1.045,6.956,2.221a100.2,100.2,0,0,1,14.048,9.231" fill="#4d8761"/>
        <path id="Path_1768" data-name="Path 1768" d="M137.281,287.73a33.98,33.98,0,0,0,7.518-19.05c.068-1.006.014-2.183-.8-2.78-.987-.723-2.414-.08-3.248.815a11.953,11.953,0,0,0-2.471,5.689,85.18,85.18,0,0,0-1.955,14.145" fill="#4d8761"/>
        <path id="Path_1769" data-name="Path 1769" d="M143.634,308.143a40.563,40.563,0,0,0,8.975-22.742c.081-1.2.017-2.607-.954-3.319-1.178-.863-2.882-.1-3.878.973-1.7,1.827-2.4,4.354-2.949,6.792a101.6,101.6,0,0,0-2.334,16.886" fill="#4d8761"/>
        <path id="Path_1770" data-name="Path 1770" d="M152.739,330.1a40.574,40.574,0,0,0,8.976-22.742c.081-1.2.016-2.607-.955-3.319-1.177-.863-2.881-.1-3.877.972-1.7,1.828-2.4,4.355-2.95,6.793a101.708,101.708,0,0,0-2.334,16.886" fill="#4d8761"/>
        <path id="Path_1771" data-name="Path 1771" d="M164.513,352.887a40.574,40.574,0,0,0,8.976-22.743c.081-1.2.016-2.606-.955-3.318-1.177-.864-2.881-.1-3.877.972-1.7,1.828-2.4,4.355-2.949,6.792a101.63,101.63,0,0,0-2.335,16.887" fill="#4d8761"/>
      </g>
      <g id="Group_52723" data-name="Group 52723">
        <g id="Group_52722" data-name="Group 52722">
          <path id="Path_1772" data-name="Path 1772" d="M365.731,368.012c12.219,1.037,24.771-.147,36.787-2.433A166.633,166.633,0,0,0,438.2,354.537c6.268-2.745,12.966-5.866,17.364-11.3a.755.755,0,0,0-1.123-1.007c-9.066,8.4-21.352,12.9-32.951,16.633a163.845,163.845,0,0,1-35.489,7.222c-6.727.606-13.446.645-20.192.624-.734,0-.829,1.238-.082,1.3Z" fill="#4d8761"/>
        </g>
        <path id="Path_1773" data-name="Path 1773" d="M442.8,352.235l8.231-8.882c2.317-2.5,5-5.179,8.41-5.316a1.153,1.153,0,0,1,.84.207,1.2,1.2,0,0,1,.131,1.225c-.983,3.335-3.825,5.842-6.94,7.388s-7.534,4.136-10.856,5.162" fill="#4d8761"/>
        <path id="Path_1774" data-name="Path 1774" d="M428.159,358.549a28.935,28.935,0,0,0,16.8,4.671,2.623,2.623,0,0,0,2.283-.924c.524-.9-.147-2.051-.979-2.678a10.173,10.173,0,0,0-5.039-1.586,72.56,72.56,0,0,0-12.153-.4" fill="#4d8761"/>
        <path id="Path_1775" data-name="Path 1775" d="M412.178,363.321a30.3,30.3,0,0,0,17.59,4.891,2.747,2.747,0,0,0,2.389-.968c.55-.942-.153-2.148-1.024-2.8a10.652,10.652,0,0,0-5.274-1.66,75.962,75.962,0,0,0-12.723-.415" fill="#4d8761"/>
        <path id="Path_1776" data-name="Path 1776" d="M392.727,366.453a30.293,30.293,0,0,0,15.12,10.232,2.748,2.748,0,0,0,2.574-.157c.82-.718.537-2.085-.08-2.984a10.654,10.654,0,0,0-4.472-3.252,75.925,75.925,0,0,0-11.929-4.441" fill="#4d8761"/>
        <path id="Path_1777" data-name="Path 1777" d="M436.591,353.976a25.736,25.736,0,0,1,8.263-13.124,2.333,2.333,0,0,1,2.055-.757c.883.278,1.13,1.438.958,2.348A9.049,9.049,0,0,1,445.5,346.5a64.491,64.491,0,0,1-7.76,7.53" fill="#4d8761"/>
        <path id="Path_1778" data-name="Path 1778" d="M421.283,359.243a30.712,30.712,0,0,1,9.864-15.668,2.782,2.782,0,0,1,2.453-.9c1.055.332,1.35,1.716,1.144,2.8a10.808,10.808,0,0,1-2.826,4.843,76.916,76.916,0,0,1-9.264,8.99" fill="#4d8761"/>
        <path id="Path_1779" data-name="Path 1779" d="M403.8,363.52a30.727,30.727,0,0,1,9.864-15.668,2.785,2.785,0,0,1,2.453-.9c1.055.332,1.35,1.716,1.144,2.8a10.8,10.8,0,0,1-2.826,4.844,77.059,77.059,0,0,1-9.263,8.99" fill="#4d8761"/>
        <path id="Path_1780" data-name="Path 1780" d="M384.613,366.539a30.711,30.711,0,0,1,9.863-15.667,2.784,2.784,0,0,1,2.454-.9c1.055.332,1.35,1.716,1.144,2.8a10.821,10.821,0,0,1-2.826,4.844,76.918,76.918,0,0,1-9.264,8.99" fill="#4d8761"/>
      </g>
    </g>
    <g id="Group_52727" data-name="Group 52727">
      <circle id="Ellipse_295" data-name="Ellipse 295" cx="8.265" cy="8.265" r="8.265" transform="matrix(0.125, -0.992, 0.992, 0.125, 364.695, 165.947)" fill="#fff"/>
      <g id="Group_52726" data-name="Group 52726">
        <path id="Path_1781" data-name="Path 1781" d="M342.128,253.058a4.089,4.089,0,1,1-4.088-4.089A4.089,4.089,0,0,1,342.128,253.058Z" fill="#e4af3a"/>
        <g id="Group_52725" data-name="Group 52725">
          <circle id="Ellipse_296" data-name="Ellipse 296" cx="8.265" cy="8.265" r="8.265" transform="matrix(0.232, -0.973, 0.973, 0.232, 89.419, 268.808)" fill="#f0c84c"/>
          <circle id="Ellipse_297" data-name="Ellipse 297" cx="4.385" cy="4.385" r="4.385" transform="translate(71.316 307.053)" fill="#fff"/>
          <path id="Path_1782" data-name="Path 1782" d="M130.859,245.334a5.562,5.562,0,1,1-5.563-5.563A5.563,5.563,0,0,1,130.859,245.334Z" fill="#71c297"/>
          <path id="Path_1783" data-name="Path 1783" d="M375.657,217.564a5.14,5.14,0,1,1-5.139-5.14A5.139,5.139,0,0,1,375.657,217.564Z" fill="#cc6249"/>
          <path id="Path_1784" data-name="Path 1784" d="M453.4,312.133a8.264,8.264,0,1,1-8.264-8.264A8.264,8.264,0,0,1,453.4,312.133Z" fill="#e4af3a"/>
          <path id="Path_1785" data-name="Path 1785" d="M63.622,358.223a4.089,4.089,0,1,1-4.089-4.089A4.089,4.089,0,0,1,63.622,358.223Z" fill="#e4af3a"/>
          <path id="Path_1786" data-name="Path 1786" d="M415.246,331.335a4.089,4.089,0,1,1-4.089-4.088A4.089,4.089,0,0,1,415.246,331.335Z" fill="#fff"/>
          <path id="Path_1787" data-name="Path 1787" d="M460.532,356.966a4.089,4.089,0,1,1-4.088-4.089A4.089,4.089,0,0,1,460.532,356.966Z" fill="#71c297"/>
          <path id="Path_1788" data-name="Path 1788" d="M61.152,252.617a4.089,4.089,0,1,1-4.088-4.089A4.089,4.089,0,0,1,61.152,252.617Z" fill="#cc6249"/>
        </g>
        <path id="Path_1789" data-name="Path 1789" d="M402.41,317.024a4.089,4.089,0,1,1-4.088-4.089A4.088,4.088,0,0,1,402.41,317.024Z" fill="#e4af3a"/>
      </g>
    </g>
    <g id="Group_52735" data-name="Group 52735">
      <g id="Group_52730" data-name="Group 52730">
        <path id="Path_1790" data-name="Path 1790" d="M356.959,166.655v262.7H160.2v-262.7a12.446,12.446,0,0,1,12.451-12.44H344.508A12.446,12.446,0,0,1,356.959,166.655Z" fill="#454f5b"/>
        <path id="Path_1791" data-name="Path 1791" d="M356.959,166.655v262.7h-9.272V174.685a12.446,12.446,0,0,0-12.451-12.441H163.384a12.372,12.372,0,0,0-2.463.247,12.451,12.451,0,0,1,11.734-8.276H344.508A12.446,12.446,0,0,1,356.959,166.655Z" fill="#4b5e5b" opacity="0.306" style="mix-blend-mode: multiply;isolation: isolate"/>
        <rect id="Rectangle_1606" data-name="Rectangle 1606" width="165.119" height="228.995" transform="translate(176.022 173.628)" fill="#fff"/>
        <rect id="Rectangle_1607" data-name="Rectangle 1607" width="154.046" height="83.678" transform="translate(181.559 179.322)" fill="#dadbda" opacity="0.182"/>
        <rect id="Rectangle_1608" data-name="Rectangle 1608" width="218.289" height="154.413" transform="translate(335.788 178.981) rotate(90)" fill="none" stroke="#dadbda" stroke-miterlimit="10" stroke-width="1.071"/>
        <g id="Group_52728" data-name="Group 52728">
          <path id="Path_1792" data-name="Path 1792" d="M302.508,152.973v18.254H214.655V152.973a8.144,8.144,0,0,1,8.147-8.147h71.559A8.144,8.144,0,0,1,302.508,152.973Z" fill="#f0c84c"/>
          <circle id="Ellipse_298" data-name="Ellipse 298" cx="9.884" cy="9.884" r="9.884" transform="translate(245.654 137.991) rotate(-22.644)" fill="#f0c84c"/>
          <path id="Path_1793" data-name="Path 1793" d="M262.7,143.308a4.123,4.123,0,1,1-4.124-4.124A4.124,4.124,0,0,1,262.7,143.308Z" fill="#dfe0fd"/>
        </g>
        <path id="Path_1794" data-name="Path 1794" d="M302.508,156.41v14.817H214.655v-15.46c1.231.632,2.462,1.414,3.211,1.681a62.527,62.527,0,0,0,8.908,2.409c6.787,1.328,13.736,1.606,20.641,1.873a201.341,201.341,0,0,0,27.433-.628C284.2,160.176,293.229,157.743,302.508,156.41Z" fill="#e0a42c"/>
        <rect id="Rectangle_1609" data-name="Rectangle 1609" width="120.271" height="9.157" rx="4.277" transform="translate(198.695 167.838)" fill="#edba3b"/>
        <g id="Group_52729" data-name="Group 52729">
          <rect id="Rectangle_1610" data-name="Rectangle 1610" width="16.714" height="16.715" rx="4.364" transform="translate(200.583 279.736)" fill="#dadbda"/>
          <rect id="Rectangle_1611" data-name="Rectangle 1611" width="16.714" height="16.715" rx="4.364" transform="translate(200.583 304.879)" fill="#dadbda"/>
          <rect id="Rectangle_1612" data-name="Rectangle 1612" width="16.714" height="16.715" rx="4.364" transform="translate(200.583 330.022)" fill="#dadbda"/>
          <rect id="Rectangle_1613" data-name="Rectangle 1613" width="90.459" height="3.278" rx="1.531" transform="translate(226.12 282.593)" fill="#dadbda"/>
          <rect id="Rectangle_1614" data-name="Rectangle 1614" width="90.459" height="3.277" rx="1.531" transform="translate(226.12 290.907)" fill="#dadbda"/>
          <rect id="Rectangle_1615" data-name="Rectangle 1615" width="90.459" height="3.278" rx="1.531" transform="translate(226.12 308.411)" fill="#dadbda"/>
          <rect id="Rectangle_1616" data-name="Rectangle 1616" width="90.459" height="3.277" rx="1.531" transform="translate(226.12 316.725)" fill="#dadbda"/>
          <rect id="Rectangle_1617" data-name="Rectangle 1617" width="90.459" height="3.277" rx="1.531" transform="translate(226.12 334.228)" fill="#dadbda"/>
          <rect id="Rectangle_1618" data-name="Rectangle 1618" width="90.459" height="3.277" rx="1.531" transform="translate(226.12 342.543)" fill="#dadbda"/>
        </g>
        <path id="Path_1795" data-name="Path 1795" d="M200.659,282.335l9.147,8.254,19.186-22.309" fill="none" stroke="#b24922" stroke-linecap="round" stroke-linejoin="round" stroke-width="3.212"/>
        <path id="Path_1796" data-name="Path 1796" d="M200.659,306.964l9.147,8.255,19.186-22.309" fill="none" stroke="#b24922" stroke-linecap="round" stroke-linejoin="round" stroke-width="3.212"/>
        <path id="Path_1797" data-name="Path 1797" d="M200.659,331.593l9.147,8.254,19.186-22.309" fill="none" stroke="#b24922" stroke-linecap="round" stroke-linejoin="round" stroke-width="3.212"/>
      </g>
      <g id="Group_52734" data-name="Group 52734">
        <g id="Group_52731" data-name="Group 52731">
          <path id="Path_1798" data-name="Path 1798" d="M228.081,381.35c1.421-1.284,3.064-2.575,4.986-2.6a9.778,9.778,0,0,1,3.44.917c10.6,4.1,20.028,5.034,31.216,4.663,7.938-.263,18.565,1.316,24.788,6.8a11.351,11.351,0,0,1,1.849,2.026,8.1,8.1,0,0,1,1.007,6.425,4.926,4.926,0,0,1-.162.6,9.759,9.759,0,0,1-2.387,3.809,16.5,16.5,0,0,0-1.635,1.332c-.509.7-.441.467.183.868,1.214.8,2.648.993,3.812,2.025a7.038,7.038,0,0,1,2.087,3.15c1.377,4.522-1.333,8.337-4.1,8.886a7.516,7.516,0,0,1,6.563,5.716c.421,2.433-1.085,5.442-2.978,6.936-1.432,1.129-4,1.035-4.33,2.424-.324,1.358,2.273,2.767,1.644,4.593-.827,2.4-6.362,3.7-8.474,4.226-11.795,2.936-20.945-4.914-31.987-9.993a76.846,76.846,0,0,1-17.122-10.273c-5.85-4.457-18.188-4.808-23.93-9.4-5.247-4.2-1.861-8.593.935-14.032.092-.2.192-.4.3-.608.753-1.446,1.564-2.85,2.424-4.238A66.429,66.429,0,0,1,228.081,381.35Z" fill="#cd9068"/>
          <path id="Path_1799" data-name="Path 1799" d="M235.381,381.685a7.713,7.713,0,0,1-.535,2.109c-1.252,3.576-2.676,7.034-4.218,10.417-1.788,3.929-3.736,7.762-5.771,11.552-2.28,4.271-4.678,8.5-7.076,12.761a6.228,6.228,0,0,1-2.345,2.73c-1.295.653-2.848.332-4.25,0-1.488-.364-2.976-.717-4.443-1.06-1.306-.31-2.6-.653-3.9-1.017-14.325-3.961-27.793-10.5-41.6-16.016-10.781-4.3-21.562-8.661-32.247-13.2a7.153,7.153,0,0,1-4.2-7.976,97.37,97.37,0,0,1,23.65-46.143,7.159,7.159,0,0,1,8.682-1.478c1.189.643,2.377,1.3,3.565,1.938,15.835,8.576,31.69,17.108,47.31,26.08,5.739,3.308,11.477,6.649,17.066,10.214,1.134.717,2.248,1.434,3.361,2.173C231.356,376.685,235.585,378.184,235.381,381.685Z" fill="#cc6249"/>
          <path id="Path_1800" data-name="Path 1800" d="M290.041,432.516s-13.133.814-20.876-1.326" fill="none" stroke="#e0b892" stroke-miterlimit="10" stroke-width="1.071" style="mix-blend-mode: multiply;isolation: isolate"/>
          <path id="Path_1801" data-name="Path 1801" d="M289.509,419.516s-14.886-.207-22.629-2.347" fill="none" stroke="#e0b892" stroke-miterlimit="10" stroke-width="1.071" style="mix-blend-mode: multiply;isolation: isolate"/>
          <path id="Path_1802" data-name="Path 1802" d="M288,405.959s-13.183-.04-20.927-2.18" fill="none" stroke="#e0b892" stroke-miterlimit="10" stroke-width="1.071" style="mix-blend-mode: multiply;isolation: isolate"/>
          <path id="Path_1803" data-name="Path 1803" d="M235.381,381.685a7.713,7.713,0,0,1-.535,2.109c-1.252,3.576-2.676,7.034-4.218,10.417-1.788,3.929-3.736,7.762-5.771,11.552-2.28,4.271-4.678,8.5-7.076,12.761a6.228,6.228,0,0,1-2.345,2.73c-1.295.653-2.848.332-4.25,0-1.488-.364-2.976-.717-4.443-1.06-1.306-.31-2.6-.653-3.9-1.017,6.755-10.62,17.847-34.077,22.226-46.581,1.134.717,2.248,1.434,3.361,2.173C231.356,376.685,235.585,378.184,235.381,381.685Z" fill="#ebebeb"/>
          <path id="Path_1804" data-name="Path 1804" d="M224.857,405.763c-2.28,4.271-4.678,8.5-7.076,12.761a6.228,6.228,0,0,1-2.345,2.73c-1.295.653-2.848.332-4.25,0-1.488-.364-2.976-.717-4.443-1.06-15.8-3.789-30.448-11.027-45.5-17.033-10.781-4.3-21.562-8.661-32.247-13.2a7.153,7.153,0,0,1-4.2-7.976,97.11,97.11,0,0,1,13.03-32.268C149.958,363.431,186.294,400.913,224.857,405.763Z" fill="#cc6249" opacity="0.407" style="mix-blend-mode: multiply;isolation: isolate"/>
        </g>
        <g id="Group_52733" data-name="Group 52733">
          <path id="Path_1805" data-name="Path 1805" d="M313.021,422.65a39.739,39.739,0,0,0-21.914,8.722c-5.976,5-10.679,11.319-16.552,16.433-2.583,2.248-6.036,4.357-9.243,3.154a5.354,5.354,0,0,1-3.337-4.078c-.333-2.067,2-5.142,2-5.142s-2.592.937-3.88,1.427a15.3,15.3,0,0,1-3.26.969,5.139,5.139,0,0,1-3.3-.523,4.734,4.734,0,0,1-2.14-3.355,29.835,29.835,0,0,1,.527-5s-2.127.984-2.844,1.437a7.151,7.151,0,0,1-4.646,1.213,4.351,4.351,0,0,1-3.64-2.864,5.737,5.737,0,0,1-.1-2.3c.3-2.56,1.465-6.205,3.411-8.009-1.049.973-2.128,1.46-3.152,2.557a10.406,10.406,0,0,1-3.728,2.791c-4.972,1.931-6.7-2.578-5.584-6.474a32.632,32.632,0,0,1,6.983-13.471c3.634-4.116,7.983-7.526,12-11.267,2.746-2.556,5.349-5.277,8.3-7.6,13.486-10.624,34-11.765,50.414-10.239a.97.97,0,0,1,.931-.567,1.776,1.776,0,0,1,1.114.781c1.027.107,2.066.236,3.115.375l-2.816.064a.3.3,0,0,1,.054.075,60.1,60.1,0,0,1,5.91,12.729c.074.193.139.386.2.589.46,1.424.856,2.859,1.21,4.315,1.227,5.077,4.959,19.293-1.442,22.384A13.061,13.061,0,0,1,313.021,422.65Z" fill="#e0b892"/>
          <path id="Path_1806" data-name="Path 1806" d="M412.33,391.706a7.158,7.158,0,0,1-5.042,7.216L403.4,400.11c-17.215,5.257-34.43,10.567-51.774,15.4-7.676,2.131-15.374,4.208-23.168,5.867-3.415.739-7.451,2.7-9.8.1a8.075,8.075,0,0,1-1.135-1.862c-1.659-3.4-3.126-6.842-4.453-10.321-3.276-8.554-5.749-17.311-8.308-26.208a6.268,6.268,0,0,1-.3-3.587c.439-1.381,1.767-2.259,2.987-3.03,1.3-.8,2.591-1.616,3.876-2.419,13.778-8.6,29.216-13.95,44.055-20.459,10.631-4.668,21.3-9.282,32.032-13.715a7.142,7.142,0,0,1,5.781.161,7.038,7.038,0,0,1,2.848,2.452A97.1,97.1,0,0,1,412.33,391.706Z" fill="#315680"/>
          <path id="Path_1807" data-name="Path 1807" d="M412.33,391.706a7.158,7.158,0,0,1-5.042,7.216L403.4,400.11c-17.215,5.257-34.43,10.567-51.774,15.4-7.676,2.131-15.374,4.208-23.168,5.867-3.415.739-7.451,2.7-9.8.1a8.075,8.075,0,0,1-1.135-1.862c-1.659-3.4-3.126-6.842-4.453-10.321a23.582,23.582,0,0,1,2.473-2.484c4.646-4,10.449-6.348,15.995-8.982a147.573,147.573,0,0,0,50.168-39.055c4.668-5.653,7.366-13.929,11.487-18.736a7.038,7.038,0,0,1,2.848,2.452A97.1,97.1,0,0,1,412.33,391.706Z" fill="#315680" opacity="0.434" style="mix-blend-mode: multiply;isolation: isolate"/>
          <g id="Group_52732" data-name="Group 52732">
            <path id="Path_1808" data-name="Path 1808" d="M340.035,408.552a3.568,3.568,0,1,1-3.569-3.568A3.569,3.569,0,0,1,340.035,408.552Z" fill="#467c9f"/>
            <path id="Path_1809" data-name="Path 1809" d="M351.472,405.537a3.568,3.568,0,1,1-3.569-3.568A3.569,3.569,0,0,1,351.472,405.537Z" fill="#467c9f"/>
            <circle id="Ellipse_299" data-name="Ellipse 299" cx="2.189" cy="2.189" r="2.189" transform="translate(345.714 403.361)" fill="#315680" opacity="0.434" style="mix-blend-mode: multiply;isolation: isolate"/>
            <path id="Path_1810" data-name="Path 1810" d="M338.495,408.584a2.189,2.189,0,1,1-2.19-2.189A2.19,2.19,0,0,1,338.495,408.584Z" fill="#315680" opacity="0.434" style="mix-blend-mode: multiply;isolation: isolate"/>
          </g>
          <path id="Path_1811" data-name="Path 1811" d="M244.091,424.739s8.636-9.928,15.6-13.942" fill="none" stroke="#e0b892" stroke-miterlimit="10" stroke-width="1.071" style="mix-blend-mode: multiply;isolation: isolate"/>
          <path id="Path_1812" data-name="Path 1812" d="M251.757,435.451s9.055-12.252,16.014-16.267" fill="none" stroke="#e0b892" stroke-miterlimit="10" stroke-width="1.071" style="mix-blend-mode: multiply;isolation: isolate"/>
          <path id="Path_1813" data-name="Path 1813" d="M263.763,441.843s7.13-10.793,14.089-14.807" fill="none" stroke="#e0b892" stroke-miterlimit="10" stroke-width="1.071" style="mix-blend-mode: multiply;isolation: isolate"/>
          <path id="Path_1814" data-name="Path 1814" d="M316.824,379.426a89.3,89.3,0,0,0,11.71,32.846" fill="none" stroke="#315680" stroke-miterlimit="10" stroke-width="1.071" opacity="0.434" style="mix-blend-mode: multiply;isolation: isolate"/>
        </g>
        <path id="Path_1815" data-name="Path 1815" d="M292.892,383.84c1.475.318,3.063.743,3.98,1.941,1.412,1.844.443,4.7-1.412,6.1s-4.281,1.721-6.588,2c-9.551,1.146-19.16,2.267-28.8,1.955a85.061,85.061,0,0,1-14.462-1.739c-1.457-.3-4.168-.57-4.993-2.08-.908-1.66.979-3.372,2.166-4.312A39.307,39.307,0,0,1,258.5,379.94a30.182,30.182,0,0,1,8.773-.652c2.926.218,5.5,1.429,8.317,1.866C281.354,382.048,287.134,382.6,292.892,383.84Z" fill="#3f3f3f" opacity="0.208"/>
        <path id="Path_1816" data-name="Path 1816" d="M291.368,380.651c1.5.2,3.112.5,4.121,1.621,1.553,1.728.813,4.655-.927,6.2s-4.132,2.052-6.41,2.51c-9.431,1.894-18.922,3.769-28.554,4.217a84.986,84.986,0,0,1-14.554-.593c-1.476-.185-4.2-.24-5.142-1.68-1.036-1.584.71-3.439,1.819-4.47a39.323,39.323,0,0,1,15.051-8.977,30.234,30.234,0,0,1,8.694-1.342c2.934-.012,5.593.992,8.439,1.206C279.725,379.775,285.531,379.866,291.368,380.651Z" fill="#cd9068"/>
        <path id="Path_1817" data-name="Path 1817" d="M323.1,374.114c-1.309,1.3-2.56,3.371-1.446,4.843a3.546,3.546,0,0,0,2.709,1.1,22.11,22.11,0,0,0,7.889-1.437A163.2,163.2,0,0,0,356.2,368.78c3.2-1.623,11.748-6.072,9.349-10.948-2.32-4.713-9.55-.346-12.642.846C342.495,362.691,331.214,366.037,323.1,374.114Z" fill="#315680" opacity="0.667" style="mix-blend-mode: screen;isolation: isolate"/>
        <path id="Path_1818" data-name="Path 1818" d="M165.642,355.515c-1.822-.294-4.231-.093-4.769,1.674a3.545,3.545,0,0,0,.7,2.84,22.072,22.072,0,0,0,5.8,5.541A163.1,163.1,0,0,0,189.4,379.177c3.194,1.637,11.815,5.942,14.352,1.137,2.453-4.645-5.329-7.933-8.109-9.735C186.281,364.508,176.948,357.342,165.642,355.515Z" fill="#cc6249" style="mix-blend-mode: screen;isolation: isolate"/>
        <path id="Path_1819" data-name="Path 1819" d="M302,430.951a10.208,10.208,0,0,0,3.237,4.093,4.962,4.962,0,0,0,5.292.263c1.761-1.227,1.7-3.584,1.314-5.542a39.2,39.2,0,0,0-3.939-10.983c-.871-1.623-2.076-3.353-4.046-3.776-3.693-.793-6.341,3.109-5.949,5.95C298.354,424.173,300.5,428.021,302,430.951Z" fill="#cd9068"/>
        <path id="Path_1820" data-name="Path 1820" d="M293.348,435.934a11.4,11.4,0,0,0,3.237,4.614,4.5,4.5,0,0,0,5.292.3c1.761-1.384,1.7-4.041,1.314-6.248a47.979,47.979,0,0,0-3.939-12.382c-.871-1.83-2.076-3.78-4.046-4.257-3.693-.894-6.341,3.505-5.949,6.707C289.7,428.293,291.842,432.63,293.348,435.934Z" fill="#cd9068"/>
        <path id="Path_1821" data-name="Path 1821" d="M285.162,440.055a10.3,10.3,0,0,0,2.921,4.162,4.057,4.057,0,0,0,4.775.268c1.589-1.248,1.531-3.646,1.185-5.637a43.264,43.264,0,0,0-3.554-11.172c-.786-1.651-1.873-3.411-3.65-3.841-3.332-.807-5.721,3.163-5.368,6.052C281.871,433.16,283.8,437.073,285.162,440.055Z" fill="#cd9068"/>
        <path id="Path_1822" data-name="Path 1822" d="M279.254,448.528a2.842,2.842,0,0,0,1.3,1.032,5.523,5.523,0,0,0,2.166.21,5.991,5.991,0,0,0,2.567-.6,4.217,4.217,0,0,0,1.96-2.616c.879-3.281-1.295-7.51-2.669-10.4-.786-1.651-1.873-3.41-3.65-3.84-3.333-.807-5.722,3.162-5.369,6.051a23.442,23.442,0,0,0,1.909,6.217A18.669,18.669,0,0,0,279.254,448.528Z" fill="#cd9068"/>
      </g>
    </g>
  </g>
</svg>
