<svg xmlns="http://www.w3.org/2000/svg" width="30" height="28.126" viewBox="0 0 30 28.126">
  <path id="snapchat" d="M29.412,36.991c-4.011-.66-5.818-4.768-5.892-4.943a.283.283,0,0,0-.017-.034,1.24,1.24,0,0,1-.141-1.02c.219-.514,1.059-.78,1.614-.956.161-.051.313-.1.439-.148a3.4,3.4,0,0,0,1.2-.714,1.136,1.136,0,0,0,.364-.818,1.286,1.286,0,0,0-.964-1.116,1.742,1.742,0,0,0-.653-.124,1.453,1.453,0,0,0-.608.124A3.41,3.41,0,0,1,23.5,27.6a1.148,1.148,0,0,1-.414-.09c.011-.188.023-.381.036-.579l.006-.086c.129-2.031.289-4.556-.383-6.057a8.147,8.147,0,0,0-1.836-2.627,7.677,7.677,0,0,0-2.2-1.448,8.676,8.676,0,0,0-3.426-.724h-.075l-.516.006a8.709,8.709,0,0,0-3.43.724A7.634,7.634,0,0,0,9.08,18.163a8.174,8.174,0,0,0-1.828,2.621c-.671,1.5-.512,4.024-.384,6.053v0c.013.218.028.444.041.666a1.2,1.2,0,0,1-.491.092,3.253,3.253,0,0,1-1.337-.358,1.2,1.2,0,0,0-.508-.105,1.8,1.8,0,0,0-.9.251,1.243,1.243,0,0,0-.636.812,1.12,1.12,0,0,0,.428,1.052,3.687,3.687,0,0,0,1.118.639c.128.051.279.1.439.148.555.176,1.4.443,1.616.956a1.249,1.249,0,0,1-.143,1.02.265.265,0,0,0-.015.034A9.929,9.929,0,0,1,4.97,34.385a8.48,8.48,0,0,1-1.823,1.609,6.707,6.707,0,0,1-2.559,1A.7.7,0,0,0,0,37.72a.888.888,0,0,0,.073.306v0a1.874,1.874,0,0,0,1.016.868,11.606,11.606,0,0,0,2.935.763,3.56,3.56,0,0,1,.18.645c.049.225.1.458.173.7a.769.769,0,0,0,.8.585,3.916,3.916,0,0,0,.69-.1,7.847,7.847,0,0,1,1.573-.178,6.836,6.836,0,0,1,1.125.1,5.344,5.344,0,0,1,2.1,1.086,6.805,6.805,0,0,0,4.144,1.614q.076,0,.152-.006c.06,0,.137.006.216.006A6.816,6.816,0,0,0,19.328,42.5l0,0a5.363,5.363,0,0,1,2.1-1.084,6.836,6.836,0,0,1,1.125-.1,7.884,7.884,0,0,1,1.573.167,3.8,3.8,0,0,0,.69.084h.034A.759.759,0,0,0,25.624,41c.071-.242.122-.467.173-.7a3.683,3.683,0,0,1,.178-.641,11.686,11.686,0,0,0,2.935-.763,1.881,1.881,0,0,0,1.014-.866A.891.891,0,0,0,30,37.718.7.7,0,0,0,29.412,36.991Z" transform="translate(0 -15.988)" fill="#909090"/>
</svg>
