<svg xmlns="http://www.w3.org/2000/svg" xmlns:xlink="http://www.w3.org/1999/xlink" width="465.914" height="379.797" viewBox="0 0 465.914 379.797">
  <defs>
    <clipPath id="clip-path">
      <path id="SVGID" d="M205.523,49.983,224.542,223.05l246.285-10.787L492.7,63.3Z" transform="translate(-205.523 -49.983)" fill="#f5f2df"/>
    </clipPath>
    <linearGradient id="linear-gradient" x1="-1.516" y1="-2.738" x2="-0.882" y2="-2.982" gradientUnits="objectBoundingBox">
      <stop offset="0" stop-color="#cba27a"/>
      <stop offset="1" stop-color="#e1b98f"/>
    </linearGradient>
    <linearGradient id="linear-gradient-2" x1="-52.393" y1="-6.829" x2="-51.879" y2="-7.095" xlink:href="#linear-gradient"/>
  </defs>
  <g id="Terms-and-Conditions" transform="translate(-99.087 -209)">
    <g id="Terms-and-Conditions-2" data-name="Terms-and-Conditions" transform="translate(83 160.309)" opacity="0.32">
      <g id="Group_52713" data-name="Group 52713">
        <path id="Path_1733" data-name="Path 1733" d="M334.1,55.573a36.411,36.411,0,0,0-9.1-4.747,46.03,46.03,0,0,0-15.022-2.135c-23.949,0-47.11,10.525-65.415,25.967C232.1,85.17,221.7,97.885,212.766,111.472c-8.112,12.337-12.84,26.85-21.614,38.6-14.62,19.582-39.178,28.743-62.8,35.012S79.9,196.056,59.9,210.09c-20.485,14.369-33.879,37.672-38.51,62.261C10.418,330.577,49,394.259,106.067,410.73c47.044,13.578,99.956,17.8,148.791,17.758,36.212-.035,72.631-2.778,108.053-10.565,29.339-6.449,60.094-14.181,84.18-33.081,28.268-22.183,39.639-58.51,33.123-93.415a152.186,152.186,0,0,0-32.354-68.94c-8.042-9.685-17.257-18.326-25.716-27.649a233.75,233.75,0,0,1-33.783-48.306c-13.977-26.606-23.033-56.243-42.2-79.39A63.736,63.736,0,0,0,334.1,55.573Z" fill="#e2e214" opacity="0.531"/>
        <path id="Path_1734" data-name="Path 1734" d="M280.278,80.365a32.14,32.14,0,0,0-8.662-2.654,40.61,40.61,0,0,0-13.378.567c-20.781,3.856-39.183,16.717-52.58,33.064-9.12,11.127-16.1,23.836-21.666,37.064-5.053,12.011-6.819,25.365-12.54,36.974-9.533,19.345-29.367,31.248-48.853,40.491s-40.277,17.322-55.377,32.721c-15.461,15.766-23.331,38.142-23.391,60.224-.141,52.29,43.592,101.335,95.761,106.438,43.006,4.208,89.6-.645,131.966-8.548,31.416-5.86,62.576-14.1,92.058-26.564,24.42-10.32,49.861-21.981,67.717-42.259,20.957-23.8,24.974-57.152,13.7-86.39a134.32,134.32,0,0,0-39.174-54.611c-8.538-7.109-17.925-13.123-26.766-19.85A206.324,206.324,0,0,1,342,150.555c-16.411-20.836-29.041-45.094-49.4-62.093A56.255,56.255,0,0,0,280.278,80.365Z" fill="#b9d5ed" opacity="0.228"/>
        <path id="Path_1735" data-name="Path 1735" d="M166.636,152.505a13.128,13.128,0,0,0-1,1.534,20.517,20.517,0,0,0-1.6,4.4c-1.941,6.945-4.372,12.145-12.064,13.833-5.208,1.143-11.706-.13-14.252-5.333-1.526-3.054-1.253-6.72-.3-10a31.283,31.283,0,0,1,10.744-15.383,48.973,48.973,0,0,1,16.983-8.388,6.037,6.037,0,0,1,2.159-.337,4.391,4.391,0,0,1,2.219.938,8.771,8.771,0,0,1,3.175,7.571,14.479,14.479,0,0,1-3.266,7.773C168.533,150.268,167.511,151.337,166.636,152.505Z" fill="#b9d5ed" opacity="0.531"/>
        <path id="Path_1736" data-name="Path 1736" d="M177.278,120.07c-1.42,2.635-3.675,4.243-3.622,7.236.068,3.858,3.827,8.06,7.863,6.091a7.985,7.985,0,0,0,3.094-2.967,9.64,9.64,0,0,0,1.368-7.992c-1.129-3.484-6.866-6.847-8.92-2.283" fill="#b9d5ed" opacity="0.531"/>
        <path id="Path_1737" data-name="Path 1737" d="M378.666,85.966a149.843,149.843,0,0,0,34.881,77.575c17.33,20.066,40.261,35.857,52.367,59.446" fill="none" stroke="#b9d5ed" stroke-miterlimit="10" stroke-width="4" opacity="0.531"/>
        <path id="Path_1738" data-name="Path 1738" d="M100.679,181.757c-17.931,4.517-35.439,11.534-50.305,22.529S23.386,230.481,18,248.17" fill="none" stroke="#b9d5ed" stroke-miterlimit="10" stroke-width="4" opacity="0.531"/>
      </g>
      <g id="Group_52727" data-name="Group 52727">
        <circle id="Ellipse_295" data-name="Ellipse 295" cx="8.265" cy="8.265" r="8.265" transform="matrix(0.125, -0.992, 0.992, 0.125, 364.695, 165.947)" fill="#fff"/>
        <g id="Group_52726" data-name="Group 52726">
          <path id="Path_1781" data-name="Path 1781" d="M342.128,253.058a4.089,4.089,0,1,1-4.088-4.089A4.089,4.089,0,0,1,342.128,253.058Z" fill="#e4af3a"/>
          <g id="Group_52725" data-name="Group 52725">
            <circle id="Ellipse_296" data-name="Ellipse 296" cx="8.265" cy="8.265" r="8.265" transform="matrix(0.232, -0.973, 0.973, 0.232, 89.419, 268.808)" fill="#f0c84c"/>
            <circle id="Ellipse_297" data-name="Ellipse 297" cx="4.385" cy="4.385" r="4.385" transform="translate(71.316 307.053)" fill="#fff"/>
            <path id="Path_1782" data-name="Path 1782" d="M130.859,245.334a5.562,5.562,0,1,1-5.563-5.563A5.563,5.563,0,0,1,130.859,245.334Z" fill="#71c297"/>
            <path id="Path_1783" data-name="Path 1783" d="M375.657,217.564a5.14,5.14,0,1,1-5.139-5.14A5.139,5.139,0,0,1,375.657,217.564Z" fill="#cc6249"/>
            <path id="Path_1784" data-name="Path 1784" d="M453.4,312.133a8.264,8.264,0,1,1-8.264-8.264A8.264,8.264,0,0,1,453.4,312.133Z" fill="#e4af3a"/>
            <path id="Path_1785" data-name="Path 1785" d="M63.622,358.223a4.089,4.089,0,1,1-4.089-4.089A4.089,4.089,0,0,1,63.622,358.223Z" fill="#e4af3a"/>
            <path id="Path_1786" data-name="Path 1786" d="M415.246,331.335a4.089,4.089,0,1,1-4.089-4.088A4.089,4.089,0,0,1,415.246,331.335Z" fill="#fff"/>
            <path id="Path_1787" data-name="Path 1787" d="M460.532,356.966a4.089,4.089,0,1,1-4.088-4.089A4.089,4.089,0,0,1,460.532,356.966Z" fill="#71c297"/>
            <path id="Path_1788" data-name="Path 1788" d="M61.152,252.617a4.089,4.089,0,1,1-4.088-4.089A4.089,4.089,0,0,1,61.152,252.617Z" fill="#cc6249"/>
          </g>
          <path id="Path_1789" data-name="Path 1789" d="M402.41,317.024a4.089,4.089,0,1,1-4.088-4.089A4.088,4.088,0,0,1,402.41,317.024Z" fill="#e4af3a"/>
        </g>
      </g>
    </g>
    <g id="Group_53463" data-name="Group 53463" transform="translate(-64.107 246.813)">
      <g id="Group_53386" data-name="Group 53386" transform="translate(273.282 39.212)">
        <path id="Path_2257" data-name="Path 2257" d="M296.027,112.384c2.578-20.739,6.758-58.762-4.744-70.768C279.583,29.407,212.512,37,209.726,61.16s14.325,51.631,22.414,61.051Z" transform="translate(-209.422 -35.872)" fill="#cddffd"/>
        <path id="Path_2258" data-name="Path 2258" d="M295.773,109.846c2.709-19.794,7.075-56.468-4.341-67.847-11.612-11.569-78.649-3.739-81.587,19.327s13.994,49.245,22.019,58.177Z" transform="translate(-209.147 -33.164)" fill="#b1cbf4"/>
        <path id="Path_2259" data-name="Path 2259" d="M288.1,107.091c2.315-18.573,6.139-53.492-4.159-64.243-10.48-10.933-70.488-3.769-72.989,17.869s13.354,46.366,20.6,54.8Z" transform="translate(-205.316 -29.663)" fill="#809cdc"/>
        <path id="Path_2260" data-name="Path 2260" d="M286.492,106.674c2.213-18.378,5.914-53.022-4.159-63.684-10.242-10.844-68.758-3.777-71.149,17.636s13.235,45.866,20.319,54.226Z" transform="translate(-204.517 -29.102)" fill="#96aee7"/>
      </g>
      <path id="Path_2261" data-name="Path 2261" d="M213.28,61.463c.687-6.431,8.5-8.186,29.527-10.887S278.5,43.806,279.486,62s-61.06,8.19-61.06,8.19Z" transform="translate(76.357 43.239)" fill="#809cdc"/>
      <g id="Group_53387" data-name="Group 53387" transform="translate(380.594 36.467)">
        <path id="Path_2262" data-name="Path 2262" d="M311.749,118.047c6.618-19.823,18.216-56.278,9.3-70.314-9.064-14.274-76.313-20.061-83.808,3.082s3.862,53.441,9.937,64.265Z" transform="translate(-234.637 -35.224)" fill="#cddffd"/>
        <path id="Path_2263" data-name="Path 2263" d="M311.835,115.426c6.563-18.874,18.073-53.967,9.123-67.372-9.1-13.638-76.368-19.175-83.8,2.857s4.01,51.038,10.115,61.373Z" transform="translate(-234.736 -32.429)" fill="#b1cbf4"/>
        <path id="Path_2264" data-name="Path 2264" d="M304.45,111.959c5.927-17.75,16.563-51.233,8.581-63.8-8.114-12.782-68.36-17.593-75.071,3.124s3.947,48.091,9.386,57.787Z" transform="translate(-231.259 -28.992)" fill="#809cdc"/>
        <path id="Path_2265" data-name="Path 2265" d="M302.885,111.39c5.8-17.581,16.258-50.817,8.483-63.256-7.906-12.65-66.668-17.263-73.235,3.26s3.934,47.574,9.233,57.168Z" transform="translate(-230.521 -28.44)" fill="#96aee7"/>
      </g>
      <path id="Path_2266" data-name="Path 2266" d="M242.953,53.471c-1.641,3.709-4.791,41.313-4.791,41.313l19.62,1.976s6.622-16.339,7.885-16.487,3.79-.437,4.943,1.5,6.355,14.965,6.355,14.965l17.7,1.725s3.87-22.812,3.781-33.483-8.411-19.878-21.074-21.773S249.091,39.558,242.953,53.471Z" transform="translate(156.959 22.992)" fill="#dadde6"/>
      <path id="Path_2267" data-name="Path 2267" d="M263.524,51c-1.513-1.954-7.686-.975-10.882,0-3.09.945-10.255,16.5-11.209,19.484l5.753.581s6.622-16.339,7.885-16.487,3.79-.437,4.943,1.5,6.355,14.965,6.355,14.965l6.313.615C270.265,65.82,264.7,52.516,263.524,51Z" transform="translate(167.555 48.688)" fill="#c1c4d2"/>
      <g id="Group_53388" data-name="Group 53388" transform="translate(430.307 258.951)">
        <path id="Path_2268" data-name="Path 2268" d="M254.835,89.787c-5.049,20.277-13.769,57.524-3.786,70.823,10.145,13.528,77.64,14.045,83.312-9.606s-8.021-52.979-14.918-63.3Z" transform="translate(-246.432 -87.705)" fill="#cddffd"/>
        <path id="Path_2269" data-name="Path 2269" d="M254.865,89.613c-5.066,19.327-13.812,55.214-3.841,67.881,10.141,12.879,77.631,13.155,83.316-9.386s-7.974-50.571-14.868-60.4Z" transform="translate(-246.462 -87.705)" fill="#b1cbf4"/>
        <path id="Path_2270" data-name="Path 2270" d="M255.2,89.288c-4.523,18.161-12.519,52.369-3.582,64.282,9.089,12.112,69.526,12.209,74.6-8.975s-7.682-47.634-13.863-56.875Z" transform="translate(-242.892 -87.66)" fill="#809cdc"/>
        <path id="Path_2271" data-name="Path 2271" d="M255.269,89.235c-4.413,17.975-12.248,51.928-3.531,63.722,8.869,12,67.813,12.01,72.76-8.962s-7.631-47.125-13.664-56.273Z" transform="translate(-242.135 -87.65)" fill="#96aee7"/>
      </g>
      <g id="Group_53389" data-name="Group 53389" transform="translate(518.482 122.17)">
        <path id="Path_2272" data-name="Path 2272" d="M270.2,140.018c21.116,5,59.9,13.608,73.591,3.082,13.931-10.7,13.655-80.8-10.976-86.407s-54.925,8.971-65.558,16.258Z" transform="translate(-267.261 -55.441)" fill="#cddffd"/>
        <path id="Path_2273" data-name="Path 2273" d="M270.021,139.97c20.133,5.032,57.507,13.676,70.539,3.171,13.257-10.683,12.731-80.777-10.751-86.415s-52.424,8.9-62.548,16.173Z" transform="translate(-267.261 -55.388)" fill="#b1cbf4"/>
        <path id="Path_2274" data-name="Path 2274" d="M269.612,132.138c18.912,4.477,54.531,12.366,66.791,2.942,12.468-9.585,11.84-72.349-10.217-77.364s-49.376,8.555-58.9,15.084Z" transform="translate(-267.183 -51.601)" fill="#809cdc"/>
        <path id="Path_2275" data-name="Path 2275" d="M269.529,130.479c18.725,4.362,54.077,12.086,66.219,2.891,12.349-9.352,11.654-70.56-10.183-75.448s-48.842,8.5-58.274,14.867Z" transform="translate(-267.164 -50.803)" fill="#96aee7"/>
      </g>
      <path id="Path_2276" data-name="Path 2276" d="M255.1,130.544c-7.97-4.392-2.111-39.108-2.111-39.108l32.16-3.345s16.364,24.423,10.683,35.11S255.1,130.544,255.1,130.544Z" transform="translate(198.275 172.496)" fill="#5d5047"/>
      <path id="Path_2277" data-name="Path 2277" d="M303.251,110.946l-33.186-3.014-1.109-47.757,35.728.807Z" transform="translate(256.709 82.066)" fill="#5e5f95"/>
      <path id="Path_2278" data-name="Path 2278" d="M295.339,121.141c3-11.459-11.459-33.05-11.459-33.05l-32.16,3.345s-.17,1.026-.411,2.722l32.067-.466s8.593,20.018,7.694,24.754C290.549,121.192,293.118,121.459,295.339,121.141Z" transform="translate(199.547 172.496)" fill="#4a4038"/>
      <g id="Group_53390" data-name="Group 53390" transform="translate(189.709 147.084)">
        <path id="Path_2279" data-name="Path 2279" d="M267.931,66.708c-20.552-3.782-58.266-10.17-70.92.619-12.871,10.971-9.2,78.365,14.766,82.557s52.377-11.3,62.251-18.827Z" transform="translate(-189.709 -61.194)" fill="#cddffd"/>
        <path id="Path_2280" data-name="Path 2280" d="M265.346,66.819c-19.6-3.858-55.964-10.353-67.983.386-12.231,10.921-8.313,78.3,14.541,82.574s49.978-11.107,59.364-18.6Z" transform="translate(-186.95 -61.317)" fill="#b1cbf4"/>
        <path id="Path_2281" data-name="Path 2281" d="M262.424,67.256c-18.407-3.387-53.047-9.238-64.375.42-11.527,9.823-7.868,70.149,13.587,73.9S258.7,130.944,267.545,124.2Z" transform="translate(-183.506 -57.879)" fill="#809cdc"/>
        <path id="Path_2282" data-name="Path 2282" d="M261.973,67.342c-18.221-3.281-52.589-8.992-63.819.441-11.421,9.6-7.775,68.428,13.464,72.061s46.557-10.548,55.32-17.131Z" transform="translate(-182.958 -57.143)" fill="#96aee7"/>
      </g>
      <g id="Group_53391" data-name="Group 53391" transform="translate(315.41 258.972)">
        <path id="Path_2283" data-name="Path 2283" d="M227.734,89.792c-5.053,20.277-13.769,57.524-3.79,70.823,10.149,13.528,77.644,14.049,83.316-9.606s-8.021-52.975-14.923-63.3Z" transform="translate(-219.33 -87.71)" fill="#cddffd"/>
        <path id="Path_2284" data-name="Path 2284" d="M227.76,89.618c-5.066,19.327-13.808,55.214-3.841,67.881,10.141,12.879,77.631,13.159,83.321-9.386s-7.979-50.571-14.872-60.4Z" transform="translate(-219.359 -87.71)" fill="#b1cbf4"/>
        <path id="Path_2285" data-name="Path 2285" d="M228.095,89.3c-4.528,18.157-12.519,52.365-3.586,64.277,9.089,12.112,69.526,12.209,74.6-8.971s-7.686-47.638-13.867-56.88Z" transform="translate(-215.79 -87.665)" fill="#809cdc"/>
        <path id="Path_2286" data-name="Path 2286" d="M228.161,89.241c-4.409,17.979-12.243,51.928-3.523,63.722,8.869,12,67.809,12.01,72.756-8.962S289.763,96.88,283.73,87.727Z" transform="translate(-215.033 -87.655)" fill="#96aee7"/>
      </g>
      <path id="Path_2287" data-name="Path 2287" d="M278.862,129.3c1.34-3.824,1.552-41.563,1.552-41.563L260.7,87.3s-5.325,16.8-6.571,17.051-3.743.729-5.049-1.115-7.5-14.422-7.5-14.422L223.8,88.472s-2.077,23.045-1.157,33.678,9.937,19.162,22.706,20.061S273.822,143.652,278.862,129.3Z" transform="translate(105.914 169.941)" fill="#705640"/>
      <path id="Path_2288" data-name="Path 2288" d="M243.813,101.46c-1.251.242-3.743.729-5.049-1.115-.9-1.272-4.129-7.652-6.05-11.484l-7.126.208c3.455,9.31,9.314,16.695,12.752,17.844s8.288-.1,9.433-1.374,7.5-17.343,7.5-17.343l-6.185.182C247.429,93.363,244.665,101.29,243.813,101.46Z" transform="translate(116.227 172.833)" fill="#60452e"/>
      <path id="Path_2289" data-name="Path 2289" d="M208.988,118.517c9.606,5.1,21.718,1.365,31.125-5.4l-3.964-45.471s-22.439-7.682-33.576-.415S208.988,118.517,208.988,118.517Z" transform="translate(29.687 94.793)" fill="#4c4a7e"/>
      <g id="Group_53417" data-name="Group 53417" transform="translate(256.75 99.035)">
        <g id="Group_53410" data-name="Group 53410">
          <path id="SVGID-2" data-name="SVGID" d="M205.523,49.983,224.542,223.05l246.285-10.787L492.7,63.3Z" transform="translate(-205.523 -49.983)" fill="#f5f2df"/>
          <g id="Group_53409" data-name="Group 53409" clip-path="url(#clip-path)">
            <g id="Group_53408" data-name="Group 53408" transform="translate(-4.411 -0.447)">
              <g id="Group_53392" data-name="Group 53392" transform="translate(5.583 13.125)">
                <path id="Path_2290" data-name="Path 2290" d="M466.037,70.915c-22.948,0-50.491-4.244-79.09-8.653-15.241-2.353-31-4.782-46.358-6.6-26.432-3.124-51.415-.428-73.46,1.959-26.793,2.9-47.96,5.185-61.331-3.862l.53-.789c13.083,8.852,34.1,6.584,60.7,3.705,22.1-2.391,47.133-5.1,73.672-1.959,15.372,1.819,31.142,4.248,46.391,6.6,42.962,6.622,83.541,12.875,109.5,4.9l.276.9C488.078,69.83,477.649,70.915,466.037,70.915Z" transform="translate(-205.799 -52.974)" fill="#e9dac4"/>
              </g>
              <g id="Group_53393" data-name="Group 53393" transform="translate(0 16.805)">
                <path id="Path_2291" data-name="Path 2291" d="M225.289,81.135a85.123,85.123,0,0,1-20.807-2.306l.263-.916c.3.089,30.388,8.318,62.425-7.1,22.261-10.717,40.2-14.265,51.326-15.351,2.963-.293,5.6-.428,7.906-.471-17.462-1.221-35.331,3.519-52.717,8.118-23.753,6.291-46.188,12.226-65.011,2.37l.441-.839c18.5,9.687,40.757,3.794,64.324-2.45,21.167-5.6,43.051-11.4,64.146-6.512l-.2.928c-.267-.055-27.492-5.3-69.8,15.062A97.589,97.589,0,0,1,225.289,81.135Z" transform="translate(-204.482 -53.842)" fill="#e9dac4"/>
              </g>
              <g id="Group_53394" data-name="Group 53394" transform="translate(7.856 20.828)">
                <path id="Path_2292" data-name="Path 2292" d="M212.423,89.138a23.449,23.449,0,0,1-6.088-.691l.25-.916c16.143,4.4,60.186-14.189,68.852-17.958,45.794-19.925,62.531-16.661,107.256-7.923l1.759.343c17.966,3.506,33.275,8.089,46.786,12.125C452.367,80.439,470.63,85.9,490.029,84.4l.072.95c-19.582,1.5-37.917-3.972-59.139-10.323-13.481-4.032-28.773-8.6-46.692-12.1l-1.755-.343c-44.518-8.695-61.174-11.947-106.7,7.86C268.022,73.838,231.771,89.138,212.423,89.138Z" transform="translate(-206.335 -54.791)" fill="#e9dac4"/>
              </g>
              <g id="Group_53395" data-name="Group 53395" transform="translate(4.248)">
                <path id="Path_2293" data-name="Path 2293" d="M474.366,74.632c-27.225,0-57.956-5.9-85.9-11.264-30.006-5.761-55.922-10.734-71.166-7.406-35.967,7.851-81.951,5.719-111.818-5.193l.326-.89c29.714,10.849,75.478,12.968,111.292,5.155,15.431-3.37,41.44,1.619,71.544,7.4,37.226,7.143,79.412,15.241,111.5,9.03l.182.933A137.318,137.318,0,0,1,474.366,74.632Z" transform="translate(-205.484 -49.878)" fill="#e9dac4"/>
              </g>
              <g id="Group_53396" data-name="Group 53396" transform="translate(7.758 28.11)">
                <path id="Path_2294" data-name="Path 2294" d="M219.624,96.9c-5.719,0-10.285-.759-13.312-2.349l.441-.844c9.89,5.2,42.008,1.619,82.044-15.266,6.554-2.764,12.379-5.426,18.013-8,26.276-12.023,43.636-19.959,74.52-8.046,16.58,6.4,32.321,8.653,44.967,10.463,15.919,2.281,27.42,3.926,31.142,12.2.975,2.162.788,3.926-.551,5.244-5.681,5.587-30.362.776-40.562-4.036-3.519-1.662-5.236-3.252-5.108-4.735.381-4.367,12.209-4.994,20.069-4.354,8.165.666,17.581,3,17.25,7.381-.178,2.332-2.094,3.9-5.545,4.536-6.8,1.251-19.026-1.581-21-5.783-.513-1.094-.5-1.925.021-2.472,1.768-1.831,9.17,1.2,10.637,1.831l-.373.873c-3.4-1.45-8.615-3.044-9.581-2.043-.28.293-.068.924.161,1.4,1.653,3.531,13.036,6.529,19.963,5.257,2.077-.386,4.591-1.331,4.769-3.676.22-2.942-6.52-5.558-16.385-6.363-10.264-.839-18.8.729-19.039,3.493-.042.471.318,1.789,4.562,3.79,5.253,2.48,13.82,4.761,21.828,5.821,8.987,1.183,15.423.6,17.665-1.6,1.043-1.026,1.157-2.4.352-4.184-3.51-7.788-14.8-9.4-30.413-11.641-12.693-1.819-28.493-4.083-45.17-10.518-30.515-11.768-47.727-3.9-73.79,8.021-5.634,2.582-11.463,5.248-18.03,8.017C262.814,90.433,236.327,96.9,219.624,96.9Z" transform="translate(-206.312 -56.509)" fill="#e9dac4"/>
              </g>
              <g id="Group_53397" data-name="Group 53397" transform="translate(4.15 50.679)">
                <path id="Path_2295" data-name="Path 2295" d="M237.846,97.657a57.247,57.247,0,0,1-32.385-10l.521-.793c29.659,19.577,58.567,6.177,89.175-8,7.143-3.311,14.524-6.732,21.943-9.725,34.165-13.808,61.284-5.371,89.989,3.557,4,1.242,8.127,2.527,12.265,3.743C447,84.571,469.362,76,482.72,70.882c2.62-1,4.892-1.874,6.719-2.421l.271.916c-1.793.534-4.044,1.395-6.652,2.4-13.468,5.159-36.013,13.8-63.972,5.571-4.142-1.217-8.279-2.505-12.281-3.748-28.535-8.877-55.5-17.258-89.349-3.582-7.393,2.985-14.77,6.4-21.9,9.7C275.856,88.848,256.846,97.653,237.846,97.657Z" transform="translate(-205.461 -61.832)" fill="#e9dac4"/>
              </g>
              <g id="Group_53398" data-name="Group 53398" transform="translate(7.377 92.302)">
                <path id="Path_2296" data-name="Path 2296" d="M206.468,73.81s.763.2,2.2.581a16.241,16.241,0,0,0,2.645.555,25.464,25.464,0,0,0,3.608.4,43.31,43.31,0,0,0,9.857-.568c3.794-.568,8-1.645,12.714-2.531a33.542,33.542,0,0,1,7.516-.555,14.481,14.481,0,0,1,7.618,2.874,6.044,6.044,0,0,1,2.344,3.815,6.439,6.439,0,0,1-1.289,4.375,19.528,19.528,0,0,1-7.029,5.549,37.951,37.951,0,0,1-17.992,3.93,30.083,30.083,0,0,1-4.752-.526,16.467,16.467,0,0,1-4.638-1.5,4.835,4.835,0,0,1-1.963-1.764,3.074,3.074,0,0,1-.089-2.751,9.786,9.786,0,0,1,3.286-3.756,36.337,36.337,0,0,1,8.474-4.545,41.643,41.643,0,0,1,9.2-2.488,19.151,19.151,0,0,1,4.778-.127,9.577,9.577,0,0,1,2.4.585,7.886,7.886,0,0,1,2.1,1.259,3.694,3.694,0,0,1,1.246,2.289,4.183,4.183,0,0,1-.572,2.484,10.958,10.958,0,0,1-3.226,3.4,23.7,23.7,0,0,1-8.123,3.633,21.528,21.528,0,0,1-8.508.466,5.029,5.029,0,0,1-2.1-.839,2.179,2.179,0,0,1-.822-2.255,7.57,7.57,0,0,1,2.327-3.438,25.831,25.831,0,0,1,6.253-4.214,18.8,18.8,0,0,1,3.349-1.272,5.522,5.522,0,0,1,3.6,0,2.407,2.407,0,0,1,1.187,1.513,2.685,2.685,0,0,1-.136,1.874,6.065,6.065,0,0,1-2.209,2.344,19.479,19.479,0,0,1-5.062,2.243,18.663,18.663,0,0,1-2.412.543,4.28,4.28,0,0,1-1.284.021.647.647,0,0,1-.246-.085.732.732,0,0,1-.136-.076.827.827,0,0,1-.182-.246.621.621,0,0,1,0-.5.9.9,0,0,1,.1-.174,3.8,3.8,0,0,1,.356-.466A16.77,16.77,0,0,1,236.22,80.1a6.039,6.039,0,0,1,2.234-.585l0,.017a7.274,7.274,0,0,0-2.031.967,19.766,19.766,0,0,0-2.2,1.547,17.885,17.885,0,0,0-2.65,2.408,2.65,2.65,0,0,0-.267.382c0,.013-.076.136-.034.055s.021-.127,0-.246a.254.254,0,0,0-.106-.131l-.017-.021c-.017-.008-.026,0,.013,0a3.6,3.6,0,0,0,.95-.042,16.447,16.447,0,0,0,2.272-.513,18.529,18.529,0,0,0,4.8-2.128,5.178,5.178,0,0,0,1.857-1.929,1.768,1.768,0,0,0,.1-1.17,1.406,1.406,0,0,0-.7-.954,4.764,4.764,0,0,0-2.929.068,18.04,18.04,0,0,0-3.167,1.212,24.739,24.739,0,0,0-5.995,4.053A6.715,6.715,0,0,0,226.325,86c-.318,1.051.865,1.687,2.09,1.9a20.487,20.487,0,0,0,8.118-.462,22.717,22.717,0,0,0,7.758-3.476,10,10,0,0,0,2.917-3.057,2.63,2.63,0,0,0-.458-3.5c-2.234-1.9-5.422-1.827-8.432-1.441a40.519,40.519,0,0,0-8.945,2.438,35.331,35.331,0,0,0-8.207,4.409,8.9,8.9,0,0,0-2.925,3.294,1.954,1.954,0,0,0,.03,1.814,3.747,3.747,0,0,0,1.535,1.331,15.541,15.541,0,0,0,4.316,1.378,29.193,29.193,0,0,0,4.579.5,36.752,36.752,0,0,0,17.436-3.837,18.32,18.32,0,0,0,6.592-5.185,5.292,5.292,0,0,0,1.085-3.565,4.893,4.893,0,0,0-1.9-3.052,13.294,13.294,0,0,0-6.991-2.667,32.357,32.357,0,0,0-7.241.509c-4.642.852-8.894,1.92-12.744,2.476a43.89,43.89,0,0,1-10.073.534,25.621,25.621,0,0,1-3.739-.432,16.947,16.947,0,0,1-2.7-.577c-1.437-.39-2.2-.594-2.2-.594Z" transform="translate(-206.222 -71.651)" fill="#e9dac4"/>
              </g>
              <g id="Group_53399" data-name="Group 53399" transform="translate(11.175 70.61)">
                <path id="Path_2297" data-name="Path 2297" d="M231.164,119.726c-7.389,0-15.037-2.022-24.046-7.02l.458-.831c20.9,11.59,34.419,6.842,54.743-1.865C283.571,100.9,405.949,66.836,437.256,73.8c17.911,3.989,28.79-.382,37.527-3.892,6.643-2.667,11.891-4.774,17.865-2.226l-.377.873c-5.6-2.4-10.692-.352-17.131,2.234-8.86,3.561-19.891,7.991-38.091,3.943C405.894,67.8,283.893,101.8,262.7,110.883,250.817,115.97,241.232,119.726,231.164,119.726Z" transform="translate(-207.118 -66.534)" fill="#e9dac4"/>
              </g>
              <g id="Group_53400" data-name="Group 53400" transform="translate(239.821 76.983)">
                <path id="Path_2298" data-name="Path 2298" d="M290.944,84.4a57.853,57.853,0,0,1-27.157-6.936l-2.734-1.653,3.095.789c19.293,4.9,28.531.093,42.5-7.19l2.628-1.369.437.848-2.628,1.365c-13.206,6.889-22.231,11.6-39.32,8.144,6.469,2.9,21.188,7.928,37.484,2.942l.276.907A49.693,49.693,0,0,1,290.944,84.4Z" transform="translate(-261.052 -68.037)" fill="#e9dac4"/>
              </g>
              <g id="Group_53401" data-name="Group 53401" transform="translate(15.321 95.221)">
                <path id="Path_2299" data-name="Path 2299" d="M209.008,118.425l-.911-.263c3.214-11.1,17.767-12.994,37.913-15.609,7.923-1.03,16.907-2.2,26.39-4.087l7.724-1.543c35.958-7.182,96.14-19.2,131.938-23.647,19.37-2.408,29.264.314,38,2.713,8.564,2.357,15.325,4.214,28.319.153l.28.911C465.4,81.195,458.172,79.206,449.8,76.9c-8.644-2.378-18.441-5.07-37.629-2.688-35.763,4.443-95.924,16.461-131.866,23.639L272.585,99.4c-9.517,1.895-18.513,3.065-26.454,4.1C226.347,106.063,212.051,107.924,209.008,118.425Z" transform="translate(-208.096 -72.339)" fill="#e9dac4"/>
              </g>
              <g id="Group_53402" data-name="Group 53402" transform="translate(15.52 101.361)">
                <path id="Path_2300" data-name="Path 2300" d="M208.66,119.168l-.517-.793c1.407-.916,2.84-2.018,4.362-3.184,6.9-5.286,16.334-12.527,35.738-11.209,8.1.543,29.7-4.629,54.709-10.624,46.815-11.226,110.936-26.6,135.066-16.025,28.552,12.51,33.262,11.573,42.665,7.025l.407.856c-9.687,4.689-14.52,5.664-43.453-7.008-23.846-10.446-87.781,4.884-134.464,16.08-26.115,6.262-46.735,11.188-54.993,10.645-19.035-1.293-27.937,5.532-35.094,11.014C211.547,117.124,210.1,118.235,208.66,119.168Z" transform="translate(-208.143 -73.788)" fill="#e9dac4"/>
              </g>
              <g id="Group_53403" data-name="Group 53403" transform="translate(15.732 134.982)">
                <path id="Path_2301" data-name="Path 2301" d="M382.024,100.939c-12.443,0-27.6-3.612-44.2-7.567-16.631-3.964-35.492-8.458-54.968-10.153-29.2-2.548-41.258,4.316-50.953,9.827-7.054,4.015-13.146,7.474-23.707,6.474l.089-.95c10.259.984,16.232-2.416,23.147-6.351,9.81-5.579,22.028-12.519,51.5-9.95,19.552,1.7,38.443,6.206,55.112,10.179,25.941,6.185,48.346,11.518,62.039,3.464,37.875-22.286,62-9.263,69.928-4.99l-.454.839c-7.809-4.218-31.583-17.047-69,4.973C395.446,99.748,389.184,100.939,382.024,100.939Z" transform="translate(-208.193 -81.718)" fill="#e9dac4"/>
              </g>
              <g id="Group_53404" data-name="Group 53404" transform="translate(208.128 111.216)">
                <path id="Path_2302" data-name="Path 2302" d="M330.758,100.832A60.542,60.542,0,0,1,297.916,90c-12.875-9.017-24.1-10.8-31.308-10.7a37.136,37.136,0,0,0-10.1,1.48c-.835.293-1.683.6-2.552.928l-.377-.873a19.373,19.373,0,0,1,2.3-.844c19.861-6.995,28.964-3.281,40.384,1.378,8.39,3.421,17.9,7.3,33.885,7.771l-.03.95C313.953,89.61,304.368,85.7,295.9,82.25c-9.564-3.9-17.483-7.135-31.685-3.756,8.165-.564,20.353,1,34.246,10.73a58.886,58.886,0,0,0,32.711,10.649l.038.95C331.195,100.823,331.042,100.832,330.758,100.832Z" transform="translate(-253.576 -76.112)" fill="#e9dac4"/>
              </g>
              <g id="Group_53405" data-name="Group 53405" transform="translate(15.694 147.078)">
                <path id="Path_2303" data-name="Path 2303" d="M211.775,100.925a19.979,19.979,0,0,1-3.591-.318l.17-.937c7.364,1.344,15.147-2.018,24.16-5.91,12.358-5.333,26.365-11.378,44.789-8.4,6.524,1.051,14.015,2.442,21.947,3.913,31.363,5.821,70.395,13.07,93.94,8.017l2.175-.466c28.332-6.088,45.438-9.759,72.336,3.2l-.411.856c-26.611-12.811-43.589-9.166-71.722-3.12l-2.179.466c-23.728,5.083-62.866-2.179-94.313-8.017-7.923-1.467-15.41-2.857-21.926-3.909-18.149-2.929-32.02,3.057-44.259,8.339C225.159,97.971,218.32,100.925,211.775,100.925Z" transform="translate(-208.184 -84.571)" fill="#e9dac4"/>
              </g>
              <g id="Group_53406" data-name="Group 53406" transform="translate(11.366 154.584)">
                <path id="Path_2304" data-name="Path 2304" d="M207.163,104.8s.767-.072,2.209-.212c.7-.114,1.522-.36,2.514-.585.984-.271,2.12-.687,3.387-1.1,2.51-.962,5.528-2.209,8.979-3.726,3.451-1.5,7.351-3.2,11.684-4.888a137.358,137.358,0,0,1,14.244-4.744A105.765,105.765,0,0,1,266.7,86.6a102.164,102.164,0,0,1,17.932.293,88.312,88.312,0,0,1,9.14,1.344,33.745,33.745,0,0,1,4.528,1.225,13.7,13.7,0,0,1,2.2.975,3.772,3.772,0,0,1,1.84,1.912,1.426,1.426,0,0,1,.047.81,1.451,1.451,0,0,1-.288.716,3.437,3.437,0,0,1-.954.962,9.866,9.866,0,0,1-2.179,1.106,27.245,27.245,0,0,1-4.536,1.259,75.322,75.322,0,0,1-9.161,1.212,172,172,0,0,1-17.9.356c-2.9-.081-5.757-.208-8.551-.458-1.4-.131-2.781-.288-4.146-.534a16.818,16.818,0,0,1-2.039-.5,5.217,5.217,0,0,1-1.022-.449,1.336,1.336,0,0,1-.759-1.272,1.8,1.8,0,0,1,.814-1.081,6.469,6.469,0,0,1,.933-.526,16.214,16.214,0,0,1,1.874-.725c1.255-.4,2.5-.716,3.726-.988,2.459-.543,4.858-.92,7.169-1.208a48.98,48.98,0,0,1,12.748-.237,26.935,26.935,0,0,1,5.172,1.458,2.669,2.669,0,0,1,1.157.844.806.806,0,0,1-.182,1.017,2.014,2.014,0,0,1-.615.343,8.93,8.93,0,0,1-2.183.437,38.618,38.618,0,0,1-6.312.034c-1.45-.093-2.217-.2-2.217-.2l0-.038s.772-.008,2.221-.03a54.03,54.03,0,0,0,6.215-.449,9.969,9.969,0,0,0,1.976-.488,1.391,1.391,0,0,0,.369-.208c.055-.1.017.034.017,0a2.328,2.328,0,0,0-.793-.488,27.64,27.64,0,0,0-4.99-1.3,48.491,48.491,0,0,0-12.464.267c-2.285.288-4.659.67-7.08,1.2-1.208.271-2.429.581-3.633.971a14.938,14.938,0,0,0-1.759.678c-.521.22-1.174.687-1.183.861-.034-.025.051.131.3.276a4.277,4.277,0,0,0,.818.352,15.407,15.407,0,0,0,1.9.462c1.314.233,2.675.39,4.053.513,2.76.246,5.6.369,8.487.445a170.984,170.984,0,0,0,17.788-.377,75.691,75.691,0,0,0,9.03-1.208,27.184,27.184,0,0,0,4.362-1.217,8.771,8.771,0,0,0,1.942-.979c.56-.411.95-.911.793-1.323a2.917,2.917,0,0,0-1.348-1.28,13.693,13.693,0,0,0-2.031-.895,33.083,33.083,0,0,0-4.388-1.174,88.254,88.254,0,0,0-9.021-1.314,101.526,101.526,0,0,0-17.729-.263,104.525,104.525,0,0,0-16.322,2.929A135.237,135.237,0,0,0,236.326,95.3c-4.312,1.658-8.207,3.336-11.667,4.82-3.451,1.5-6.5,2.747-9.047,3.705-1.3.424-2.438.839-3.476,1.119-1.056.237-1.959.488-2.684.6l-2.209.208Z" transform="translate(-207.163 -86.342)" fill="#e9dac4"/>
              </g>
              <g id="Group_53407" data-name="Group 53407" transform="translate(124.205 128.993)">
                <path id="Path_2305" data-name="Path 2305" d="M303.145,96.7q-3.656,0-7.728-.305c-12.523-.971-21.99-4.969-30.341-8.5-10.213-4.311-19.031-8.034-31.151-6.143l-.144-.937c12.379-1.937,21.748,2.014,31.664,6.206,8.691,3.667,17.678,7.466,30.049,8.428,22.621,1.747,34.631-4.239,43.39-8.614,1.632-.818,3.171-1.59,4.6-2.2,8.475-3.663,28.429-4.163,48.672,9.5l-.53.789c-19.933-13.443-39.485-13-47.765-9.411-1.407.606-2.934,1.369-4.557,2.179C331.938,91.36,321.247,96.7,303.145,96.7Z" transform="translate(-233.78 -80.305)" fill="#e9dac4"/>
              </g>
            </g>
          </g>
        </g>
        <path id="Path_2306" data-name="Path 2306" d="M209.558,197.067H447.3l27.134-144,5.2.24L457.755,202.275,211.47,213.062Z" transform="translate(-192.451 -39.995)" fill="#f3e9df" opacity="0.5" style="mix-blend-mode: multiply;isolation: isolate"/>
        <rect id="Rectangle_1664" data-name="Rectangle 1664" width="183.909" height="113.66" transform="matrix(0.996, -0.091, 0.091, 0.996, 39.62, 31.342)" fill="#faf9f1"/>
        <rect id="Rectangle_1665" data-name="Rectangle 1665" width="183.911" height="113.659" transform="translate(44.111 26.279) rotate(-2.277)" fill="#fff"/>
        <g id="Group_53416" data-name="Group 53416" transform="translate(62.951 29.698)">
          <g id="Group_53411" data-name="Group 53411" transform="translate(31.706 39.916)">
            <path id="Path_2307" data-name="Path 2307" d="M263.488,83.894A17.486,17.486,0,1,1,245.34,67.1,17.482,17.482,0,0,1,263.488,83.894Z" transform="translate(-225.65 -64.203)" fill="#9b8ad8"/>
            <path id="Path_2308" data-name="Path 2308" d="M253.091,79.613a11.589,11.589,0,1,1-12.031-11.128A11.592,11.592,0,0,1,253.091,79.613Z" transform="translate(-221.141 -59.694)" fill="#fff"/>
            <path id="Path_2309" data-name="Path 2309" d="M239.414,70.248l-7.833.3,1.751-3.991,4.032-.157Z" transform="translate(-215.766 -66.404)" fill="#9b8ad8"/>
            <path id="Path_2310" data-name="Path 2310" d="M236.811,69.205l-6.633,4.179-.48-4.331,3.416-2.151Z" transform="translate(-221.866 -64.788)" fill="#9b8ad8"/>
            <path id="Path_2311" data-name="Path 2311" d="M234.43,68.7l-3.651,6.935L228.2,72.126l1.88-3.57Z" transform="translate(-226.734 -59.435)" fill="#9b8ad8"/>
            <path id="Path_2312" data-name="Path 2312" d="M231.692,70.435l.3,7.833L228,76.521l-.153-4.032Z" transform="translate(-227.851 -53.347)" fill="#9b8ad8"/>
            <path id="Path_2313" data-name="Path 2313" d="M230.651,72.488l4.181,6.632-4.331.48-2.153-3.413Z" transform="translate(-226.237 -46.698)" fill="#9b8ad8"/>
            <path id="Path_2314" data-name="Path 2314" d="M230.143,74.2l6.939,3.654-3.511,2.581L230,78.552Z" transform="translate(-220.881 -41.157)" fill="#9b8ad8"/>
            <path id="Path_2315" data-name="Path 2315" d="M231.881,75.34l7.833-.3-1.747,3.991-4.033.155Z" transform="translate(-214.795 -38.444)" fill="#9b8ad8"/>
            <path id="Path_2316" data-name="Path 2316" d="M233.934,78.166l6.632-4.18.48,4.331-3.411,2.151Z" transform="translate(-208.146 -41.843)" fill="#9b8ad8"/>
            <path id="Path_2317" data-name="Path 2317" d="M235.644,79.129l3.656-6.936,2.579,3.511L240,79.274Z" transform="translate(-202.606 -47.654)" fill="#9b8ad8"/>
            <path id="Path_2318" data-name="Path 2318" d="M236.784,77.969l-.3-7.833,3.991,1.747.157,4.032Z" transform="translate(-199.892 -54.317)" fill="#9b8ad8"/>
            <path id="Path_2319" data-name="Path 2319" d="M239.613,75.365l-4.182-6.63,4.331-.482,2.153,3.416Z" transform="translate(-203.293 -60.418)" fill="#9b8ad8"/>
            <path id="Path_2320" data-name="Path 2320" d="M240.573,72.984l-6.934-3.654,3.506-2.581,3.573,1.88Z" transform="translate(-209.101 -65.286)" fill="#9b8ad8"/>
          </g>
          <g id="Group_53412" data-name="Group 53412" transform="translate(87.211)">
            <path id="Path_2321" data-name="Path 2321" d="M270.542,71.516a14.522,14.522,0,1,1-15.071-13.952A14.519,14.519,0,0,1,270.542,71.516Z" transform="translate(-239.113 -55.16)" fill="#788de5"/>
            <path id="Path_2322" data-name="Path 2322" d="M261.9,67.958a9.622,9.622,0,1,1-9.988-9.242A9.626,9.626,0,0,1,261.9,67.958Z" transform="translate(-235.369 -51.415)" fill="#fff"/>
            <path id="Path_2323" data-name="Path 2323" d="M250.55,60.181l-6.508.253,1.453-3.314,3.349-.13Z" transform="translate(-230.906 -56.989)" fill="#788de5"/>
            <path id="Path_2324" data-name="Path 2324" d="M248.387,59.314l-5.506,3.472-.4-3.6,2.836-1.786Z" transform="translate(-235.971 -55.646)" fill="#788de5"/>
            <path id="Path_2325" data-name="Path 2325" d="M246.409,58.9l-3.035,5.761-2.144-2.915,1.56-2.966Z" transform="translate(-240.013 -51.201)" fill="#788de5"/>
            <path id="Path_2326" data-name="Path 2326" d="M244.135,60.336l.253,6.506-3.312-1.453-.132-3.349Z" transform="translate(-240.943 -46.145)" fill="#788de5"/>
            <path id="Path_2327" data-name="Path 2327" d="M243.27,62.042l3.473,5.506-3.6.4-1.789-2.834Z" transform="translate(-239.602 -40.621)" fill="#788de5"/>
            <path id="Path_2328" data-name="Path 2328" d="M242.85,63.461l5.759,3.035-2.915,2.145-2.964-1.563Z" transform="translate(-235.154 -36.022)" fill="#788de5"/>
            <path id="Path_2329" data-name="Path 2329" d="M244.291,64.41l6.508-.253-1.453,3.314L246,67.6Z" transform="translate(-230.099 -33.768)" fill="#788de5"/>
            <path id="Path_2330" data-name="Path 2330" d="M246,66.757l5.506-3.472.4,3.6-2.836,1.786Z" transform="translate(-224.576 -36.591)" fill="#788de5"/>
            <path id="Path_2331" data-name="Path 2331" d="M247.416,67.557l3.035-5.761L252.6,64.71l-1.561,2.966Z" transform="translate(-219.976 -41.417)" fill="#788de5"/>
            <path id="Path_2332" data-name="Path 2332" d="M248.365,66.594l-.253-6.506,3.312,1.453.132,3.349Z" transform="translate(-217.721 -46.951)" fill="#788de5"/>
            <path id="Path_2333" data-name="Path 2333" d="M250.714,64.432l-3.474-5.508,3.6-.4,1.784,2.836Z" transform="translate(-220.546 -52.016)" fill="#788de5"/>
            <path id="Path_2334" data-name="Path 2334" d="M251.51,62.455l-5.759-3.035,2.914-2.145,2.964,1.563Z" transform="translate(-225.37 -56.06)" fill="#788de5"/>
          </g>
          <g id="Group_53413" data-name="Group 53413" transform="translate(86.392 34.712)">
            <path id="Path_2335" data-name="Path 2335" d="M281.614,85.226a20.057,20.057,0,1,1-20.819-19.259A20.063,20.063,0,0,1,281.614,85.226Z" transform="translate(-238.271 -62.668)" fill="#e0708a"/>
            <path id="Path_2336" data-name="Path 2336" d="M272.592,81.516A14.94,14.94,0,1,1,257.08,67.17,14.943,14.943,0,0,1,272.592,81.516Z" transform="translate(-234.361 -58.758)" fill="#fff"/>
            <path id="Path_2337" data-name="Path 2337" d="M251.823,70.915l-6.5.252,1.354-5.86,3.349-.13Z" transform="translate(-225.948 -65.177)" fill="#e0708a"/>
            <path id="Path_2338" data-name="Path 2338" d="M252.147,74.774l-6.508.253,1.805,5.738,3.349-.13Z" transform="translate(-224.914 -34.088)" fill="#e0708a"/>
            <path id="Path_2339" data-name="Path 2339" d="M250.564,70.222l-6.028,2.461-.733-5.97,3.105-1.267Z" transform="translate(-230.861 -64.302)" fill="#e0708a"/>
            <path id="Path_2340" data-name="Path 2340" d="M253.124,74.21,247.1,76.673l3.656,4.776,3.1-1.269Z" transform="translate(-220.194 -35.915)" fill="#e0708a"/>
            <path id="Path_2341" data-name="Path 2341" d="M249.813,69.585l-4.819,4.374L242.262,68.6l2.484-2.254Z" transform="translate(-235.853 -61.384)" fill="#e0708a"/>
            <path id="Path_2342" data-name="Path 2342" d="M253.272,73.221,248.449,77.6l5.072,3.235L256,78.58Z" transform="translate(-215.81 -39.12)" fill="#e0708a"/>
            <path id="Path_2343" data-name="Path 2343" d="M248.637,69.078,245.6,74.839l-4.4-4.1,1.565-2.964Z" transform="translate(-239.289 -56.77)" fill="#e0708a"/>
            <path id="Path_2344" data-name="Path 2344" d="M252.573,71.925l-3.035,5.759,5.871,1.308,1.561-2.966Z" transform="translate(-212.282 -43.316)" fill="#e0708a"/>
            <path id="Path_2345" data-name="Path 2345" d="M247.167,69.363l-.882,6.45-5.535-2.349.451-3.32Z" transform="translate(-240.75 -51.617)" fill="#e0708a"/>
            <path id="Path_2346" data-name="Path 2346" d="M251.111,70.48l-.882,6.45,5.961-.778.456-3.322Z" transform="translate(-210.043 -47.999)" fill="#e0708a"/>
            <path id="Path_2347" data-name="Path 2347" d="M246.13,70.8l1.379,6.363-6.007-.315-.708-3.277Z" transform="translate(-240.608 -46.946)" fill="#e0708a"/>
            <path id="Path_2348" data-name="Path 2348" d="M250.115,69.058l1.379,6.363,5.336-2.772-.708-3.275Z" transform="translate(-210.413 -52.604)" fill="#e0708a"/>
            <path id="Path_2349" data-name="Path 2349" d="M245.458,72.232l3.469,5.509-5.75,1.757-1.789-2.836Z" transform="translate(-238.684 -42.323)" fill="#e0708a"/>
            <path id="Path_2350" data-name="Path 2350" d="M249.326,69.176l3.473,5.508,4.066-4.43-1.784-2.836Z" transform="translate(-212.969 -57.915)" fill="#e0708a"/>
            <path id="Path_2351" data-name="Path 2351" d="M244.874,73.472l5.146,3.989-4.8,3.62-2.65-2.054Z" transform="translate(-234.86 -38.307)" fill="#e0708a"/>
            <path id="Path_2352" data-name="Path 2352" d="M248.166,69.716l5.146,3.989,2.31-5.554-2.65-2.053Z" transform="translate(-216.727 -62.194)" fill="#e0708a"/>
            <path id="Path_2353" data-name="Path 2353" d="M244.462,74.376l6.2,1.987-3.275,5.045-3.192-1.025Z" transform="translate(-229.599 -35.379)" fill="#e0708a"/>
            <path id="Path_2354" data-name="Path 2354" d="M246.774,70.372l6.2,1.99.269-6.009-3.192-1.023Z" transform="translate(-221.235 -64.68)" fill="#e0708a"/>
          </g>
          <g id="Group_53414" data-name="Group 53414" transform="translate(0 17.883)">
            <path id="Path_2355" data-name="Path 2355" d="M252.311,76.882A15.676,15.676,0,1,1,236.04,61.824,15.675,15.675,0,0,1,252.311,76.882Z" transform="translate(-218.433 -59.247)" fill="#c7c759"/>
            <path id="Path_2356" data-name="Path 2356" d="M245.264,73.981a11.68,11.68,0,1,1-12.125-11.217A11.685,11.685,0,0,1,245.264,73.981Z" transform="translate(-215.379 -56.193)" fill="#fff"/>
            <path id="Path_2357" data-name="Path 2357" d="M229.029,65.693l-5.086.2L225,61.309l2.618-.1Z" transform="translate(-208.801 -61.207)" fill="#c7c759"/>
            <path id="Path_2358" data-name="Path 2358" d="M229.279,68.709l-5.086.2,1.41,4.486,2.619-.1Z" transform="translate(-207.991 -36.907)" fill="#c7c759"/>
            <path id="Path_2359" data-name="Path 2359" d="M228.041,65.15l-4.711,1.925-.571-4.668,2.424-.989Z" transform="translate(-212.64 -60.524)" fill="#c7c759"/>
            <path id="Path_2360" data-name="Path 2360" d="M230.044,68.268l-4.712,1.925,2.857,3.732,2.426-.992Z" transform="translate(-204.303 -38.335)" fill="#c7c759"/>
            <path id="Path_2361" data-name="Path 2361" d="M227.457,64.653l-3.77,3.42-2.134-4.19,1.94-1.761Z" transform="translate(-216.542 -58.243)" fill="#c7c759"/>
            <path id="Path_2362" data-name="Path 2362" d="M230.158,67.495l-3.768,3.42,3.962,2.527,1.937-1.76Z" transform="translate(-200.874 -40.839)" fill="#c7c759"/>
            <path id="Path_2363" data-name="Path 2363" d="M226.534,64.256l-2.37,4.5-3.438-3.207,1.221-2.318Z" transform="translate(-219.227 -54.636)" fill="#c7c759"/>
            <path id="Path_2364" data-name="Path 2364" d="M229.614,66.481l-2.372,4.5,4.587,1.021,1.221-2.319Z" transform="translate(-198.119 -44.121)" fill="#c7c759"/>
            <path id="Path_2365" data-name="Path 2365" d="M225.389,64.479l-.689,5.043-4.328-1.838.356-2.6Z" transform="translate(-220.372 -50.608)" fill="#c7c759"/>
            <path id="Path_2366" data-name="Path 2366" d="M228.472,65.352l-.691,5.042,4.662-.608.356-2.6Z" transform="translate(-196.369 -47.781)" fill="#c7c759"/>
            <path id="Path_2367" data-name="Path 2367" d="M224.577,65.606l1.076,4.974-4.695-.246-.552-2.561Z" transform="translate(-220.259 -46.957)" fill="#c7c759"/>
            <path id="Path_2368" data-name="Path 2368" d="M227.692,64.241l1.076,4.974,4.173-2.168-.555-2.561Z" transform="translate(-196.657 -51.38)" fill="#c7c759"/>
            <path id="Path_2369" data-name="Path 2369" d="M224.05,66.721l2.714,4.306-4.5,1.374-1.4-2.217Z" transform="translate(-218.755 -43.344)" fill="#c7c759"/>
            <path id="Path_2370" data-name="Path 2370" d="M227.076,64.333l2.711,4.306,3.18-3.463-1.4-2.217Z" transform="translate(-198.653 -55.532)" fill="#c7c759"/>
            <path id="Path_2371" data-name="Path 2371" d="M223.6,67.69l4.022,3.12-3.755,2.828-2.07-1.6Z" transform="translate(-215.766 -40.205)" fill="#c7c759"/>
            <path id="Path_2372" data-name="Path 2372" d="M226.169,64.756l4.024,3.118,1.8-4.343-2.07-1.6Z" transform="translate(-201.592 -58.875)" fill="#c7c759"/>
            <path id="Path_2373" data-name="Path 2373" d="M223.272,68.4l4.846,1.555-2.561,3.941-2.494-.8Z" transform="translate(-211.653 -37.916)" fill="#c7c759"/>
            <path id="Path_2374" data-name="Path 2374" d="M225.081,65.268l4.848,1.555.207-4.7-2.494-.8Z" transform="translate(-205.116 -60.819)" fill="#c7c759"/>
          </g>
          <g id="Group_53415" data-name="Group 53415" transform="translate(65.865 24.91)">
            <path id="Path_2375" data-name="Path 2375" d="M258.247,73.829A10.961,10.961,0,1,1,246.869,63.3,10.96,10.96,0,0,1,258.247,73.829Z" transform="translate(-234.529 -61.487)" fill="#f0c741"/>
            <path id="Path_2376" data-name="Path 2376" d="M251.727,71.146a7.263,7.263,0,1,1-7.542-6.978A7.26,7.26,0,0,1,251.727,71.146Z" transform="translate(-231.705 -58.66)" fill="#fff"/>
            <path id="Path_2377" data-name="Path 2377" d="M243.156,65.272l-4.91.19,1.1-2.5,2.53-.1Z" transform="translate(-228.335 -62.865)" fill="#f0c741"/>
            <path id="Path_2378" data-name="Path 2378" d="M241.525,64.62l-4.157,2.619-.3-2.714,2.14-1.348Z" transform="translate(-232.156 -61.852)" fill="#f0c741"/>
            <path id="Path_2379" data-name="Path 2379" d="M240.032,64.3l-2.289,4.347-1.619-2.2,1.18-2.238Z" transform="translate(-235.209 -58.497)" fill="#f0c741"/>
            <path id="Path_2380" data-name="Path 2380" d="M238.318,65.391l.19,4.908L236,69.2l-.1-2.528Z" transform="translate(-235.908 -54.681)" fill="#f0c741"/>
            <path id="Path_2381" data-name="Path 2381" d="M237.661,66.678l2.621,4.155-2.711.3-1.35-2.14Z" transform="translate(-234.896 -50.513)" fill="#f0c741"/>
            <path id="Path_2382" data-name="Path 2382" d="M237.347,67.75l4.347,2.29-2.2,1.616-2.24-1.178Z" transform="translate(-231.543 -47.041)" fill="#f0c741"/>
            <path id="Path_2383" data-name="Path 2383" d="M238.435,68.465l4.91-.19-1.1,2.5-2.53.1Z" transform="translate(-227.724 -45.341)" fill="#f0c741"/>
            <path id="Path_2384" data-name="Path 2384" d="M239.721,70.235l4.157-2.619.3,2.714-2.14,1.348Z" transform="translate(-223.558 -47.471)" fill="#f0c741"/>
            <path id="Path_2385" data-name="Path 2385" d="M240.793,70.839l2.289-4.347,1.619,2.2-1.18,2.238Z" transform="translate(-220.085 -51.114)" fill="#f0c741"/>
            <path id="Path_2386" data-name="Path 2386" d="M241.508,70.113l-.19-4.91,2.5,1.1.1,2.527Z" transform="translate(-218.386 -55.29)" fill="#f0c741"/>
            <path id="Path_2387" data-name="Path 2387" d="M243.281,68.482l-2.62-4.157,2.711-.3,1.35,2.14Z" transform="translate(-220.515 -59.113)" fill="#f0c741"/>
            <path id="Path_2388" data-name="Path 2388" d="M243.883,66.989,239.536,64.7l2.2-1.616,2.235,1.178Z" transform="translate(-224.156 -62.164)" fill="#f0c741"/>
          </g>
        </g>
        <path id="Path_2389" data-name="Path 2389" d="M215.311,139.062l-7.417-86.675L476.25,62.532,205.523,49.983Z" transform="translate(-205.523 -49.983)" fill="#f3e9df" style="mix-blend-mode: multiply;isolation: isolate"/>
      </g>
      <g id="Group_53426" data-name="Group 53426" transform="translate(201.644 141.496)">
        <path id="Path_2390" data-name="Path 2390" d="M232.323,75.377S227.079,72,221.7,74.351s-3.82,5.855-3.82,5.855l14.567-.034,1.047-2.794Z" transform="translate(-111.051 -16.2)" fill="#d7a87b"/>
        <path id="Path_2391" data-name="Path 2391" d="M217.44,79.848l24.122-6.8a.513.513,0,0,1,.305.979l-23.74,8.038a1.159,1.159,0,1,1-.742-2.2Z" transform="translate(-114.55 -17.805)" fill="#93a0cc"/>
        <path id="Path_2392" data-name="Path 2392" d="M215.921,80.45c1.607-.483,5.21-2.806,6.978-3.9s2.1-2.2,4.854-2.836a18.647,18.647,0,0,1,5.774-.649c.865.148,1.95.157,3.095.335s1.954,1.123-.178,1.942a10.538,10.538,0,0,1-4.146.462c-1.06-.03-3.485,1.391-4.71,2.3s-1.908,1.636-.521,1.67,4.778-.187,6.3-.034,4.078.742,4.078.742.242-1.708.6-1.984a8.334,8.334,0,0,1-1.251-2.132c-.288-.941.738-2.323,1.645-1.1a17.627,17.627,0,0,1,2.357,3.705,35.041,35.041,0,0,1-1.119,4.434c-.081.305-2.607,1.331-3.447,2.018a14.473,14.473,0,0,1-3.553,2.162c-.657.1-3.68-.28-5.57-.28a21.113,21.113,0,0,0-7.44,1.424Z" transform="translate(-116.732 -17.848)" fill="#e1b98f"/>
        <path id="Path_2393" data-name="Path 2393" d="M210.147,112.834c4.956.174,10.785-2.459,11.243-9.166s-3.612-11.1-4.218-16.334,0-15.325-5.609-20.294c-3.315-2.938-6.308-2.332-11.243-1.764Z" transform="translate(-167.269 -44.428)" fill="#c7c759"/>
        <path id="Path_2394" data-name="Path 2394" d="M229.759,73.815l-12.32,3.472-.055.017a1.159,1.159,0,1,0,.742,2.2l12.939-4.379Z" transform="translate(-114.55 -15.244)" fill="#93a0cc"/>
        <path id="Path_2395" data-name="Path 2395" d="M286.018,95.91c2.442-1.068,4.218-1.967,5.342-2.527,0,0-1.352-9-4.116-9.373,0,0-5.778,1.513-8.725,1.857l0,.009c-6.126.627-16.716,2.289-22.24,5.367l-21.422-.937L230.8,71.69l-36.942,5.6c.386,4.108,4.155,15.041,8.619,20.989s14.181,11.785,29.548,10.446,25.856-3.006,27.522-3.29,16.143-5.507,22.007-7.707c1.586-.6,2.912-1.145,4.129-1.67l0,0Z" transform="translate(-188.215 -22.128)" fill="#c7c759"/>
        <path id="Path_2396" data-name="Path 2396" d="M230.723,81.193c-.742-1.085-3.328-2.726-4.409-3.565a29.507,29.507,0,0,1-3.408-4.519s1.263,1.619,1.819,2.221A21.345,21.345,0,0,0,228.3,78.1c.437.106,1.5-.3.793-1.823-.356-.767-1.67-1.679-2.7-2.836-1.013-1.132-2.081-2.357-2.955-3.417-1.768-2.145-3.375-2.353-7.1-4.786-.136-.089-.242-.174-.373-.263l-6.151,6.287c.322.263.636.521.89.755,2.5,2.3,3.107,6.342,3.553,7.309s4.269,3.654,5.219,4.638,2.747.326,2.747.326a3.833,3.833,0,0,0,3.481.22c.3.187,1.713.945,2.611,1.369s2,1.013,2.34.212a4.345,4.345,0,0,0-.208-2.357A1.988,1.988,0,0,0,230.723,81.193Z" transform="translate(-136.541 -43.887)" fill="#e1b98f"/>
        <path id="Path_2397" data-name="Path 2397" d="M263.3,76.214h0c-1.484-1.615-3.417-3.709-6.516-6.749-7.686-7.529-13.2-8.466-18.433-9.416S208.8,71.7,201.611,77.952s-9.691,18.713-6.91,37.213l36.942-5.6L225.915,81.39l14.8-7.9c2.357,2.31,9.187,5.668,11.535,7.042.975.568,2.594,1.581,4.333,2.73.492.335,4.727,4.15,5.448,4.833a14.982,14.982,0,0,0,7.181-7.254A60.876,60.876,0,0,1,263.3,76.214Z" transform="translate(-189.062 -59.999)" fill="#c7c759"/>
        <path id="Path_2398" data-name="Path 2398" d="M225.249,79.55s-10.878-19.255-28.781-9.9l6.058,31.414s10.963,1.1,17.593-3.51S225.249,79.55,225.249,79.55Z" transform="translate(-179.748 -37.042)" fill="#d7a87b"/>
        <path id="Path_2399" data-name="Path 2399" d="M224.528,83.332c0,8.415-6.431,15.236-14.367,15.236s-14.371-6.821-14.371-15.236S202.224,68.1,210.161,68.1,224.528,74.917,224.528,83.332Z" transform="translate(-181.947 -33.77)" fill="#f3e9df" opacity="0.5" style="mix-blend-mode: multiply;isolation: isolate"/>
        <g id="Group_53424" data-name="Group 53424" transform="translate(0 31.412)">
          <g id="Group_53421" data-name="Group 53421">
            <g id="Group_53418" data-name="Group 53418" transform="translate(11.673 1.135)">
              <path id="Path_2400" data-name="Path 2400" d="M223.175,81.474c-.157-.962-1.539-1.115-2.192-1.7a1.374,1.374,0,0,0-1.416-.276,11.773,11.773,0,0,0-1.115-3.642,13.6,13.6,0,0,0-5.028-4.256,13.944,13.944,0,0,0-6.469-1.836c-2.878-.237-2.794-.526-3.383-1.285s-2.493-.619-3.247-.742-4.88-.343-5.045,2.361,7.135,29.557,7.512,30a2.216,2.216,0,0,0,2.76.225c1.3-.721,4.807-1.67,4.379-2.946a14.732,14.732,0,0,0,5.354-2.514c2.887-2.069,5.859-6.55,5.418-9.776a1.479,1.479,0,0,0,1.251-.886C222.323,83.343,223.4,82.869,223.175,81.474Z" transform="translate(-195.277 -67.676)" fill="#e1b98f"/>
            </g>
            <g id="Group_53419" data-name="Group 53419" transform="translate(30.571 4.185)">
              <path id="Path_2401" data-name="Path 2401" d="M199.76,68.4c3.264.089,4.269,1.607,5.066,4.57a19.024,19.024,0,0,1,.772,4.066,10.255,10.255,0,0,1,1.28,3.307,4.63,4.63,0,0,1-.093,2.416,11.3,11.3,0,0,1,.661,3.591c.042.517.081,1.03.144,1.526.161,1.251.106,2.98-.6,3.743a1.171,1.171,0,0,1-.907.386l.051-.941c.03,0,.085,0,.165-.085a4.483,4.483,0,0,0,.356-2.985c-.068-.5-.11-1.039-.153-1.569a9.659,9.659,0,0,0-.657-3.442l-.14-.254.17-.233h0a3.342,3.342,0,0,0,.072-2,9.817,9.817,0,0,0-1.217-3.078l-.085-.123.008-.157a16.366,16.366,0,0,0-.742-3.93c-.81-3.006-1.67-3.8-4.18-3.871Z" transform="translate(-199.735 -68.396)" fill="#13151c"/>
            </g>
            <g id="Group_53420" data-name="Group 53420">
              <path id="Path_2402" data-name="Path 2402" d="M219.945,74.774c2.527.733,5.1,2.891,5.537,8.254S231.2,93.109,233.9,91.46c0,0-2.692,2.289-5.931-.555,0,0,1.412,5.164,6.1,3.887a3.342,3.342,0,0,1-2.4,1.323c-1.624.148-1.581,1.5-3.8,2.014a5.482,5.482,0,0,1-3.938-.61A4.636,4.636,0,0,0,228.58,99.1s-.882,1.4-3.756,1.793-5.761,1.776-9.344,2.756-9.149,2.022-13.189.14-7.851-4.227-9.263-10.463a19.624,19.624,0,0,1,.585-11,4.053,4.053,0,0,1-.572-4.782c1.374-3.04,8.932-8.415,18.022-9.852s12.718,2.9,14.511,5.965C225.575,73.659,222.408,70.8,219.945,74.774Z" transform="translate(-192.524 -67.409)" fill="#333337"/>
            </g>
          </g>
          <g id="Group_53422" data-name="Group 53422" transform="translate(0 7.365)">
            <path id="Path_2403" data-name="Path 2403" d="M198.154,95.8c-5.537-4.231-3.883-17.538,1.017-18.055s4.617,2.578,4.617,2.578,3.277-7.343,12.883-6.787,7.512,8.233,11.3,11.739c3.239,2.845,5.931.555,5.931.555-2.709,1.649-7.983-3.065-8.424-8.432s-3.01-7.521-5.537-8.254c-17.462.114-26.331,7.555-26.331,7.555a19.624,19.624,0,0,0-.585,11A12.968,12.968,0,0,0,198.154,95.8Z" transform="translate(-192.524 -69.146)" fill="#13151c"/>
          </g>
          <g id="Group_53423" data-name="Group 53423" transform="translate(0.033)">
            <path id="Path_2404" data-name="Path 2404" d="M193.016,77.546a4.5,4.5,0,0,0-.335,3.163c-.28-3.769,6.2-8.538,9.861-8.034s3.76-1.645,9.924-3.328,11.688,2.306,13.083,4.311c-1.793-3.065-5.426-7.406-14.516-5.965S194.39,74.506,193.016,77.546Z" transform="translate(-192.532 -67.409)" fill="#13151c"/>
          </g>
        </g>
        <g id="Group_53425" data-name="Group 53425" transform="translate(79.417 31.841)">
          <path id="Path_2405" data-name="Path 2405" d="M221,74.87c-.555-.318-1.2-.691-1.9-1.09s-1.45-.8-2.145-1.268a33.005,33.005,0,0,1-3.222-3.37l-1.369-1.632s.534.666,1.335,1.658a31.49,31.49,0,0,0,3.171,3.464c.7.5,1.446.9,2.124,1.331s1.318.806,1.865,1.136c.606.369,1.077.661,1.4.856-.068-.242-.119-.424-.123-.432C221.836,75.349,221.463,75.132,221,74.87Z" transform="translate(-207.655 -67.51)" fill="#d7a87b"/>
          <path id="Path_2406" data-name="Path 2406" d="M218.33,74.425c-.789-.657-1.971-1.357-2.929-2.3a35.265,35.265,0,0,1-3.472-4.176,34.888,34.888,0,0,0,3.358,4.286,36.249,36.249,0,0,0,2.87,2.4c.153.123.271.237.39.352a2.919,2.919,0,0,0,.276-.114l.089.051A6.207,6.207,0,0,0,218.33,74.425Z" transform="translate(-209.083 -66.094)" fill="#d7a87b"/>
          <path id="Path_2407" data-name="Path 2407" d="M214.492,72.143a10.653,10.653,0,0,1-2.611-2.654,7.687,7.687,0,0,1-.623-1.59,7.635,7.635,0,0,0,.581,1.611,10.583,10.583,0,0,0,2.552,2.756c1.03.9,2.06,1.8,2.836,2.476l.123.119.165-.051c.123.059.216.059.335.11-.136-.127-.28-.25-.449-.386C216.607,73.881,215.552,73.012,214.492,72.143Z" transform="translate(-211.257 -66.25)" fill="#d7a87b"/>
        </g>
        <path id="Path_2408" data-name="Path 2408" d="M261.292,83.576s-5.778,1.513-8.725,1.857l0,.009c-6.126.627-16.716,2.289-22.24,5.367l-21.422-.937-.038-.174c3.773-.971,7.169-3.709,7.512-8.763a19.765,19.765,0,0,0-1.87-9.11c1.03,2.806,1.594,11.722-2.993,14.189s-9.657,5.575-9.657,5.575,29.667,3.277,30.311,2.789c.627-.479,18.115-6.618,31.049-8.945C262.683,84.415,262.043,83.673,261.292,83.576Z" transform="translate(-162.265 -21.694)" fill="#afb357"/>
        <path id="Path_2409" data-name="Path 2409" d="M244.767,79.423c-3.519-2.026-7.122-5.6-11.383-8.483s-13.413-8.746-13.413-8.746-14.923,10.3-20.251,12.587c0,0,15.567-.8,18.971,15.283-.382-5.083-1.242-11.073-5.181-14.562a8.2,8.2,0,0,0-5.583-2.213l12.943-6.906c2.357,2.31,9.187,5.668,11.535,7.042.975.568,2.594,1.581,4.333,2.73.492.335,4.727,4.15,5.448,4.833A11.21,11.21,0,0,0,244.767,79.423Z" transform="translate(-169.216 -52.889)" fill="#afb357"/>
      </g>
      <g id="Group_53428" data-name="Group 53428" transform="translate(313.473 211.767)">
        <path id="Path_2410" data-name="Path 2410" d="M228.481,98.794l26.793.051a.442.442,0,0,0,.441-.415l1.106-21.392a.439.439,0,0,0-.445-.462l-29.947.267a.439.439,0,0,0-.432.483L228.044,98.4A.437.437,0,0,0,228.481,98.794Z" transform="translate(-195.93 -76.575)" fill="#595a84"/>
        <path id="Path_2411" data-name="Path 2411" d="M226.429,76.842a.439.439,0,0,0-.432.483l1.988,20.455,26.78.055a.429.429,0,0,0,.441-.411l1.085-20.849Z" transform="translate(-195.93 -76.575)" fill="#807fa4"/>
        <path id="Path_2412" data-name="Path 2412" d="M228.277,94.652l-1.685-17.291,25.85-.23L251.531,94.7Z" transform="translate(-193.995 -74.771)" fill="#b1cbf4"/>
        <path id="Path_2413" data-name="Path 2413" d="M228.248,94.3l-1.656-16.943,25.395-.226-.894,17.21Z" transform="translate(-193.995 -74.771)" fill="#cddffd"/>
        <path id="Path_2414" data-name="Path 2414" d="M252.442,77.132l-25.85.23.174,1.784,25.532.731Z" transform="translate(-193.995 -74.771)" fill="#b1cbf4"/>
        <path id="Path_2415" data-name="Path 2415" d="M245.268,76.6,226.42,95.814l.246,2.527a.437.437,0,0,0,.437.394l1.53,0,17.86-22.146Z" transform="translate(-194.551 -76.517)" fill="#fff" opacity="0.3"/>
        <path id="Path_2416" data-name="Path 2416" d="M244.228,76.613,228.306,98.8l6.078.021,13.96-22.242Z" transform="translate(-188.443 -76.573)" fill="#fff" opacity="0.3"/>
        <path id="Path_2417" data-name="Path 2417" d="M258.888,101.041c-1.619-2.188-1.407-4.176-3.642-6.385s-1.323-1.721-3.642-6.232a26.054,26.054,0,0,0-6.05-7.834,13.477,13.477,0,0,0-3.735-1.857l-.513,9.967c.4,1.827.67,4.278.254,4.668-.632.6-1.874-.7-5.214-1.713s-5.969-.021-5.859,1.361,4.256,1.2,7.533,4.354,8.92,3.782,10.734,4.6c1.564.708,3.4,3.692,3.951,5.1a81.335,81.335,0,0,1,7.55-3.828C259.664,102.223,259.185,101.439,258.888,101.041Z" transform="translate(-181.382 -69.584)" fill="#e1b98f"/>
        <path id="Path_2418" data-name="Path 2418" d="M306.006,101.478c-.7-1.365-5.388-10.31-8.063-14.944a81.011,81.011,0,0,0-7.605,3.862c.021.072.055.161.064.216.127.924,4.4,17.886,4.032,20.171s-8.47,20.192-8.47,20.192-6.194-3.646-11.544-4.112c-3.5-.3-6.181-.547-10.713-.683-2.387-.072-5.282-.114-9.085-.123-11.022-.013-16.487,4.871-16.487,4.871l-5.994-22.117c2.3-3.934,5.261-14.066,8.186-19.671a17.407,17.407,0,0,1-1.751-1.157c-1.721-1.344-3.362-2.773-5.159-4.006-3.6,4.952-10.785,14.668-13.176,18.208-3.044,4.506.076,28.79-.025,37.514s2.319,14.923,8.593,20.311,15.2,8.865,22.973,10.162c0,0,25.551.75,28.794-.225s16.9-7.317,18.933-13.842,4.019-17.03,4.744-20.836,3.718-17.195,4.2-23.151A16.785,16.785,0,0,0,306.006,101.478Z" transform="translate(-218.903 -52.594)" fill="#5e5f95"/>
        <g id="Group_53427" data-name="Group 53427" transform="translate(26.205 89.976)">
          <path id="Path_2419" data-name="Path 2419" d="M226.218,107.825c2.319-3.934,5.253-6.079,8-6.758a18.823,18.823,0,0,1,4.01-.678s1.463-2.421,2.323-2.582,2.065,1.878,2.132,2.84c0,0,8.411,1.513,9.284,8.207l.738,10.179-25.546,1.853Z" transform="translate(-221.411 -97.799)" fill="#e1b98f"/>
          <path id="Path_2420" data-name="Path 2420" d="M227.6,101.326c-.547-.076-1.619,1.162-2.217,3.523s-.339,4.464,1.136,4.935S227.6,101.326,227.6,101.326Z" transform="translate(-225.084 -86.386)" fill="#e1b98f"/>
          <path id="Path_2421" data-name="Path 2421" d="M234.033,102.008s1.564.271,1.823,3.921-1.7,4.468-2.7,3.96S234.033,102.008,234.033,102.008Z" transform="translate(-199.894 -84.164)" fill="#e1b98f"/>
          <path id="Path_2422" data-name="Path 2422" d="M229.927,100.073s-.666,3.184.386,5.329c0,0,2.641-6.558,11.2-5.638,0,0-4.909,1.518-5.384,3,0,0,10.878-4.456,15.953,3a6.646,6.646,0,0,0-3.154-.928s3.035,1.9,4.138,3.849a19.576,19.576,0,0,0,.649-8.589s3.96,2.946,4.439,9.475-1.221,15.147-4.9,19.081S240.2,132.3,236.57,131.4s-11.421-5.74-11.15-15.317S227.519,102.714,229.927,100.073Z" transform="translate(-224.017 -91.721)" fill="#75462f"/>
          <path id="Path_2423" data-name="Path 2423" d="M241.661,131.953a24.26,24.26,0,0,1-5.091-.551c-3.637-.9-11.421-5.74-11.15-15.317s2.1-13.371,4.506-16.012c0,0-.666,3.184.386,5.329,0,0,2.641-6.558,11.2-5.638,0,0-4.909,1.518-5.384,3a18.915,18.915,0,0,1,2.455-.75c-2.455.75-12.472,10.357-6.3,20.917a8.492,8.492,0,0,1,1.861-7.622S232.657,128.583,241.661,131.953Z" transform="translate(-224.017 -91.721)" fill="#623625"/>
          <path id="Path_2424" data-name="Path 2424" d="M237.753,109.036c-.318,10.255-4.214,15.075-4.214,15.075,4.43-13.447-2.578-19.6-2.578-19.6s3.035,1.9,4.138,3.849a19.576,19.576,0,0,0,.649-8.589s3.96,2.946,4.439,9.475a35.757,35.757,0,0,1-.61,9.208C239.652,111.783,237.753,109.036,237.753,109.036Z" transform="translate(-206.046 -91.404)" fill="#623625"/>
        </g>
        <path id="Path_2425" data-name="Path 2425" d="M236.819,91.7l-1.942-3.472A11.358,11.358,0,0,1,243.53,83.2l1.357,2.934Z" transform="translate(-167.156 -55.111)" fill="#fff"/>
        <path id="Path_2426" data-name="Path 2426" d="M241.769,111.444,235.16,88.933s4.1-4.523,9.238-5.159c0,0,9.924,17.627,10.683,22.134s-3.417,6.681-3.417,6.681Z" transform="translate(-166.239 -53.255)" fill="#5e5f95"/>
        <path id="Path_2427" data-name="Path 2427" d="M247.944,89.878c-2.891-.543-4.638,1.552-6.156,1.047s-2.353-3.285-2.353-3.285l-.174-2.9-.547-5.592c-2.84,1.268-8.309,11.773-10.581,12.756-2.327,1-2.692,2.98-3.972,4.935-.259.394-.907,1.3-1.789,2.522,2.026,1.395,3.845,3.04,5.825,4.506.318.237.67.454,1.017.67a10.962,10.962,0,0,1,2.162-3.048c3.612-3.107,6.533-3.637,10.1-5.062s5.579-2.285,6.677-3.171,4.29-.03,4.477-1.251S250.839,90.425,247.944,89.878Z" transform="translate(-207.664 -68.24)" fill="#e1b98f"/>
        <path id="Path_2428" data-name="Path 2428" d="M222.663,85.244l1.742-2.65a15.185,15.185,0,0,1,8.572,5.867L230.12,91.3Z" transform="translate(-206.721 -57.077)" fill="#fff"/>
        <path id="Path_2429" data-name="Path 2429" d="M219.218,104.726s10.976-17.195,13.867-21.532c0,0,5.036.305,9.276,5.524,0,0-4.985,7.033-6.287,10.492l-7.347,3.82Z" transform="translate(-217.881 -55.134)" fill="#5e5f95"/>
        <path id="Path_2430" data-name="Path 2430" d="M282.2,86.57a20.454,20.454,0,0,0-1.853,1.683l6.609,22.511c-.373,2.289-8.474,20.192-8.474,20.192s-6.19-3.646-11.54-4.112c-3.5-.3-6.181-.547-10.713-.683-2.387-.072-5.282-.114-9.085-.123-11.022-.013-16.487,4.871-16.487,4.871l-5.994-22.117c1.463-2.5,3.188-7.491,5-12.239,1.348-3.493,6.24-10.395,6.24-10.395a16.611,16.611,0,0,0-2.154-2.175c-2.692,4.049-12.769,22.274-12.544,24.419s5.876,29.485,6.16,30.676c0,0,11.018-12.027,28.315-9.992S280.352,139.6,280.352,139.6s10.713-25.8,10.713-27.819C291.065,110.069,284.3,92.1,282.2,86.57Z" transform="translate(-211.431 -52.574)" fill="#4c4a7e"/>
      </g>
      <g id="Group_53438" data-name="Group 53438" transform="translate(428.473 208.576)">
        <g id="Group_53429" data-name="Group 53429" transform="translate(8.317)">
          <path id="Path_2431" data-name="Path 2431" d="M302.147,113.872l-29.576,18.823L247.991,94.772l29.576-18.823Z" transform="translate(-247.991 -75.411)" fill="#f3e9df" opacity="0.5" style="mix-blend-mode: multiply;isolation: isolate"/>
          <path id="Path_2432" data-name="Path 2432" d="M302.224,113.743l-29.576,18.822-24.579-37.92,29.576-18.822Z" transform="translate(-247.741 -75.822)" fill="#deeafd"/>
          <rect id="Rectangle_1666" data-name="Rectangle 1666" width="35.059" height="3.221" transform="translate(0.326 18.822) rotate(-32.469)" fill="#8cb7ee"/>
        </g>
        <g id="Group_53430" data-name="Group 53430" transform="translate(15.881 8.092)" opacity="0.5">
          <path id="Path_2433" data-name="Path 2433" d="M250.223,92.405l-.447-.708,22.215-13.966.443.71Z" transform="translate(-249.775 -77.731)" fill="#8cb7ee"/>
        </g>
        <g id="Group_53431" data-name="Group 53431" transform="translate(18.001 11.342)" opacity="0.5">
          <path id="Path_2434" data-name="Path 2434" d="M250.723,93.172l-.447-.708L272.486,78.5l.447.71Z" transform="translate(-250.276 -78.498)" fill="#8cb7ee"/>
        </g>
        <g id="Group_53432" data-name="Group 53432" transform="translate(20.121 14.591)" opacity="0.5">
          <path id="Path_2435" data-name="Path 2435" d="M251.218,93.936l-.443-.708,22.211-13.964.447.71Z" transform="translate(-250.775 -79.264)" fill="#8cb7ee"/>
        </g>
        <g id="Group_53433" data-name="Group 53433" transform="translate(25.184 22.705)" opacity="0.5">
          <rect id="Rectangle_1667" data-name="Rectangle 1667" width="26.239" height="0.838" transform="matrix(0.848, -0.529, 0.529, 0.848, 0, 13.889)" fill="#8cb7ee"/>
        </g>
        <g id="Group_53434" data-name="Group 53434" transform="translate(27.584 26.392)" opacity="0.5">
          <rect id="Rectangle_1668" data-name="Rectangle 1668" width="26.236" height="0.839" transform="matrix(0.846, -0.533, 0.533, 0.846, 0, 13.973)" fill="#8cb7ee"/>
        </g>
        <g id="Group_53435" data-name="Group 53435" transform="translate(29.953 30.125)" opacity="0.5">
          <path id="Path_2436" data-name="Path 2436" d="M253.542,97.6l-.447-.71L275.31,82.928l.443.71Z" transform="translate(-253.095 -82.928)" fill="#8cb7ee"/>
        </g>
        <g id="Group_53436" data-name="Group 53436" transform="translate(32.33 33.855)" opacity="0.5">
          <path id="Path_2437" data-name="Path 2437" d="M254.1,98.484l-.443-.71,22.211-13.966.443.71Z" transform="translate(-253.655 -83.808)" fill="#8cb7ee"/>
        </g>
        <rect id="Rectangle_1669" data-name="Rectangle 1669" width="6.628" height="4.565" transform="translate(29.908 19.866)" fill="#d7a87b"/>
        <path id="Path_2438" data-name="Path 2438" d="M257.744,93.437a8.1,8.1,0,0,0-2.022-2.4,27.014,27.014,0,0,0-4.68-2.879c-.653-.22-2.145-.933-2.383-.589s4.027,5.651,4.027,5.651Z" transform="translate(-237.54 -38.08)" fill="#e8a226"/>
        <path id="Path_2439" data-name="Path 2439" d="M248.65,104.047c.674-1.3,1.679-5.075,2.7-6.838s1.3-2.862,3.035-7.025,1.734-5.1,2.234-5.257,1.123.776,1,1.594-1.963,5.566-1.636,5.732,3.26-5.1,4.4-6.741,1.361-2.293,1.967-2.1.878.92.11,2.289-3.841,6.079-3.96,6.312,3.2-3.7,4.417-5.253,2-2.968,2.3-2.87,1.208.509.585,1.713-3.485,5.617-4.057,6.38-.967.971-.856,1.2,2.319-2.217,3.125-3.095,2.8-3.493,3.154-3.375,1.369.767-.22,2.713-4.159,5.325-4.731,5.855a8.176,8.176,0,0,0-1.094,3.726c.085.517,2.238.449,4.49-.153s3.336.369,3.637.818-1.861.979-3.786,1.632-3.362,1.268-5.168,1.925-3.506,2.306-4.7,3.218a27.262,27.262,0,0,0-2.285,2Z" transform="translate(-237.54 -51.34)" fill="#e1b98f"/>
        <path id="Path_2440" data-name="Path 2440" d="M288.541,124.848c-13.672,1.4-14.732,7.889-16.351,7.627-2.4-.386-13.18-14.359-13.18-14.359a69.443,69.443,0,0,0,3.281-10.552c.839-4.481,3.943-14.2,3.943-14.2-4.091-.636-9.085-5.871-9.085-5.871-2.582,6.067-8.428,21.231-10.327,27.1-1.717,5.295-.784,5.808,4.214,17.174,4.2,9.547,4.943,10.679,10.645,19.785,5.435,8.686,26.7,7.2,35.395,7.9l6.507-29.625C302.306,129.554,289.842,124.712,288.541,124.848Z" transform="translate(-246.029 -38.01)" fill="#f3d56d"/>
        <path id="Path_2441" data-name="Path 2441" d="M253.8,86.986c-.725.131-1.649.017-1.446-.619a28.412,28.412,0,0,1,2.51-4.29c.95-1.357,1.7-1.912,4.01-2.505l-.827,5.494a8.323,8.323,0,0,0-2.565.335A3.063,3.063,0,0,0,253.8,86.986Z" transform="translate(-225.644 -63.679)" fill="#e1b98f"/>
        <path id="Path_2442" data-name="Path 2442" d="M252.739,86.123,253.2,87.4l.7-1.2.6-4.345-1.218-1.105Z" transform="translate(-224.293 -59.867)" fill="#5d5047"/>
        <path id="Path_2443" data-name="Path 2443" d="M254.079,88.76s.992-5.766,1.229-7.118.42-2.662-.246-2.773-1.3-.568-1.467,1.407-.746,7.843-.746,7.843A1.732,1.732,0,0,0,254.079,88.76Z" transform="translate(-223.938 -66.348)" fill="#5d5047"/>
        <path id="Path_2444" data-name="Path 2444" d="M273.438,96.754c-1.611-1.022-2.959-2.611-5.651-2.921s-5.952-.394-7.966-1.666-4.375-2.722-5.1-3.345-2.9-2.722-2.187-3.218,2.3,0,3.485,1.111,3.888,1.789,4.757,1.458-2.306-2.421-2.976-2.4-1.153.034-1.153.034,1.5-4.913,1.636-5.291,2.7-.895,3.955-1.022,2.531-.479,3.964.895,5,5.842,5.91,6.6,6,4.078,6,4.078Z" transform="translate(-225.403 -64.383)" fill="#e1b98f"/>
        <path id="Path_2445" data-name="Path 2445" d="M268.541,89.817s1.823-6.8,5.308-8.178c0,0,7.406,3.841,11.6,6.6s21.188,14.27,21.485,16.177a101.66,101.66,0,0,1-1.047,27.34c-2.366,12.362-6.219,34.852-14.477,41.063-7.605,5.715-19.459,5.079-19.459,5.079l1.929-26.971s-21.934-1.543-20.752-2.781c6.847-7.173,22.507-7.868,29.358-7.809a4.427,4.427,0,0,0,4.29-3.18c2.158-7.237,7.114-23.982,7.042-24.944-.085-1.234-10.077-10.7-12.489-13.21S268.541,89.817,268.541,89.817Z" transform="translate(-223.176 -56.98)" fill="#f3d56d"/>
        <path id="Path_2446" data-name="Path 2446" d="M314.134,106.126c-2.128-3.977-22.558-19.306-28.192-23.49a24.04,24.04,0,0,0-1.552,3.951s10.382,6.685,12.79,9.191,12.4,11.976,12.489,13.21c.072.962-4.884,17.708-7.042,24.944a4.427,4.427,0,0,1-4.29,3.18c-6.851-.059-22.511.636-29.358,7.809h0c-2.277,1.806-2.972,3.43-3.794,3.294-2.4-.386-13.18-14.359-13.18-14.359a69.443,69.443,0,0,0,3.281-10.552c.839-4.481,3.943-14.2,3.943-14.2a8.929,8.929,0,0,1-2.484-.869c-2.683,8.7-8.555,25.173-8.555,25.173s13.752,19.242,15.135,20.764,9-8.339,15.554-8.924,23.058.729,24.419-1.827S316.606,110.739,314.134,106.126Z" transform="translate(-239.027 -53.75)" fill="#f0c741"/>
        <g id="Group_53437" data-name="Group 53437" transform="translate(28.744 81.165)">
          <path id="Path_2447" data-name="Path 2447" d="M265.933,95.015c-.967.2-1.073,1.6-1.641,2.293a1.406,1.406,0,0,0-.229,1.45,11.907,11.907,0,0,0-3.659,1.276,13.737,13.737,0,0,0-4.138,5.278,14.167,14.167,0,0,0-1.62,6.652c-.131,2.934-.424,2.862-1.174,3.485s-.534,2.561-.632,3.336-.165,4.973,2.6,5.036,29.786-8.39,30.227-8.788a2.267,2.267,0,0,0,.123-2.819c-.784-1.3-1.886-4.824-3.167-4.341a14.944,14.944,0,0,0-2.764-5.346c-2.209-2.862-6.889-5.71-10.153-5.138a1.5,1.5,0,0,0-.945-1.238C267.87,95.808,267.344,94.731,265.933,95.015Z" transform="translate(-252.81 -94.968)" fill="#e1b98f"/>
          <path id="Path_2448" data-name="Path 2448" d="M265.576,129.3c-4.774.047-8.9-4.409-10.993-10.052a27.507,27.507,0,0,1-1.166-13.312c.339-1.683,3.129-2.671,4.426-3.921s4.49-5.354,10.056-5.626,9.3,3.167,11.018,3.629,2.429,1.289,3.608,4.087,2.781,7.05,2.561,10.967-1.251,7.983-3.743,9.636a4.342,4.342,0,0,1,2.527,4.952c-.564,3.832-4.591,6.134-10.5,6.588C268.56,136.626,263.948,133.675,265.576,129.3Z" transform="translate(-251.952 -90.399)" fill="#d47935"/>
          <path id="Path_2449" data-name="Path 2449" d="M254.227,103.383s.174-.352.56-.979a14.748,14.748,0,0,1,1.81-2.353,12.015,12.015,0,0,1,7.877-3.892,12.679,12.679,0,0,1,4.693.538c1.441.458,2.692,1.089,3.8,1.518a7.172,7.172,0,0,0,3.875.615,5.789,5.789,0,0,1-1.09.076,8.348,8.348,0,0,1-2.832-.555c-1.136-.39-2.408-.979-3.837-1.374a12.13,12.13,0,0,0-4.566-.356,11.361,11.361,0,0,0-7.321,3.968,12.759,12.759,0,0,0-2.107,3.23Z" transform="translate(-248.218 -91.224)" fill="#d47935"/>
          <path id="Path_2450" data-name="Path 2450" d="M254.1,103.686a8.419,8.419,0,0,0,.649-.89c.382-.56.856-1.471,1.556-2.527a7.889,7.889,0,0,1,3.247-2.879,13.869,13.869,0,0,1,7.292-.738c.8.2,1.552.445,2.289.67a36.325,36.325,0,0,0,4.048,1.068,9.024,9.024,0,0,0,4.053.064,9.086,9.086,0,0,1-4.078.081,37.187,37.187,0,0,1-4.108-.937c-.742-.2-1.505-.42-2.281-.581a13.336,13.336,0,0,0-6.936.954,7.183,7.183,0,0,0-2.853,2.739c-.623,1.022-1.064,1.946-1.463,2.59a8.221,8.221,0,0,1-.649.958Z" transform="translate(-248.639 -90.128)" fill="#d47935"/>
          <path id="Path_2451" data-name="Path 2451" d="M269.556,124.651c3.591-4.1,11.786-3,11.786-3-5.236-3.158-10.06,2.472-17.195-1.255s-7.847-17.632-4.583-23.028l-.1-.042c-.7.67-1.251,1.276-1.624,1.632-1.3,1.251-4.087,2.238-4.426,3.921a27.507,27.507,0,0,0,1.166,13.312c2.09,5.643,6.219,10.1,10.993,10.052-1.628,4.371,2.984,7.321,7.8,6.948,4.1-.314,7.254-1.539,9.013-3.527C276,132.54,265.974,128.738,269.556,124.651Z" transform="translate(-251.952 -87.336)" fill="#c86f2d"/>
        </g>
      </g>
      <g id="Group_53439" data-name="Group 53439" transform="translate(335.208 114.066)" style="mix-blend-mode: multiply;isolation: isolate">
        <rect id="Rectangle_1670" data-name="Rectangle 1670" width="23.855" height="32.457" rx="0.187" transform="matrix(0.966, -0.258, 0.258, 0.966, 0, 6.163)" fill="#f3e9df"/>
        <rect id="Rectangle_1671" data-name="Rectangle 1671" width="0.56" height="32.458" transform="translate(4.903 4.851) rotate(-14.97)" fill="#f3e9df"/>
      </g>
      <g id="Group_53440" data-name="Group 53440" transform="translate(333.845 112.369)">
        <path id="Rectangle_1672" data-name="Rectangle 1672" d="M.188,0H23.67a.187.187,0,0,1,.187.187V32.27a.187.187,0,0,1-.187.187H.187A.187.187,0,0,1,0,32.27V.188A.188.188,0,0,1,.188,0Z" transform="translate(0 6.163) rotate(-14.971)" fill="#9b8ad8"/>
        <rect id="Rectangle_1673" data-name="Rectangle 1673" width="0.56" height="32.459" transform="matrix(0.966, -0.258, 0.258, 0.966, 4.915, 4.848)" fill="#8377ba"/>
      </g>
      <path id="Path_2452" data-name="Path 2452" d="M255.882,68.988,230.314,53.964a.761.761,0,0,0-1.043.271l-8.483,14.435h0l-.271.462h0l-2.086,3.548a.765.765,0,0,0,.271,1.043l25.572,15.024a.761.761,0,0,0,1.043-.271l10.836-18.446A.758.758,0,0,0,255.882,68.988Z" transform="translate(92.707 61.607)" fill="#f3e9df" style="mix-blend-mode: multiply;isolation: isolate"/>
      <g id="Group_53442" data-name="Group 53442" transform="translate(267.004 122.816)">
        <path id="Path_2453" data-name="Path 2453" d="M228.944,64.22a10.079,10.079,0,0,0-9.878-8.055c-.051,0-.1.013-.153.013a10.021,10.021,0,0,0-6.609,2.637L210.66,57.17a1.185,1.185,0,0,0-1.674,0l-.233.233a1.185,1.185,0,0,0,0,1.675l1.708,1.708c.034.034.085.021.123.051A10.075,10.075,0,0,0,224.7,74.615a10.231,10.231,0,0,0,2.726-2.726,10.08,10.08,0,0,0,1.513-7.669Z" transform="translate(-206.439 -53.74)" fill="#f3e9df" style="mix-blend-mode: multiply;isolation: isolate"/>
        <g id="Group_53441" data-name="Group 53441">
          <circle id="Ellipse_306" data-name="Ellipse 306" cx="10.085" cy="10.085" r="10.085" transform="translate(1.066 0.001)" fill="#fff"/>
          <path id="Path_2454" data-name="Path 2454" d="M218.279,55.593c-.055,0-.1.017-.157.017a9.77,9.77,0,1,1-9.916,9.916c0,.051-.013.1-.013.153a10.085,10.085,0,1,0,10.086-10.085Z" transform="translate(-207.126 -55.593)" fill="#f3f0e0" opacity="0.5"/>
          <circle id="Ellipse_307" data-name="Ellipse 307" cx="7.914" cy="7.914" r="7.914" transform="translate(3.238 2.173)" fill="#e9dac4"/>
          <path id="Path_2455" data-name="Path 2455" d="M223.8,63.723a7.468,7.468,0,1,1-7.47-7.466A7.47,7.47,0,0,1,223.8,63.723Z" transform="translate(-204.956 -53.442)" fill="#f3f0e0"/>
          <path id="Path_2456" data-name="Path 2456" d="M221.644,62.766a6.276,6.276,0,1,1-6.274-6.274A6.277,6.277,0,0,1,221.644,62.766Z" transform="translate(-204.217 -52.681)" fill="#705640"/>
          <path id="Path_2457" data-name="Path 2457" d="M210.075,63.258a5.774,5.774,0,0,1,11.544-.246c0-.081.025-.161.025-.246a6.276,6.276,0,1,0-6.274,6.279c.081,0,.161-.021.246-.025A5.775,5.775,0,0,1,210.075,63.258Z" transform="translate(-204.217 -52.681)" fill="#60452e"/>
          <rect id="Rectangle_1674" data-name="Rectangle 1674" width="4.782" height="2.698" rx="0.279" transform="translate(3.381 5.459) rotate(-135)" fill="#fff"/>
        </g>
      </g>
      <g id="Group_53444" data-name="Group 53444" transform="translate(413.855 235.616)">
        <path id="Path_2458" data-name="Path 2458" d="M258.7,104.123a10.088,10.088,0,0,0,3.442-12.269c-.021-.047-.055-.089-.072-.136a10.037,10.037,0,0,0-5.057-5.011l.852-2.162a1.18,1.18,0,0,0-.666-1.535l-.305-.119a1.177,1.177,0,0,0-1.535.666l-.886,2.247c-.017.042.013.085,0,.131a10.075,10.075,0,0,0-7,18.446,10.1,10.1,0,0,0,7.5,1.365,10.272,10.272,0,0,0,1.946-.623A10.406,10.406,0,0,0,258.7,104.123Z" transform="translate(-241.854 -80.233)" fill="#f3e9df" style="mix-blend-mode: multiply;isolation: isolate"/>
        <g id="Group_53443" data-name="Group 53443">
          <path id="Path_2459" data-name="Path 2459" d="M256.69,102.236a10.083,10.083,0,1,1,5.227-13.269A10.086,10.086,0,0,1,256.69,102.236Z" transform="translate(-242.581 -79.923)" fill="#fff"/>
          <path id="Path_2460" data-name="Path 2460" d="M261.921,88.364a1.422,1.422,0,0,1-.081-.136A9.768,9.768,0,1,1,248.8,83.09c-.051.021-.1.03-.148.051a10.083,10.083,0,1,0,13.273,5.223Z" transform="translate(-242.581 -79.32)" fill="#f3f0e0" opacity="0.5"/>
          <path id="Path_2461" data-name="Path 2461" d="M254.164,98.59a7.914,7.914,0,1,1,4.1-10.412A7.914,7.914,0,0,1,254.164,98.59Z" transform="translate(-240.921 -78.265)" fill="#e9dac4"/>
          <path id="Path_2462" data-name="Path 2462" d="M253.627,97.9a7.467,7.467,0,1,1,3.866-9.823A7.471,7.471,0,0,1,253.627,97.9Z" transform="translate(-240.646 -77.706)" fill="#f3f0e0"/>
          <path id="Path_2463" data-name="Path 2463" d="M252.263,95.838a6.278,6.278,0,1,1,3.252-8.263A6.283,6.283,0,0,1,252.263,95.838Z" transform="translate(-239.672 -77.014)" fill="#705640"/>
          <path id="Path_2464" data-name="Path 2464" d="M247.2,85.426a5.774,5.774,0,0,1,4.829,10.488c.081-.034.161-.042.237-.076A6.278,6.278,0,1,0,244,92.582c.034.081.089.144.127.216A5.766,5.766,0,0,1,247.2,85.426Z" transform="translate(-239.672 -77.014)" fill="#60452e"/>
          <path id="Path_2465" data-name="Path 2465" d="M248.793,83.936l-.886,2.251a1.184,1.184,0,0,1-1.535.666l-.309-.119a1.187,1.187,0,0,1-.666-1.539l.886-2.247a1.183,1.183,0,0,1,1.53-.666l.314.119A1.187,1.187,0,0,1,248.793,83.936Z" transform="translate(-233.73 -82.201)" fill="#fff"/>
        </g>
      </g>
      <g id="Group_53446" data-name="Group 53446" transform="translate(290.542 236.61)">
        <path id="Path_2466" data-name="Path 2466" d="M233.974,92.3a10.093,10.093,0,0,0-8.966-9.064c-.051,0-.1,0-.153,0A10,10,0,0,0,218,85.153l-1.458-1.814a1.193,1.193,0,0,0-1.666-.178l-.259.208a1.193,1.193,0,0,0-.178,1.666l1.518,1.878c.03.038.081.034.115.064a10.079,10.079,0,1,0,17.886,7.368A10.3,10.3,0,0,0,233.974,92.3Z" transform="translate(-212.348 -80.927)" fill="#f3e9df" style="mix-blend-mode: multiply;isolation: isolate"/>
        <g id="Group_53445" data-name="Group 53445">
          <path id="Path_2467" data-name="Path 2467" d="M233.639,93.775a10.084,10.084,0,1,1-8.949-11.1A10.081,10.081,0,0,1,233.639,93.775Z" transform="translate(-213.381 -81.855)" fill="#fff"/>
          <path id="Path_2468" data-name="Path 2468" d="M224.689,82.629c-.051,0-.1,0-.157,0a9.77,9.77,0,1,1-10.912,8.8c-.008.051-.03.1-.034.153a10.084,10.084,0,1,0,11.1-8.954Z" transform="translate(-213.381 -81.811)" fill="#f3f0e0" opacity="0.5"/>
          <path id="Path_2469" data-name="Path 2469" d="M229.827,91.884a7.916,7.916,0,1,1-7.029-8.712A7.923,7.923,0,0,1,229.827,91.884Z" transform="translate(-211.723 -80.197)" fill="#e9dac4"/>
          <path id="Path_2470" data-name="Path 2470" d="M229.083,91.546a7.466,7.466,0,1,1-6.626-8.22A7.466,7.466,0,0,1,229.083,91.546Z" transform="translate(-211.225 -79.689)" fill="#f3f0e0"/>
          <path id="Path_2471" data-name="Path 2471" d="M226.943,90.459a6.276,6.276,0,1,1-5.57-6.91A6.279,6.279,0,0,1,226.943,90.459Z" transform="translate(-210.472 -78.945)" fill="#705640"/>
          <path id="Path_2472" data-name="Path 2472" d="M215.391,89.717A5.775,5.775,0,0,1,226.9,90.7c.013-.081.038-.157.047-.242a6.276,6.276,0,1,0-6.91,5.575c.085.008.165,0,.25,0A5.773,5.773,0,0,1,215.391,89.717Z" transform="translate(-210.472 -78.945)" fill="#60452e"/>
          <path id="Rectangle_1675" data-name="Rectangle 1675" d="M.279,0H4.5a.279.279,0,0,1,.279.279V2.419A.279.279,0,0,1,4.5,2.7H.278A.278.278,0,0,1,0,2.42V.279A.279.279,0,0,1,.279,0Z" transform="matrix(-0.628, -0.778, 0.778, -0.628, 3.003, 5.414)" fill="#fff"/>
        </g>
      </g>
      <path id="Path_2473" data-name="Path 2473" d="M293.462,108.327l.292-10.191L282.906,60.367l-3.684-.085c-6.071,10-10.692,31.1-3.756,48.689l11.243,1.022Z" transform="translate(266.561 82.413)" fill="#4c4a7e"/>
      <g id="Group_53450" data-name="Group 53450" transform="translate(460.944 123.179)">
        <g id="Group_53447" data-name="Group 53447" transform="translate(7.375 59.009)">
          <path id="Path_2474" data-name="Path 2474" d="M258.208,70.552c-1.213.475-2.408.577-2.221,1.238s2.6,3.659,3.167,3.476a46.508,46.508,0,0,0,4.4-2.327,21.678,21.678,0,0,0-2.128-2.493Z" transform="translate(-253.682 -66.85)" fill="#d7a87b"/>
          <path id="Path_2475" data-name="Path 2475" d="M258.927,73.775c2.336-.67,7.707-2.009,7.983-2.4s-.4-2.09-1.352-1.721-9.543,3.048-9.543,3.048Z" transform="translate(-253.531 -69.598)" fill="#323d51"/>
          <path id="Path_2476" data-name="Path 2476" d="M255.5,71.707a3.879,3.879,0,0,1,1.683-1.59c.589-.178.827,1.509.827,1.509l-.059.95Z" transform="translate(-255.212 -67.958)" fill="#c69f76"/>
          <path id="Path_2477" data-name="Path 2477" d="M277.934,84.766a33.936,33.936,0,0,0,3.23-6.139,43.378,43.378,0,0,1-8.911-5.448,12.294,12.294,0,0,0-5.435-1.738c-2.128-.254-6.38-.661-7.262-1.064s-3.044-1.2-2.412.432a4.085,4.085,0,0,0,3.2,2.48,14.852,14.852,0,0,1,3.913,1.238c.39.293-.581.78-.8,1.013a4.3,4.3,0,0,1-3.112.1,12.429,12.429,0,0,1-2.183-2.154l-2.692,1.157s-.2,1.471.276,2.06,1.344,1.7,2.611,3.184,3.922,3.743,4.757,3.718,9.009-.983,9.623-.852c.246.055,2.446,1.017,5.087,2.192C277.866,84.889,277.892,84.826,277.934,84.766Z" transform="translate(-255.428 -68.871)" fill="#e1b98f"/>
        </g>
        <g id="Group_53448" data-name="Group 53448" transform="translate(9.581 13.962)">
          <path id="Path_2478" data-name="Path 2478" d="M286.2,66.429c-4.858,1.641-5.439,2.349-7.008,3.663a31.868,31.868,0,0,1-7.292,5.3,14.98,14.98,0,0,0-5.482,4.116c-.691.767-2.293,3.2-3.09,2.327s.865-3.413,1.6-4.392a26.671,26.671,0,0,1,2.764-2.73s-3.464,2.251-4.765,3.065-5.388,3.455-6.092,3.213a1.214,1.214,0,0,1-.687-1.776c.475-.581,3.035-2.23,4.867-3.718,0,0-1.692-.632-1.823-1.412a3.078,3.078,0,0,1,.759-2.332,2.208,2.208,0,0,1,.161-2.467,3.838,3.838,0,0,1,.521-2.633c.784-.958,3.976-1.988,4.591-2.145s5.282-.61,6.512-.81a14.371,14.371,0,0,0,3.714-1.174,12.481,12.481,0,0,1,2.785-1.653c1.357-.488,4.053-1.9,4.053-1.9Z" transform="translate(-255.949 -58.972)" fill="#e1b98f"/>
          <path id="Path_2479" data-name="Path 2479" d="M256.958,65.228a3.093,3.093,0,0,1,2.111-1.59c1.42-.428,4.426-1.615,4.426-1.615l-5.753,3.595A1.679,1.679,0,0,1,256.958,65.228Z" transform="translate(-252.679 -49.089)" fill="#d7a87b"/>
          <path id="Path_2480" data-name="Path 2480" d="M262.828,61.332s-4.684,2.158-5.732,2.781a2.583,2.583,0,0,1-.267-.755C258.241,62.744,262.828,61.332,262.828,61.332Z" transform="translate(-253.097 -51.327)" fill="#d7a87b"/>
          <path id="Path_2481" data-name="Path 2481" d="M262.192,60.807s-1.857.945-3.044,1.467-2.192,1.073-2.192,1.073-.034-.305-.034-.691C258.537,61.952,262.192,60.807,262.192,60.807Z" transform="translate(-252.796 -53.028)" fill="#d7a87b"/>
        </g>
        <path id="Path_2482" data-name="Path 2482" d="M314.684,67.251s-.39,14.3,6.011,21.477c0,0-15.262,5.63-19,6.478s-7.75,2.281-8.627,2.022-23.312-5.579-27.857-7.338c-4.261,1.768-5.053,8.881-5.278,9.216,3.866,1.721,10.043,3.866,10.984,4.277,1.62.708,20.82,7.152,21.981,7.449,2.115.543,22.38-3.472,25.826-4.451s27.759-6.134,32.753-8.326,11.913-7.923,11.4-32.393Z" transform="translate(-233.461 -23.341)" fill="#5d5047"/>
        <path id="Path_2483" data-name="Path 2483" d="M294.114,56.109c-1.157.305-26.1,11.094-32.686,13.333-.144,1.793,1.679,8.1,3.866,10.666a26.793,26.793,0,0,1,4.646-2.141c3.913-1.386,24.885-9.03,25.746-9.348s4.218,1.272,8.72,2.883c3.608,1.289,11.484,4.417,11.484,4.417-6.715,7.173-6.024,23.668-6.024,23.668L358.056,98c-1.1-24.444-8.373-29.714-13.5-31.571s-27.959-7.635-31.469-8.364C305.5,56.482,298.756,54.892,294.114,56.109Z" transform="translate(-228.644 -55.678)" fill="#5d5047"/>
        <path id="Path_2484" data-name="Path 2484" d="M265.98,71.647a4.337,4.337,0,0,1-2.433-1.318c-1.5.441-6.562,2-7.1,2.247-.644.293-2.819,1.348-2.756,1.662.051.233,2.175.034,3.523-.229S265.98,71.647,265.98,71.647Z" transform="translate(-253.689 -8.22)" fill="#323d51"/>
        <path id="Path_2485" data-name="Path 2485" d="M283.569,63.221,272.991,75.136l14.316,11.542Z" transform="translate(-191.161 -31.247)" fill="#fff"/>
        <g id="Group_53449" data-name="Group 53449" transform="translate(85.282 23.321)">
          <path id="Path_2486" data-name="Path 2486" d="M289.621,92.213c-1.747-.488-9.255-2.51-10.624-10.136a2.417,2.417,0,0,1-1.937-.742c-.7-.861-3.074-1.742-3.247-3.133s2.637-2.946,2.968-3.654a1.873,1.873,0,0,1,1.268-.873s.187-9.975,10.721-11.523l3.269,28.069Z" transform="translate(-273.805 -58.03)" fill="#e1b98f"/>
          <path id="Path_2487" data-name="Path 2487" d="M277.945,63.136c-.5-.9,1.28-.475,3.256-1.357s4.913-.975,5.384,1S277.945,63.136,277.945,63.136Z" transform="translate(-260.675 -61.18)" fill="#e1b98f"/>
          <path id="Path_2488" data-name="Path 2488" d="M278.47,70.431c-.538.36-.416,1.535,1.738,1.518s7.054,2.06,7.338-1.009S278.47,70.431,278.47,70.431Z" transform="translate(-259.568 -34.454)" fill="#e1b98f"/>
          <path id="Path_2489" data-name="Path 2489" d="M282.331,90.726c.33,2.976-1.492,4.4,1.217,5.388s13.083,2.442,19.9-3.349,7.461-15.783,5.477-21.116-4.638-7.241-7.978-8.491a34.1,34.1,0,0,0-15.44-1.276c-4.316.831-5.821,1.73-5.91,3.065s-4.833,5.38-3.277,14.728C277.553,87.072,282.153,89.106,282.331,90.726Z" transform="translate(-266.659 -60.184)" fill="#816e5d"/>
          <path id="Path_2490" data-name="Path 2490" d="M279.8,69.214a2.086,2.086,0,0,0-.5.254,5.86,5.86,0,0,0-1.09.865,4.587,4.587,0,0,0-1.073,1.768,4.7,4.7,0,0,1,.678-2.073,6.637,6.637,0,0,1,.954-1.217,3.41,3.41,0,0,1,.6-.5Z" transform="translate(-262.996 -38.082)" fill="#816e5d"/>
          <path id="Path_2491" data-name="Path 2491" d="M301.38,70.368c1.463,6.262-1.4,17.432-8,21.663s-15.7,2.421-15.741.025h0c-.25,1.56-.632,2.5,1.306,3.209,2.713.992,13.083,2.442,19.9-3.353s7.461-15.779,5.477-21.112-4.638-7.241-7.978-8.491a16.191,16.191,0,0,0-2.039-.56C295.9,62.241,299.9,64.059,301.38,70.368Z" transform="translate(-262.057 -59.335)" fill="#786251"/>
          <path id="Path_2492" data-name="Path 2492" d="M284.122,84.368a7.057,7.057,0,0,1-1.013-.343,10.161,10.161,0,0,1-2.459-1.463,12.675,12.675,0,0,1-4.451-7.046,17.441,17.441,0,0,1,.208-8.263,20.25,20.25,0,0,1,.788-2.611c.216-.623.339-.979.339-.979s-.106.36-.3.988a20.409,20.409,0,0,0-.678,2.637,17.192,17.192,0,0,0,.119,8.106,12.007,12.007,0,0,0,4.485,6.495,9.319,9.319,0,0,0,2.26,1.238,6.957,6.957,0,0,0,.95.276Z" transform="translate(-267.369 -53.135)" fill="#816e5d"/>
        </g>
      </g>
      <path id="Path_2493" data-name="Path 2493" d="M291.356,127.768c5.049-.594,36.378-11.849,36.378-11.849s-10.959-4.019-14.452-22.931c0,0,2.62-18.984,11.874-25.245,0,0-20.845-9.119-24.58-10C297.4,57,273.631,67.827,266.586,71.083a11.834,11.834,0,0,0,1.518,2.446,26.793,26.793,0,0,1,4.646-2.141c3.913-1.386,24.885-9.03,25.746-9.348s4.218,1.272,8.72,2.883c3.608,1.289,11.484,4.417,11.484,4.417-6.715,7.173-6.024,23.668-6.024,23.668h0s-.39,14.3,6.011,21.477c0,0-15.262,5.63-19,6.478s-7.75,2.281-8.627,2.022-23.312-5.579-27.857-7.338a6.229,6.229,0,0,0-2.65,2.238C264.975,119.658,286.833,128.3,291.356,127.768Z" transform="translate(229.491 74.079)" fill="#4a4038"/>
      <path id="Path_2494" data-name="Path 2494" d="M258.947,64.4,272.32,93.537l34.647-21.122Z" transform="translate(224.29 95.763)" fill="#f3e9df" style="mix-blend-mode: multiply;isolation: isolate"/>
      <g id="Group_53451" data-name="Group 53451" transform="translate(483.237 143.352)">
        <path id="Path_2495" data-name="Path 2495" d="M294.112,60.437l12.855,24.826-33.8,19.468-14.221-27.48Z" transform="translate(-258.947 -60.437)" fill="#5e5f95"/>
        <path id="Path_2496" data-name="Path 2496" d="M301.81,82.417l-29.882,17.21L259.645,75.9,290.773,61.1Z" transform="translate(-256.689 -58.278)" fill="#cddffd"/>
        <path id="Path_2497" data-name="Path 2497" d="M293.334,62l13.078,23.579.555-.319L294.112,60.437,258.947,77.252l.294.572Z" transform="translate(-258.947 -60.437)" fill="#4c4a7e"/>
        <path id="Path_2498" data-name="Path 2498" d="M273.808,88.277l-11.542-24-2.621,1.356,12.283,23.73Z" transform="translate(-256.689 -48.011)" fill="#b1cbf4"/>
        <path id="Path_2499" data-name="Path 2499" d="M260.787,67.962l33.53,2.875,4.252-2.449-38.531-1.878Z" transform="translate(-255.414 -40.76)" fill="#fff" opacity="0.3"/>
        <path id="Path_2500" data-name="Path 2500" d="M260.062,70.864l43.635-.373-3.2-6.175L259.59,69.949Z" transform="translate(-256.866 -47.87)" fill="#fff" opacity="0.3"/>
      </g>
      <g id="Group_53455" data-name="Group 53455" transform="translate(376.499 34.841)">
        <g id="Group_53452" data-name="Group 53452" transform="translate(43.611 53.085)">
          <path id="Path_2501" data-name="Path 2501" d="M278.495,47.363a180.745,180.745,0,0,0,7.071,20.514s-7.118,6.452-11.137,11.141-5.49,6.584-8.92,8.178-3.637,2.37-7.156,2.306-5.516-.776-6.953-.25-2.281,1.145-3.557,1.488-2.056,1.925-2.87,2.344-1.073.784-.831,1.433,1.369.822,1.369.822a1.729,1.729,0,0,0,.5,1.162,2.411,2.411,0,0,0,1.255.666,2.212,2.212,0,0,0,1.361,2.654,2.236,2.236,0,0,0,2.158,2.3s-.3.157.551,1.242,3.379.11,4.456-.267a11.718,11.718,0,0,0,2.934-.979c1.908-.928,3.676-1.4,4.757-2.255s1.781-2.306,3.086-2.853,18-10.743,23.363-14.265,9.132-6,10.094-7.817,1.3-1.836.5-6.372-5.571-17.822-5.571-17.822Z" transform="translate(-244.057 -47.363)" fill="#e1b98f"/>
          <path id="Path_2502" data-name="Path 2502" d="M245.883,61.157c.242-.229,2.23-1.357,2.823-1.738a13.452,13.452,0,0,1,3.137-1.246,25.587,25.587,0,0,0,2.573-.649,9.384,9.384,0,0,1-1.666.165,8.407,8.407,0,0,0-2.917.619,18.368,18.368,0,0,0-4.536,2.76c-.763.716-1.221.534-1.221.534.242.649,1.369.822,1.369.822A1.78,1.78,0,0,1,245.883,61.157Z" transform="translate(-243.991 -14.448)" fill="#d7a87b"/>
          <path id="Path_2503" data-name="Path 2503" d="M244.714,60.468a1.993,1.993,0,0,0,.424.123,8.559,8.559,0,0,0,2.3-1.467c.271-.2.119-.369.072-.466S245.138,60.591,244.714,60.468Z" transform="translate(-241.927 -10.787)" fill="#d7a87b"/>
          <path id="Path_2504" data-name="Path 2504" d="M248.107,59.433c-.115-.191-2.005,1.106-3.052,1.123a2.478,2.478,0,0,0,.339.229,5.951,5.951,0,0,0,1.789-.538C247.959,59.831,248.23,59.632,248.107,59.433Z" transform="translate(-240.823 -8.327)" fill="#d7a87b"/>
          <path id="Path_2505" data-name="Path 2505" d="M247.147,60.361a6.913,6.913,0,0,1-1.467.649s-.076.051-.034.237c.848-.093,2.476-.827,2.387-1.051S247.677,60,247.147,60.361Z" transform="translate(-238.95 -6.254)" fill="#d7a87b"/>
          <path id="Path_2506" data-name="Path 2506" d="M246.305,57.978c-.5.182-.7.428-.428,1.378s.513.822.636,1.607.2,1.738.861,2.192.716,1.051.916,1.9.907.924,1.03,1.471a5.164,5.164,0,0,0,1.068,2.154c.509.483,2.26-.941,3.29-2s-.2-6.9-1.6-7.966A7.308,7.308,0,0,0,246.305,57.978Z" transform="translate(-238.546 -13.91)" opacity="0.4" fill="url(#linear-gradient)"/>
        </g>
        <g id="Group_53453" data-name="Group 53453" transform="translate(0.31 53.085)">
          <path id="Path_2507" data-name="Path 2507" d="M254.719,50.78c-5.384,8.14-4.693,11.985-4.693,11.985s4.634,8.415,6.91,14.155,3.048,8.012,5.77,10.637,2.667,3.425,6.016,4.511,5.469,1.06,6.66,2.026,1.781,1.819,2.87,2.565,1.327,2.489,1.954,3.15.759,1.09.318,1.624-1.56.331-1.56.331a1.741,1.741,0,0,1-.848.941,2.43,2.43,0,0,1-1.4.22s.03,1.708-2.149,2.065a2.236,2.236,0,0,1-2.79,1.471s.229.246-.928.992-3.226-.992-4.121-1.7a11.721,11.721,0,0,1-2.459-1.878c-1.5-1.5-3.018-2.522-3.765-3.68s-.933-2.76-1.988-3.7-13.528-16.021-17.449-21.1-6.686-8.64-7-10.675-.627-2.162,1.6-6.189,6.456-11.171,6.456-11.171Z" transform="translate(-233.843 -47.363)" fill="#e1b98f"/>
          <path id="Path_2508" data-name="Path 2508" d="M249.747,64.621c-.153-.293-1.666-2.005-2.1-2.561a13.33,13.33,0,0,0-2.561-2.2,25.517,25.517,0,0,1-2.221-1.446,9.308,9.308,0,0,0,1.522.691,8.414,8.414,0,0,1,2.556,1.539,18.316,18.316,0,0,1,3.387,4.083c.492.928.979.9.979.9-.437.534-1.56.331-1.56.331A1.78,1.78,0,0,0,249.747,64.621Z" transform="translate(-204.625 -11.561)" fill="#d7a87b"/>
          <path id="Path_2509" data-name="Path 2509" d="M245.757,62.48a2.091,2.091,0,0,1-.445-.021,8.492,8.492,0,0,1-1.7-2.141c-.191-.271.009-.386.081-.462S245.308,62.459,245.757,62.48Z" transform="translate(-202.441 -6.898)" fill="#d7a87b"/>
          <path id="Path_2510" data-name="Path 2510" d="M242.993,60.452c.174-.144,1.543,1.7,2.527,2.06-.127.034-.246.076-.394.1a5.851,5.851,0,0,1-1.518-1.094C243.005,60.876,242.819,60.6,242.993,60.452Z" transform="translate(-204.404 -4.988)" fill="#d7a87b"/>
          <path id="Path_2511" data-name="Path 2511" d="M243.125,61.445a6.645,6.645,0,0,0,1.174,1.094s.055.072-.047.233c-.767-.36-2.069-1.586-1.916-1.768S242.739,60.928,243.125,61.445Z" transform="translate(-206.367 -3.442)" fill="#d7a87b"/>
          <path id="Path_2512" data-name="Path 2512" d="M250.941,59.89c.407.326.517.627-.047,1.437s-.755.61-1.128,1.31-.746,1.581-1.522,1.8-1.017.763-1.488,1.5-1.161.581-1.45,1.056a5.175,5.175,0,0,1-1.713,1.687c-.636.293-1.831-1.624-2.463-2.959s2.442-6.457,4.1-7.008A7.271,7.271,0,0,1,250.941,59.89Z" transform="translate(-210.504 -11.231)" opacity="0.4" fill="url(#linear-gradient-2)"/>
        </g>
        <path id="Path_2513" data-name="Path 2513" d="M237.994,102.879c.585,1.42,12.54-5.312,13.087-7.559.11-.432-.992-1.45-.411-2.857,2.421-5.905,9.051-17.716,9.051-17.716s6.872,5.706,12.167,6.584c3.464.577,6.117,1.03,10.628,1.522,2.37.259,5.257.526,9.043.827,10.993.878,18.785-6.592,18.785-6.592l8.034,21.328c-2.6,3.743,12.311,10.891,14.974,7.546,3.383-4.252-1.022-22.948-3.79-31.621-4.434-13.918-5.77-18.5-11.6-24.368S305.481,41.82,297.833,39.92c0,0-25.411-2.739-28.726-2.018s-17.42,5.973-19.955,12.32-5.719,14.393-6.736,18.132-6.524,17.916-8.335,23.613C232.525,96.859,237.261,101.107,237.994,102.879Z" transform="translate(-233.77 -25.316)" fill="#5e5f95"/>
        <g id="Group_53454" data-name="Group 53454" transform="translate(34.793)">
          <path id="Path_2514" data-name="Path 2514" d="M271.181,45.414c-.784,1.564-4.083,8.292-11.561,8.178a2.31,2.31,0,0,1-1.06,1.7c-.945.509-2.217,2.586-3.565,2.493s-2.3-3.035-2.908-3.481a1.8,1.8,0,0,1-.594-1.361s-9.4-2.022-8.92-12.281l27.17,2.1Z" transform="translate(-240.101 -16.001)" fill="#e1b98f"/>
          <path id="Path_2515" data-name="Path 2515" d="M242.826,46.346c-.95.314-.212-1.3-.678-3.332s-.017-4.829,1.937-4.909S242.826,46.346,242.826,46.346Z" transform="translate(-241.977 -24.271)" fill="#e1b98f"/>
          <path id="Path_2516" data-name="Path 2516" d="M249.9,47.7c.237.577,1.374.674,1.759-1.365s3.247-6.3.4-7.135S249.9,47.7,249.9,47.7Z" transform="translate(-216.551 -20.878)" fill="#e1b98f"/>
          <path id="Path_2517" data-name="Path 2517" d="M268.941,63.715c2.874.237,3.888,2.226,5.325-.153s4.727-11.925.509-19.454-13.553-9.984-18.967-9.093S248.1,38.067,246.294,41s-3.756,10.141-4.066,14.371.742,7.97,1.988,8.3,3.319-1.916,5.015-1.658,2.811,4.723,8.135,5.346C264.549,68.2,267.373,63.588,268.941,63.715Z" transform="translate(-241.333 -34.841)" fill="#b14f3b"/>
          <path id="Path_2518" data-name="Path 2518" d="M252.4,37.724c6.194-.225,16.237,4.557,19.018,11.578s-.61,15.3-2.887,14.9h0c1.433.53,2.251,1.064,3.281-.64,1.437-2.383,4.727-11.93.509-19.454s-13.553-9.984-18.967-9.093-7.711,3.052-9.513,5.986a14.927,14.927,0,0,0-.9,1.823C243.689,41.408,246.152,37.953,252.4,37.724Z" transform="translate(-238.875 -34.841)" fill="#9e4031"/>
        </g>
        <path id="Path_2519" data-name="Path 2519" d="M256.676,51.885c-.992-.25-2.459,2.37-3.82,4.608-1.293,2.128,13.392,9.424,15.029,8.432s4.519-3.057,4.4-4.566-.839-1.87-.839-1.87Z" transform="translate(-172.2 20.316)" fill="#6e70b3"/>
        <path id="Path_2520" data-name="Path 2520" d="M306.865,62.526c-2.3-5.664-6.122-14.541-6.122-14.541S288.877,60.228,274.84,58.7s-25.517-14.388-25.517-14.388-13.379,24.224-12.5,29.023L240.8,72.5a2.085,2.085,0,0,1,.119-1.179c2.421-5.905,9.051-17.716,9.051-17.716s6.872,5.706,12.167,6.584c3.464.577,6.117,1.03,10.628,1.522,2.37.254,5.257.526,9.043.827,10.993.878,18.785-6.592,18.785-6.592l7.766,20.612a40.524,40.524,0,0,1,5.1,2.035S309.158,68.194,306.865,62.526Z" transform="translate(-224.016 -4.171)" fill="#4c4a7e"/>
        <path id="Path_2521" data-name="Path 2521" d="M249.287,50.887c.979-.555,2.569,3.777,2.472,4.68s-12.294,8.6-13.121,8.046-4.85-5.125-4.464-6.117,6.558-3.637,8.436-4.354S249.287,50.887,249.287,50.887Z" transform="translate(-232.544 16.981)" fill="#6e70b3"/>
        <path id="Path_2522" data-name="Path 2522" d="M252.856,56.493c-.377.623.623,1.683,2.243,2.849.335-1.314,3.612-5.812,6.537-5.24h0l-4.96-2.217C255.684,51.635,254.217,54.255,252.856,56.493Z" transform="translate(-172.2 20.316)" fill="#5e5f95"/>
        <path id="Path_2523" data-name="Path 2523" d="M243.2,55.568c.1-.9-1.492-5.236-2.472-4.68,0,0-2.009.644-3.938,1.293.441,1.844,3.612,4.443,4.443,5.1C242.394,56.441,243.175,55.792,243.2,55.568Z" transform="translate(-223.985 16.981)" fill="#5e5f95"/>
      </g>
      <path id="Path_2524" data-name="Path 2524" d="M254.732,67.589s4.1,4.3,3.76,16.5l10.683-3.862s-4.646-12.311-12.239-14.278l3.82-2.734-10.6-.56,2.378,8.127Z" transform="translate(195.802 90.097)" fill="#cddffd"/>
      <g id="Group_53457" data-name="Group 53457" transform="translate(334.328 188.654)">
        <path id="Path_2525" data-name="Path 2525" d="M227.158,71.123l.013,1.013c.021.6.064,1.433.187,2.48a18.659,18.659,0,0,0,2.361,7.169,13.171,13.171,0,0,0,1.2,1.67,11.235,11.235,0,0,0,1.4,1.433,13.921,13.921,0,0,0,3,1.992,17.124,17.124,0,0,0,2.433.907l.958.28-.1.56s-.365-.064-1.013-.174a16.757,16.757,0,0,1-2.662-.649,15.26,15.26,0,0,1-3.5-1.768,12.926,12.926,0,0,1-1.747-1.412,15.286,15.286,0,0,1-1.581-1.721,21.149,21.149,0,0,1-3.616-7.741c-.271-1.123-.445-2.12-.543-2.794-.085-.64-.131-1.009-.131-1.009Z" transform="translate(-223.822 -71.123)" fill="#cddffd"/>
        <g id="Group_53456" data-name="Group 53456" transform="translate(13.622 13.716)">
          <path id="Path_2526" data-name="Path 2526" d="M227.035,81.009l6.032-2.854-5.485-3.8Z" transform="translate(-227.035 -74.358)" fill="#cddffd"/>
        </g>
      </g>
      <g id="Group_53459" data-name="Group 53459" transform="translate(373.046 154.493)">
        <path id="Path_2527" data-name="Path 2527" d="M232.955,71.722s.093-.22.267-.61a17.81,17.81,0,0,1,.848-1.683,13.42,13.42,0,0,1,3.722-4.252,9.513,9.513,0,0,1,5.253-1.755,10.464,10.464,0,0,1,1.793.114l.67.093-.047.373h-.653a10.041,10.041,0,0,0-1.692.123,9.1,9.1,0,0,0-2.247.7A8.532,8.532,0,0,0,238.7,66.3a11.639,11.639,0,0,0-2.679,4.087,15.906,15.906,0,0,0-.517,1.522c-.114.411-.174.64-.174.64Z" transform="translate(-232.955 -61.911)" fill="#cddffd"/>
        <g id="Group_53458" data-name="Group 53458" transform="translate(11.617)">
          <path id="Path_2528" data-name="Path 2528" d="M235.7,66.746l3.556-1.2-2.815-2.482Z" transform="translate(-235.695 -63.065)" fill="#cddffd"/>
        </g>
      </g>
      <g id="Group_53461" data-name="Group 53461" transform="translate(389.586 207.638)">
        <path id="Path_2529" data-name="Path 2529" d="M273.387,81.776l-1.471.789c-.988.5-2.442,1.2-4.188,1.882a38.011,38.011,0,0,1-6.211,1.768,29.255,29.255,0,0,1-3.625.407,28,28,0,0,1-3.769-.055,24.241,24.241,0,0,1-3.7-.712,21.358,21.358,0,0,1-3.409-1.225,31.776,31.776,0,0,1-2.938-1.636c-.852-.649-1.692-1.2-2.391-1.81a26.5,26.5,0,0,1-3.112-3.175c-.691-.814-1.089-1.28-1.089-1.28l.288-.233s.42.428,1.166,1.174a25.892,25.892,0,0,0,3.269,2.862c.712.534,1.569,1,2.421,1.56.9.458,1.87.933,2.891,1.331a19.775,19.775,0,0,0,3.264.895,22.29,22.29,0,0,0,3.447.4A26.036,26.036,0,0,0,257.7,84.5a26.385,26.385,0,0,0,3.3-.636,34.724,34.724,0,0,0,5.6-2.069c1.594-.763,2.828-1.48,3.7-2.005.89-.572,1.407-.9,1.407-.9Z" transform="translate(-234.81 -72.709)" fill="#cddffd"/>
        <g id="Group_53460" data-name="Group 53460">
          <path id="Path_2530" data-name="Path 2530" d="M243,78.213l-6.14-2.612.808,6.624Z" transform="translate(-236.856 -75.601)" fill="#cddffd"/>
        </g>
      </g>
      <g id="Group_53462" data-name="Group 53462" transform="translate(309.392 113.489)">
        <path id="Rectangle_1676" data-name="Rectangle 1676" d="M.179,0H22.738a.18.18,0,0,1,.18.18V31a.18.18,0,0,1-.18.18H.18A.18.18,0,0,1,0,31V.179A.179.179,0,0,1,.179,0Z" transform="translate(0 19.76) rotate(-59.567)" fill="#f0c741"/>
        <rect id="Rectangle_1677" data-name="Rectangle 1677" width="0.537" height="31.181" transform="translate(2.466 15.563) rotate(-59.597)" fill="#e8a226"/>
      </g>
    </g>
  </g>
</svg>
