<svg xmlns="http://www.w3.org/2000/svg" width="140.227" height="122.033" viewBox="0 0 140.227 122.033">
  <g id="time_to_answer" transform="translate(-26.231 -265.511)">
    <g id="Group_53161" data-name="Group 53161" transform="translate(93.778 285.492)">
      <g id="Group_53152" data-name="Group 53152" transform="translate(5.67 5.261)">
        <path id="Path_2076" data-name="Path 2076" d="M105.192,285.94a19.7,19.7,0,1,0,19.7,19.705A19.7,19.7,0,0,0,105.192,285.94Zm0,30.066a10.361,10.361,0,1,1,10.362-10.36A10.361,10.361,0,0,1,105.192,316.006Z" transform="translate(-85.488 -285.94)" fill="#dae2f2"/>
      </g>
      <g id="Group_53153" data-name="Group 53153" transform="translate(20.397)">
        <path id="Path_2077" data-name="Path 2077" d="M106.963,291.523h-8.88s-1.521-7.084,0-8.6c1.57-1.568,7.485-1.727,8.88,0C108.315,284.592,106.963,291.523,106.963,291.523Z" transform="translate(-97.407 -281.682)" fill="#dae2f2"/>
      </g>
      <g id="Group_53154" data-name="Group 53154" transform="translate(19.565 40.295)">
        <path id="Path_2078" data-name="Path 2078" d="M106.29,314.294H97.409s-1.52,7.08,0,8.6c1.569,1.57,7.484,1.727,8.881,0C107.641,321.223,106.29,314.294,106.29,314.294Z" transform="translate(-96.733 -314.294)" fill="#dae2f2"/>
      </g>
      <g id="Group_53155" data-name="Group 53155" transform="translate(5.007 5.709)">
        <path id="Path_2079" data-name="Path 2079" d="M97.2,291.568l-5.433,7.024s-6.533-3.13-6.8-5.264c-.284-2.2,3.213-6.977,5.432-7.026C92.549,286.259,97.2,291.568,97.2,291.568Z" transform="translate(-84.951 -286.303)" fill="#dae2f2"/>
      </g>
      <g id="Group_53156" data-name="Group 53156" transform="translate(0 20.012)">
        <path id="Path_2080" data-name="Path 2080" d="M91.463,299.55l-1.449,8.762s-7.234.345-8.489-1.4c-1.291-1.805-.479-7.667,1.451-8.764C84.849,297.083,91.463,299.55,91.463,299.55Z" transform="translate(-80.899 -297.879)" fill="#dae2f2"/>
      </g>
      <g id="Group_53157" data-name="Group 53157" transform="translate(40.467 20.614)">
        <path id="Path_2081" data-name="Path 2081" d="M113.65,307.7l.362-8.874s7.141-1.231,8.6.351c1.5,1.632,1.421,7.551-.362,8.874C120.521,309.33,113.65,307.7,113.65,307.7Z" transform="translate(-113.65 -298.366)" fill="#dae2f2"/>
      </g>
      <g id="Group_53158" data-name="Group 53158" transform="translate(33.313 5.432)">
        <path id="Path_2082" data-name="Path 2082" d="M107.86,291.341l5.432,7.024s6.534-3.13,6.807-5.261c.28-2.2-3.214-6.977-5.433-7.026C112.516,286.032,107.86,291.341,107.86,291.341Z" transform="translate(-107.86 -286.079)" fill="#dae2f2"/>
      </g>
      <g id="Group_53159" data-name="Group 53159" transform="translate(3.686 32.649)">
        <path id="Path_2083" data-name="Path 2083" d="M96.134,315.132,90.7,308.106s-6.534,3.129-6.8,5.262c-.284,2.2,3.211,6.979,5.43,7.026C91.478,320.441,96.134,315.132,96.134,315.132Z" transform="translate(-83.882 -308.106)" fill="#dae2f2"/>
      </g>
      <g id="Group_53160" data-name="Group 53160" transform="translate(33.657 32.926)">
        <path id="Path_2084" data-name="Path 2084" d="M108.138,315.356l5.432-7.026s6.534,3.13,6.807,5.264c.28,2.2-3.214,6.977-5.434,7.024C112.792,320.665,108.138,315.356,108.138,315.356Z" transform="translate(-108.138 -308.33)" fill="#dae2f2"/>
      </g>
    </g>
    <g id="Group_53171" data-name="Group 53171" transform="translate(26.231 306.929)">
      <g id="Group_53162" data-name="Group 53162" transform="translate(7.51 5.275)">
        <path id="Path_2085" data-name="Path 2085" d="M68.309,305.43A25.755,25.755,0,1,0,81.7,339.3,25.755,25.755,0,0,0,68.309,305.43ZM52.688,341.492A13.545,13.545,0,1,1,70.5,334.448,13.545,13.545,0,0,1,52.688,341.492Z" transform="translate(-32.308 -303.3)" fill="#eaf0fe"/>
      </g>
      <g id="Group_53163" data-name="Group 53163" transform="translate(35.974 0.116)">
        <path id="Path_2086" data-name="Path 2086" d="M66,314.286l-10.651-4.616s1.856-9.283,4.47-10.316c2.7-1.069,9.875,1.818,10.65,4.612C71.216,306.677,66,314.286,66,314.286Z" transform="translate(-55.345 -299.126)" fill="#eaf0fe"/>
      </g>
      <g id="Group_53164" data-name="Group 53164" transform="translate(14.547 46.754)">
        <path id="Path_2087" data-name="Path 2087" d="M53.256,341.486,42.6,336.871s-5.5,7.7-4.472,10.318c1.07,2.7,8.081,5.962,10.652,4.616C51.277,350.5,53.256,341.486,53.256,341.486Z" transform="translate(-38.004 -336.871)" fill="#eaf0fe"/>
      </g>
      <g id="Group_53165" data-name="Group 53165" transform="translate(15.149)">
        <path id="Path_2088" data-name="Path 2088" d="M54.153,309.069l-10.166,5.6s-6.21-7.148-5.428-9.849c.807-2.789,7.48-6.7,10.166-5.6C51.326,300.283,54.153,309.069,54.153,309.069Z" transform="translate(-38.491 -299.032)" fill="#eaf0fe"/>
      </g>
      <g id="Group_53166" data-name="Group 53166" transform="translate(1.412 13.299)">
        <path id="Path_2089" data-name="Path 2089" d="M43.179,315.9l-6.294,9.755s-8.857-3.344-9.449-6.1c-.614-2.836,3.407-9.445,6.292-9.754C36.521,309.508,43.179,315.9,43.179,315.9Z" transform="translate(-27.373 -309.795)" fill="#eaf0fe"/>
      </g>
      <g id="Group_53167" data-name="Group 53167" transform="translate(48.788 34.398)">
        <path id="Path_2090" data-name="Path 2090" d="M65.716,337.324l5.044-10.453s9.2,2.234,10.128,4.888c.956,2.739-2.219,9.793-5.045,10.453C73.1,342.853,65.716,337.324,65.716,337.324Z" transform="translate(-65.716 -326.871)" fill="#eaf0fe"/>
      </g>
      <g id="Group_53168" data-name="Group 53168" transform="translate(50.208 15.054)">
        <path id="Path_2091" data-name="Path 2091" d="M66.865,314.209l2.867,11.248s9.46-.356,10.9-2.775c1.483-2.493-.229-10.037-2.865-11.248C75.209,310.259,66.865,314.209,66.865,314.209Z" transform="translate(-66.865 -311.215)" fill="#eaf0fe"/>
      </g>
      <g id="Group_53169" data-name="Group 53169" transform="translate(0 32.528)">
        <path id="Path_2092" data-name="Path 2092" d="M40.542,336.6l-2.865-11.248s-9.461.357-10.9,2.775c-1.483,2.492.226,10.038,2.864,11.248C32.2,340.551,40.542,336.6,40.542,336.6Z" transform="translate(-26.231 -325.357)" fill="#eaf0fe"/>
      </g>
      <g id="Group_53170" data-name="Group 53170" transform="translate(35.418 47.714)">
        <path id="Path_2093" data-name="Path 2093" d="M54.9,343.249l10.166-5.6s6.209,7.147,5.428,9.848c-.808,2.789-7.48,6.7-10.166,5.6C57.721,352.035,54.9,343.249,54.9,343.249Z" transform="translate(-54.895 -337.648)" fill="#eaf0fe"/>
      </g>
    </g>
    <g id="Group_53181" data-name="Group 53181" transform="translate(55.005 265.511)">
      <g id="Group_53172" data-name="Group 53172" transform="translate(4.718 3.314)">
        <path id="Path_2094" data-name="Path 2094" d="M75.958,269.53a16.183,16.183,0,1,0,8.414,21.286A16.184,16.184,0,0,0,75.958,269.53Zm-9.817,22.661a8.51,8.51,0,1,1,11.192-4.427A8.512,8.512,0,0,1,66.141,292.191Z" transform="translate(-53.337 -268.193)" fill="#efe817"/>
      </g>
      <g id="Group_53173" data-name="Group 53173" transform="translate(22.602 0.074)">
        <path id="Path_2095" data-name="Path 2095" d="M74.505,275.1l-6.694-2.9s1.166-5.835,2.81-6.483c1.7-.671,6.2,1.142,6.693,2.9C77.786,270.315,74.505,275.1,74.505,275.1Z" transform="translate(-67.811 -265.57)" fill="#efe817"/>
      </g>
      <g id="Group_53174" data-name="Group 53174" transform="translate(9.141 29.377)">
        <path id="Path_2096" data-name="Path 2096" d="M66.5,292.187l-6.693-2.9s-3.457,4.841-2.809,6.483c.67,1.7,5.076,3.746,6.692,2.9C65.256,297.852,66.5,292.187,66.5,292.187Z" transform="translate(-56.916 -289.286)" fill="#efe817"/>
      </g>
      <g id="Group_53175" data-name="Group 53175" transform="translate(9.517)">
        <path id="Path_2097" data-name="Path 2097" d="M67.062,271.819l-6.387,3.521s-3.9-4.493-3.411-6.19c.508-1.752,4.7-4.21,6.388-3.52C65.288,266.3,67.062,271.819,67.062,271.819Z" transform="translate(-57.221 -265.511)" fill="#efe817"/>
      </g>
      <g id="Group_53176" data-name="Group 53176" transform="translate(0.887 8.357)">
        <path id="Path_2098" data-name="Path 2098" d="M60.166,276.109l-3.954,6.13s-5.565-2.1-5.937-3.83c-.384-1.782,2.14-5.933,3.955-6.129C55.985,272.094,60.166,276.109,60.166,276.109Z" transform="translate(-50.236 -272.274)" fill="#efe817"/>
      </g>
      <g id="Group_53177" data-name="Group 53177" transform="translate(30.653 21.613)">
        <path id="Path_2099" data-name="Path 2099" d="M74.327,289.571,77.5,283s5.781,1.4,6.363,3.072c.6,1.721-1.395,6.153-3.171,6.57C78.972,293.046,74.327,289.571,74.327,289.571Z" transform="translate(-74.327 -283.003)" fill="#efe817"/>
      </g>
      <g id="Group_53178" data-name="Group 53178" transform="translate(31.548 9.46)">
        <path id="Path_2100" data-name="Path 2100" d="M75.051,275.048l1.8,7.069s5.946-.225,6.848-1.745c.932-1.567-.143-6.306-1.8-7.069C80.291,272.568,75.051,275.048,75.051,275.048Z" transform="translate(-75.051 -273.167)" fill="#efe817"/>
      </g>
      <g id="Group_53179" data-name="Group 53179" transform="translate(0 20.438)">
        <path id="Path_2101" data-name="Path 2101" d="M58.509,289.12l-1.8-7.068s-5.948.224-6.848,1.743c-.932,1.567.142,6.308,1.8,7.069C53.269,291.6,58.509,289.12,58.509,289.12Z" transform="translate(-49.519 -282.052)" fill="#efe817"/>
      </g>
      <g id="Group_53180" data-name="Group 53180" transform="translate(22.252 29.981)">
        <path id="Path_2102" data-name="Path 2102" d="M67.528,293.294l6.388-3.519s3.9,4.489,3.413,6.185c-.508,1.756-4.7,4.212-6.388,3.523C69.3,298.816,67.528,293.294,67.528,293.294Z" transform="translate(-67.528 -289.775)" fill="#efe817"/>
      </g>
    </g>
    <g id="Group_53182" data-name="Group 53182" transform="translate(32.533 380.796)">
      <path id="Path_2103" data-name="Path 2103" d="M165.256,362.188c0,1.863-29.982,3.373-66.964,3.373s-66.961-1.51-66.961-3.373,29.981-3.374,66.961-3.374S165.256,360.324,165.256,362.188Z" transform="translate(-31.331 -358.814)" fill="#eaf0fe"/>
    </g>
    <g id="Group_53199" data-name="Group 53199" transform="translate(42.897 296.185)">
      <g id="Group_53194" data-name="Group 53194" transform="translate(11.881)">
        <path id="Path_2110" data-name="Path 2110" d="M95.062,298.366a39.318,39.318,0,0,1,39.275,37.479h6.021a45.511,45.511,0,0,0-91.023,0h6.451A39.32,39.32,0,0,1,95.062,298.366Z" transform="translate(-49.335 -290.336)" fill="#4e49a3"/>
      </g>
      <g id="Group_53195" data-name="Group 53195" transform="translate(0 35.439)">
        <path id="Path_2111" data-name="Path 2111" d="M39.719,340.842c0,12.055,10.637,21.826,23.761,21.826v-43.65C50.356,319.018,39.719,328.789,39.719,340.842Z" transform="translate(-39.719 -319.018)" fill="#5f82d6"/>
      </g>
      <g id="Group_53196" data-name="Group 53196" transform="translate(91.024 33.543)">
        <path id="Path_2112" data-name="Path 2112" d="M137.146,339.309c0,12.053-10.637,21.827-23.759,21.827V317.483C126.509,317.483,137.146,327.257,137.146,339.309Z" transform="translate(-113.387 -317.483)" fill="#5f82d6"/>
      </g>
      <g id="Group_53197" data-name="Group 53197" transform="translate(22.925 33.299)">
        <path id="Path_2113" data-name="Path 2113" d="M61.389,364.318a1.557,1.557,0,0,1-1.558,1.556h0a1.557,1.557,0,0,1-1.558-1.556V318.844a1.559,1.559,0,0,1,1.558-1.558h0a1.559,1.559,0,0,1,1.558,1.558Z" transform="translate(-58.273 -317.286)" fill="#efe817"/>
      </g>
      <g id="Group_53198" data-name="Group 53198" transform="translate(88.764 31.073)">
        <path id="Path_2114" data-name="Path 2114" d="M114.673,362.518a1.557,1.557,0,0,1-1.558,1.556h0a1.556,1.556,0,0,1-1.557-1.556V317.043a1.56,1.56,0,0,1,1.557-1.559h0a1.56,1.56,0,0,1,1.558,1.559Z" transform="translate(-111.558 -315.484)" fill="#efe817"/>
      </g>
    </g>
    <g id="Group_53243" data-name="Group 53243" transform="translate(63.46 335.446)">
      <g id="Group_53201" data-name="Group 53201" transform="translate(20.391 20.13)">
        <g id="Group_53200" data-name="Group 53200">
          <path id="Path_2115" data-name="Path 2115" d="M72.864,355.321s23.83-17.167,25.1-16.915,9.378,22.015,9.378,22.015h-4.814l-6.718-11.872L85.542,360.42Z" transform="translate(-72.864 -338.403)" fill="#a84e67"/>
        </g>
      </g>
      <g id="Group_53203" data-name="Group 53203" transform="translate(8.954 37.035)">
        <g id="Group_53202" data-name="Group 53202">
          <path id="Path_2116" data-name="Path 2116" d="M63.64,353.436s-1.013,8.112,8.366,7.608l28.39-1.131,23.578,2.4v-4.433l-25.982-4.439S72.77,350.4,63.64,353.436Z" transform="translate(-63.608 -352.085)" fill="#c86277"/>
        </g>
      </g>
      <g id="Group_53205" data-name="Group 53205" transform="translate(69.32 37.972)">
        <g id="Group_53204" data-name="Group 53204">
          <path id="Path_2117" data-name="Path 2117" d="M112.464,357.7s1.521-.193,2.281-2.949,2.282-2.311,2.029,0,.505,8.145-1.266,7.383a3.493,3.493,0,0,0-3.043,0Z" transform="translate(-112.464 -352.843)" fill="#2e3b57"/>
        </g>
      </g>
      <g id="Group_53242" data-name="Group 53242">
        <g id="Group_53208" data-name="Group 53208" transform="translate(0.011 6.426)">
          <g id="Group_53207" data-name="Group 53207">
            <g id="Group_53206" data-name="Group 53206">
              <path id="Path_2118" data-name="Path 2118" d="M82.044,358.319l-18.388,2L62.5,346.73,56.37,334.175l7.473-4.378,12.617-2.484,3.034,18.469Z" transform="translate(-56.37 -327.313)" fill="#60d3be"/>
            </g>
          </g>
        </g>
        <g id="Group_53212" data-name="Group 53212" transform="translate(22.406 29.066)">
          <g id="Group_53211" data-name="Group 53211">
            <g id="Group_53210" data-name="Group 53210">
              <g id="Group_53209" data-name="Group 53209">
                <path id="Path_2119" data-name="Path 2119" d="M74.543,346.8s2.108.4,2.44.035c.28-.308.754-1.829-2.488-.9Z" transform="translate(-74.495 -345.636)" fill="#ffc190"/>
              </g>
            </g>
          </g>
        </g>
        <g id="Group_53216" data-name="Group 53216" transform="translate(0 11.907)">
          <g id="Group_53215" data-name="Group 53215">
            <g id="Group_53214" data-name="Group 53214">
              <g id="Group_53213" data-name="Group 53213">
                <path id="Path_2120" data-name="Path 2120" d="M58.568,331.748l-2.207,1.326,6.172,16.132,16.717,1.121-.232-1.166-13.293-3.289Z" transform="translate(-56.361 -331.748)" fill="#017b8a"/>
              </g>
            </g>
          </g>
        </g>
        <g id="Group_53233" data-name="Group 53233" transform="translate(6.898)">
          <g id="Group_53220" data-name="Group 53220" transform="translate(1.25 5.01)">
            <g id="Group_53219" data-name="Group 53219">
              <g id="Group_53218" data-name="Group 53218">
                <g id="Group_53217" data-name="Group 53217">
                  <path id="Path_2121" data-name="Path 2121" d="M65.555,326.166l1.242,3.46s-4.1,3.513-3.828,1.708a41.21,41.21,0,0,0,.221-4.965Z" transform="translate(-62.955 -326.166)" fill="#ffc190"/>
                </g>
              </g>
            </g>
          </g>
          <g id="Group_53224" data-name="Group 53224" transform="translate(0 0.247)">
            <g id="Group_53223" data-name="Group 53223">
              <g id="Group_53222" data-name="Group 53222">
                <g id="Group_53221" data-name="Group 53221">
                  <path id="Path_2122" data-name="Path 2122" d="M65.444,323c.351.7,1.045,2.06.717,3.049s-.794,2.748-1.852,3.25a1.521,1.521,0,0,1-1.993-.838c-.337-.68-.9-4.608.764-5.72C64.344,321.9,65.18,322.464,65.444,323Z" transform="translate(-61.944 -322.311)" fill="#ffc190"/>
                </g>
              </g>
            </g>
          </g>
          <g id="Group_53228" data-name="Group 53228" transform="translate(0.496)">
            <g id="Group_53227" data-name="Group 53227">
              <g id="Group_53226" data-name="Group 53226">
                <g id="Group_53225" data-name="Group 53225">
                  <path id="Path_2123" data-name="Path 2123" d="M62.345,323.57a2.185,2.185,0,0,0,2.023.294c1.187-.4,1.138.811,1.147.94s-.051,1.863.369,1.852.807-2.185.073-3.565A1.974,1.974,0,0,0,62.345,323.57Z" transform="translate(-62.345 -322.111)" fill="#2e3b57"/>
                </g>
              </g>
            </g>
          </g>
          <g id="Group_53232" data-name="Group 53232" transform="translate(0.028 4.727)">
            <g id="Group_53231" data-name="Group 53231">
              <g id="Group_53230" data-name="Group 53230">
                <g id="Group_53229" data-name="Group 53229">
                  <path id="Path_2124" data-name="Path 2124" d="M65.748,326.4a3.635,3.635,0,0,1-2.407,1.244c-.811-.026-1.339-1.391-1.363-1.69s-.159,2.691,1.612,2.645S65.748,326.4,65.748,326.4Z" transform="translate(-61.967 -325.937)" fill="#2e3b57"/>
                </g>
              </g>
            </g>
          </g>
        </g>
        <g id="Group_53237" data-name="Group 53237" transform="translate(6.53 6.774)">
          <g id="Group_53236" data-name="Group 53236">
            <g id="Group_53235" data-name="Group 53235">
              <g id="Group_53234" data-name="Group 53234">
                <path id="Path_2125" data-name="Path 2125" d="M64.787,330.352s-1.342-2.694-2.034-2.755c-.581-.053-2.686.706,1.108,3.541Z" transform="translate(-61.646 -327.594)" fill="#ffc190"/>
              </g>
            </g>
          </g>
        </g>
        <g id="Group_53241" data-name="Group 53241" transform="translate(7.986 6.347)">
          <g id="Group_53240" data-name="Group 53240">
            <g id="Group_53239" data-name="Group 53239">
              <g id="Group_53238" data-name="Group 53238">
                <path id="Path_2126" data-name="Path 2126" d="M78.328,333.932l-2.983-6.684-1.3.363-.456,12.415-9.155-10.441L62.824,330.8l12.837,17.1Z" transform="translate(-62.824 -327.248)" fill="#017b8a"/>
              </g>
            </g>
          </g>
        </g>
      </g>
    </g>
  </g>
</svg>
