<svg xmlns="http://www.w3.org/2000/svg" width="30" height="24.553" viewBox="0 0 30 24.553">
  <path id="twitter" d="M11.192,24.554a25.741,25.741,0,0,1-3.976-.316,18.659,18.659,0,0,1-5.439-1.979L0,21.287l1.924-.633c2.1-.692,3.383-1.121,4.967-1.793a6.608,6.608,0,0,1-3.4-3.936l-.448-1.359.367.056a6.676,6.676,0,0,1-.836-1.031A6.329,6.329,0,0,1,1.5,8.828l.084-1.186.71.275a6.64,6.64,0,0,1-.643-1.8,6.863,6.863,0,0,1,.731-4.62L3.005.358l.827.994A15.228,15.228,0,0,0,13.7,6.906a5.9,5.9,0,0,1,.358-3.135,5.869,5.869,0,0,1,2.386-2.736A7.167,7.167,0,0,1,20.6.014,6.644,6.644,0,0,1,24.685,1.7a13.709,13.709,0,0,0,1.495-.5c.328-.123.7-.263,1.165-.424L29.059.185,27.941,3.377c.074-.006.15-.011.229-.015L30,3.279,28.919,4.758c-.062.085-.078.109-.1.142-.087.131-.2.295-1.68,2.277A2.8,2.8,0,0,0,26.616,9a17.224,17.224,0,0,1-.94,6.928A12.259,12.259,0,0,1,22.385,20.8a14.535,14.535,0,0,1-6.89,3.331,21.209,21.209,0,0,1-4.3.422Zm0,0" transform="translate(0 0)" fill="#909090"/>
</svg>
