<svg id="user" xmlns="http://www.w3.org/2000/svg" width="7.891" height="9.458" viewBox="0 0 7.891 9.458">
  <path id="Path_1922" data-name="Path 1922" d="M89.31,4.556a2.2,2.2,0,0,0,1.611-.667,2.2,2.2,0,0,0,.667-1.611A2.2,2.2,0,0,0,90.921.667a2.278,2.278,0,0,0-3.221,0,2.2,2.2,0,0,0-.667,1.611A2.2,2.2,0,0,0,87.7,3.889,2.205,2.205,0,0,0,89.31,4.556Zm-1.219-3.5a1.723,1.723,0,0,1,2.438,0,1.647,1.647,0,0,1,.505,1.219A1.647,1.647,0,0,1,90.529,3.5a1.723,1.723,0,0,1-2.438,0,1.647,1.647,0,0,1-.505-1.219,1.647,1.647,0,0,1,.505-1.219Zm0,0" transform="translate(-85.424 0)" fill="#b8b8b8"/>
  <path id="Path_1923" data-name="Path 1923" d="M7.872,250.021a5.626,5.626,0,0,0-.077-.6,4.709,4.709,0,0,0-.147-.6,2.968,2.968,0,0,0-.247-.56,2.113,2.113,0,0,0-.372-.485,1.643,1.643,0,0,0-.535-.336,1.85,1.85,0,0,0-.683-.124.693.693,0,0,0-.37.157l-.386.249a2.21,2.21,0,0,1-.5.22,1.938,1.938,0,0,1-1.221,0,2.2,2.2,0,0,1-.5-.22l-.386-.249a.693.693,0,0,0-.37-.157,1.847,1.847,0,0,0-.683.124,1.641,1.641,0,0,0-.535.336,2.113,2.113,0,0,0-.372.485,2.973,2.973,0,0,0-.247.56,4.72,4.72,0,0,0-.147.6,5.588,5.588,0,0,0-.077.6c-.013.181-.019.369-.019.559a1.571,1.571,0,0,0,.466,1.188,1.679,1.679,0,0,0,1.2.438H6.222a1.679,1.679,0,0,0,1.2-.438,1.57,1.57,0,0,0,.467-1.188c0-.191-.006-.379-.019-.559Zm-.83,1.345a1.131,1.131,0,0,1-.82.286H1.668a1.131,1.131,0,0,1-.82-.286,1.026,1.026,0,0,1-.294-.787c0-.177.006-.352.018-.52a5.041,5.041,0,0,1,.069-.538,4.163,4.163,0,0,1,.129-.53,2.422,2.422,0,0,1,.2-.456,1.566,1.566,0,0,1,.274-.359,1.089,1.089,0,0,1,.356-.221,1.275,1.275,0,0,1,.437-.084c.019.01.054.03.11.067l.39.252a2.747,2.747,0,0,0,.626.28,2.492,2.492,0,0,0,1.562,0,2.75,2.75,0,0,0,.627-.28l.39-.252c.056-.036.091-.056.11-.067a1.276,1.276,0,0,1,.437.084,1.091,1.091,0,0,1,.356.221,1.562,1.562,0,0,1,.274.359,2.413,2.413,0,0,1,.2.456,4.154,4.154,0,0,1,.129.53,5.084,5.084,0,0,1,.069.538h0c.012.167.018.342.018.52a1.026,1.026,0,0,1-.294.787Zm0,0" transform="translate(0 -242.748)" fill="#b8b8b8"/>
</svg>
