<svg xmlns="http://www.w3.org/2000/svg" width="96.276" height="95.316" viewBox="0 0 96.276 95.316">
  <g id="what_is_service" data-name="what_is service" transform="translate(-42.113 -32.639)">
    <g id="Group_52968" data-name="Group 52968" transform="translate(42.113 32.639)">
      <g id="Group_52961" data-name="Group 52961">
        <g id="Group_52959" data-name="Group 52959" transform="translate(1.082 1.082)">
          <path id="Path_1968" data-name="Path 1968" d="M135.922,79.866A46.576,46.576,0,1,1,89.345,33.295,46.576,46.576,0,0,1,135.922,79.866Z" transform="translate(-42.769 -33.295)" fill="#fff"/>
        </g>
        <g id="Group_52960" data-name="Group 52960">
          <path id="Path_1969" data-name="Path 1969" d="M89.77,127.955a47.658,47.658,0,1,1,47.659-47.664A47.715,47.715,0,0,1,89.77,127.955Zm0-93.155a45.5,45.5,0,1,0,45.5,45.491A45.544,45.544,0,0,0,89.77,34.8Z" transform="translate(-42.113 -32.639)" fill="#f6b900"/>
        </g>
      </g>
      <g id="Group_52962" data-name="Group 52962" transform="translate(9.615 9.612)">
        <path id="Path_1970" data-name="Path 1970" d="M124.03,76.51A38.042,38.042,0,1,1,85.987,38.469,38.041,38.041,0,0,1,124.03,76.51Z" transform="translate(-47.945 -38.469)" fill="#efe817"/>
      </g>
      <g id="Group_52963" data-name="Group 52963" transform="translate(16.941 16.94)">
        <path id="Path_1971" data-name="Path 1971" d="M113.822,73.626A30.717,30.717,0,1,1,83.1,42.914,30.717,30.717,0,0,1,113.822,73.626Z" transform="translate(-52.389 -42.914)" fill="#f6b900"/>
      </g>
      <g id="Group_52964" data-name="Group 52964" transform="translate(24.124 24.121)">
        <path id="Path_1972" data-name="Path 1972" d="M103.82,70.8A23.537,23.537,0,1,1,80.279,47.27,23.539,23.539,0,0,1,103.82,70.8Z" transform="translate(-56.746 -47.27)" fill="#efe817"/>
      </g>
      <g id="Group_52965" data-name="Group 52965" transform="translate(31.591 31.59)">
        <path id="Path_1973" data-name="Path 1973" d="M93.41,67.863A16.068,16.068,0,1,1,77.341,51.8,16.066,16.066,0,0,1,93.41,67.863Z" transform="translate(-61.275 -51.8)" fill="#eaeaea"/>
      </g>
      <g id="Group_52966" data-name="Group 52966" transform="translate(38.543 38.543)">
        <path id="Path_1974" data-name="Path 1974" d="M83.723,65.127a9.115,9.115,0,1,1-9.117-9.109A9.109,9.109,0,0,1,83.723,65.127Z" transform="translate(-65.492 -56.018)" fill="#efe817"/>
      </g>
      <g id="Group_52967" data-name="Group 52967" transform="translate(46.611 17.088)">
        <path id="Path_1975" data-name="Path 1975" d="M120.05,54.155l-5.183-2.636a1.64,1.64,0,0,0-1.667-2.826L113.711,43l-9.105,10.635L70.8,73.095a.82.82,0,0,0,.791,1.436l34.163-18.158Z" transform="translate(-70.386 -43.004)"/>
      </g>
    </g>
  </g>
</svg>
